M48
; DRILL file {KiCad (6.0.7)} date Sat Sep 24 03:59:20 2022
; FORMAT={-:-/ absolute / metric / decimal}
; #@! TF.CreationDate,2022-09-24T03:59:20+09:00
; #@! TF.GenerationSoftware,Kicad,Pcbnew,(6.0.7)
; #@! TF.FileFunction,Plated,1,2,PTH
FMAT,2
METRIC
; #@! TA.AperFunction,Plated,PTH,ViaDrill
T1C0.400
; #@! TA.AperFunction,Plated,PTH,ComponentDrill
T2C0.500
; #@! TA.AperFunction,Plated,PTH,ComponentDrill
T3C0.600
; #@! TA.AperFunction,Plated,PTH,ComponentDrill
T4C0.700
; #@! TA.AperFunction,Plated,PTH,ComponentDrill
T5C1.000
%
G90
G05
T1
X107.68Y-100.517
X108.082Y-110.141
X111.0Y-82.942
X111.114Y-115.981
X111.271Y-95.889
X112.434Y-108.536
X112.563Y-111.163
X113.498Y-90.79
X113.7Y-95.1
X114.025Y-82.275
X114.05Y-112.025
X114.483Y-86.4
X114.85Y-94.125
X115.85Y-76.825
X115.953Y-114.652
X116.025Y-90.7
X118.475Y-77.85
X118.5Y-107.65
X119.101Y-83.21
X119.78Y-90.894
X120.151Y-103.481
X120.475Y-82.1
X120.65Y-75.525
X120.916Y-102.325
X121.707Y-92.873
X121.925Y-80.95
X122.193Y-102.975
X122.308Y-104.919
X122.905Y-90.243
X123.222Y-93.696
X123.222Y-94.704
X123.489Y-99.29
X123.613Y-85.573
X124.149Y-99.997
X124.242Y-83.03
X124.266Y-101.334
X124.354Y-109.278
X124.461Y-88.194
X124.93Y-86.889
X125.658Y-87.544
X125.68Y-95.092
X126.129Y-84.703
X126.437Y-92.417
X126.491Y-100.886
X126.565Y-93.375
X126.677Y-116.226
X126.775Y-97.08
X126.969Y-106.96
X127.31Y-94.587
X127.356Y-85.495
X127.846Y-98.16
X128.23Y-95.815
X128.462Y-104.645
X128.565Y-94.275
X128.716Y-84.39
X129.019Y-85.341
X130.016Y-87.466
X130.028Y-85.341
X130.04Y-96.465
X130.118Y-94.391
X130.54Y-81.872
X131.001Y-101.476
X131.037Y-92.27
X131.33Y-91.281
X131.504Y-97.978
X132.299Y-91.316
X132.46Y-98.04
X133.064Y-94.651
X133.087Y-87.307
X134.304Y-100.7
X134.795Y-93.373
X134.814Y-83.425
X135.356Y-85.906
X135.994Y-99.619
X136.125Y-87.9
X136.466Y-85.299
X136.593Y-100.499
X137.076Y-87.812
X137.157Y-102.138
X137.685Y-99.044
X138.173Y-89.633
X139.45Y-93.4
X139.475Y-95.9
X139.95Y-114.925
X140.156Y-82.965
X140.357Y-100.724
X142.38Y-98.047
X143.35Y-111.15
X143.45Y-114.825
X143.55Y-107.825
X143.691Y-90.605
X145.623Y-97.247
X146.077Y-85.299
X146.39Y-104.957
X146.838Y-101.577
X147.325Y-114.925
X147.744Y-94.659
X148.6Y-74.675
X149.389Y-95.462
X149.4Y-85.4
X149.76Y-106.762
X150.969Y-102.877
X150.981Y-91.771
X151.075Y-74.625
X152.176Y-112.358
X152.939Y-99.338
X153.5Y-90.075
X154.471Y-107.127
X154.875Y-94.75
X155.125Y-89.7
X155.184Y-109.35
X155.6Y-93.325
X156.1Y-88.175
X159.344Y-88.952
X159.925Y-92.975
X159.925Y-95.3
X159.925Y-97.7
X162.68Y-105.847
X163.459Y-85.645
X164.2Y-99.35
X164.684Y-86.296
X166.797Y-84.036
X169.687Y-115.691
X170.775Y-81.45
X171.075Y-64.454
X171.225Y-72.37
X171.569Y-109.951
X176.0Y-81.85
X176.125Y-78.55
X176.75Y-107.075
X177.85Y-109.55
X179.75Y-73.175
X181.1Y-61.625
X182.025Y-102.125
X182.3Y-89.725
X182.3Y-94.025
X182.5Y-63.925
X183.342Y-96.467
X183.894Y-125.52
X184.012Y-74.625
X184.83Y-126.33
X185.238Y-69.835
X185.256Y-101.904
X185.856Y-108.377
X186.192Y-117.643
X187.55Y-69.775
X188.955Y-98.616
X189.65Y-66.65
X190.3Y-95.25
X191.4Y-68.3
X191.844Y-86.289
X192.573Y-88.7
X192.95Y-69.75
X193.125Y-74.075
X193.665Y-85.731
X194.68Y-101.9
X196.157Y-98.442
X196.22Y-90.82
X196.288Y-84.4
X196.45Y-117.275
X197.175Y-104.475
X197.266Y-101.091
X199.044Y-98.807
X200.583Y-100.6
X201.091Y-98.806
X202.144Y-102.93
X203.13Y-103.277
X205.25Y-93.575
T2
X131.45Y-78.1
X131.45Y-79.8
X131.45Y-81.5
X132.55Y-78.1
X132.55Y-79.8
X132.55Y-81.5
X133.7Y-78.1
X133.7Y-79.8
X133.7Y-81.5
X134.85Y-78.1
X134.85Y-81.5
X135.95Y-78.1
X135.95Y-79.8
X135.95Y-81.5
T3
X117.25Y-84.975
X117.25Y-85.975
X117.25Y-86.975
X117.25Y-101.575
X117.25Y-102.575
X117.25Y-103.575
T4
X113.25Y-75.93
X113.25Y-77.2
X113.275Y-71.855
X113.275Y-73.125
X193.6Y-99.3
X193.6Y-100.57
T5
X109.075Y-72.705
X109.075Y-75.245
X109.075Y-77.785
X109.075Y-80.325
X109.1Y-85.3
X109.1Y-87.84
X109.1Y-90.38
X109.1Y-98.2
X109.1Y-100.74
X109.1Y-103.28
X109.125Y-62.695
X109.125Y-65.235
X109.125Y-67.775
X111.64Y-85.3
X111.64Y-87.84
X111.64Y-90.38
X111.64Y-98.2
X111.64Y-100.74
X111.64Y-103.28
X171.679Y-67.07
X171.7Y-121.8
X171.9Y-69.6
X171.921Y-119.27
X174.979Y-66.77
X175.0Y-122.1
X175.2Y-69.3
X175.221Y-119.57
X187.104Y-85.104
X187.3Y-103.7
X188.9Y-86.9
X189.096Y-101.904
X189.504Y-82.804
X189.7Y-106.1
X191.3Y-84.6
X191.496Y-104.304
T0
M30
