G04 #@! TF.GenerationSoftware,KiCad,Pcbnew,(6.0.7)*
G04 #@! TF.CreationDate,2022-09-24T03:58:47+09:00*
G04 #@! TF.ProjectId,Quatro,51756174-726f-42e6-9b69-6361645f7063,0*
G04 #@! TF.SameCoordinates,Original*
G04 #@! TF.FileFunction,Soldermask,Top*
G04 #@! TF.FilePolarity,Negative*
%FSLAX46Y46*%
G04 Gerber Fmt 4.6, Leading zero omitted, Abs format (unit mm)*
G04 Created by KiCad (PCBNEW (6.0.7)) date 2022-09-24 03:58:47*
%MOMM*%
%LPD*%
G01*
G04 APERTURE LIST*
G04 Aperture macros list*
%AMRoundRect*
0 Rectangle with rounded corners*
0 $1 Rounding radius*
0 $2 $3 $4 $5 $6 $7 $8 $9 X,Y pos of 4 corners*
0 Add a 4 corners polygon primitive as box body*
4,1,4,$2,$3,$4,$5,$6,$7,$8,$9,$2,$3,0*
0 Add four circle primitives for the rounded corners*
1,1,$1+$1,$2,$3*
1,1,$1+$1,$4,$5*
1,1,$1+$1,$6,$7*
1,1,$1+$1,$8,$9*
0 Add four rect primitives between the rounded corners*
20,1,$1+$1,$2,$3,$4,$5,0*
20,1,$1+$1,$4,$5,$6,$7,0*
20,1,$1+$1,$6,$7,$8,$9,0*
20,1,$1+$1,$8,$9,$2,$3,0*%
%AMHorizOval*
0 Thick line with rounded ends*
0 $1 width*
0 $2 $3 position (X,Y) of the first rounded end (center of the circle)*
0 $4 $5 position (X,Y) of the second rounded end (center of the circle)*
0 Add line between two ends*
20,1,$1,$2,$3,$4,$5,0*
0 Add two circle primitives to create the rounded ends*
1,1,$1,$2,$3*
1,1,$1,$4,$5*%
%AMRotRect*
0 Rectangle, with rotation*
0 The origin of the aperture is its center*
0 $1 length*
0 $2 width*
0 $3 Rotation angle, in degrees counterclockwise*
0 Add horizontal line*
21,1,$1,$2,0,0,$3*%
%AMFreePoly0*
4,1,14,0.088284,0.363284,0.100000,0.335000,0.100000,-0.335000,0.088284,-0.363284,0.060000,-0.375000,0.036569,-0.375000,0.008285,-0.363284,-0.088284,-0.266715,-0.100000,-0.238431,-0.100000,0.335000,-0.088284,0.363284,-0.060000,0.375000,0.060000,0.375000,0.088284,0.363284,0.088284,0.363284,$1*%
%AMFreePoly1*
4,1,14,0.088284,0.363284,0.100000,0.335000,0.100000,-0.238431,0.088284,-0.266715,-0.008285,-0.363284,-0.036569,-0.375000,-0.060000,-0.375000,-0.088284,-0.363284,-0.100000,-0.335000,-0.100000,0.335000,-0.088284,0.363284,-0.060000,0.375000,0.060000,0.375000,0.088284,0.363284,0.088284,0.363284,$1*%
%AMFreePoly2*
4,1,14,0.363284,0.088284,0.375000,0.060000,0.375000,-0.060000,0.363284,-0.088284,0.335000,-0.100000,-0.335000,-0.100000,-0.363284,-0.088284,-0.375000,-0.060000,-0.375000,-0.036569,-0.363284,-0.008285,-0.266715,0.088284,-0.238431,0.100000,0.335000,0.100000,0.363284,0.088284,0.363284,0.088284,$1*%
%AMFreePoly3*
4,1,14,0.363284,0.088284,0.375000,0.060000,0.375000,-0.060000,0.363284,-0.088284,0.335000,-0.100000,-0.238431,-0.100000,-0.266715,-0.088284,-0.363284,0.008285,-0.375000,0.036569,-0.375000,0.060000,-0.363284,0.088284,-0.335000,0.100000,0.335000,0.100000,0.363284,0.088284,0.363284,0.088284,$1*%
%AMFreePoly4*
4,1,14,-0.008285,0.363284,0.088284,0.266715,0.100000,0.238431,0.100000,-0.335000,0.088284,-0.363284,0.060000,-0.375000,-0.060000,-0.375000,-0.088284,-0.363284,-0.100000,-0.335000,-0.100000,0.335000,-0.088284,0.363284,-0.060000,0.375000,-0.036569,0.375000,-0.008285,0.363284,-0.008285,0.363284,$1*%
%AMFreePoly5*
4,1,14,0.088284,0.363284,0.100000,0.335000,0.100000,-0.335000,0.088284,-0.363284,0.060000,-0.375000,-0.060000,-0.375000,-0.088284,-0.363284,-0.100000,-0.335000,-0.100000,0.238431,-0.088284,0.266715,0.008285,0.363284,0.036569,0.375000,0.060000,0.375000,0.088284,0.363284,0.088284,0.363284,$1*%
%AMFreePoly6*
4,1,14,0.363284,0.088284,0.375000,0.060000,0.375000,0.036569,0.363284,0.008285,0.266715,-0.088284,0.238431,-0.100000,-0.335000,-0.100000,-0.363284,-0.088284,-0.375000,-0.060000,-0.375000,0.060000,-0.363284,0.088284,-0.335000,0.100000,0.335000,0.100000,0.363284,0.088284,0.363284,0.088284,$1*%
%AMFreePoly7*
4,1,14,0.266715,0.088284,0.363284,-0.008285,0.375000,-0.036569,0.375000,-0.060000,0.363284,-0.088284,0.335000,-0.100000,-0.335000,-0.100000,-0.363284,-0.088284,-0.375000,-0.060000,-0.375000,0.060000,-0.363284,0.088284,-0.335000,0.100000,0.238431,0.100000,0.266715,0.088284,0.266715,0.088284,$1*%
G04 Aperture macros list end*
G04 #@! TA.AperFunction,Profile*
%ADD10C,0.200000*%
G04 #@! TD*
%ADD11R,1.000000X0.280000*%
%ADD12C,0.600000*%
%ADD13R,0.900000X5.000000*%
%ADD14RoundRect,0.249999X-0.625001X0.400001X-0.625001X-0.400001X0.625001X-0.400001X0.625001X0.400001X0*%
%ADD15RoundRect,0.249999X-0.450001X0.350001X-0.450001X-0.350001X0.450001X-0.350001X0.450001X0.350001X0*%
%ADD16RoundRect,0.249999X-0.350001X-0.450001X0.350001X-0.450001X0.350001X0.450001X-0.350001X0.450001X0*%
%ADD17RoundRect,0.249999X0.350001X0.450001X-0.350001X0.450001X-0.350001X-0.450001X0.350001X-0.450001X0*%
%ADD18RoundRect,0.249999X0.450001X-0.350001X0.450001X0.350001X-0.450001X0.350001X-0.450001X-0.350001X0*%
%ADD19RoundRect,0.237500X0.250000X0.237500X-0.250000X0.237500X-0.250000X-0.237500X0.250000X-0.237500X0*%
%ADD20RoundRect,0.237500X-0.250000X-0.237500X0.250000X-0.237500X0.250000X0.237500X-0.250000X0.237500X0*%
%ADD21RoundRect,0.237500X-0.237500X0.250000X-0.237500X-0.250000X0.237500X-0.250000X0.237500X0.250000X0*%
%ADD22RoundRect,0.237500X-0.237500X0.300000X-0.237500X-0.300000X0.237500X-0.300000X0.237500X0.300000X0*%
%ADD23RoundRect,0.237500X0.237500X-0.300000X0.237500X0.300000X-0.237500X0.300000X-0.237500X-0.300000X0*%
%ADD24RoundRect,0.237500X0.300000X0.237500X-0.300000X0.237500X-0.300000X-0.237500X0.300000X-0.237500X0*%
%ADD25RoundRect,0.237500X-0.300000X-0.237500X0.300000X-0.237500X0.300000X0.237500X-0.300000X0.237500X0*%
%ADD26R,1.450000X2.400000*%
%ADD27R,1.600000X1.750000*%
%ADD28FreePoly0,270.000000*%
%ADD29RoundRect,0.050000X-0.325000X0.050000X-0.325000X-0.050000X0.325000X-0.050000X0.325000X0.050000X0*%
%ADD30FreePoly1,270.000000*%
%ADD31FreePoly2,270.000000*%
%ADD32RoundRect,0.050000X-0.050000X0.325000X-0.050000X-0.325000X0.050000X-0.325000X0.050000X0.325000X0*%
%ADD33FreePoly3,270.000000*%
%ADD34FreePoly4,270.000000*%
%ADD35FreePoly5,270.000000*%
%ADD36FreePoly6,270.000000*%
%ADD37FreePoly7,270.000000*%
%ADD38R,0.700000X1.100000*%
%ADD39R,0.800000X1.100000*%
%ADD40RotRect,2.000000X2.000000X45.000000*%
%ADD41HorizOval,2.000000X0.000000X0.000000X0.000000X0.000000X0*%
%ADD42RotRect,2.000000X2.000000X135.000000*%
%ADD43HorizOval,2.000000X0.000000X0.000000X0.000000X0.000000X0*%
%ADD44RotRect,2.000000X2.000000X95.000000*%
%ADD45HorizOval,2.000000X0.000000X0.000000X0.000000X0.000000X0*%
%ADD46RoundRect,0.237500X-0.287500X-0.237500X0.287500X-0.237500X0.287500X0.237500X-0.287500X0.237500X0*%
%ADD47RoundRect,0.237500X0.287500X0.237500X-0.287500X0.237500X-0.287500X-0.237500X0.287500X-0.237500X0*%
%ADD48RotRect,2.000000X2.000000X85.000000*%
%ADD49HorizOval,2.000000X0.000000X0.000000X0.000000X0.000000X0*%
%ADD50RoundRect,0.250000X1.075000X-0.462500X1.075000X0.462500X-1.075000X0.462500X-1.075000X-0.462500X0*%
%ADD51R,1.700000X1.700000*%
%ADD52O,1.700000X1.700000*%
%ADD53R,0.900000X0.800000*%
%ADD54R,1.000000X1.000000*%
%ADD55O,1.000000X1.000000*%
%ADD56RoundRect,0.150000X0.625000X-0.150000X0.625000X0.150000X-0.625000X0.150000X-0.625000X-0.150000X0*%
%ADD57RoundRect,0.249999X0.650001X-0.350001X0.650001X0.350001X-0.650001X0.350001X-0.650001X-0.350001X0*%
%ADD58R,0.800000X0.900000*%
%ADD59R,1.050000X0.650000*%
%ADD60R,2.000000X1.500000*%
%ADD61R,2.000000X3.800000*%
%ADD62RoundRect,0.075000X0.548008X-0.441942X-0.441942X0.548008X-0.548008X0.441942X0.441942X-0.548008X0*%
%ADD63RoundRect,0.075000X0.548008X0.441942X0.441942X0.548008X-0.548008X-0.441942X-0.441942X-0.548008X0*%
%ADD64RoundRect,0.100000X-0.100000X0.637500X-0.100000X-0.637500X0.100000X-0.637500X0.100000X0.637500X0*%
%ADD65R,0.650000X1.560000*%
G04 APERTURE END LIST*
D10*
X180800000Y-94600000D02*
G75*
G03*
X180800000Y-94600000I-8000000J0D01*
G01*
X184962896Y-119873643D02*
X184614273Y-123858422D01*
X178985727Y-119350708D02*
X184962896Y-119873643D01*
X184614273Y-123858422D02*
X178637104Y-123335487D01*
X115800000Y-116800000D02*
X168800000Y-116800000D01*
X115800000Y-72400000D02*
X113200000Y-60400000D01*
X130400000Y-74400000D02*
G75*
G03*
X130400000Y-74400000I-1100000J0D01*
G01*
X170828250Y-58214499D02*
G75*
G03*
X169800000Y-59214127I-28250J-999601D01*
G01*
X198582048Y-78575229D02*
X194339407Y-82817870D01*
X169800000Y-117800000D02*
X169800000Y-129985873D01*
X195753620Y-75746802D02*
X198582048Y-78575229D01*
X168800000Y-72400000D02*
G75*
G03*
X169800000Y-71400000I0J1000000D01*
G01*
X194339407Y-106382130D02*
X198582048Y-110624771D01*
X157400000Y-74400000D02*
G75*
G03*
X157400000Y-74400000I-1100000J0D01*
G01*
X184614273Y-65341578D02*
X184962896Y-69326357D01*
X168800000Y-72400000D02*
X115800000Y-72400000D01*
X191510980Y-79989443D02*
X195753620Y-75746802D01*
X198582048Y-110624771D02*
X195753620Y-113453198D01*
X169800000Y-59214127D02*
X169800000Y-71400000D01*
X170828249Y-130985474D02*
G75*
G03*
X170828249Y-58214526I-1028249J36385474D01*
G01*
X169800000Y-117800000D02*
G75*
G03*
X168800000Y-116800000I-1000000J0D01*
G01*
X191510980Y-109210557D02*
X194339407Y-106382130D01*
X195753620Y-113453198D02*
X191510980Y-109210557D01*
X178637104Y-65864513D02*
X184614273Y-65341578D01*
X106200000Y-128800000D02*
X113200000Y-128800000D01*
X178637104Y-123335487D02*
X178985727Y-119350708D01*
X157400000Y-114800000D02*
G75*
G03*
X157400000Y-114800000I-1100000J0D01*
G01*
X178985727Y-69849292D02*
X178637104Y-65864513D01*
X106200000Y-60400000D02*
X106200000Y-128800000D01*
X130400000Y-114800000D02*
G75*
G03*
X130400000Y-114800000I-1100000J0D01*
G01*
X169800027Y-129985873D02*
G75*
G03*
X170828249Y-130985474I999973J-27D01*
G01*
X113200000Y-60400000D02*
X106200000Y-60400000D01*
X194666000Y-94600000D02*
G75*
G03*
X194666000Y-94600000I-1100000J0D01*
G01*
X194339407Y-82817870D02*
X191510980Y-79989443D01*
X113200000Y-128800000D02*
X115800000Y-116800000D01*
X184962896Y-69326357D02*
X178985727Y-69849292D01*
D11*
X116050000Y-101325000D03*
X116050000Y-101825000D03*
X116050000Y-102325000D03*
X116050000Y-102825000D03*
X116050000Y-103325000D03*
X116050000Y-103825000D03*
X118450000Y-103825000D03*
X118450000Y-103325000D03*
X118450000Y-102825000D03*
X118450000Y-102325000D03*
X118450000Y-101825000D03*
X118450000Y-101325000D03*
D12*
X117250000Y-103575000D03*
D13*
X117250000Y-102575000D03*
D12*
X117250000Y-101575000D03*
X117250000Y-102575000D03*
D11*
X116050000Y-84725000D03*
X116050000Y-85225000D03*
X116050000Y-85725000D03*
X116050000Y-86225000D03*
X116050000Y-86725000D03*
X116050000Y-87225000D03*
X118450000Y-87225000D03*
X118450000Y-86725000D03*
X118450000Y-86225000D03*
X118450000Y-85725000D03*
X118450000Y-85225000D03*
X118450000Y-84725000D03*
D12*
X117250000Y-86975000D03*
D13*
X117250000Y-85975000D03*
D12*
X117250000Y-84975000D03*
X117250000Y-85975000D03*
D14*
X152700000Y-77873400D03*
X152700000Y-80973400D03*
D15*
X190900000Y-114050000D03*
X190900000Y-116050000D03*
D16*
X182600000Y-108180000D03*
X184600000Y-108180000D03*
D17*
X184600000Y-81000000D03*
X182600000Y-81000000D03*
D18*
X166200000Y-115600000D03*
X166200000Y-113600000D03*
D16*
X170900000Y-75600000D03*
X172900000Y-75600000D03*
X117025000Y-115550000D03*
X119025000Y-115550000D03*
D19*
X199892500Y-84400000D03*
X198067500Y-84400000D03*
D17*
X123675000Y-77775000D03*
X121675000Y-77775000D03*
D18*
X163190000Y-111260000D03*
X163190000Y-109260000D03*
D15*
X190650000Y-73075000D03*
X190650000Y-75075000D03*
D20*
X201857500Y-99660000D03*
X203682500Y-99660000D03*
D19*
X199892500Y-99660000D03*
X198067500Y-99660000D03*
D16*
X117000000Y-113275000D03*
X119000000Y-113275000D03*
D21*
X191240000Y-88917500D03*
X191240000Y-90742500D03*
X123050000Y-80912500D03*
X123050000Y-82737500D03*
D15*
X153910000Y-109260000D03*
X153910000Y-111260000D03*
D18*
X125660000Y-83030000D03*
X125660000Y-81030000D03*
D22*
X129400000Y-77837500D03*
X129400000Y-79562500D03*
X147050000Y-97687500D03*
X147050000Y-99412500D03*
D23*
X151075000Y-111437500D03*
X151075000Y-109712500D03*
X165980000Y-111322500D03*
X165980000Y-109597500D03*
D22*
X147600000Y-77760900D03*
X147600000Y-79485900D03*
X151040000Y-105847500D03*
X151040000Y-107572500D03*
D23*
X147050000Y-91487500D03*
X147050000Y-93212500D03*
D24*
X177082500Y-128690000D03*
X175357500Y-128690000D03*
D22*
X149710000Y-77760900D03*
X149710000Y-79485900D03*
D24*
X177082500Y-126330000D03*
X175357500Y-126330000D03*
X129442500Y-81550000D03*
X127717500Y-81550000D03*
X109487500Y-116075000D03*
X107762500Y-116075000D03*
D23*
X161050000Y-111322500D03*
X161050000Y-109597500D03*
D22*
X124270000Y-106457500D03*
X124270000Y-108182500D03*
D25*
X151137500Y-100600000D03*
X152862500Y-100600000D03*
D22*
X119000000Y-93637500D03*
X119000000Y-95362500D03*
X139300000Y-86087500D03*
X139300000Y-87812500D03*
D24*
X128762500Y-105700000D03*
X127037500Y-105700000D03*
D25*
X201907500Y-86930000D03*
X203632500Y-86930000D03*
D26*
X157150000Y-79008400D03*
X160800000Y-79008400D03*
D25*
X201907500Y-101900000D03*
X203632500Y-101900000D03*
D27*
X151820000Y-94600000D03*
D28*
X153320000Y-93600000D03*
D29*
X153320000Y-94000000D03*
X153320000Y-94400000D03*
X153320000Y-94800000D03*
X153320000Y-95200000D03*
D30*
X153320000Y-95600000D03*
D31*
X152820000Y-96100000D03*
D32*
X152420000Y-96100000D03*
X152020000Y-96100000D03*
X151620000Y-96100000D03*
X151220000Y-96100000D03*
D33*
X150820000Y-96100000D03*
D34*
X150320000Y-95600000D03*
D29*
X150320000Y-95200000D03*
X150320000Y-94800000D03*
X150320000Y-94400000D03*
X150320000Y-94000000D03*
D35*
X150320000Y-93600000D03*
D36*
X150820000Y-93100000D03*
D32*
X151220000Y-93100000D03*
X151620000Y-93100000D03*
X152020000Y-93100000D03*
X152420000Y-93100000D03*
D37*
X152820000Y-93100000D03*
D24*
X199842500Y-101900000D03*
X198117500Y-101900000D03*
X199842500Y-86930000D03*
X198117500Y-86930000D03*
D38*
X135950000Y-78100000D03*
X134850000Y-78100000D03*
D39*
X133700000Y-78100000D03*
D38*
X132550000Y-78100000D03*
X131450000Y-78100000D03*
X131450000Y-79800000D03*
X131450000Y-81500000D03*
X132550000Y-81500000D03*
D39*
X133700000Y-81500000D03*
D38*
X134850000Y-81500000D03*
X135950000Y-81500000D03*
X135950000Y-79800000D03*
D39*
X133700000Y-79800000D03*
D38*
X132550000Y-79800000D03*
D40*
X189700000Y-106100000D03*
D41*
X191496051Y-104303949D03*
D24*
X129437500Y-83425000D03*
X127712500Y-83425000D03*
D42*
X188900000Y-86900000D03*
D43*
X187103949Y-85103949D03*
D44*
X171900000Y-69600000D03*
D45*
X171678624Y-67069665D03*
D46*
X171275000Y-114775000D03*
X173025000Y-114775000D03*
D47*
X184275000Y-78600000D03*
X182525000Y-78600000D03*
D48*
X175000000Y-122100000D03*
D49*
X175221376Y-119569665D03*
D47*
X123575000Y-112380000D03*
X121825000Y-112380000D03*
D48*
X171700000Y-121800000D03*
D49*
X171921376Y-119269665D03*
D46*
X182570000Y-110550000D03*
X184320000Y-110550000D03*
X171225000Y-73400000D03*
X172975000Y-73400000D03*
D23*
X120640000Y-95362500D03*
X120640000Y-93637500D03*
D40*
X187300000Y-103700000D03*
D41*
X189096051Y-101903949D03*
D47*
X123500000Y-115600000D03*
X121750000Y-115600000D03*
X123600000Y-73925000D03*
X121850000Y-73925000D03*
D44*
X175200000Y-69300000D03*
D45*
X174978624Y-66769665D03*
D42*
X191300000Y-84600000D03*
D43*
X189503949Y-82803949D03*
D22*
X139250000Y-101287500D03*
X139250000Y-103012500D03*
D17*
X173170000Y-128470000D03*
X171170000Y-128470000D03*
X173075000Y-63175000D03*
X171075000Y-63175000D03*
D50*
X157240000Y-111147500D03*
X157240000Y-108172500D03*
D17*
X173170000Y-126110000D03*
X171170000Y-126110000D03*
D51*
X109100000Y-85300000D03*
D52*
X111640000Y-85300000D03*
X109100000Y-87840000D03*
X111640000Y-87840000D03*
X109100000Y-90380000D03*
X111640000Y-90380000D03*
D53*
X157600000Y-82437500D03*
X157600000Y-84337500D03*
X159600000Y-83387500D03*
D54*
X113275000Y-73125000D03*
D55*
X113275000Y-71855000D03*
D56*
X111225000Y-112100000D03*
X111225000Y-111100000D03*
X111225000Y-110100000D03*
X111225000Y-109100000D03*
D57*
X108700000Y-113400000D03*
X108700000Y-107800000D03*
D54*
X193600000Y-99300000D03*
D55*
X193600000Y-100570000D03*
D53*
X195130000Y-90680000D03*
X195130000Y-88780000D03*
X193130000Y-89730000D03*
D17*
X173025000Y-60900000D03*
X171025000Y-60900000D03*
D58*
X117550000Y-78775000D03*
X119450000Y-78775000D03*
X118500000Y-76775000D03*
D51*
X109100000Y-98200000D03*
D52*
X111640000Y-98200000D03*
X109100000Y-100740000D03*
X111640000Y-100740000D03*
X109100000Y-103280000D03*
X111640000Y-103280000D03*
D51*
X109075000Y-80325000D03*
D52*
X109075000Y-77785000D03*
X109075000Y-75245000D03*
X109075000Y-72705000D03*
D19*
X199892500Y-89290000D03*
X198067500Y-89290000D03*
D20*
X201857500Y-89290000D03*
X203682500Y-89290000D03*
D17*
X119625000Y-73675000D03*
X117625000Y-73675000D03*
D54*
X113250000Y-77200000D03*
D55*
X113250000Y-75930000D03*
D59*
X107750000Y-120275000D03*
X111900000Y-120275000D03*
X107775000Y-118125000D03*
X111900000Y-118125000D03*
D15*
X122000000Y-106120000D03*
X122000000Y-108120000D03*
D59*
X111800000Y-126625000D03*
X107650000Y-126625000D03*
X111800000Y-124475000D03*
X107675000Y-124475000D03*
D24*
X109387500Y-122300000D03*
X107662500Y-122300000D03*
D60*
X131450000Y-106300000D03*
X131450000Y-108600000D03*
X131450000Y-110900000D03*
D61*
X137750000Y-108600000D03*
D51*
X109125000Y-67775000D03*
D52*
X109125000Y-65235000D03*
X109125000Y-62695000D03*
D21*
X154450000Y-83362500D03*
X154450000Y-85187500D03*
D62*
X131771181Y-101244481D03*
X132124734Y-100890928D03*
X132478287Y-100537375D03*
X132831841Y-100183821D03*
X133185394Y-99830268D03*
X133538948Y-99476714D03*
X133892501Y-99123161D03*
X134246054Y-98769608D03*
X134599608Y-98416054D03*
X134953161Y-98062501D03*
X135306714Y-97708948D03*
X135660268Y-97355394D03*
X136013821Y-97001841D03*
X136367375Y-96648287D03*
X136720928Y-96294734D03*
X137074481Y-95941181D03*
D63*
X137074481Y-93218819D03*
X136720928Y-92865266D03*
X136367375Y-92511713D03*
X136013821Y-92158159D03*
X135660268Y-91804606D03*
X135306714Y-91451052D03*
X134953161Y-91097499D03*
X134599608Y-90743946D03*
X134246054Y-90390392D03*
X133892501Y-90036839D03*
X133538948Y-89683286D03*
X133185394Y-89329732D03*
X132831841Y-88976179D03*
X132478287Y-88622625D03*
X132124734Y-88269072D03*
X131771181Y-87915519D03*
D62*
X129048819Y-87915519D03*
X128695266Y-88269072D03*
X128341713Y-88622625D03*
X127988159Y-88976179D03*
X127634606Y-89329732D03*
X127281052Y-89683286D03*
X126927499Y-90036839D03*
X126573946Y-90390392D03*
X126220392Y-90743946D03*
X125866839Y-91097499D03*
X125513286Y-91451052D03*
X125159732Y-91804606D03*
X124806179Y-92158159D03*
X124452625Y-92511713D03*
X124099072Y-92865266D03*
X123745519Y-93218819D03*
D63*
X123745519Y-95941181D03*
X124099072Y-96294734D03*
X124452625Y-96648287D03*
X124806179Y-97001841D03*
X125159732Y-97355394D03*
X125513286Y-97708948D03*
X125866839Y-98062501D03*
X126220392Y-98416054D03*
X126573946Y-98769608D03*
X126927499Y-99123161D03*
X127281052Y-99476714D03*
X127634606Y-99830268D03*
X127988159Y-100183821D03*
X128341713Y-100537375D03*
X128695266Y-100890928D03*
X129048819Y-101244481D03*
D64*
X202030000Y-91737500D03*
X201380000Y-91737500D03*
X200730000Y-91737500D03*
X200080000Y-91737500D03*
X199430000Y-91737500D03*
X198780000Y-91737500D03*
X198130000Y-91737500D03*
X198130000Y-97462500D03*
X198780000Y-97462500D03*
X199430000Y-97462500D03*
X200080000Y-97462500D03*
X200730000Y-97462500D03*
X201380000Y-97462500D03*
X202030000Y-97462500D03*
D16*
X171050000Y-112500000D03*
X173050000Y-112500000D03*
D24*
X177062500Y-62480000D03*
X175337500Y-62480000D03*
X177062500Y-60220000D03*
X175337500Y-60220000D03*
D19*
X118812500Y-111050000D03*
X116987500Y-111050000D03*
D22*
X187300000Y-73012500D03*
X187300000Y-74737500D03*
D65*
X184550000Y-113100000D03*
X183600000Y-113100000D03*
X182650000Y-113100000D03*
X182650000Y-115800000D03*
X183600000Y-115800000D03*
X184550000Y-115800000D03*
D22*
X187900000Y-114362500D03*
X187900000Y-116087500D03*
D65*
X182625000Y-75975000D03*
X183575000Y-75975000D03*
X184525000Y-75975000D03*
X184525000Y-73275000D03*
X183575000Y-73275000D03*
X182625000Y-73275000D03*
M02*
