G04 #@! TF.GenerationSoftware,KiCad,Pcbnew,(6.0.7)*
G04 #@! TF.CreationDate,2022-09-24T03:58:47+09:00*
G04 #@! TF.ProjectId,Quatro,51756174-726f-42e6-9b69-6361645f7063,0*
G04 #@! TF.SameCoordinates,Original*
G04 #@! TF.FileFunction,Profile,NP*
%FSLAX46Y46*%
G04 Gerber Fmt 4.6, Leading zero omitted, Abs format (unit mm)*
G04 Created by KiCad (PCBNEW (6.0.7)) date 2022-09-24 03:58:47*
%MOMM*%
%LPD*%
G01*
G04 APERTURE LIST*
G04 #@! TA.AperFunction,Profile*
%ADD10C,0.200000*%
G04 #@! TD*
G04 APERTURE END LIST*
D10*
X180800000Y-94600000D02*
G75*
G03*
X180800000Y-94600000I-8000000J0D01*
G01*
X184962896Y-119873643D02*
X184614273Y-123858422D01*
X178985727Y-119350708D02*
X184962896Y-119873643D01*
X184614273Y-123858422D02*
X178637104Y-123335487D01*
X115800000Y-116800000D02*
X168800000Y-116800000D01*
X115800000Y-72400000D02*
X113200000Y-60400000D01*
X130400000Y-74400000D02*
G75*
G03*
X130400000Y-74400000I-1100000J0D01*
G01*
X170828250Y-58214499D02*
G75*
G03*
X169800000Y-59214127I-28250J-999601D01*
G01*
X198582048Y-78575229D02*
X194339407Y-82817870D01*
X169800000Y-117800000D02*
X169800000Y-129985873D01*
X195753620Y-75746802D02*
X198582048Y-78575229D01*
X168800000Y-72400000D02*
G75*
G03*
X169800000Y-71400000I0J1000000D01*
G01*
X194339407Y-106382130D02*
X198582048Y-110624771D01*
X157400000Y-74400000D02*
G75*
G03*
X157400000Y-74400000I-1100000J0D01*
G01*
X184614273Y-65341578D02*
X184962896Y-69326357D01*
X168800000Y-72400000D02*
X115800000Y-72400000D01*
X191510980Y-79989443D02*
X195753620Y-75746802D01*
X198582048Y-110624771D02*
X195753620Y-113453198D01*
X169800000Y-59214127D02*
X169800000Y-71400000D01*
X170828249Y-130985474D02*
G75*
G03*
X170828249Y-58214526I-1028249J36385474D01*
G01*
X169800000Y-117800000D02*
G75*
G03*
X168800000Y-116800000I-1000000J0D01*
G01*
X191510980Y-109210557D02*
X194339407Y-106382130D01*
X195753620Y-113453198D02*
X191510980Y-109210557D01*
X178637104Y-65864513D02*
X184614273Y-65341578D01*
X106200000Y-128800000D02*
X113200000Y-128800000D01*
X178637104Y-123335487D02*
X178985727Y-119350708D01*
X157400000Y-114800000D02*
G75*
G03*
X157400000Y-114800000I-1100000J0D01*
G01*
X178985727Y-69849292D02*
X178637104Y-65864513D01*
X106200000Y-60400000D02*
X106200000Y-128800000D01*
X130400000Y-114800000D02*
G75*
G03*
X130400000Y-114800000I-1100000J0D01*
G01*
X169800027Y-129985873D02*
G75*
G03*
X170828249Y-130985474I999973J-27D01*
G01*
X113200000Y-60400000D02*
X106200000Y-60400000D01*
X194666000Y-94600000D02*
G75*
G03*
X194666000Y-94600000I-1100000J0D01*
G01*
X194339407Y-82817870D02*
X191510980Y-79989443D01*
X113200000Y-128800000D02*
X115800000Y-116800000D01*
X184962896Y-69326357D02*
X178985727Y-69849292D01*
M02*
