M48
; DRILL file {KiCad (5.1.7)-1} date 11/24/21 18:57:31
; FORMAT={-:-/ absolute / metric / decimal}
; #@! TF.CreationDate,2021-11-24T18:57:31+09:00
; #@! TF.GenerationSoftware,Kicad,Pcbnew,(5.1.7)-1
; #@! TF.FileFunction,Plated,1,2,PTH
FMAT,2
METRIC
T1C0.400
T2C0.500
T3C0.600
T4C0.700
T5C1.000
%
G90
G05
T1
X107.25Y-104.95
X109.005Y-94.958
X110.85Y-114.6
X111.35Y-74.55
X112.0Y-93.9
X112.56Y-77.003
X112.863Y-110.477
X113.55Y-120.95
X113.789Y-104.411
X114.35Y-88.0
X114.424Y-97.241
X114.473Y-86.143
X114.613Y-79.909
X114.659Y-103.325
X114.905Y-115.1
X115.1Y-91.75
X115.26Y-112.1
X115.304Y-98.225
X116.222Y-84.002
X116.42Y-78.25
X116.47Y-74.14
X116.884Y-98.527
X117.326Y-106.004
X117.591Y-90.131
X118.076Y-79.29
X119.094Y-98.05
X119.498Y-104.611
X119.52Y-86.381
X119.611Y-83.008
X119.996Y-103.077
X120.106Y-101.427
X120.883Y-100.158
X121.702Y-94.18
X122.054Y-103.088
X122.082Y-100.718
X122.191Y-89.486
X122.606Y-93.216
X122.733Y-95.166
X122.866Y-91.593
X123.399Y-98.121
X124.206Y-90.543
X124.217Y-105.242
X124.343Y-99.392
X124.398Y-114.457
X124.49Y-85.45
X124.795Y-101.393
X124.815Y-88.38
X125.175Y-93.678
X125.7Y-74.7
X125.943Y-105.195
X126.076Y-94.328
X126.138Y-93.365
X126.465Y-92.402
X126.521Y-100.841
X126.909Y-95.732
X127.115Y-101.591
X127.166Y-87.915
X127.256Y-109.6
X127.325Y-84.192
X127.869Y-95.244
X128.043Y-106.655
X128.551Y-103.738
X129.208Y-102.911
X129.215Y-89.634
X129.57Y-111.15
X130.003Y-99.748
X130.447Y-98.097
X130.76Y-86.452
X131.184Y-92.282
X131.406Y-82.843
X132.118Y-83.494
X132.381Y-91.144
X132.829Y-72.949
X133.781Y-97.234
X134.358Y-92.4
X135.05Y-96.038
X135.059Y-93.079
X135.55Y-84.9
X136.505Y-113.022
X136.65Y-102.2
X136.911Y-89.971
X137.616Y-94.32
X138.26Y-87.518
X138.817Y-81.931
X140.595Y-116.173
X140.645Y-98.358
X141.031Y-94.459
X142.267Y-92.279
X142.65Y-89.5
X142.726Y-98.872
X143.75Y-108.9
X144.28Y-103.21
X145.198Y-85.299
X145.45Y-114.85
X145.687Y-104.326
X145.982Y-99.561
X146.226Y-94.479
X147.534Y-94.311
X147.765Y-101.387
X148.608Y-96.301
X148.874Y-106.3
X149.339Y-94.36
X149.497Y-105.328
X151.724Y-91.825
X153.769Y-92.919
X154.252Y-94.55
X155.395Y-79.008
X155.594Y-97.564
X159.119Y-108.37
X159.95Y-74.95
X161.5Y-89.55
X161.958Y-83.556
X162.0Y-98.65
X165.737Y-76.041
X168.528Y-115.6
X169.85Y-106.75
X172.6Y-124.25
X174.827Y-63.679
X176.3Y-76.8
X177.05Y-112.35
X179.35Y-101.15
X179.45Y-61.1
X180.723Y-85.338
X180.751Y-128.61
X182.3Y-94.2
X183.564Y-127.29
X184.08Y-125.254
X184.095Y-87.264
X184.75Y-72.209
X185.383Y-115.959
X186.75Y-93.3
X187.35Y-78.6
X188.25Y-70.95
X189.288Y-64.556
X190.291Y-117.224
X190.35Y-68.2
X190.464Y-91.576
X194.187Y-97.462
X196.138Y-84.4
X196.154Y-88.78
X196.314Y-99.66
X196.4Y-95.0
X196.887Y-87.69
X196.948Y-90.863
X196.986Y-98.915
X197.65Y-104.25
X199.228Y-85.342
X199.291Y-90.315
X199.535Y-88.108
X199.577Y-94.02
X200.08Y-96.164
X200.532Y-100.635
X200.536Y-93.04
X201.011Y-95.514
X201.45Y-79.3
X201.815Y-88.229
X201.907Y-95.973
X201.92Y-93.174
X202.2Y-106.05
X204.05Y-94.75
X205.104Y-89.199
T2
X131.45Y-78.1
X131.45Y-79.8
X131.45Y-81.5
X132.55Y-78.1
X132.55Y-79.8
X132.55Y-81.5
X133.7Y-78.1
X133.7Y-79.8
X133.7Y-81.5
X134.85Y-78.1
X134.85Y-81.5
X135.95Y-78.1
X135.95Y-79.8
X135.95Y-81.5
T3
X117.25Y-84.975
X117.25Y-85.975
X117.25Y-86.975
X117.25Y-101.575
X117.25Y-102.575
X117.25Y-103.575
T4
X108.55Y-71.33
X108.55Y-72.6
X193.6Y-99.3
X193.6Y-100.57
X112.8Y-71.33
X112.8Y-72.6
T5
X187.3Y-103.7
X189.096Y-101.904
X187.104Y-85.104
X188.9Y-86.9
X171.679Y-67.07
X171.9Y-69.6
X109.1Y-98.2
X109.1Y-100.74
X109.1Y-103.28
X111.64Y-98.2
X111.64Y-100.74
X111.64Y-103.28
X109.1Y-85.3
X109.1Y-87.84
X109.1Y-90.38
X111.64Y-85.3
X111.64Y-87.84
X111.64Y-90.38
X171.7Y-121.8
X171.921Y-119.27
X189.7Y-106.1
X191.496Y-104.304
X174.979Y-66.77
X175.2Y-69.3
X109.15Y-62.765
X109.15Y-65.305
X109.15Y-67.845
X189.504Y-82.804
X191.3Y-84.6
X175.0Y-122.1
X175.221Y-119.57
T0
M30
