%TF.GenerationSoftware,KiCad,Pcbnew,(5.1.7)-1*%
%TF.CreationDate,2021-11-24T18:57:27+09:00*%
%TF.ProjectId,Quatro,51756174-726f-42e6-9b69-6361645f7063,0*%
%TF.SameCoordinates,Original*%
%TF.FileFunction,Copper,L2,Bot*%
%TF.FilePolarity,Positive*%
%FSLAX46Y46*%
G04 Gerber Fmt 4.6, Leading zero omitted, Abs format (unit mm)*
G04 Created by KiCad (PCBNEW (5.1.7)-1) date 2021-11-24 18:57:27*
%MOMM*%
%LPD*%
G01*
G04 APERTURE LIST*
%TA.AperFunction,Profile*%
%ADD10C,0.200000*%
%TD*%
%TA.AperFunction,ComponentPad*%
%ADD11R,0.800000X1.100000*%
%TD*%
%TA.AperFunction,ComponentPad*%
%ADD12R,0.700000X1.100000*%
%TD*%
%TA.AperFunction,ComponentPad*%
%ADD13C,0.100000*%
%TD*%
%TA.AperFunction,ComponentPad*%
%ADD14R,1.000000X1.000000*%
%TD*%
%TA.AperFunction,ComponentPad*%
%ADD15O,1.000000X1.000000*%
%TD*%
%TA.AperFunction,ComponentPad*%
%ADD16R,1.700000X1.700000*%
%TD*%
%TA.AperFunction,ComponentPad*%
%ADD17O,1.700000X1.700000*%
%TD*%
%TA.AperFunction,ComponentPad*%
%ADD18C,0.600000*%
%TD*%
%TA.AperFunction,ViaPad*%
%ADD19C,0.800000*%
%TD*%
%TA.AperFunction,Conductor*%
%ADD20C,0.200000*%
%TD*%
%TA.AperFunction,Conductor*%
%ADD21C,0.300000*%
%TD*%
%TA.AperFunction,Conductor*%
%ADD22C,0.254000*%
%TD*%
%TA.AperFunction,Conductor*%
%ADD23C,0.100000*%
%TD*%
G04 APERTURE END LIST*
D10*
X170788838Y-58175084D02*
G75*
G02*
X170788843Y-130946030I-1028246J-36385473D01*
G01*
X169760594Y-71360558D02*
X169760594Y-59174685D01*
X110760595Y-60360557D02*
X113160593Y-60360557D01*
X157360593Y-114760556D02*
G75*
G03*
X157360593Y-114760556I-1100001J0D01*
G01*
X169760593Y-129946429D02*
X169760593Y-117760555D01*
X106160594Y-128760556D02*
X106160593Y-60360557D01*
X169760595Y-71360555D02*
G75*
G02*
X168760594Y-72360558I-1000002J-1D01*
G01*
X197128428Y-79950000D02*
X198542640Y-78535786D01*
X106160593Y-60360557D02*
X110760595Y-60360557D01*
X130360596Y-114760557D02*
G75*
G03*
X130360596Y-114760557I-1100001J0D01*
G01*
X195714214Y-78535787D02*
X197128428Y-79950000D01*
X194300000Y-77121573D02*
X195714214Y-78535787D01*
X180760595Y-94560557D02*
G75*
G03*
X180760595Y-94560557I-8000001J0D01*
G01*
X157360594Y-74360558D02*
G75*
G03*
X157360594Y-74360558I-1100001J0D01*
G01*
X130360597Y-74360557D02*
G75*
G03*
X130360597Y-74360557I-1100000J0D01*
G01*
X169760595Y-59174687D02*
G75*
G02*
X170788841Y-58175085I999999J2D01*
G01*
X170788842Y-130946030D02*
G75*
G02*
X169760593Y-129946429I-28249J999601D01*
G01*
X115760595Y-72360558D02*
X168760594Y-72360558D01*
X113160593Y-60360557D02*
X115760595Y-72360558D01*
X168760592Y-116760556D02*
G75*
G02*
X169760593Y-117760555I1J-1000000D01*
G01*
X113160595Y-128760558D02*
X106160594Y-128760556D01*
X115760595Y-116760556D02*
X113160595Y-128760558D01*
X168760593Y-116760556D02*
X115760595Y-116760556D01*
X195714214Y-107756901D02*
X194299999Y-106342687D01*
X180764400Y-67643148D02*
X180938710Y-69635540D01*
X184923487Y-69286914D02*
X184574865Y-65302137D01*
X182756788Y-67468837D02*
X182931100Y-69461226D01*
X182582477Y-65476446D02*
X182756788Y-67468837D01*
X194626591Y-94560557D02*
G75*
G03*
X194626591Y-94560557I-1099998J0D01*
G01*
X192885787Y-78535787D02*
X194300000Y-79950000D01*
X195714214Y-75707359D02*
X194300000Y-77121573D01*
X184574865Y-123818979D02*
X182582477Y-123644667D01*
X178946321Y-69809849D02*
X178597697Y-65825070D01*
X194300001Y-111999541D02*
X195714214Y-110585328D01*
X180938710Y-69635540D02*
X178946321Y-69809849D01*
X195714214Y-110585328D02*
X197128427Y-109171114D01*
X182931100Y-69461226D02*
X184923487Y-69286914D01*
X182931100Y-119659889D02*
X184923489Y-119834198D01*
X178597697Y-65825070D02*
X180590087Y-65650759D01*
X194300000Y-82778427D02*
X191471573Y-79950000D01*
X191471573Y-109171112D02*
X192885787Y-110585327D01*
X178597699Y-123296044D02*
X180590088Y-123470356D01*
X180938709Y-119485577D02*
X178946320Y-119311265D01*
X191471573Y-79950000D02*
X192885787Y-78535787D01*
X184923489Y-119834198D02*
X184574865Y-123818979D01*
X195714214Y-81364214D02*
X194300000Y-82778427D01*
X198542642Y-110585327D02*
X195714215Y-113413756D01*
X194299999Y-106342687D02*
X191471573Y-109171112D01*
X184574865Y-65302137D02*
X182582477Y-65476446D01*
X180590088Y-123470356D02*
X180764398Y-121477967D01*
X178946320Y-119311265D02*
X178597699Y-123296044D01*
X198542640Y-78535786D02*
X195714214Y-75707359D01*
X182582477Y-123644667D02*
X182756788Y-121652278D01*
X180764398Y-121477967D02*
X180938709Y-119485577D01*
X182756788Y-121652278D02*
X182931100Y-119659889D01*
X195714215Y-113413756D02*
X194300001Y-111999541D01*
X197128427Y-109171114D02*
X198542642Y-110585327D01*
X194300000Y-109171114D02*
X195714214Y-107756901D01*
X192885787Y-110585327D02*
X194300000Y-109171114D01*
X180590087Y-65650759D02*
X180764400Y-67643148D01*
X194300000Y-79950000D02*
X195714214Y-81364214D01*
D11*
%TO.P,U5,9*%
%TO.N,+5V*%
X133700000Y-81500000D03*
%TO.P,U5,13*%
%TO.N,GND*%
X133700000Y-79800000D03*
%TO.P,U5,3*%
%TO.N,+BATT*%
X133700000Y-78100000D03*
D12*
%TO.P,U5,7*%
%TO.N,+5V*%
X131450000Y-81500000D03*
%TO.P,U5,8*%
X132550000Y-81500000D03*
%TO.P,U5,10*%
%TO.N,Net-(U5-Pad10)*%
X134850000Y-81500000D03*
%TO.P,U5,11*%
%TO.N,Net-(R15-Pad1)*%
X135950000Y-81500000D03*
%TO.P,U5,6*%
%TO.N,GND*%
X131450000Y-79800000D03*
%TO.P,U5,14*%
X132550000Y-79800000D03*
%TO.P,U5,12*%
X135950000Y-79800000D03*
%TO.P,U5,5*%
%TO.N,+BATT*%
X131450000Y-78100000D03*
%TO.P,U5,4*%
X132550000Y-78100000D03*
%TO.P,U5,2*%
%TO.N,Net-(U5-Pad2)*%
X134850000Y-78100000D03*
%TO.P,U5,1*%
%TO.N,+BATT*%
X135950000Y-78100000D03*
%TD*%
%TO.P,D1,2*%
%TO.N,Net-(C1-Pad2)*%
%TA.AperFunction,ComponentPad*%
G36*
G01*
X171765780Y-68065860D02*
X171765780Y-68065860D01*
G75*
G02*
X170682429Y-67156821I-87156J996195D01*
G01*
X170682429Y-67156821D01*
G75*
G02*
X171591468Y-66073470I996195J87156D01*
G01*
X171591468Y-66073470D01*
G75*
G02*
X172674819Y-66982509I87156J-996195D01*
G01*
X172674819Y-66982509D01*
G75*
G02*
X171765780Y-68065860I-996195J-87156D01*
G01*
G37*
%TD.AperFunction*%
%TA.AperFunction,ComponentPad*%
D13*
%TO.P,D1,1*%
%TO.N,+3.3VADC*%
G36*
X172983350Y-70509039D02*
G01*
X170990961Y-70683350D01*
X170816650Y-68690961D01*
X172809039Y-68516650D01*
X172983350Y-70509039D01*
G37*
%TD.AperFunction*%
%TD*%
%TA.AperFunction,ComponentPad*%
%TO.P,D2,1*%
%TO.N,+3.3VADC*%
G36*
X190314214Y-86900000D02*
G01*
X188900000Y-88314214D01*
X187485786Y-86900000D01*
X188900000Y-85485786D01*
X190314214Y-86900000D01*
G37*
%TD.AperFunction*%
%TO.P,D2,2*%
%TO.N,Net-(C2-Pad2)*%
%TA.AperFunction,ComponentPad*%
G36*
G01*
X187811056Y-85811056D02*
X187811056Y-85811056D01*
G75*
G02*
X186396842Y-85811056I-707107J707107D01*
G01*
X186396842Y-85811056D01*
G75*
G02*
X186396842Y-84396842I707107J707107D01*
G01*
X186396842Y-84396842D01*
G75*
G02*
X187811056Y-84396842I707107J-707107D01*
G01*
X187811056Y-84396842D01*
G75*
G02*
X187811056Y-85811056I-707107J-707107D01*
G01*
G37*
%TD.AperFunction*%
%TD*%
%TA.AperFunction,ComponentPad*%
%TO.P,D3,1*%
%TO.N,+3.3VADC*%
G36*
X187300000Y-105114214D02*
G01*
X185885786Y-103700000D01*
X187300000Y-102285786D01*
X188714214Y-103700000D01*
X187300000Y-105114214D01*
G37*
%TD.AperFunction*%
%TO.P,D3,2*%
%TO.N,Net-(C3-Pad2)*%
%TA.AperFunction,ComponentPad*%
G36*
G01*
X188388944Y-102611056D02*
X188388944Y-102611056D01*
G75*
G02*
X188388944Y-101196842I707107J707107D01*
G01*
X188388944Y-101196842D01*
G75*
G02*
X189803158Y-101196842I707107J-707107D01*
G01*
X189803158Y-101196842D01*
G75*
G02*
X189803158Y-102611056I-707107J-707107D01*
G01*
X189803158Y-102611056D01*
G75*
G02*
X188388944Y-102611056I-707107J707107D01*
G01*
G37*
%TD.AperFunction*%
%TD*%
%TO.P,D4,2*%
%TO.N,Net-(C4-Pad2)*%
%TA.AperFunction,ComponentPad*%
G36*
G01*
X171834220Y-120265860D02*
X171834220Y-120265860D01*
G75*
G02*
X170925181Y-119182509I87156J996195D01*
G01*
X170925181Y-119182509D01*
G75*
G02*
X172008532Y-118273470I996195J-87156D01*
G01*
X172008532Y-118273470D01*
G75*
G02*
X172917571Y-119356821I-87156J-996195D01*
G01*
X172917571Y-119356821D01*
G75*
G02*
X171834220Y-120265860I-996195J87156D01*
G01*
G37*
%TD.AperFunction*%
%TA.AperFunction,ComponentPad*%
%TO.P,D4,1*%
%TO.N,+3.3VADC*%
G36*
X172609039Y-122883350D02*
G01*
X170616650Y-122709039D01*
X170790961Y-120716650D01*
X172783350Y-120890961D01*
X172609039Y-122883350D01*
G37*
%TD.AperFunction*%
%TD*%
%TO.P,D5,2*%
%TO.N,+BATT*%
%TA.AperFunction,ComponentPad*%
G36*
G01*
X190211056Y-83511056D02*
X190211056Y-83511056D01*
G75*
G02*
X188796842Y-83511056I-707107J707107D01*
G01*
X188796842Y-83511056D01*
G75*
G02*
X188796842Y-82096842I707107J707107D01*
G01*
X188796842Y-82096842D01*
G75*
G02*
X190211056Y-82096842I707107J-707107D01*
G01*
X190211056Y-82096842D01*
G75*
G02*
X190211056Y-83511056I-707107J-707107D01*
G01*
G37*
%TD.AperFunction*%
%TA.AperFunction,ComponentPad*%
%TO.P,D5,1*%
%TO.N,Net-(D5-Pad1)*%
G36*
X192714214Y-84600000D02*
G01*
X191300000Y-86014214D01*
X189885786Y-84600000D01*
X191300000Y-83185786D01*
X192714214Y-84600000D01*
G37*
%TD.AperFunction*%
%TD*%
%TA.AperFunction,ComponentPad*%
%TO.P,D6,1*%
%TO.N,Net-(D6-Pad1)*%
G36*
X189700000Y-107514214D02*
G01*
X188285786Y-106100000D01*
X189700000Y-104685786D01*
X191114214Y-106100000D01*
X189700000Y-107514214D01*
G37*
%TD.AperFunction*%
%TO.P,D6,2*%
%TO.N,Net-(D5-Pad1)*%
%TA.AperFunction,ComponentPad*%
G36*
G01*
X190788944Y-105011056D02*
X190788944Y-105011056D01*
G75*
G02*
X190788944Y-103596842I707107J707107D01*
G01*
X190788944Y-103596842D01*
G75*
G02*
X192203158Y-103596842I707107J-707107D01*
G01*
X192203158Y-103596842D01*
G75*
G02*
X192203158Y-105011056I-707107J-707107D01*
G01*
X192203158Y-105011056D01*
G75*
G02*
X190788944Y-105011056I-707107J707107D01*
G01*
G37*
%TD.AperFunction*%
%TD*%
%TA.AperFunction,ComponentPad*%
%TO.P,D7,1*%
%TO.N,Net-(D7-Pad1)*%
G36*
X176283350Y-70209039D02*
G01*
X174290961Y-70383350D01*
X174116650Y-68390961D01*
X176109039Y-68216650D01*
X176283350Y-70209039D01*
G37*
%TD.AperFunction*%
%TO.P,D7,2*%
%TO.N,+BATT*%
%TA.AperFunction,ComponentPad*%
G36*
G01*
X175065780Y-67765860D02*
X175065780Y-67765860D01*
G75*
G02*
X173982429Y-66856821I-87156J996195D01*
G01*
X173982429Y-66856821D01*
G75*
G02*
X174891468Y-65773470I996195J87156D01*
G01*
X174891468Y-65773470D01*
G75*
G02*
X175974819Y-66682509I87156J-996195D01*
G01*
X175974819Y-66682509D01*
G75*
G02*
X175065780Y-67765860I-996195J-87156D01*
G01*
G37*
%TD.AperFunction*%
%TD*%
%TO.P,D8,2*%
%TO.N,Net-(D7-Pad1)*%
%TA.AperFunction,ComponentPad*%
G36*
G01*
X175134220Y-120565860D02*
X175134220Y-120565860D01*
G75*
G02*
X174225181Y-119482509I87156J996195D01*
G01*
X174225181Y-119482509D01*
G75*
G02*
X175308532Y-118573470I996195J-87156D01*
G01*
X175308532Y-118573470D01*
G75*
G02*
X176217571Y-119656821I-87156J-996195D01*
G01*
X176217571Y-119656821D01*
G75*
G02*
X175134220Y-120565860I-996195J87156D01*
G01*
G37*
%TD.AperFunction*%
%TA.AperFunction,ComponentPad*%
%TO.P,D8,1*%
%TO.N,Net-(D8-Pad1)*%
G36*
X175909039Y-123183350D02*
G01*
X173916650Y-123009039D01*
X174090961Y-121016650D01*
X176083350Y-121190961D01*
X175909039Y-123183350D01*
G37*
%TD.AperFunction*%
%TD*%
D14*
%TO.P,J1,1*%
%TO.N,Net-(J1-Pad1)*%
X112800000Y-72600000D03*
D15*
%TO.P,J1,2*%
%TO.N,Net-(J1-Pad2)*%
X112800000Y-71330000D03*
%TD*%
%TO.P,J2,2*%
%TO.N,GND*%
X108550000Y-71330000D03*
D14*
%TO.P,J2,1*%
%TO.N,Net-(J1-Pad2)*%
X108550000Y-72600000D03*
%TD*%
%TO.P,J3,1*%
%TO.N,+BATT*%
X193600000Y-99300000D03*
D15*
%TO.P,J3,2*%
%TO.N,Net-(J3-Pad2)*%
X193600000Y-100570000D03*
%TD*%
D16*
%TO.P,J6,1*%
%TO.N,MOTOR_L_OUT1*%
X109100000Y-85300000D03*
D17*
%TO.P,J6,2*%
%TO.N,MOTOR_L_OUT2*%
X111640000Y-85300000D03*
%TO.P,J6,3*%
%TO.N,GND*%
X109100000Y-87840000D03*
%TO.P,J6,4*%
%TO.N,+5V*%
X111640000Y-87840000D03*
%TO.P,J6,5*%
%TO.N,TIM3_CH2_ENC_L_B*%
X109100000Y-90380000D03*
%TO.P,J6,6*%
%TO.N,TIM3_CH1_ENC_L_A*%
X111640000Y-90380000D03*
%TD*%
%TO.P,J7,6*%
%TO.N,TIM4_CH1_ENC_R_A*%
X111640000Y-103280000D03*
%TO.P,J7,5*%
%TO.N,TIM4_CH2_ENC_R_B*%
X109100000Y-103280000D03*
%TO.P,J7,4*%
%TO.N,+5V*%
X111640000Y-100740000D03*
%TO.P,J7,3*%
%TO.N,GND*%
X109100000Y-100740000D03*
%TO.P,J7,2*%
%TO.N,MOTOR_R_OUT2*%
X111640000Y-98200000D03*
D16*
%TO.P,J7,1*%
%TO.N,MOTOR_R_OUT1*%
X109100000Y-98200000D03*
%TD*%
%TO.P,SW1,1*%
%TO.N,GND*%
X109150000Y-62765000D03*
D17*
%TO.P,SW1,2*%
%TO.N,Net-(Q1-Pad1)*%
X109150000Y-65305000D03*
%TO.P,SW1,3*%
%TO.N,Net-(SW1-Pad3)*%
X109150000Y-67845000D03*
%TD*%
D18*
%TO.P,U8,13*%
%TO.N,GND*%
X117250000Y-85975000D03*
X117250000Y-84975000D03*
X117250000Y-86975000D03*
%TD*%
%TO.P,U9,13*%
%TO.N,GND*%
X117250000Y-103575000D03*
X117250000Y-101575000D03*
X117250000Y-102575000D03*
%TD*%
D19*
%TO.N,GND*%
X148608000Y-96300900D03*
X141030800Y-94458800D03*
X147534100Y-94311300D03*
X138817500Y-81930800D03*
X127256400Y-109600300D03*
X149496900Y-105328500D03*
X147764600Y-101387100D03*
X123399000Y-98121500D03*
X127325500Y-84192500D03*
X196137600Y-84400000D03*
X124398000Y-114457000D03*
X185382700Y-115959300D03*
X183563900Y-127290000D03*
X190291400Y-117224300D03*
X196154400Y-88780000D03*
X200080000Y-96164300D03*
X125942900Y-105195000D03*
X127114800Y-101591100D03*
X190350000Y-68200000D03*
X179450000Y-61100000D03*
X143750000Y-108900000D03*
X176300000Y-76800000D03*
X197650000Y-104250000D03*
X196400000Y-95000000D03*
X204050000Y-94750000D03*
X145450000Y-114850000D03*
X110850000Y-114600000D03*
X179350000Y-101150000D03*
X169850000Y-106750000D03*
X177050000Y-112350000D03*
X161500000Y-89550000D03*
X162000000Y-98650000D03*
X114350000Y-88000000D03*
X115100000Y-91750000D03*
X112000000Y-93900000D03*
X182300000Y-94200000D03*
X186750000Y-93300000D03*
X187350000Y-78600000D03*
X188250000Y-70950000D03*
X172600000Y-124250000D03*
X201450000Y-79300000D03*
X107250000Y-104950000D03*
X113788700Y-104411300D03*
X142650000Y-89500000D03*
X135550000Y-84900000D03*
X125700000Y-74700000D03*
X111350000Y-74550000D03*
X136650000Y-102200000D03*
X202200000Y-106050000D03*
X113550000Y-120950000D03*
X159950000Y-74950000D03*
%TO.N,IR_BL*%
X205104300Y-89199200D03*
X201919800Y-93174200D03*
%TO.N,Net-(22p1-Pad1)*%
X201815500Y-88228700D03*
X199577000Y-94020300D03*
%TO.N,Net-(22p2-Pad1)*%
X199291500Y-90315400D03*
X189288100Y-64555700D03*
%TO.N,IR_FL*%
X196887500Y-87690000D03*
X199535500Y-88108100D03*
%TO.N,Net-(22p3-Pad1)*%
X200531600Y-100635000D03*
X201011400Y-95513900D03*
%TO.N,IR_FR*%
X140645300Y-98358200D03*
X144280300Y-103210100D03*
X196313700Y-99660000D03*
X194186900Y-97462500D03*
%TO.N,Net-(22p4-Pad1)*%
X196986500Y-98915500D03*
X180751300Y-128610000D03*
%TO.N,Net-(C2-Pad2)*%
X174827000Y-63678600D03*
X180722700Y-85338500D03*
%TO.N,Net-(C3-Pad2)*%
X184080400Y-125254100D03*
%TO.N,+5V*%
X148873600Y-106300000D03*
X112560100Y-77003400D03*
%TO.N,+BATT*%
X115304500Y-98225000D03*
X116221800Y-84002200D03*
%TO.N,+3.3VADC*%
X184094600Y-87264400D03*
X168527900Y-115600000D03*
X159119400Y-108370000D03*
X135050100Y-96038100D03*
%TO.N,Net-(D6-Pad1)*%
X184750400Y-72209200D03*
%TO.N,Net-(J3-Pad2)*%
X190463900Y-91575900D03*
%TO.N,USART1_TX*%
X118075900Y-79290300D03*
X124206300Y-90543300D03*
%TO.N,USART1_RX*%
X114613000Y-79908600D03*
X126464600Y-92402400D03*
%TO.N,SWCLK*%
X115260100Y-112100000D03*
X122732800Y-95166400D03*
%TO.N,SWDIO*%
X112863400Y-110476900D03*
X122865800Y-91592500D03*
%TO.N,MOTOR_L_OUT1*%
X114472700Y-86142900D03*
%TO.N,TIM3_CH2_ENC_L_B*%
X119094000Y-98050000D03*
X122082300Y-100718300D03*
%TO.N,TIM3_CH1_ENC_L_A*%
X120883500Y-100157600D03*
%TO.N,TIM4_CH1_ENC_R_A*%
X120106500Y-101426952D03*
%TO.N,TIM4_CH2_ENC_R_B*%
X124795300Y-101393400D03*
%TO.N,MOTOR_R_OUT2*%
X114659200Y-103325000D03*
X116884200Y-98526900D03*
X114424400Y-97240700D03*
%TO.N,MOTOR_R_OUT1*%
X109005200Y-94957600D03*
%TO.N,Net-(Q1-Pad1)*%
X116420000Y-78250000D03*
X116470000Y-74140000D03*
%TO.N,Net-(Q2-Pad1)*%
X196947700Y-90862900D03*
X199228400Y-85342000D03*
%TO.N,Net-(Q3-Pad3)*%
X161958300Y-83555700D03*
X165736600Y-76040600D03*
%TO.N,TIM2_CH1_BUZZER*%
X131406500Y-82843500D03*
X126908900Y-95732000D03*
%TO.N,TIM8_CH1_MOTOR_FAN*%
X131184300Y-92282100D03*
X142726400Y-98871800D03*
%TO.N,LED6*%
X126138100Y-93365300D03*
X117325800Y-106004300D03*
%TO.N,LED5*%
X122190700Y-89485600D03*
X114905300Y-115100000D03*
%TO.N,LED4*%
X124814700Y-88380200D03*
X132828700Y-72948800D03*
%TO.N,LED3*%
X138260300Y-87517700D03*
X132380600Y-91143700D03*
%TO.N,LED2*%
X145687300Y-104326400D03*
X127166300Y-87915200D03*
%TO.N,LED1*%
X136505500Y-113022300D03*
X129215100Y-89634400D03*
%TO.N,BOOT0*%
X124217000Y-105242200D03*
X126521000Y-100840900D03*
%TO.N,SPI_MISO*%
X149338800Y-94360400D03*
X134358100Y-92399700D03*
%TO.N,SPI_CS*%
X135059000Y-93078600D03*
X154252441Y-94549990D03*
%TO.N,SPI_SCK*%
X151724300Y-91825100D03*
X145197900Y-85298700D03*
%TO.N,SPI_MOSI*%
X153769500Y-92919300D03*
X142266700Y-92279500D03*
%TO.N,TIM5_CH1_MOTOR_L_IN1*%
X133781100Y-97234400D03*
X129207600Y-102911200D03*
X122054300Y-103087900D03*
X122606000Y-93216400D03*
%TO.N,TIM5_CH2_MOTOR_L_IN2*%
X119519600Y-86380800D03*
X117590600Y-90130700D03*
%TO.N,TIM5_CH4_MOTOR_R_IN2*%
X128551200Y-103738200D03*
X137615600Y-94320300D03*
X119497632Y-104610504D03*
X119996229Y-103076975D03*
%TO.N,Net-(C21-Pad2)*%
X121702000Y-94180400D03*
X125175200Y-93677800D03*
%TO.N,TIM10_CH1_IR_LED_INNER*%
X132118000Y-83494300D03*
X127869100Y-95244200D03*
%TO.N,TIM11_CH1_IR_LED_OUTER*%
X130002700Y-99748000D03*
X140594700Y-116172700D03*
%TO.N,/1.65VA*%
X201906800Y-95972600D03*
X200535900Y-93040300D03*
%TO.N,BUTTON*%
X155594500Y-97564300D03*
X136911300Y-89971200D03*
X119611300Y-83007600D03*
X124489600Y-85449500D03*
X155395400Y-79008400D03*
X146225800Y-94479000D03*
X129569500Y-111150000D03*
X128043000Y-106655400D03*
X145981900Y-99560600D03*
X130759500Y-86451700D03*
X130447500Y-98097000D03*
X124342800Y-99392100D03*
X126075700Y-94328200D03*
%TD*%
D20*
%TO.N,GND*%
X147569800Y-94368200D02*
X147030300Y-93828700D01*
X147030300Y-93828700D02*
X141660900Y-93828700D01*
X141660900Y-93828700D02*
X141030800Y-94458800D01*
X147764600Y-96300900D02*
X147764600Y-94563000D01*
X147764600Y-94563000D02*
X147612200Y-94410600D01*
X147612200Y-94410600D02*
X147612200Y-94389400D01*
X147612200Y-94389400D02*
X147591000Y-94389400D01*
X147591000Y-94389400D02*
X147591000Y-94368200D01*
X147591000Y-94368200D02*
X147569800Y-94368200D01*
X147569800Y-94368200D02*
X147569800Y-94347000D01*
X147569800Y-94347000D02*
X147534100Y-94311300D01*
X147764600Y-101387100D02*
X147764600Y-96300900D01*
X147764600Y-96300900D02*
X148608000Y-96300900D01*
X123399000Y-98121500D02*
X123433400Y-98155900D01*
X123433400Y-98155900D02*
X123433400Y-99447500D01*
X123433400Y-99447500D02*
X124118600Y-100132700D01*
X124118600Y-100132700D02*
X126773100Y-100132700D01*
X126773100Y-100132700D02*
X127224300Y-100583900D01*
X127224300Y-100583900D02*
X127224300Y-101481600D01*
X127224300Y-101481600D02*
X127114800Y-101591100D01*
X125942900Y-105195000D02*
X127114800Y-104023100D01*
X127114800Y-104023100D02*
X127114800Y-101591100D01*
X135950000Y-79800000D02*
X135950000Y-80600300D01*
X138817500Y-81930800D02*
X137487000Y-80600300D01*
X137487000Y-80600300D02*
X135950000Y-80600300D01*
X125942900Y-109600300D02*
X125942900Y-112912100D01*
X125942900Y-112912100D02*
X124398000Y-114457000D01*
X125942900Y-105195000D02*
X125942900Y-109600300D01*
X125942900Y-109600300D02*
X127256400Y-109600300D01*
X183563900Y-127290000D02*
X186479500Y-124374400D01*
X186479500Y-124374400D02*
X186479500Y-121036200D01*
X186479500Y-121036200D02*
X188469600Y-119046100D01*
X147764600Y-101387100D02*
X147764600Y-103596200D01*
X147764600Y-103596200D02*
X149496900Y-105328500D01*
X131450000Y-79800000D02*
X131450000Y-80600300D01*
X131450000Y-80600300D02*
X130917700Y-80600300D01*
X130917700Y-80600300D02*
X127325500Y-84192500D01*
X196154400Y-88780000D02*
X196154400Y-84416800D01*
X196154400Y-84416800D02*
X196137600Y-84400000D01*
X200080000Y-96164300D02*
X196154400Y-92238700D01*
X196154400Y-92238700D02*
X196154400Y-88780000D01*
X109100000Y-87840000D02*
X109100000Y-86739700D01*
X108550000Y-71330000D02*
X107799700Y-71330000D01*
X107799700Y-71330000D02*
X107799700Y-86056500D01*
X107799700Y-86056500D02*
X108482900Y-86739700D01*
X108482900Y-86739700D02*
X109100000Y-86739700D01*
X188469600Y-119046100D02*
X190291400Y-117224300D01*
X188469600Y-119046100D02*
X185382700Y-115959300D01*
X200080000Y-96164300D02*
X200080000Y-99157300D01*
X200080000Y-99157300D02*
X190291400Y-108945900D01*
X190291400Y-108945900D02*
X190291400Y-117224300D01*
%TO.N,IR_BL*%
X205104300Y-89199200D02*
X205104300Y-89989700D01*
X205104300Y-89989700D02*
X201919800Y-93174200D01*
%TO.N,Net-(22p1-Pad1)*%
X199577000Y-94020300D02*
X199577000Y-90949600D01*
X199577000Y-90949600D02*
X201815500Y-88711100D01*
X201815500Y-88711100D02*
X201815500Y-88228700D01*
%TO.N,Net-(22p2-Pad1)*%
X199291500Y-90315400D02*
X200263900Y-89343000D01*
X200263900Y-89343000D02*
X200263900Y-75531500D01*
X200263900Y-75531500D02*
X189288100Y-64555700D01*
%TO.N,IR_FL*%
X199535500Y-88108100D02*
X199878800Y-87764800D01*
X199878800Y-87764800D02*
X199878800Y-85020700D01*
X199878800Y-85020700D02*
X199488500Y-84630400D01*
X199488500Y-84630400D02*
X198987700Y-84630400D01*
X198987700Y-84630400D02*
X196887500Y-86730600D01*
X196887500Y-86730600D02*
X196887500Y-87690000D01*
%TO.N,Net-(22p3-Pad1)*%
X200531600Y-100635000D02*
X201011400Y-100155200D01*
X201011400Y-100155200D02*
X201011400Y-95513900D01*
%TO.N,IR_FR*%
X144280300Y-103210100D02*
X140645300Y-99575100D01*
X140645300Y-99575100D02*
X140645300Y-98358200D01*
X194186900Y-97462500D02*
X194186900Y-97533200D01*
X194186900Y-97533200D02*
X196313700Y-99660000D01*
%TO.N,Net-(22p4-Pad1)*%
X196986500Y-98915500D02*
X196986500Y-101649700D01*
X196986500Y-101649700D02*
X184728700Y-113907500D01*
X184728700Y-113907500D02*
X184728700Y-117095500D01*
X184728700Y-117095500D02*
X185551100Y-117917900D01*
X185551100Y-117917900D02*
X185551100Y-124807300D01*
X185551100Y-124807300D02*
X183718700Y-126639700D01*
X183718700Y-126639700D02*
X182721600Y-126639700D01*
X182721600Y-126639700D02*
X180751300Y-128610000D01*
%TO.N,Net-(C2-Pad2)*%
X180722700Y-85338500D02*
X173674000Y-78289800D01*
X173674000Y-78289800D02*
X173674000Y-64831600D01*
X173674000Y-64831600D02*
X174827000Y-63678600D01*
%TO.N,Net-(C3-Pad2)*%
X189980200Y-102788000D02*
X189980200Y-104611900D01*
X189980200Y-104611900D02*
X191379400Y-106011100D01*
X191379400Y-106011100D02*
X191379400Y-106761200D01*
X191379400Y-106761200D02*
X184377800Y-113762800D01*
X184377800Y-113762800D02*
X184377800Y-117500200D01*
X184377800Y-117500200D02*
X185190300Y-118312700D01*
X185190300Y-118312700D02*
X185190300Y-124144200D01*
X185190300Y-124144200D02*
X184080400Y-125254100D01*
X189096100Y-101903900D02*
X189980200Y-102788000D01*
%TO.N,+5V*%
X148873600Y-106300000D02*
X149474600Y-106300000D01*
X149474600Y-106300000D02*
X154929800Y-100844800D01*
X154929800Y-100844800D02*
X154929800Y-93096800D01*
X154929800Y-93096800D02*
X144676900Y-82843900D01*
X144676900Y-82843900D02*
X134243600Y-82843900D01*
X134243600Y-82843900D02*
X133700000Y-82300300D01*
X131450000Y-81500000D02*
X131123300Y-81500000D01*
X131123300Y-81500000D02*
X125465100Y-87158200D01*
X125465100Y-87158200D02*
X125465100Y-90214500D01*
X125465100Y-90214500D02*
X124463100Y-91216500D01*
X124463100Y-91216500D02*
X123904800Y-91216500D01*
X123904800Y-91216500D02*
X123541600Y-90853300D01*
X123541600Y-90853300D02*
X123541600Y-87878700D01*
X123541600Y-87878700D02*
X114869300Y-79206400D01*
X114869300Y-79206400D02*
X114359100Y-79206400D01*
X114359100Y-79206400D02*
X113918500Y-79647000D01*
X113918500Y-79647000D02*
X113918500Y-81512600D01*
X113918500Y-81512600D02*
X115184300Y-82778400D01*
X115184300Y-82778400D02*
X115184300Y-86403000D01*
X115184300Y-86403000D02*
X114794000Y-86793300D01*
X114794000Y-86793300D02*
X113782300Y-86793300D01*
X113782300Y-86793300D02*
X112753100Y-85764100D01*
X133700000Y-81500000D02*
X133700000Y-82300300D01*
X112753100Y-85764100D02*
X112753100Y-77196400D01*
X112753100Y-77196400D02*
X112560100Y-77003400D01*
X111640000Y-86739700D02*
X111777500Y-86739700D01*
X111777500Y-86739700D02*
X112753100Y-85764100D01*
X111640000Y-87840000D02*
X111640000Y-86739700D01*
%TO.N,+BATT*%
X116221800Y-84002200D02*
X118060700Y-84002200D01*
X118060700Y-84002200D02*
X122531800Y-88473300D01*
X122531800Y-88473300D02*
X122531800Y-88907000D01*
X122531800Y-88907000D02*
X122841000Y-89216200D01*
X122841000Y-89216200D02*
X122841000Y-89755000D01*
X122841000Y-89755000D02*
X115304500Y-97291500D01*
X115304500Y-97291500D02*
X115304500Y-98225000D01*
X175291600Y-66528200D02*
X175050100Y-66769700D01*
X175050100Y-66769700D02*
X174978600Y-66769700D01*
X135950000Y-77299700D02*
X140254000Y-72995700D01*
X140254000Y-72995700D02*
X170922600Y-72995700D01*
X170922600Y-72995700D02*
X173323600Y-70594700D01*
X173323600Y-70594700D02*
X173323600Y-64243100D01*
X173323600Y-64243100D02*
X174568400Y-62998300D01*
X174568400Y-62998300D02*
X175076700Y-62998300D01*
X175076700Y-62998300D02*
X175477300Y-63398900D01*
X175477300Y-63398900D02*
X175477300Y-66342500D01*
X175477300Y-66342500D02*
X175291600Y-66528200D01*
X135950000Y-78100000D02*
X135950000Y-77299700D01*
X135950000Y-78100000D02*
X135950000Y-78900300D01*
X133700000Y-78100000D02*
X133700000Y-78900300D01*
X133700000Y-78900300D02*
X135950000Y-78900300D01*
X193600000Y-99300000D02*
X192900000Y-99300000D01*
X191149990Y-91342190D02*
X187211300Y-87403500D01*
X187211300Y-87403500D02*
X187211300Y-86820400D01*
X178832400Y-70171162D02*
X178610278Y-69984780D01*
X187211300Y-86820400D02*
X188619900Y-85411800D01*
X192900000Y-99300000D02*
X191149990Y-97549990D01*
X188619900Y-75149400D02*
X183641662Y-70171162D01*
X183641662Y-70171162D02*
X178832400Y-70171162D01*
X191149990Y-97549990D02*
X191149990Y-91342190D01*
X178610278Y-69984780D02*
X178597057Y-69833657D01*
X178597057Y-69833657D02*
X175291600Y-66528200D01*
X189503949Y-82653949D02*
X188619900Y-81769900D01*
X189503949Y-82803949D02*
X189503949Y-82653949D01*
X188619900Y-81769900D02*
X188619900Y-75149400D01*
X189503949Y-84133277D02*
X188619900Y-85017326D01*
X189503949Y-82803949D02*
X189503949Y-84133277D01*
X188619900Y-85017326D02*
X188619900Y-85411800D01*
%TO.N,+3.3VADC*%
X159119400Y-108370000D02*
X161297900Y-108370000D01*
X161297900Y-108370000D02*
X168527900Y-115600000D01*
X135050100Y-96038100D02*
X147382000Y-108370000D01*
X147382000Y-108370000D02*
X159119400Y-108370000D01*
X170345300Y-121681400D02*
X170345300Y-117417400D01*
X170345300Y-117417400D02*
X168527900Y-115600000D01*
X187300000Y-103700000D02*
X184094600Y-100494600D01*
X184094600Y-100494600D02*
X184094600Y-87264400D01*
X171700000Y-121800000D02*
X173054700Y-121918600D01*
X187300000Y-103700000D02*
X186415900Y-104584100D01*
X186415900Y-104584100D02*
X186415900Y-107692900D01*
X186415900Y-107692900D02*
X177231500Y-116877300D01*
X177231500Y-116877300D02*
X177231500Y-122286700D01*
X177231500Y-122286700D02*
X176032600Y-123485600D01*
X176032600Y-123485600D02*
X173985400Y-123485600D01*
X173985400Y-123485600D02*
X173054700Y-122554900D01*
X173054700Y-122554900D02*
X173054700Y-121918600D01*
X171700000Y-121800000D02*
X170345300Y-121681400D01*
X184577738Y-64950539D02*
X184734241Y-64950539D01*
X193578400Y-73794698D02*
X193578400Y-78733412D01*
X174436800Y-62581700D02*
X182208900Y-62581700D01*
X189607107Y-84525109D02*
X189607107Y-86192893D01*
X191249816Y-82882400D02*
X189607107Y-84525109D01*
X172961300Y-64057200D02*
X174436800Y-62581700D01*
X192641600Y-82882400D02*
X191249816Y-82882400D01*
X171900000Y-69600000D02*
X172961300Y-68538700D01*
X192887635Y-83128435D02*
X192641600Y-82882400D01*
X194444980Y-83128435D02*
X192887635Y-83128435D01*
X196064222Y-81509194D02*
X194444980Y-83128435D01*
X184734241Y-64950539D02*
X193578400Y-73794698D01*
X196064222Y-81219234D02*
X196064222Y-81509194D01*
X193578400Y-78733412D02*
X196064222Y-81219234D01*
X189607107Y-86192893D02*
X188900000Y-86900000D01*
X182208900Y-62581700D02*
X184577738Y-64950539D01*
X172961300Y-68538700D02*
X172961300Y-64057200D01*
%TO.N,Net-(D5-Pad1)*%
X194399400Y-98724200D02*
X194399400Y-101400600D01*
X191500000Y-95824800D02*
X194399400Y-98724200D01*
X191500000Y-92250000D02*
X191500000Y-95824800D01*
X192131700Y-91618300D02*
X191500000Y-92250000D01*
X194399400Y-101400600D02*
X191496100Y-104303900D01*
X192181700Y-91618300D02*
X192131700Y-91618300D01*
X192181700Y-85486500D02*
X192181700Y-91618300D01*
X192184100Y-85484100D02*
X192181700Y-85486500D01*
X191300000Y-84600000D02*
X192184100Y-85484100D01*
%TO.N,Net-(D6-Pad1)*%
X188815900Y-105215900D02*
X189011000Y-105020800D01*
X189011000Y-105020800D02*
X189011000Y-103587200D01*
X189011000Y-103587200D02*
X184750400Y-99326600D01*
X184750400Y-99326600D02*
X184750400Y-72209200D01*
X189700000Y-106100000D02*
X188815900Y-105215900D01*
%TO.N,Net-(D7-Pad1)*%
X175334400Y-118278900D02*
X181026100Y-112587200D01*
X181026100Y-112587200D02*
X181026100Y-85954800D01*
X181026100Y-85954800D02*
X181373000Y-85607900D01*
X181373000Y-85607900D02*
X181373000Y-85069100D01*
X181373000Y-85069100D02*
X181026100Y-84722200D01*
X181026100Y-84722200D02*
X181026100Y-76362200D01*
X181026100Y-76362200D02*
X175318600Y-70654700D01*
X175221400Y-119569700D02*
X175334400Y-118278900D01*
X175200000Y-69300000D02*
X175318600Y-70654700D01*
%TO.N,Net-(J3-Pad2)*%
X193600000Y-100570000D02*
X192849700Y-100570000D01*
X192849700Y-100570000D02*
X190463900Y-98184200D01*
X190463900Y-98184200D02*
X190463900Y-91575900D01*
%TO.N,USART1_TX*%
X118075900Y-79290300D02*
X118075900Y-79955400D01*
X118075900Y-79955400D02*
X124164400Y-86043900D01*
X124164400Y-86043900D02*
X124164400Y-90501400D01*
X124164400Y-90501400D02*
X124206300Y-90543300D01*
%TO.N,USART1_RX*%
X126464600Y-92402400D02*
X124595300Y-92402400D01*
X124595300Y-92402400D02*
X123047200Y-90854300D01*
X123047200Y-90854300D02*
X123047200Y-90044200D01*
X123047200Y-90044200D02*
X123191300Y-89900100D01*
X123191300Y-89900100D02*
X123191300Y-89071100D01*
X123191300Y-89071100D02*
X122903200Y-88783000D01*
X122903200Y-88783000D02*
X122903200Y-88198800D01*
X122903200Y-88198800D02*
X114613000Y-79908600D01*
%TO.N,SWCLK*%
X115260100Y-112100000D02*
X123083100Y-104277000D01*
X123083100Y-104277000D02*
X123083100Y-98754300D01*
X123083100Y-98754300D02*
X122732800Y-98404000D01*
X122732800Y-98404000D02*
X122732800Y-95166400D01*
%TO.N,SWDIO*%
X122865800Y-91592500D02*
X122814900Y-91592500D01*
X122814900Y-91592500D02*
X122094000Y-92313400D01*
X122094000Y-92313400D02*
X121649500Y-92313400D01*
X121649500Y-92313400D02*
X119984100Y-93978800D01*
X119984100Y-93978800D02*
X119984100Y-94474200D01*
X119984100Y-94474200D02*
X112863400Y-101594900D01*
X112863400Y-101594900D02*
X112863400Y-110476900D01*
%TO.N,MOTOR_L_OUT1*%
X109100000Y-85300000D02*
X109100000Y-79483800D01*
X109100000Y-79483800D02*
X112284800Y-76299000D01*
X112284800Y-76299000D02*
X112843900Y-76299000D01*
X112843900Y-76299000D02*
X113402900Y-76858000D01*
X113402900Y-76858000D02*
X113402900Y-85073100D01*
X113402900Y-85073100D02*
X114472700Y-86142900D01*
%TO.N,TIM3_CH2_ENC_L_B*%
X119094000Y-98050000D02*
X119695900Y-98050000D01*
X119695900Y-98050000D02*
X122082300Y-100436400D01*
X122082300Y-100436400D02*
X122082300Y-100718300D01*
%TO.N,TIM3_CH1_ENC_L_A*%
X112525100Y-111553900D02*
X110507500Y-109536300D01*
X120883500Y-100157600D02*
X121283499Y-100557599D01*
X119954613Y-105610517D02*
X119308483Y-105610517D01*
X119308483Y-105610517D02*
X113365100Y-111553900D01*
X113365100Y-111553900D02*
X112525100Y-111553900D01*
X110507500Y-109536300D02*
X110507500Y-91512500D01*
X110507500Y-91512500D02*
X110790001Y-91229999D01*
X121283499Y-100557599D02*
X121283499Y-104281631D01*
X110790001Y-91229999D02*
X111640000Y-90380000D01*
X121283499Y-104281631D02*
X119954613Y-105610517D01*
%TO.N,TIM4_CH1_ENC_R_A*%
X113185200Y-111156400D02*
X119081094Y-105260506D01*
X119081094Y-105260506D02*
X119801496Y-105260506D01*
X112623000Y-111156400D02*
X113185200Y-111156400D01*
X120646230Y-101966682D02*
X120106500Y-101426952D01*
X120646230Y-104415772D02*
X120646230Y-101966682D01*
X119801496Y-105260506D02*
X120646230Y-104415772D01*
X111640000Y-110173400D02*
X112623000Y-111156400D01*
X111640000Y-103280000D02*
X111640000Y-110173400D01*
%TO.N,TIM4_CH2_ENC_R_B*%
X109100000Y-103280000D02*
X109100000Y-108692400D01*
X109100000Y-108692400D02*
X113179400Y-112771800D01*
X113179400Y-112771800D02*
X115563700Y-112771800D01*
X115563700Y-112771800D02*
X124795300Y-103540200D01*
X124795300Y-103540200D02*
X124795300Y-101393400D01*
%TO.N,MOTOR_R_OUT2*%
X116884200Y-98526900D02*
X116884200Y-101100000D01*
X116884200Y-101100000D02*
X114659200Y-103325000D01*
X111640000Y-98200000D02*
X113465100Y-98200000D01*
X113465100Y-98200000D02*
X114424400Y-97240700D01*
%TO.N,MOTOR_R_OUT1*%
X109100000Y-98200000D02*
X109100000Y-97099700D01*
X109100000Y-97099700D02*
X109005200Y-97004900D01*
X109005200Y-97004900D02*
X109005200Y-94957600D01*
D21*
%TO.N,Net-(Q1-Pad1)*%
X116470000Y-74140000D02*
X116470000Y-78200000D01*
X116470000Y-78200000D02*
X116420000Y-78250000D01*
D20*
%TO.N,Net-(Q2-Pad1)*%
X199228400Y-85342000D02*
X198885200Y-85685200D01*
X198885200Y-85685200D02*
X198885200Y-88925400D01*
X198885200Y-88925400D02*
X196947700Y-90862900D01*
%TO.N,Net-(Q3-Pad3)*%
X161958300Y-83555700D02*
X161958300Y-79818900D01*
X161958300Y-79818900D02*
X165736600Y-76040600D01*
%TO.N,TIM2_CH1_BUZZER*%
X126908900Y-95732000D02*
X127171200Y-95469700D01*
X127171200Y-95469700D02*
X127171200Y-89830500D01*
X127171200Y-89830500D02*
X125815400Y-88474700D01*
X125815400Y-88474700D02*
X125815400Y-87355500D01*
X125815400Y-87355500D02*
X130327400Y-82843500D01*
X130327400Y-82843500D02*
X131406500Y-82843500D01*
%TO.N,TIM8_CH1_MOTOR_FAN*%
X131184300Y-92282100D02*
X133712700Y-94810500D01*
X133712700Y-94810500D02*
X136205500Y-94810500D01*
X136205500Y-94810500D02*
X137386700Y-93629300D01*
X137386700Y-93629300D02*
X137882200Y-93629300D01*
X137882200Y-93629300D02*
X142726400Y-98473500D01*
X142726400Y-98473500D02*
X142726400Y-98871800D01*
%TO.N,LED6*%
X126138100Y-93365300D02*
X125786800Y-93014000D01*
X125786800Y-93014000D02*
X123323300Y-93014000D01*
X123323300Y-93014000D02*
X122875400Y-92566100D01*
X122875400Y-92566100D02*
X122336700Y-92566100D01*
X122336700Y-92566100D02*
X122239100Y-92663700D01*
X122239100Y-92663700D02*
X121794600Y-92663700D01*
X121794600Y-92663700D02*
X120334400Y-94123900D01*
X120334400Y-94123900D02*
X120334400Y-94619300D01*
X120334400Y-94619300D02*
X117814000Y-97139700D01*
X117814000Y-97139700D02*
X117814000Y-105516100D01*
X117814000Y-105516100D02*
X117325800Y-106004300D01*
%TO.N,LED5*%
X114905300Y-115100000D02*
X107995600Y-108190300D01*
X107995600Y-108190300D02*
X107995600Y-93334600D01*
X107995600Y-93334600D02*
X110539600Y-90790600D01*
X110539600Y-90790600D02*
X110539600Y-89895900D01*
X110539600Y-89895900D02*
X111227300Y-89208200D01*
X111227300Y-89208200D02*
X115455800Y-89208200D01*
X115455800Y-89208200D02*
X117062200Y-90814600D01*
X117062200Y-90814600D02*
X120861700Y-90814600D01*
X120861700Y-90814600D02*
X122190700Y-89485600D01*
%TO.N,LED4*%
X124814700Y-88380200D02*
X124814700Y-86044100D01*
X124814700Y-86044100D02*
X125139900Y-85718900D01*
X125139900Y-85718900D02*
X125139900Y-80637600D01*
X125139900Y-80637600D02*
X132828700Y-72948800D01*
%TO.N,LED3*%
X132380600Y-91143700D02*
X136006600Y-87517700D01*
X136006600Y-87517700D02*
X138260300Y-87517700D01*
%TO.N,LED2*%
X145687300Y-104326400D02*
X145687300Y-100913000D01*
X145687300Y-100913000D02*
X142995800Y-98221500D01*
X142995800Y-98221500D02*
X142969800Y-98221500D01*
X142969800Y-98221500D02*
X138020000Y-93271700D01*
X138020000Y-93271700D02*
X137248900Y-93271700D01*
X137248900Y-93271700D02*
X136060400Y-94460200D01*
X136060400Y-94460200D02*
X134282100Y-94460200D01*
X134282100Y-94460200D02*
X131158700Y-91336800D01*
X131158700Y-91336800D02*
X131158700Y-90142600D01*
X131158700Y-90142600D02*
X128931300Y-87915200D01*
X128931300Y-87915200D02*
X127166300Y-87915200D01*
%TO.N,LED1*%
X129215100Y-89634400D02*
X129215100Y-98625200D01*
X129215100Y-98625200D02*
X128115400Y-99724900D01*
X128115400Y-99724900D02*
X128115400Y-102356000D01*
X128115400Y-102356000D02*
X127900800Y-102570600D01*
X127900800Y-102570600D02*
X127900800Y-104417600D01*
X127900800Y-104417600D02*
X136505500Y-113022300D01*
%TO.N,BOOT0*%
X124217000Y-105242200D02*
X126328700Y-103130500D01*
X126328700Y-103130500D02*
X126328700Y-101033200D01*
X126328700Y-101033200D02*
X126521000Y-100840900D01*
%TO.N,SPI_MISO*%
X149338800Y-94360400D02*
X148456800Y-93478400D01*
X148456800Y-93478400D02*
X139217500Y-93478400D01*
X139217500Y-93478400D02*
X138310200Y-92571100D01*
X138310200Y-92571100D02*
X136783600Y-92571100D01*
X136783600Y-92571100D02*
X135595200Y-93759500D01*
X135595200Y-93759500D02*
X134775600Y-93759500D01*
X134775600Y-93759500D02*
X134358100Y-93342000D01*
X134358100Y-93342000D02*
X134358100Y-92399700D01*
%TO.N,SPI_CS*%
X135928700Y-92208900D02*
X138443400Y-92208900D01*
X135059000Y-93078600D02*
X135928700Y-92208900D01*
X138443400Y-92208900D02*
X139188500Y-92954000D01*
X139188500Y-92954000D02*
X152656451Y-92954000D01*
X152656451Y-92954000D02*
X154252441Y-94549990D01*
%TO.N,SPI_SCK*%
X151724300Y-91825100D02*
X145197900Y-85298700D01*
%TO.N,SPI_MOSI*%
X142266700Y-92279500D02*
X142462600Y-92475400D01*
X142462600Y-92475400D02*
X153325600Y-92475400D01*
X153325600Y-92475400D02*
X153769500Y-92919300D01*
%TO.N,TIM5_CH1_MOTOR_L_IN1*%
X133781100Y-97234400D02*
X131917800Y-99097700D01*
X131917800Y-99097700D02*
X129733400Y-99097700D01*
X129733400Y-99097700D02*
X129207600Y-99623500D01*
X129207600Y-99623500D02*
X129207600Y-102911200D01*
X122606000Y-93216400D02*
X121737300Y-93216400D01*
X121737300Y-93216400D02*
X120954000Y-93999700D01*
X120954000Y-93999700D02*
X120954000Y-97295500D01*
X120954000Y-97295500D02*
X122732800Y-99074300D01*
X122732800Y-99074300D02*
X122732800Y-101112300D01*
X122732800Y-101112300D02*
X122054300Y-101790800D01*
X122054300Y-101790800D02*
X122054300Y-103087900D01*
%TO.N,TIM5_CH2_MOTOR_L_IN2*%
X117590600Y-90130700D02*
X117590600Y-88309800D01*
X117590600Y-88309800D02*
X119519600Y-86380800D01*
%TO.N,TIM5_CH4_MOTOR_R_IN2*%
X137615600Y-94320300D02*
X136775100Y-95160800D01*
X136775100Y-95160800D02*
X134935200Y-95160800D01*
X134935200Y-95160800D02*
X131348600Y-98747400D01*
X131348600Y-98747400D02*
X129588300Y-98747400D01*
X129588300Y-98747400D02*
X128551200Y-99784500D01*
X128551200Y-99784500D02*
X128551200Y-103738200D01*
X119497632Y-103575572D02*
X119497632Y-104610504D01*
X119996229Y-103076975D02*
X119497632Y-103575572D01*
%TO.N,Net-(C21-Pad2)*%
X125175200Y-93677800D02*
X124672600Y-94180400D01*
X124672600Y-94180400D02*
X121702000Y-94180400D01*
%TO.N,TIM10_CH1_IR_LED_INNER*%
X127869100Y-95244200D02*
X127869100Y-90033000D01*
X127869100Y-90033000D02*
X126165700Y-88329600D01*
X126165700Y-88329600D02*
X126165700Y-87500600D01*
X126165700Y-87500600D02*
X130172000Y-83494300D01*
X130172000Y-83494300D02*
X132118000Y-83494300D01*
%TO.N,TIM11_CH1_IR_LED_OUTER*%
X140594700Y-116172700D02*
X140594700Y-110340000D01*
X140594700Y-110340000D02*
X130002700Y-99748000D01*
%TO.N,/1.65VA*%
X201906800Y-95972600D02*
X201906800Y-94411200D01*
X201906800Y-94411200D02*
X200535900Y-93040300D01*
%TO.N,BUTTON*%
X155395400Y-97564300D02*
X155395400Y-79008400D01*
X145981900Y-99560600D02*
X146737900Y-100316600D01*
X146737900Y-100316600D02*
X146737900Y-105097000D01*
X146737900Y-105097000D02*
X148643100Y-107002200D01*
X148643100Y-107002200D02*
X149267900Y-107002200D01*
X149267900Y-107002200D02*
X155395400Y-100874700D01*
X155395400Y-100874700D02*
X155395400Y-97564300D01*
X155395400Y-97564300D02*
X155594500Y-97564300D01*
X133655600Y-92165900D02*
X133655600Y-93191700D01*
X133655600Y-93191700D02*
X134573800Y-94109900D01*
X134573800Y-94109900D02*
X135915100Y-94109900D01*
X135915100Y-94109900D02*
X137103600Y-92921400D01*
X137103600Y-92921400D02*
X138165100Y-92921400D01*
X138165100Y-92921400D02*
X143114900Y-97871200D01*
X143114900Y-97871200D02*
X144292500Y-97871200D01*
X144292500Y-97871200D02*
X145981900Y-99560600D01*
X136911300Y-89971200D02*
X135850300Y-89971200D01*
X135850300Y-89971200D02*
X133655600Y-92165900D01*
X133655600Y-92165900D02*
X132483300Y-92165900D01*
X132483300Y-92165900D02*
X131550800Y-91233400D01*
X131550800Y-91233400D02*
X131550800Y-87243000D01*
X131550800Y-87243000D02*
X130759500Y-86451700D01*
X146225800Y-94479000D02*
X146225800Y-99316700D01*
X146225800Y-99316700D02*
X145981900Y-99560600D01*
X130447500Y-98097000D02*
X130447500Y-89926900D01*
X130447500Y-89926900D02*
X129470900Y-88950300D01*
X129470900Y-88950300D02*
X128914600Y-88950300D01*
X128914600Y-88950300D02*
X128519600Y-89345300D01*
X127650600Y-96382400D02*
X127765100Y-96496900D01*
X127765100Y-96496900D02*
X127765100Y-102210900D01*
X127765100Y-102210900D02*
X127550500Y-102425500D01*
X127550500Y-102425500D02*
X127550500Y-106162900D01*
X127550500Y-106162900D02*
X128043000Y-106655400D01*
X126075700Y-96382400D02*
X126075700Y-97659200D01*
X126075700Y-97659200D02*
X124342800Y-99392100D01*
X124489600Y-85449500D02*
X124489600Y-84736800D01*
X124489600Y-84736800D02*
X118392700Y-78639900D01*
X118392700Y-78639900D02*
X117754700Y-78639900D01*
X117754700Y-78639900D02*
X117364400Y-79030200D01*
X117364400Y-79030200D02*
X117364400Y-80760700D01*
X117364400Y-80760700D02*
X119611300Y-83007600D01*
X128043000Y-106655400D02*
X129569500Y-108181900D01*
X129569500Y-108181900D02*
X129569500Y-111150000D01*
X128519600Y-89345300D02*
X127676800Y-89345300D01*
X127676800Y-89345300D02*
X126516000Y-88184500D01*
X126516000Y-88184500D02*
X126516000Y-87645900D01*
X126516000Y-87645900D02*
X127710200Y-86451700D01*
X127710200Y-86451700D02*
X130759500Y-86451700D01*
X127650600Y-96382400D02*
X128519600Y-95513400D01*
X128519600Y-95513400D02*
X128519600Y-89345300D01*
X126075700Y-96382400D02*
X127650600Y-96382400D01*
X126075700Y-94328200D02*
X126075700Y-96382400D01*
%TD*%
D22*
%TO.N,GND*%
X188091535Y-105359985D02*
X188098959Y-105384457D01*
X187834601Y-105648815D01*
X187755249Y-105745506D01*
X187696284Y-105855820D01*
X187659974Y-105975518D01*
X187647714Y-106100000D01*
X187659974Y-106224482D01*
X187696284Y-106344180D01*
X187755249Y-106454494D01*
X187834601Y-106551185D01*
X189192285Y-107908869D01*
X183883608Y-113217546D01*
X183855562Y-113240563D01*
X183763713Y-113352481D01*
X183695463Y-113480168D01*
X183675937Y-113544537D01*
X183653435Y-113618715D01*
X183639244Y-113762800D01*
X183642800Y-113798905D01*
X183642801Y-117464085D01*
X183639244Y-117500200D01*
X183653435Y-117644285D01*
X183693641Y-117776822D01*
X183695464Y-117782833D01*
X183763714Y-117910520D01*
X183855563Y-118022438D01*
X183883608Y-118045454D01*
X184455300Y-118617147D01*
X184455300Y-119055431D01*
X183031132Y-118930834D01*
X182995469Y-118924144D01*
X182854329Y-118925683D01*
X182850695Y-118925723D01*
X182820903Y-118931988D01*
X182709013Y-118955515D01*
X182575863Y-119012377D01*
X182456366Y-119094122D01*
X182355112Y-119197609D01*
X182275993Y-119318862D01*
X182222050Y-119453220D01*
X182202044Y-119559862D01*
X182202044Y-119559867D01*
X182195355Y-119595521D01*
X182195751Y-119631795D01*
X182027733Y-121552246D01*
X182027732Y-121552251D01*
X181853422Y-123544638D01*
X181846732Y-123580298D01*
X181847210Y-123624117D01*
X181848311Y-123725071D01*
X181878104Y-123866755D01*
X181890559Y-123895919D01*
X181934965Y-123999904D01*
X182016711Y-124119401D01*
X182120198Y-124220655D01*
X182241450Y-124299774D01*
X182375808Y-124353717D01*
X182482450Y-124373723D01*
X182482453Y-124373723D01*
X182518108Y-124380412D01*
X182554383Y-124380016D01*
X183415440Y-124455349D01*
X183276463Y-124594326D01*
X183163195Y-124763844D01*
X183085174Y-124952202D01*
X183045400Y-125152161D01*
X183045400Y-125356039D01*
X183085174Y-125555998D01*
X183163195Y-125744356D01*
X183270333Y-125904700D01*
X182757705Y-125904700D01*
X182721600Y-125901144D01*
X182577514Y-125915335D01*
X182535486Y-125928084D01*
X182438967Y-125957363D01*
X182311280Y-126025613D01*
X182199362Y-126117462D01*
X182176346Y-126145507D01*
X180746854Y-127575000D01*
X180649361Y-127575000D01*
X180449402Y-127614774D01*
X180261044Y-127692795D01*
X180091526Y-127806063D01*
X179947363Y-127950226D01*
X179834095Y-128119744D01*
X179756074Y-128308102D01*
X179716300Y-128508061D01*
X179716300Y-128711939D01*
X179732122Y-128791484D01*
X179340267Y-128914518D01*
X177103365Y-129461109D01*
X174835851Y-129862208D01*
X172544512Y-130116440D01*
X170794821Y-130209669D01*
X170717074Y-130204258D01*
X170667821Y-130190893D01*
X170622103Y-130168217D01*
X170581665Y-130137097D01*
X170548037Y-130098708D01*
X170522506Y-130054522D01*
X170506047Y-130006224D01*
X170495593Y-129928072D01*
X170495593Y-123332406D01*
X170561039Y-123344683D01*
X172553428Y-123518994D01*
X172678504Y-123517630D01*
X172800911Y-123491890D01*
X172906957Y-123446603D01*
X173440146Y-123979793D01*
X173463162Y-124007838D01*
X173509855Y-124046158D01*
X173575080Y-124099687D01*
X173702766Y-124167937D01*
X173841315Y-124209965D01*
X173985400Y-124224156D01*
X174021505Y-124220600D01*
X175996495Y-124220600D01*
X176032600Y-124224156D01*
X176068705Y-124220600D01*
X176176685Y-124209965D01*
X176315233Y-124167937D01*
X176442920Y-124099687D01*
X176554838Y-124007838D01*
X176577858Y-123979788D01*
X177725693Y-122831954D01*
X177753738Y-122808938D01*
X177845587Y-122697020D01*
X177861619Y-122667027D01*
X177913837Y-122569334D01*
X177927375Y-122524703D01*
X177868644Y-123196015D01*
X177861954Y-123231675D01*
X177862350Y-123267953D01*
X177863533Y-123376448D01*
X177893326Y-123518132D01*
X177898443Y-123530113D01*
X177950187Y-123651281D01*
X178031933Y-123770778D01*
X178135420Y-123872032D01*
X178256672Y-123951151D01*
X178391030Y-124005094D01*
X178497672Y-124025100D01*
X178497676Y-124025100D01*
X178533330Y-124031789D01*
X178569605Y-124031393D01*
X180490061Y-124199412D01*
X180525720Y-124206101D01*
X180670492Y-124204522D01*
X180812176Y-124174729D01*
X180813916Y-124173986D01*
X180945325Y-124117868D01*
X181031749Y-124058747D01*
X181064823Y-124036122D01*
X181125966Y-123973630D01*
X181166076Y-123932636D01*
X181245195Y-123811383D01*
X181299139Y-123677025D01*
X181325833Y-123534725D01*
X181325437Y-123498448D01*
X181493989Y-121571874D01*
X181667764Y-119585608D01*
X181674454Y-119549946D01*
X181672875Y-119405173D01*
X181643083Y-119263490D01*
X181586221Y-119130340D01*
X181504476Y-119010843D01*
X181455792Y-118963209D01*
X181400988Y-118909588D01*
X181350863Y-118876881D01*
X181279736Y-118830470D01*
X181241245Y-118815017D01*
X181145378Y-118776526D01*
X181003078Y-118749831D01*
X180966795Y-118750227D01*
X179046348Y-118582210D01*
X179010689Y-118575520D01*
X178865915Y-118577099D01*
X178724231Y-118606892D01*
X178690194Y-118621428D01*
X178591083Y-118663753D01*
X178471586Y-118745499D01*
X178370332Y-118848986D01*
X178291213Y-118970238D01*
X178237270Y-119104596D01*
X178237270Y-119104597D01*
X178220135Y-119195938D01*
X178210575Y-119246896D01*
X178210971Y-119283173D01*
X177966500Y-122077505D01*
X177966500Y-117181746D01*
X186910093Y-108238154D01*
X186938138Y-108215138D01*
X187029987Y-108103220D01*
X187098237Y-107975533D01*
X187132123Y-107863825D01*
X187140265Y-107836986D01*
X187154456Y-107692901D01*
X187150900Y-107656796D01*
X187150900Y-105732558D01*
X187175518Y-105740026D01*
X187300000Y-105752286D01*
X187424482Y-105740026D01*
X187544180Y-105703716D01*
X187654494Y-105644751D01*
X187751185Y-105565399D01*
X188079437Y-105237147D01*
X188091535Y-105359985D01*
%TA.AperFunction,Conductor*%
D23*
G36*
X188091535Y-105359985D02*
G01*
X188098959Y-105384457D01*
X187834601Y-105648815D01*
X187755249Y-105745506D01*
X187696284Y-105855820D01*
X187659974Y-105975518D01*
X187647714Y-106100000D01*
X187659974Y-106224482D01*
X187696284Y-106344180D01*
X187755249Y-106454494D01*
X187834601Y-106551185D01*
X189192285Y-107908869D01*
X183883608Y-113217546D01*
X183855562Y-113240563D01*
X183763713Y-113352481D01*
X183695463Y-113480168D01*
X183675937Y-113544537D01*
X183653435Y-113618715D01*
X183639244Y-113762800D01*
X183642800Y-113798905D01*
X183642801Y-117464085D01*
X183639244Y-117500200D01*
X183653435Y-117644285D01*
X183693641Y-117776822D01*
X183695464Y-117782833D01*
X183763714Y-117910520D01*
X183855563Y-118022438D01*
X183883608Y-118045454D01*
X184455300Y-118617147D01*
X184455300Y-119055431D01*
X183031132Y-118930834D01*
X182995469Y-118924144D01*
X182854329Y-118925683D01*
X182850695Y-118925723D01*
X182820903Y-118931988D01*
X182709013Y-118955515D01*
X182575863Y-119012377D01*
X182456366Y-119094122D01*
X182355112Y-119197609D01*
X182275993Y-119318862D01*
X182222050Y-119453220D01*
X182202044Y-119559862D01*
X182202044Y-119559867D01*
X182195355Y-119595521D01*
X182195751Y-119631795D01*
X182027733Y-121552246D01*
X182027732Y-121552251D01*
X181853422Y-123544638D01*
X181846732Y-123580298D01*
X181847210Y-123624117D01*
X181848311Y-123725071D01*
X181878104Y-123866755D01*
X181890559Y-123895919D01*
X181934965Y-123999904D01*
X182016711Y-124119401D01*
X182120198Y-124220655D01*
X182241450Y-124299774D01*
X182375808Y-124353717D01*
X182482450Y-124373723D01*
X182482453Y-124373723D01*
X182518108Y-124380412D01*
X182554383Y-124380016D01*
X183415440Y-124455349D01*
X183276463Y-124594326D01*
X183163195Y-124763844D01*
X183085174Y-124952202D01*
X183045400Y-125152161D01*
X183045400Y-125356039D01*
X183085174Y-125555998D01*
X183163195Y-125744356D01*
X183270333Y-125904700D01*
X182757705Y-125904700D01*
X182721600Y-125901144D01*
X182577514Y-125915335D01*
X182535486Y-125928084D01*
X182438967Y-125957363D01*
X182311280Y-126025613D01*
X182199362Y-126117462D01*
X182176346Y-126145507D01*
X180746854Y-127575000D01*
X180649361Y-127575000D01*
X180449402Y-127614774D01*
X180261044Y-127692795D01*
X180091526Y-127806063D01*
X179947363Y-127950226D01*
X179834095Y-128119744D01*
X179756074Y-128308102D01*
X179716300Y-128508061D01*
X179716300Y-128711939D01*
X179732122Y-128791484D01*
X179340267Y-128914518D01*
X177103365Y-129461109D01*
X174835851Y-129862208D01*
X172544512Y-130116440D01*
X170794821Y-130209669D01*
X170717074Y-130204258D01*
X170667821Y-130190893D01*
X170622103Y-130168217D01*
X170581665Y-130137097D01*
X170548037Y-130098708D01*
X170522506Y-130054522D01*
X170506047Y-130006224D01*
X170495593Y-129928072D01*
X170495593Y-123332406D01*
X170561039Y-123344683D01*
X172553428Y-123518994D01*
X172678504Y-123517630D01*
X172800911Y-123491890D01*
X172906957Y-123446603D01*
X173440146Y-123979793D01*
X173463162Y-124007838D01*
X173509855Y-124046158D01*
X173575080Y-124099687D01*
X173702766Y-124167937D01*
X173841315Y-124209965D01*
X173985400Y-124224156D01*
X174021505Y-124220600D01*
X175996495Y-124220600D01*
X176032600Y-124224156D01*
X176068705Y-124220600D01*
X176176685Y-124209965D01*
X176315233Y-124167937D01*
X176442920Y-124099687D01*
X176554838Y-124007838D01*
X176577858Y-123979788D01*
X177725693Y-122831954D01*
X177753738Y-122808938D01*
X177845587Y-122697020D01*
X177861619Y-122667027D01*
X177913837Y-122569334D01*
X177927375Y-122524703D01*
X177868644Y-123196015D01*
X177861954Y-123231675D01*
X177862350Y-123267953D01*
X177863533Y-123376448D01*
X177893326Y-123518132D01*
X177898443Y-123530113D01*
X177950187Y-123651281D01*
X178031933Y-123770778D01*
X178135420Y-123872032D01*
X178256672Y-123951151D01*
X178391030Y-124005094D01*
X178497672Y-124025100D01*
X178497676Y-124025100D01*
X178533330Y-124031789D01*
X178569605Y-124031393D01*
X180490061Y-124199412D01*
X180525720Y-124206101D01*
X180670492Y-124204522D01*
X180812176Y-124174729D01*
X180813916Y-124173986D01*
X180945325Y-124117868D01*
X181031749Y-124058747D01*
X181064823Y-124036122D01*
X181125966Y-123973630D01*
X181166076Y-123932636D01*
X181245195Y-123811383D01*
X181299139Y-123677025D01*
X181325833Y-123534725D01*
X181325437Y-123498448D01*
X181493989Y-121571874D01*
X181667764Y-119585608D01*
X181674454Y-119549946D01*
X181672875Y-119405173D01*
X181643083Y-119263490D01*
X181586221Y-119130340D01*
X181504476Y-119010843D01*
X181455792Y-118963209D01*
X181400988Y-118909588D01*
X181350863Y-118876881D01*
X181279736Y-118830470D01*
X181241245Y-118815017D01*
X181145378Y-118776526D01*
X181003078Y-118749831D01*
X180966795Y-118750227D01*
X179046348Y-118582210D01*
X179010689Y-118575520D01*
X178865915Y-118577099D01*
X178724231Y-118606892D01*
X178690194Y-118621428D01*
X178591083Y-118663753D01*
X178471586Y-118745499D01*
X178370332Y-118848986D01*
X178291213Y-118970238D01*
X178237270Y-119104596D01*
X178237270Y-119104597D01*
X178220135Y-119195938D01*
X178210575Y-119246896D01*
X178210971Y-119283173D01*
X177966500Y-122077505D01*
X177966500Y-117181746D01*
X186910093Y-108238154D01*
X186938138Y-108215138D01*
X187029987Y-108103220D01*
X187098237Y-107975533D01*
X187132123Y-107863825D01*
X187140265Y-107836986D01*
X187154456Y-107692901D01*
X187150900Y-107656796D01*
X187150900Y-105732558D01*
X187175518Y-105740026D01*
X187300000Y-105752286D01*
X187424482Y-105740026D01*
X187544180Y-105703716D01*
X187654494Y-105644751D01*
X187751185Y-105565399D01*
X188079437Y-105237147D01*
X188091535Y-105359985D01*
G37*
%TD.AperFunction*%
D22*
X115033289Y-72474786D02*
X115036230Y-72504643D01*
X115048578Y-72545349D01*
X115049907Y-72551483D01*
X115059072Y-72579942D01*
X115078258Y-72643191D01*
X115081231Y-72648753D01*
X115083166Y-72654762D01*
X115115347Y-72712580D01*
X115146508Y-72770878D01*
X115150509Y-72775753D01*
X115153579Y-72781269D01*
X115196414Y-72831689D01*
X115238357Y-72882796D01*
X115243234Y-72886798D01*
X115247320Y-72891608D01*
X115299156Y-72932692D01*
X115350275Y-72974645D01*
X115355840Y-72977619D01*
X115360785Y-72981539D01*
X115419646Y-73011725D01*
X115477962Y-73042895D01*
X115483998Y-73044726D01*
X115489614Y-73047606D01*
X115553226Y-73065726D01*
X115616510Y-73084923D01*
X115622790Y-73085542D01*
X115628858Y-73087270D01*
X115694772Y-73092631D01*
X115724490Y-73095558D01*
X115730759Y-73095558D01*
X115773164Y-73099007D01*
X115802972Y-73095558D01*
X127914862Y-73095558D01*
X127826663Y-73183757D01*
X127624633Y-73486116D01*
X127485473Y-73822079D01*
X127414529Y-74178735D01*
X127414529Y-74542379D01*
X127485473Y-74899035D01*
X127624633Y-75234998D01*
X127826663Y-75537357D01*
X128083797Y-75794491D01*
X128386156Y-75996521D01*
X128637445Y-76100608D01*
X124645708Y-80092346D01*
X124617663Y-80115362D01*
X124525814Y-80227280D01*
X124464956Y-80341137D01*
X124457564Y-80354967D01*
X124415535Y-80493515D01*
X124401344Y-80637600D01*
X124404901Y-80673715D01*
X124404900Y-83612654D01*
X118937959Y-78145713D01*
X118914938Y-78117662D01*
X118803020Y-78025813D01*
X118675333Y-77957563D01*
X118536785Y-77915535D01*
X118428805Y-77904900D01*
X118392700Y-77901344D01*
X118356595Y-77904900D01*
X117790805Y-77904900D01*
X117754700Y-77901344D01*
X117610615Y-77915535D01*
X117472066Y-77957563D01*
X117426281Y-77982036D01*
X117422390Y-77984116D01*
X117415226Y-77948102D01*
X117337205Y-77759744D01*
X117255000Y-77636715D01*
X117255000Y-74818711D01*
X117273937Y-74799774D01*
X117387205Y-74630256D01*
X117465226Y-74441898D01*
X117505000Y-74241939D01*
X117505000Y-74038061D01*
X117465226Y-73838102D01*
X117387205Y-73649744D01*
X117273937Y-73480226D01*
X117129774Y-73336063D01*
X116960256Y-73222795D01*
X116771898Y-73144774D01*
X116571939Y-73105000D01*
X116368061Y-73105000D01*
X116168102Y-73144774D01*
X115979744Y-73222795D01*
X115810226Y-73336063D01*
X115666063Y-73480226D01*
X115552795Y-73649744D01*
X115474774Y-73838102D01*
X115435000Y-74038061D01*
X115435000Y-74241939D01*
X115474774Y-74441898D01*
X115552795Y-74630256D01*
X115666063Y-74799774D01*
X115685000Y-74818711D01*
X115685001Y-77521288D01*
X115616063Y-77590226D01*
X115502795Y-77759744D01*
X115424774Y-77948102D01*
X115385000Y-78148061D01*
X115385000Y-78351939D01*
X115424774Y-78551898D01*
X115502795Y-78740256D01*
X115616063Y-78909774D01*
X115760226Y-79053937D01*
X115929744Y-79167205D01*
X116118102Y-79245226D01*
X116318061Y-79285000D01*
X116521939Y-79285000D01*
X116629400Y-79263625D01*
X116629401Y-79927054D01*
X115414559Y-78712213D01*
X115391538Y-78684162D01*
X115279620Y-78592313D01*
X115151933Y-78524063D01*
X115013385Y-78482035D01*
X114905405Y-78471400D01*
X114869300Y-78467844D01*
X114833195Y-78471400D01*
X114395194Y-78471400D01*
X114359099Y-78467845D01*
X114323004Y-78471400D01*
X114322995Y-78471400D01*
X114215015Y-78482035D01*
X114137900Y-78505428D01*
X114137900Y-76894094D01*
X114141455Y-76857999D01*
X114137900Y-76821904D01*
X114137900Y-76821895D01*
X114127265Y-76713915D01*
X114085237Y-76575367D01*
X114016987Y-76447680D01*
X114000414Y-76427487D01*
X113948153Y-76363806D01*
X113948150Y-76363803D01*
X113925137Y-76335762D01*
X113897097Y-76312750D01*
X113389158Y-75804812D01*
X113366138Y-75776762D01*
X113254220Y-75684913D01*
X113126533Y-75616663D01*
X112987985Y-75574635D01*
X112880005Y-75564000D01*
X112843900Y-75560444D01*
X112807795Y-75564000D01*
X112320894Y-75564000D01*
X112284799Y-75560445D01*
X112248704Y-75564000D01*
X112248695Y-75564000D01*
X112140715Y-75574635D01*
X112002167Y-75616663D01*
X111874480Y-75684913D01*
X111762562Y-75776762D01*
X111739546Y-75804807D01*
X108605808Y-78938546D01*
X108577763Y-78961562D01*
X108485914Y-79073480D01*
X108435998Y-79166866D01*
X108417664Y-79201167D01*
X108375635Y-79339715D01*
X108361444Y-79483800D01*
X108365001Y-79519915D01*
X108365000Y-83811928D01*
X108250000Y-83811928D01*
X108125518Y-83824188D01*
X108005820Y-83860498D01*
X107895506Y-83919463D01*
X107798815Y-83998815D01*
X107719463Y-84095506D01*
X107660498Y-84205820D01*
X107624188Y-84325518D01*
X107611928Y-84450000D01*
X107611928Y-86150000D01*
X107624188Y-86274482D01*
X107660498Y-86394180D01*
X107719463Y-86504494D01*
X107798815Y-86601185D01*
X107895506Y-86680537D01*
X108005820Y-86739502D01*
X108086466Y-86763966D01*
X108002412Y-86839731D01*
X107828359Y-87073080D01*
X107703175Y-87335901D01*
X107658524Y-87483110D01*
X107779845Y-87713000D01*
X108973000Y-87713000D01*
X108973000Y-87693000D01*
X109227000Y-87693000D01*
X109227000Y-87713000D01*
X109247000Y-87713000D01*
X109247000Y-87967000D01*
X109227000Y-87967000D01*
X109227000Y-87987000D01*
X108973000Y-87987000D01*
X108973000Y-87967000D01*
X107779845Y-87967000D01*
X107658524Y-88196890D01*
X107703175Y-88344099D01*
X107828359Y-88606920D01*
X108002412Y-88840269D01*
X108218645Y-89035178D01*
X108335534Y-89104805D01*
X108153368Y-89226525D01*
X107946525Y-89433368D01*
X107784010Y-89676589D01*
X107672068Y-89946842D01*
X107615000Y-90233740D01*
X107615000Y-90526260D01*
X107672068Y-90813158D01*
X107784010Y-91083411D01*
X107946525Y-91326632D01*
X108153368Y-91533475D01*
X108396589Y-91695990D01*
X108536720Y-91754034D01*
X107501408Y-92789346D01*
X107473363Y-92812362D01*
X107381514Y-92924280D01*
X107327639Y-93025074D01*
X107313264Y-93051967D01*
X107271235Y-93190515D01*
X107257044Y-93334600D01*
X107260601Y-93370715D01*
X107260600Y-108154195D01*
X107257044Y-108190300D01*
X107271235Y-108334385D01*
X107282039Y-108369999D01*
X107313263Y-108472932D01*
X107381513Y-108600619D01*
X107473362Y-108712537D01*
X107501408Y-108735554D01*
X113870300Y-115104447D01*
X113870300Y-115201939D01*
X113910074Y-115401898D01*
X113988095Y-115590256D01*
X114101363Y-115759774D01*
X114245526Y-115903937D01*
X114415044Y-116017205D01*
X114603402Y-116095226D01*
X114803361Y-116135000D01*
X115007239Y-116135000D01*
X115207198Y-116095226D01*
X115395556Y-116017205D01*
X115565074Y-115903937D01*
X115709237Y-115759774D01*
X115822505Y-115590256D01*
X115900526Y-115401898D01*
X115940300Y-115201939D01*
X115940300Y-114998061D01*
X115900526Y-114798102D01*
X115822505Y-114609744D01*
X115709237Y-114440226D01*
X115565074Y-114296063D01*
X115395556Y-114182795D01*
X115207198Y-114104774D01*
X115007239Y-114065000D01*
X114909747Y-114065000D01*
X114351547Y-113506800D01*
X115527595Y-113506800D01*
X115563700Y-113510356D01*
X115599805Y-113506800D01*
X115707785Y-113496165D01*
X115846333Y-113454137D01*
X115974020Y-113385887D01*
X116085938Y-113294038D01*
X116108959Y-113265987D01*
X123443018Y-105931929D01*
X123557226Y-106046137D01*
X123726744Y-106159405D01*
X123915102Y-106237426D01*
X124115061Y-106277200D01*
X124318939Y-106277200D01*
X124518898Y-106237426D01*
X124707256Y-106159405D01*
X124876774Y-106046137D01*
X125020937Y-105901974D01*
X125134205Y-105732456D01*
X125212226Y-105544098D01*
X125252000Y-105344139D01*
X125252000Y-105246646D01*
X126815500Y-103683147D01*
X126815501Y-106126785D01*
X126811944Y-106162900D01*
X126826135Y-106306985D01*
X126851775Y-106391507D01*
X126868164Y-106445533D01*
X126936414Y-106573220D01*
X127008000Y-106660448D01*
X127008000Y-106757339D01*
X127047774Y-106957298D01*
X127125795Y-107145656D01*
X127239063Y-107315174D01*
X127383226Y-107459337D01*
X127552744Y-107572605D01*
X127741102Y-107650626D01*
X127941061Y-107690400D01*
X128038554Y-107690400D01*
X128834500Y-108486347D01*
X128834501Y-110421288D01*
X128765563Y-110490226D01*
X128652295Y-110659744D01*
X128574274Y-110848102D01*
X128534500Y-111048061D01*
X128534500Y-111251939D01*
X128574274Y-111451898D01*
X128652295Y-111640256D01*
X128765563Y-111809774D01*
X128909726Y-111953937D01*
X129079244Y-112067205D01*
X129267602Y-112145226D01*
X129467561Y-112185000D01*
X129671439Y-112185000D01*
X129871398Y-112145226D01*
X130059756Y-112067205D01*
X130229274Y-111953937D01*
X130373437Y-111809774D01*
X130486705Y-111640256D01*
X130564726Y-111451898D01*
X130604500Y-111251939D01*
X130604500Y-111048061D01*
X130564726Y-110848102D01*
X130486705Y-110659744D01*
X130373437Y-110490226D01*
X130304500Y-110421289D01*
X130304500Y-108218004D01*
X130308056Y-108181899D01*
X130293865Y-108037814D01*
X130273633Y-107971118D01*
X130251837Y-107899267D01*
X130183587Y-107771580D01*
X130139617Y-107718003D01*
X130114753Y-107687706D01*
X130114750Y-107687703D01*
X130091737Y-107659662D01*
X130063697Y-107636650D01*
X129078000Y-106650954D01*
X129078000Y-106634246D01*
X135470500Y-113026747D01*
X135470500Y-113124239D01*
X135510274Y-113324198D01*
X135588295Y-113512556D01*
X135701563Y-113682074D01*
X135845726Y-113826237D01*
X136015244Y-113939505D01*
X136203602Y-114017526D01*
X136403561Y-114057300D01*
X136607439Y-114057300D01*
X136807398Y-114017526D01*
X136995756Y-113939505D01*
X137165274Y-113826237D01*
X137309437Y-113682074D01*
X137422705Y-113512556D01*
X137500726Y-113324198D01*
X137540500Y-113124239D01*
X137540500Y-112920361D01*
X137500726Y-112720402D01*
X137422705Y-112532044D01*
X137309437Y-112362526D01*
X137165274Y-112218363D01*
X136995756Y-112105095D01*
X136807398Y-112027074D01*
X136607439Y-111987300D01*
X136509947Y-111987300D01*
X129123339Y-104600693D01*
X129210974Y-104542137D01*
X129355137Y-104397974D01*
X129468405Y-104228456D01*
X129546426Y-104040098D01*
X129578718Y-103877754D01*
X129697856Y-103828405D01*
X129867374Y-103715137D01*
X130011537Y-103570974D01*
X130124805Y-103401456D01*
X130202826Y-103213098D01*
X130242600Y-103013139D01*
X130242600Y-102809261D01*
X130202826Y-102609302D01*
X130124805Y-102420944D01*
X130011537Y-102251426D01*
X129942600Y-102182489D01*
X129942600Y-100783000D01*
X129998254Y-100783000D01*
X139859701Y-110644448D01*
X139859700Y-115443989D01*
X139790763Y-115512926D01*
X139677495Y-115682444D01*
X139599474Y-115870802D01*
X139568692Y-116025556D01*
X130606331Y-116025556D01*
X130694530Y-115937357D01*
X130896560Y-115634998D01*
X131035720Y-115299035D01*
X131106664Y-114942379D01*
X131106664Y-114578735D01*
X131035720Y-114222079D01*
X130896560Y-113886116D01*
X130694530Y-113583757D01*
X130437395Y-113326622D01*
X130135036Y-113124592D01*
X129799073Y-112985432D01*
X129442417Y-112914488D01*
X129078773Y-112914488D01*
X128722117Y-112985432D01*
X128386154Y-113124592D01*
X128083795Y-113326622D01*
X127826660Y-113583757D01*
X127624630Y-113886116D01*
X127485470Y-114222079D01*
X127414526Y-114578735D01*
X127414526Y-114942379D01*
X127485470Y-115299035D01*
X127624630Y-115634998D01*
X127826660Y-115937357D01*
X127914859Y-116025556D01*
X115802964Y-116025556D01*
X115773164Y-116022108D01*
X115730771Y-116025556D01*
X115724490Y-116025556D01*
X115694713Y-116028489D01*
X115628858Y-116033845D01*
X115622795Y-116035572D01*
X115616510Y-116036191D01*
X115553172Y-116055404D01*
X115489614Y-116073509D01*
X115484003Y-116076387D01*
X115477962Y-116078219D01*
X115419600Y-116109414D01*
X115360785Y-116139576D01*
X115355843Y-116143493D01*
X115350275Y-116146469D01*
X115299120Y-116188451D01*
X115247320Y-116229507D01*
X115243237Y-116234313D01*
X115238357Y-116238318D01*
X115196390Y-116289455D01*
X115153579Y-116339846D01*
X115150511Y-116345359D01*
X115146508Y-116350236D01*
X115115333Y-116408560D01*
X115083166Y-116466353D01*
X115081232Y-116472360D01*
X115078258Y-116477923D01*
X115059066Y-116541190D01*
X115049907Y-116569632D01*
X115048579Y-116575763D01*
X115036230Y-116616471D01*
X115033289Y-116646329D01*
X112567791Y-128025559D01*
X106895594Y-128025556D01*
X106895593Y-72100000D01*
X107411928Y-72100000D01*
X107411928Y-73100000D01*
X107424188Y-73224482D01*
X107460498Y-73344180D01*
X107519463Y-73454494D01*
X107598815Y-73551185D01*
X107695506Y-73630537D01*
X107805820Y-73689502D01*
X107925518Y-73725812D01*
X108050000Y-73738072D01*
X109050000Y-73738072D01*
X109174482Y-73725812D01*
X109294180Y-73689502D01*
X109404494Y-73630537D01*
X109501185Y-73551185D01*
X109580537Y-73454494D01*
X109639502Y-73344180D01*
X109675812Y-73224482D01*
X109688072Y-73100000D01*
X109688072Y-72100000D01*
X111661928Y-72100000D01*
X111661928Y-73100000D01*
X111674188Y-73224482D01*
X111710498Y-73344180D01*
X111769463Y-73454494D01*
X111848815Y-73551185D01*
X111945506Y-73630537D01*
X112055820Y-73689502D01*
X112175518Y-73725812D01*
X112300000Y-73738072D01*
X113300000Y-73738072D01*
X113424482Y-73725812D01*
X113544180Y-73689502D01*
X113654494Y-73630537D01*
X113751185Y-73551185D01*
X113830537Y-73454494D01*
X113889502Y-73344180D01*
X113925812Y-73224482D01*
X113938072Y-73100000D01*
X113938072Y-72100000D01*
X113925812Y-71975518D01*
X113889502Y-71855820D01*
X113845112Y-71772774D01*
X113891383Y-71661067D01*
X113935000Y-71441788D01*
X113935000Y-71218212D01*
X113891383Y-70998933D01*
X113805824Y-70792376D01*
X113681612Y-70606480D01*
X113523520Y-70448388D01*
X113337624Y-70324176D01*
X113131067Y-70238617D01*
X112911788Y-70195000D01*
X112688212Y-70195000D01*
X112468933Y-70238617D01*
X112262376Y-70324176D01*
X112076480Y-70448388D01*
X111918388Y-70606480D01*
X111794176Y-70792376D01*
X111708617Y-70998933D01*
X111665000Y-71218212D01*
X111665000Y-71441788D01*
X111708617Y-71661067D01*
X111754888Y-71772774D01*
X111710498Y-71855820D01*
X111674188Y-71975518D01*
X111661928Y-72100000D01*
X109688072Y-72100000D01*
X109675812Y-71975518D01*
X109639502Y-71855820D01*
X109591930Y-71766820D01*
X109627446Y-71686864D01*
X109644119Y-71631874D01*
X109517954Y-71457000D01*
X108677000Y-71457000D01*
X108677000Y-71461928D01*
X108423000Y-71461928D01*
X108423000Y-71457000D01*
X107582046Y-71457000D01*
X107455881Y-71631874D01*
X107472554Y-71686864D01*
X107508070Y-71766820D01*
X107460498Y-71855820D01*
X107424188Y-71975518D01*
X107411928Y-72100000D01*
X106895593Y-72100000D01*
X106895593Y-71028126D01*
X107455881Y-71028126D01*
X107582046Y-71203000D01*
X108423000Y-71203000D01*
X108423000Y-70360871D01*
X108677000Y-70360871D01*
X108677000Y-71203000D01*
X109517954Y-71203000D01*
X109644119Y-71028126D01*
X109627446Y-70973136D01*
X109537123Y-70769794D01*
X109408865Y-70587980D01*
X109247601Y-70434682D01*
X109059529Y-70315790D01*
X108851876Y-70235874D01*
X108677000Y-70360871D01*
X108423000Y-70360871D01*
X108248124Y-70235874D01*
X108040471Y-70315790D01*
X107852399Y-70434682D01*
X107691135Y-70587980D01*
X107562877Y-70769794D01*
X107472554Y-70973136D01*
X107455881Y-71028126D01*
X106895593Y-71028126D01*
X106895593Y-63615000D01*
X107661928Y-63615000D01*
X107674188Y-63739482D01*
X107710498Y-63859180D01*
X107769463Y-63969494D01*
X107848815Y-64066185D01*
X107945506Y-64145537D01*
X108055820Y-64204502D01*
X108128380Y-64226513D01*
X107996525Y-64358368D01*
X107834010Y-64601589D01*
X107722068Y-64871842D01*
X107665000Y-65158740D01*
X107665000Y-65451260D01*
X107722068Y-65738158D01*
X107834010Y-66008411D01*
X107996525Y-66251632D01*
X108203368Y-66458475D01*
X108377760Y-66575000D01*
X108203368Y-66691525D01*
X107996525Y-66898368D01*
X107834010Y-67141589D01*
X107722068Y-67411842D01*
X107665000Y-67698740D01*
X107665000Y-67991260D01*
X107722068Y-68278158D01*
X107834010Y-68548411D01*
X107996525Y-68791632D01*
X108203368Y-68998475D01*
X108446589Y-69160990D01*
X108716842Y-69272932D01*
X109003740Y-69330000D01*
X109296260Y-69330000D01*
X109583158Y-69272932D01*
X109853411Y-69160990D01*
X110096632Y-68998475D01*
X110303475Y-68791632D01*
X110465990Y-68548411D01*
X110577932Y-68278158D01*
X110635000Y-67991260D01*
X110635000Y-67698740D01*
X110577932Y-67411842D01*
X110465990Y-67141589D01*
X110303475Y-66898368D01*
X110096632Y-66691525D01*
X109922240Y-66575000D01*
X110096632Y-66458475D01*
X110303475Y-66251632D01*
X110465990Y-66008411D01*
X110577932Y-65738158D01*
X110635000Y-65451260D01*
X110635000Y-65158740D01*
X110577932Y-64871842D01*
X110465990Y-64601589D01*
X110303475Y-64358368D01*
X110171620Y-64226513D01*
X110244180Y-64204502D01*
X110354494Y-64145537D01*
X110451185Y-64066185D01*
X110530537Y-63969494D01*
X110589502Y-63859180D01*
X110625812Y-63739482D01*
X110638072Y-63615000D01*
X110635000Y-63050750D01*
X110476250Y-62892000D01*
X109277000Y-62892000D01*
X109277000Y-62912000D01*
X109023000Y-62912000D01*
X109023000Y-62892000D01*
X107823750Y-62892000D01*
X107665000Y-63050750D01*
X107661928Y-63615000D01*
X106895593Y-63615000D01*
X106895593Y-61915000D01*
X107661928Y-61915000D01*
X107665000Y-62479250D01*
X107823750Y-62638000D01*
X109023000Y-62638000D01*
X109023000Y-61438750D01*
X109277000Y-61438750D01*
X109277000Y-62638000D01*
X110476250Y-62638000D01*
X110635000Y-62479250D01*
X110638072Y-61915000D01*
X110625812Y-61790518D01*
X110589502Y-61670820D01*
X110530537Y-61560506D01*
X110451185Y-61463815D01*
X110354494Y-61384463D01*
X110244180Y-61325498D01*
X110124482Y-61289188D01*
X110000000Y-61276928D01*
X109435750Y-61280000D01*
X109277000Y-61438750D01*
X109023000Y-61438750D01*
X108864250Y-61280000D01*
X108300000Y-61276928D01*
X108175518Y-61289188D01*
X108055820Y-61325498D01*
X107945506Y-61384463D01*
X107848815Y-61463815D01*
X107769463Y-61560506D01*
X107710498Y-61670820D01*
X107674188Y-61790518D01*
X107661928Y-61915000D01*
X106895593Y-61915000D01*
X106895592Y-61095557D01*
X112567790Y-61095557D01*
X115033289Y-72474786D01*
%TA.AperFunction,Conductor*%
D23*
G36*
X115033289Y-72474786D02*
G01*
X115036230Y-72504643D01*
X115048578Y-72545349D01*
X115049907Y-72551483D01*
X115059072Y-72579942D01*
X115078258Y-72643191D01*
X115081231Y-72648753D01*
X115083166Y-72654762D01*
X115115347Y-72712580D01*
X115146508Y-72770878D01*
X115150509Y-72775753D01*
X115153579Y-72781269D01*
X115196414Y-72831689D01*
X115238357Y-72882796D01*
X115243234Y-72886798D01*
X115247320Y-72891608D01*
X115299156Y-72932692D01*
X115350275Y-72974645D01*
X115355840Y-72977619D01*
X115360785Y-72981539D01*
X115419646Y-73011725D01*
X115477962Y-73042895D01*
X115483998Y-73044726D01*
X115489614Y-73047606D01*
X115553226Y-73065726D01*
X115616510Y-73084923D01*
X115622790Y-73085542D01*
X115628858Y-73087270D01*
X115694772Y-73092631D01*
X115724490Y-73095558D01*
X115730759Y-73095558D01*
X115773164Y-73099007D01*
X115802972Y-73095558D01*
X127914862Y-73095558D01*
X127826663Y-73183757D01*
X127624633Y-73486116D01*
X127485473Y-73822079D01*
X127414529Y-74178735D01*
X127414529Y-74542379D01*
X127485473Y-74899035D01*
X127624633Y-75234998D01*
X127826663Y-75537357D01*
X128083797Y-75794491D01*
X128386156Y-75996521D01*
X128637445Y-76100608D01*
X124645708Y-80092346D01*
X124617663Y-80115362D01*
X124525814Y-80227280D01*
X124464956Y-80341137D01*
X124457564Y-80354967D01*
X124415535Y-80493515D01*
X124401344Y-80637600D01*
X124404901Y-80673715D01*
X124404900Y-83612654D01*
X118937959Y-78145713D01*
X118914938Y-78117662D01*
X118803020Y-78025813D01*
X118675333Y-77957563D01*
X118536785Y-77915535D01*
X118428805Y-77904900D01*
X118392700Y-77901344D01*
X118356595Y-77904900D01*
X117790805Y-77904900D01*
X117754700Y-77901344D01*
X117610615Y-77915535D01*
X117472066Y-77957563D01*
X117426281Y-77982036D01*
X117422390Y-77984116D01*
X117415226Y-77948102D01*
X117337205Y-77759744D01*
X117255000Y-77636715D01*
X117255000Y-74818711D01*
X117273937Y-74799774D01*
X117387205Y-74630256D01*
X117465226Y-74441898D01*
X117505000Y-74241939D01*
X117505000Y-74038061D01*
X117465226Y-73838102D01*
X117387205Y-73649744D01*
X117273937Y-73480226D01*
X117129774Y-73336063D01*
X116960256Y-73222795D01*
X116771898Y-73144774D01*
X116571939Y-73105000D01*
X116368061Y-73105000D01*
X116168102Y-73144774D01*
X115979744Y-73222795D01*
X115810226Y-73336063D01*
X115666063Y-73480226D01*
X115552795Y-73649744D01*
X115474774Y-73838102D01*
X115435000Y-74038061D01*
X115435000Y-74241939D01*
X115474774Y-74441898D01*
X115552795Y-74630256D01*
X115666063Y-74799774D01*
X115685000Y-74818711D01*
X115685001Y-77521288D01*
X115616063Y-77590226D01*
X115502795Y-77759744D01*
X115424774Y-77948102D01*
X115385000Y-78148061D01*
X115385000Y-78351939D01*
X115424774Y-78551898D01*
X115502795Y-78740256D01*
X115616063Y-78909774D01*
X115760226Y-79053937D01*
X115929744Y-79167205D01*
X116118102Y-79245226D01*
X116318061Y-79285000D01*
X116521939Y-79285000D01*
X116629400Y-79263625D01*
X116629401Y-79927054D01*
X115414559Y-78712213D01*
X115391538Y-78684162D01*
X115279620Y-78592313D01*
X115151933Y-78524063D01*
X115013385Y-78482035D01*
X114905405Y-78471400D01*
X114869300Y-78467844D01*
X114833195Y-78471400D01*
X114395194Y-78471400D01*
X114359099Y-78467845D01*
X114323004Y-78471400D01*
X114322995Y-78471400D01*
X114215015Y-78482035D01*
X114137900Y-78505428D01*
X114137900Y-76894094D01*
X114141455Y-76857999D01*
X114137900Y-76821904D01*
X114137900Y-76821895D01*
X114127265Y-76713915D01*
X114085237Y-76575367D01*
X114016987Y-76447680D01*
X114000414Y-76427487D01*
X113948153Y-76363806D01*
X113948150Y-76363803D01*
X113925137Y-76335762D01*
X113897097Y-76312750D01*
X113389158Y-75804812D01*
X113366138Y-75776762D01*
X113254220Y-75684913D01*
X113126533Y-75616663D01*
X112987985Y-75574635D01*
X112880005Y-75564000D01*
X112843900Y-75560444D01*
X112807795Y-75564000D01*
X112320894Y-75564000D01*
X112284799Y-75560445D01*
X112248704Y-75564000D01*
X112248695Y-75564000D01*
X112140715Y-75574635D01*
X112002167Y-75616663D01*
X111874480Y-75684913D01*
X111762562Y-75776762D01*
X111739546Y-75804807D01*
X108605808Y-78938546D01*
X108577763Y-78961562D01*
X108485914Y-79073480D01*
X108435998Y-79166866D01*
X108417664Y-79201167D01*
X108375635Y-79339715D01*
X108361444Y-79483800D01*
X108365001Y-79519915D01*
X108365000Y-83811928D01*
X108250000Y-83811928D01*
X108125518Y-83824188D01*
X108005820Y-83860498D01*
X107895506Y-83919463D01*
X107798815Y-83998815D01*
X107719463Y-84095506D01*
X107660498Y-84205820D01*
X107624188Y-84325518D01*
X107611928Y-84450000D01*
X107611928Y-86150000D01*
X107624188Y-86274482D01*
X107660498Y-86394180D01*
X107719463Y-86504494D01*
X107798815Y-86601185D01*
X107895506Y-86680537D01*
X108005820Y-86739502D01*
X108086466Y-86763966D01*
X108002412Y-86839731D01*
X107828359Y-87073080D01*
X107703175Y-87335901D01*
X107658524Y-87483110D01*
X107779845Y-87713000D01*
X108973000Y-87713000D01*
X108973000Y-87693000D01*
X109227000Y-87693000D01*
X109227000Y-87713000D01*
X109247000Y-87713000D01*
X109247000Y-87967000D01*
X109227000Y-87967000D01*
X109227000Y-87987000D01*
X108973000Y-87987000D01*
X108973000Y-87967000D01*
X107779845Y-87967000D01*
X107658524Y-88196890D01*
X107703175Y-88344099D01*
X107828359Y-88606920D01*
X108002412Y-88840269D01*
X108218645Y-89035178D01*
X108335534Y-89104805D01*
X108153368Y-89226525D01*
X107946525Y-89433368D01*
X107784010Y-89676589D01*
X107672068Y-89946842D01*
X107615000Y-90233740D01*
X107615000Y-90526260D01*
X107672068Y-90813158D01*
X107784010Y-91083411D01*
X107946525Y-91326632D01*
X108153368Y-91533475D01*
X108396589Y-91695990D01*
X108536720Y-91754034D01*
X107501408Y-92789346D01*
X107473363Y-92812362D01*
X107381514Y-92924280D01*
X107327639Y-93025074D01*
X107313264Y-93051967D01*
X107271235Y-93190515D01*
X107257044Y-93334600D01*
X107260601Y-93370715D01*
X107260600Y-108154195D01*
X107257044Y-108190300D01*
X107271235Y-108334385D01*
X107282039Y-108369999D01*
X107313263Y-108472932D01*
X107381513Y-108600619D01*
X107473362Y-108712537D01*
X107501408Y-108735554D01*
X113870300Y-115104447D01*
X113870300Y-115201939D01*
X113910074Y-115401898D01*
X113988095Y-115590256D01*
X114101363Y-115759774D01*
X114245526Y-115903937D01*
X114415044Y-116017205D01*
X114603402Y-116095226D01*
X114803361Y-116135000D01*
X115007239Y-116135000D01*
X115207198Y-116095226D01*
X115395556Y-116017205D01*
X115565074Y-115903937D01*
X115709237Y-115759774D01*
X115822505Y-115590256D01*
X115900526Y-115401898D01*
X115940300Y-115201939D01*
X115940300Y-114998061D01*
X115900526Y-114798102D01*
X115822505Y-114609744D01*
X115709237Y-114440226D01*
X115565074Y-114296063D01*
X115395556Y-114182795D01*
X115207198Y-114104774D01*
X115007239Y-114065000D01*
X114909747Y-114065000D01*
X114351547Y-113506800D01*
X115527595Y-113506800D01*
X115563700Y-113510356D01*
X115599805Y-113506800D01*
X115707785Y-113496165D01*
X115846333Y-113454137D01*
X115974020Y-113385887D01*
X116085938Y-113294038D01*
X116108959Y-113265987D01*
X123443018Y-105931929D01*
X123557226Y-106046137D01*
X123726744Y-106159405D01*
X123915102Y-106237426D01*
X124115061Y-106277200D01*
X124318939Y-106277200D01*
X124518898Y-106237426D01*
X124707256Y-106159405D01*
X124876774Y-106046137D01*
X125020937Y-105901974D01*
X125134205Y-105732456D01*
X125212226Y-105544098D01*
X125252000Y-105344139D01*
X125252000Y-105246646D01*
X126815500Y-103683147D01*
X126815501Y-106126785D01*
X126811944Y-106162900D01*
X126826135Y-106306985D01*
X126851775Y-106391507D01*
X126868164Y-106445533D01*
X126936414Y-106573220D01*
X127008000Y-106660448D01*
X127008000Y-106757339D01*
X127047774Y-106957298D01*
X127125795Y-107145656D01*
X127239063Y-107315174D01*
X127383226Y-107459337D01*
X127552744Y-107572605D01*
X127741102Y-107650626D01*
X127941061Y-107690400D01*
X128038554Y-107690400D01*
X128834500Y-108486347D01*
X128834501Y-110421288D01*
X128765563Y-110490226D01*
X128652295Y-110659744D01*
X128574274Y-110848102D01*
X128534500Y-111048061D01*
X128534500Y-111251939D01*
X128574274Y-111451898D01*
X128652295Y-111640256D01*
X128765563Y-111809774D01*
X128909726Y-111953937D01*
X129079244Y-112067205D01*
X129267602Y-112145226D01*
X129467561Y-112185000D01*
X129671439Y-112185000D01*
X129871398Y-112145226D01*
X130059756Y-112067205D01*
X130229274Y-111953937D01*
X130373437Y-111809774D01*
X130486705Y-111640256D01*
X130564726Y-111451898D01*
X130604500Y-111251939D01*
X130604500Y-111048061D01*
X130564726Y-110848102D01*
X130486705Y-110659744D01*
X130373437Y-110490226D01*
X130304500Y-110421289D01*
X130304500Y-108218004D01*
X130308056Y-108181899D01*
X130293865Y-108037814D01*
X130273633Y-107971118D01*
X130251837Y-107899267D01*
X130183587Y-107771580D01*
X130139617Y-107718003D01*
X130114753Y-107687706D01*
X130114750Y-107687703D01*
X130091737Y-107659662D01*
X130063697Y-107636650D01*
X129078000Y-106650954D01*
X129078000Y-106634246D01*
X135470500Y-113026747D01*
X135470500Y-113124239D01*
X135510274Y-113324198D01*
X135588295Y-113512556D01*
X135701563Y-113682074D01*
X135845726Y-113826237D01*
X136015244Y-113939505D01*
X136203602Y-114017526D01*
X136403561Y-114057300D01*
X136607439Y-114057300D01*
X136807398Y-114017526D01*
X136995756Y-113939505D01*
X137165274Y-113826237D01*
X137309437Y-113682074D01*
X137422705Y-113512556D01*
X137500726Y-113324198D01*
X137540500Y-113124239D01*
X137540500Y-112920361D01*
X137500726Y-112720402D01*
X137422705Y-112532044D01*
X137309437Y-112362526D01*
X137165274Y-112218363D01*
X136995756Y-112105095D01*
X136807398Y-112027074D01*
X136607439Y-111987300D01*
X136509947Y-111987300D01*
X129123339Y-104600693D01*
X129210974Y-104542137D01*
X129355137Y-104397974D01*
X129468405Y-104228456D01*
X129546426Y-104040098D01*
X129578718Y-103877754D01*
X129697856Y-103828405D01*
X129867374Y-103715137D01*
X130011537Y-103570974D01*
X130124805Y-103401456D01*
X130202826Y-103213098D01*
X130242600Y-103013139D01*
X130242600Y-102809261D01*
X130202826Y-102609302D01*
X130124805Y-102420944D01*
X130011537Y-102251426D01*
X129942600Y-102182489D01*
X129942600Y-100783000D01*
X129998254Y-100783000D01*
X139859701Y-110644448D01*
X139859700Y-115443989D01*
X139790763Y-115512926D01*
X139677495Y-115682444D01*
X139599474Y-115870802D01*
X139568692Y-116025556D01*
X130606331Y-116025556D01*
X130694530Y-115937357D01*
X130896560Y-115634998D01*
X131035720Y-115299035D01*
X131106664Y-114942379D01*
X131106664Y-114578735D01*
X131035720Y-114222079D01*
X130896560Y-113886116D01*
X130694530Y-113583757D01*
X130437395Y-113326622D01*
X130135036Y-113124592D01*
X129799073Y-112985432D01*
X129442417Y-112914488D01*
X129078773Y-112914488D01*
X128722117Y-112985432D01*
X128386154Y-113124592D01*
X128083795Y-113326622D01*
X127826660Y-113583757D01*
X127624630Y-113886116D01*
X127485470Y-114222079D01*
X127414526Y-114578735D01*
X127414526Y-114942379D01*
X127485470Y-115299035D01*
X127624630Y-115634998D01*
X127826660Y-115937357D01*
X127914859Y-116025556D01*
X115802964Y-116025556D01*
X115773164Y-116022108D01*
X115730771Y-116025556D01*
X115724490Y-116025556D01*
X115694713Y-116028489D01*
X115628858Y-116033845D01*
X115622795Y-116035572D01*
X115616510Y-116036191D01*
X115553172Y-116055404D01*
X115489614Y-116073509D01*
X115484003Y-116076387D01*
X115477962Y-116078219D01*
X115419600Y-116109414D01*
X115360785Y-116139576D01*
X115355843Y-116143493D01*
X115350275Y-116146469D01*
X115299120Y-116188451D01*
X115247320Y-116229507D01*
X115243237Y-116234313D01*
X115238357Y-116238318D01*
X115196390Y-116289455D01*
X115153579Y-116339846D01*
X115150511Y-116345359D01*
X115146508Y-116350236D01*
X115115333Y-116408560D01*
X115083166Y-116466353D01*
X115081232Y-116472360D01*
X115078258Y-116477923D01*
X115059066Y-116541190D01*
X115049907Y-116569632D01*
X115048579Y-116575763D01*
X115036230Y-116616471D01*
X115033289Y-116646329D01*
X112567791Y-128025559D01*
X106895594Y-128025556D01*
X106895593Y-72100000D01*
X107411928Y-72100000D01*
X107411928Y-73100000D01*
X107424188Y-73224482D01*
X107460498Y-73344180D01*
X107519463Y-73454494D01*
X107598815Y-73551185D01*
X107695506Y-73630537D01*
X107805820Y-73689502D01*
X107925518Y-73725812D01*
X108050000Y-73738072D01*
X109050000Y-73738072D01*
X109174482Y-73725812D01*
X109294180Y-73689502D01*
X109404494Y-73630537D01*
X109501185Y-73551185D01*
X109580537Y-73454494D01*
X109639502Y-73344180D01*
X109675812Y-73224482D01*
X109688072Y-73100000D01*
X109688072Y-72100000D01*
X111661928Y-72100000D01*
X111661928Y-73100000D01*
X111674188Y-73224482D01*
X111710498Y-73344180D01*
X111769463Y-73454494D01*
X111848815Y-73551185D01*
X111945506Y-73630537D01*
X112055820Y-73689502D01*
X112175518Y-73725812D01*
X112300000Y-73738072D01*
X113300000Y-73738072D01*
X113424482Y-73725812D01*
X113544180Y-73689502D01*
X113654494Y-73630537D01*
X113751185Y-73551185D01*
X113830537Y-73454494D01*
X113889502Y-73344180D01*
X113925812Y-73224482D01*
X113938072Y-73100000D01*
X113938072Y-72100000D01*
X113925812Y-71975518D01*
X113889502Y-71855820D01*
X113845112Y-71772774D01*
X113891383Y-71661067D01*
X113935000Y-71441788D01*
X113935000Y-71218212D01*
X113891383Y-70998933D01*
X113805824Y-70792376D01*
X113681612Y-70606480D01*
X113523520Y-70448388D01*
X113337624Y-70324176D01*
X113131067Y-70238617D01*
X112911788Y-70195000D01*
X112688212Y-70195000D01*
X112468933Y-70238617D01*
X112262376Y-70324176D01*
X112076480Y-70448388D01*
X111918388Y-70606480D01*
X111794176Y-70792376D01*
X111708617Y-70998933D01*
X111665000Y-71218212D01*
X111665000Y-71441788D01*
X111708617Y-71661067D01*
X111754888Y-71772774D01*
X111710498Y-71855820D01*
X111674188Y-71975518D01*
X111661928Y-72100000D01*
X109688072Y-72100000D01*
X109675812Y-71975518D01*
X109639502Y-71855820D01*
X109591930Y-71766820D01*
X109627446Y-71686864D01*
X109644119Y-71631874D01*
X109517954Y-71457000D01*
X108677000Y-71457000D01*
X108677000Y-71461928D01*
X108423000Y-71461928D01*
X108423000Y-71457000D01*
X107582046Y-71457000D01*
X107455881Y-71631874D01*
X107472554Y-71686864D01*
X107508070Y-71766820D01*
X107460498Y-71855820D01*
X107424188Y-71975518D01*
X107411928Y-72100000D01*
X106895593Y-72100000D01*
X106895593Y-71028126D01*
X107455881Y-71028126D01*
X107582046Y-71203000D01*
X108423000Y-71203000D01*
X108423000Y-70360871D01*
X108677000Y-70360871D01*
X108677000Y-71203000D01*
X109517954Y-71203000D01*
X109644119Y-71028126D01*
X109627446Y-70973136D01*
X109537123Y-70769794D01*
X109408865Y-70587980D01*
X109247601Y-70434682D01*
X109059529Y-70315790D01*
X108851876Y-70235874D01*
X108677000Y-70360871D01*
X108423000Y-70360871D01*
X108248124Y-70235874D01*
X108040471Y-70315790D01*
X107852399Y-70434682D01*
X107691135Y-70587980D01*
X107562877Y-70769794D01*
X107472554Y-70973136D01*
X107455881Y-71028126D01*
X106895593Y-71028126D01*
X106895593Y-63615000D01*
X107661928Y-63615000D01*
X107674188Y-63739482D01*
X107710498Y-63859180D01*
X107769463Y-63969494D01*
X107848815Y-64066185D01*
X107945506Y-64145537D01*
X108055820Y-64204502D01*
X108128380Y-64226513D01*
X107996525Y-64358368D01*
X107834010Y-64601589D01*
X107722068Y-64871842D01*
X107665000Y-65158740D01*
X107665000Y-65451260D01*
X107722068Y-65738158D01*
X107834010Y-66008411D01*
X107996525Y-66251632D01*
X108203368Y-66458475D01*
X108377760Y-66575000D01*
X108203368Y-66691525D01*
X107996525Y-66898368D01*
X107834010Y-67141589D01*
X107722068Y-67411842D01*
X107665000Y-67698740D01*
X107665000Y-67991260D01*
X107722068Y-68278158D01*
X107834010Y-68548411D01*
X107996525Y-68791632D01*
X108203368Y-68998475D01*
X108446589Y-69160990D01*
X108716842Y-69272932D01*
X109003740Y-69330000D01*
X109296260Y-69330000D01*
X109583158Y-69272932D01*
X109853411Y-69160990D01*
X110096632Y-68998475D01*
X110303475Y-68791632D01*
X110465990Y-68548411D01*
X110577932Y-68278158D01*
X110635000Y-67991260D01*
X110635000Y-67698740D01*
X110577932Y-67411842D01*
X110465990Y-67141589D01*
X110303475Y-66898368D01*
X110096632Y-66691525D01*
X109922240Y-66575000D01*
X110096632Y-66458475D01*
X110303475Y-66251632D01*
X110465990Y-66008411D01*
X110577932Y-65738158D01*
X110635000Y-65451260D01*
X110635000Y-65158740D01*
X110577932Y-64871842D01*
X110465990Y-64601589D01*
X110303475Y-64358368D01*
X110171620Y-64226513D01*
X110244180Y-64204502D01*
X110354494Y-64145537D01*
X110451185Y-64066185D01*
X110530537Y-63969494D01*
X110589502Y-63859180D01*
X110625812Y-63739482D01*
X110638072Y-63615000D01*
X110635000Y-63050750D01*
X110476250Y-62892000D01*
X109277000Y-62892000D01*
X109277000Y-62912000D01*
X109023000Y-62912000D01*
X109023000Y-62892000D01*
X107823750Y-62892000D01*
X107665000Y-63050750D01*
X107661928Y-63615000D01*
X106895593Y-63615000D01*
X106895593Y-61915000D01*
X107661928Y-61915000D01*
X107665000Y-62479250D01*
X107823750Y-62638000D01*
X109023000Y-62638000D01*
X109023000Y-61438750D01*
X109277000Y-61438750D01*
X109277000Y-62638000D01*
X110476250Y-62638000D01*
X110635000Y-62479250D01*
X110638072Y-61915000D01*
X110625812Y-61790518D01*
X110589502Y-61670820D01*
X110530537Y-61560506D01*
X110451185Y-61463815D01*
X110354494Y-61384463D01*
X110244180Y-61325498D01*
X110124482Y-61289188D01*
X110000000Y-61276928D01*
X109435750Y-61280000D01*
X109277000Y-61438750D01*
X109023000Y-61438750D01*
X108864250Y-61280000D01*
X108300000Y-61276928D01*
X108175518Y-61289188D01*
X108055820Y-61325498D01*
X107945506Y-61384463D01*
X107848815Y-61463815D01*
X107769463Y-61560506D01*
X107710498Y-61670820D01*
X107674188Y-61790518D01*
X107661928Y-61915000D01*
X106895593Y-61915000D01*
X106895592Y-61095557D01*
X112567790Y-61095557D01*
X115033289Y-72474786D01*
G37*
%TD.AperFunction*%
D22*
X173066566Y-59049497D02*
X175351301Y-59336860D01*
X177612695Y-59771057D01*
X179841373Y-60350286D01*
X182028041Y-61072133D01*
X184163552Y-61933581D01*
X186239027Y-62931046D01*
X188245804Y-64060364D01*
X188345981Y-64125591D01*
X188292874Y-64253802D01*
X188253100Y-64453761D01*
X188253100Y-64657639D01*
X188292874Y-64857598D01*
X188370895Y-65045956D01*
X188484163Y-65215474D01*
X188628326Y-65359637D01*
X188797844Y-65472905D01*
X188986202Y-65550926D01*
X189186161Y-65590700D01*
X189283654Y-65590700D01*
X199528901Y-75835948D01*
X199528900Y-83895823D01*
X199524605Y-83895400D01*
X199488500Y-83891844D01*
X199452395Y-83895400D01*
X199023794Y-83895400D01*
X198987699Y-83891845D01*
X198951604Y-83895400D01*
X198951595Y-83895400D01*
X198843615Y-83906035D01*
X198705067Y-83948063D01*
X198577380Y-84016313D01*
X198465462Y-84108162D01*
X198442446Y-84136207D01*
X196393308Y-86185346D01*
X196365262Y-86208363D01*
X196273413Y-86320281D01*
X196205163Y-86447968D01*
X196179172Y-86533649D01*
X196163135Y-86586515D01*
X196148944Y-86730600D01*
X196152500Y-86766706D01*
X196152500Y-86961289D01*
X196083563Y-87030226D01*
X195970295Y-87199744D01*
X195892274Y-87388102D01*
X195852500Y-87588061D01*
X195852500Y-87791939D01*
X195892274Y-87991898D01*
X195970295Y-88180256D01*
X196083563Y-88349774D01*
X196227726Y-88493937D01*
X196397244Y-88607205D01*
X196585602Y-88685226D01*
X196785561Y-88725000D01*
X196989439Y-88725000D01*
X197189398Y-88685226D01*
X197377756Y-88607205D01*
X197547274Y-88493937D01*
X197691437Y-88349774D01*
X197804705Y-88180256D01*
X197882726Y-87991898D01*
X197922500Y-87791939D01*
X197922500Y-87588061D01*
X197882726Y-87388102D01*
X197804705Y-87199744D01*
X197691437Y-87030226D01*
X197659379Y-86998168D01*
X198150200Y-86507346D01*
X198150201Y-88620952D01*
X196943254Y-89827900D01*
X196845761Y-89827900D01*
X196645802Y-89867674D01*
X196457444Y-89945695D01*
X196287926Y-90058963D01*
X196143763Y-90203126D01*
X196030495Y-90372644D01*
X195952474Y-90561002D01*
X195912700Y-90760961D01*
X195912700Y-90964839D01*
X195952474Y-91164798D01*
X196030495Y-91353156D01*
X196143763Y-91522674D01*
X196287926Y-91666837D01*
X196457444Y-91780105D01*
X196645802Y-91858126D01*
X196845761Y-91897900D01*
X197049639Y-91897900D01*
X197249598Y-91858126D01*
X197437956Y-91780105D01*
X197607474Y-91666837D01*
X197751637Y-91522674D01*
X197864905Y-91353156D01*
X197942926Y-91164798D01*
X197982700Y-90964839D01*
X197982700Y-90867346D01*
X198285734Y-90564312D01*
X198296274Y-90617298D01*
X198374295Y-90805656D01*
X198487563Y-90975174D01*
X198631726Y-91119337D01*
X198801244Y-91232605D01*
X198842001Y-91249487D01*
X198842000Y-93291589D01*
X198773063Y-93360526D01*
X198659795Y-93530044D01*
X198581774Y-93718402D01*
X198542000Y-93918361D01*
X198542000Y-94122239D01*
X198581774Y-94322198D01*
X198659795Y-94510556D01*
X198773063Y-94680074D01*
X198917226Y-94824237D01*
X199086744Y-94937505D01*
X199275102Y-95015526D01*
X199475061Y-95055300D01*
X199678939Y-95055300D01*
X199878898Y-95015526D01*
X200067256Y-94937505D01*
X200236774Y-94824237D01*
X200380937Y-94680074D01*
X200494205Y-94510556D01*
X200572226Y-94322198D01*
X200606424Y-94150271D01*
X200935053Y-94478900D01*
X200909461Y-94478900D01*
X200709502Y-94518674D01*
X200521144Y-94596695D01*
X200351626Y-94709963D01*
X200207463Y-94854126D01*
X200094195Y-95023644D01*
X200016174Y-95212002D01*
X199976400Y-95411961D01*
X199976400Y-95615839D01*
X200016174Y-95815798D01*
X200094195Y-96004156D01*
X200207463Y-96173674D01*
X200276401Y-96242612D01*
X200276400Y-99630485D01*
X200229702Y-99639774D01*
X200041344Y-99717795D01*
X199871826Y-99831063D01*
X199727663Y-99975226D01*
X199614395Y-100144744D01*
X199536374Y-100333102D01*
X199496600Y-100533061D01*
X199496600Y-100736939D01*
X199536374Y-100936898D01*
X199614395Y-101125256D01*
X199727663Y-101294774D01*
X199871826Y-101438937D01*
X200041344Y-101552205D01*
X200229702Y-101630226D01*
X200429661Y-101670000D01*
X200633539Y-101670000D01*
X200833498Y-101630226D01*
X201021856Y-101552205D01*
X201191374Y-101438937D01*
X201335537Y-101294774D01*
X201448805Y-101125256D01*
X201526826Y-100936898D01*
X201566600Y-100736939D01*
X201566600Y-100637273D01*
X201625487Y-100565520D01*
X201632747Y-100551937D01*
X201693737Y-100437834D01*
X201735765Y-100299285D01*
X201749956Y-100155200D01*
X201746400Y-100119095D01*
X201746400Y-96995971D01*
X201804861Y-97007600D01*
X202008739Y-97007600D01*
X202208698Y-96967826D01*
X202397056Y-96889805D01*
X202566574Y-96776537D01*
X202710737Y-96632374D01*
X202824005Y-96462856D01*
X202902026Y-96274498D01*
X202941800Y-96074539D01*
X202941800Y-95870661D01*
X202902026Y-95670702D01*
X202824005Y-95482344D01*
X202710737Y-95312826D01*
X202641800Y-95243889D01*
X202641800Y-94447294D01*
X202645355Y-94411199D01*
X202641800Y-94375104D01*
X202641800Y-94375095D01*
X202631165Y-94267115D01*
X202589137Y-94128567D01*
X202527374Y-94013016D01*
X202579574Y-93978137D01*
X202723737Y-93833974D01*
X202837005Y-93664456D01*
X202915026Y-93476098D01*
X202954800Y-93276139D01*
X202954800Y-93178646D01*
X205222336Y-90911110D01*
X205366738Y-92519190D01*
X205424255Y-94821206D01*
X205333099Y-97122126D01*
X205093650Y-99412343D01*
X204706901Y-101682375D01*
X204174478Y-103922676D01*
X203498582Y-106123984D01*
X202682046Y-108277068D01*
X201728264Y-110372983D01*
X200641228Y-112402954D01*
X199425445Y-114358569D01*
X198085995Y-116231652D01*
X196628467Y-118014388D01*
X195058938Y-119699341D01*
X193383945Y-121279502D01*
X191610465Y-122748283D01*
X189745911Y-124099546D01*
X187798034Y-125327674D01*
X185774960Y-126427543D01*
X184277289Y-127120557D01*
X186045293Y-125352554D01*
X186073338Y-125329538D01*
X186165187Y-125217620D01*
X186233437Y-125089933D01*
X186275465Y-124951385D01*
X186286100Y-124843405D01*
X186289656Y-124807300D01*
X186286100Y-124771195D01*
X186286100Y-117953994D01*
X186289655Y-117917899D01*
X186286100Y-117881804D01*
X186286100Y-117881795D01*
X186275465Y-117773815D01*
X186233437Y-117635267D01*
X186165187Y-117507580D01*
X186131351Y-117466351D01*
X186096353Y-117423706D01*
X186096350Y-117423703D01*
X186073337Y-117395662D01*
X186045297Y-117372650D01*
X185463700Y-116791054D01*
X185463700Y-114211946D01*
X187676105Y-111999541D01*
X193561445Y-111999541D01*
X193575636Y-112143626D01*
X193606111Y-112244085D01*
X193617665Y-112282174D01*
X193685914Y-112409860D01*
X193754748Y-112493734D01*
X193754753Y-112493739D01*
X193777764Y-112521778D01*
X193805803Y-112544789D01*
X195168966Y-113907954D01*
X195191978Y-113935994D01*
X195220017Y-113959005D01*
X195220021Y-113959009D01*
X195303894Y-114027842D01*
X195431581Y-114096092D01*
X195491911Y-114114393D01*
X195570131Y-114138121D01*
X195714215Y-114152312D01*
X195858300Y-114138121D01*
X195996848Y-114096092D01*
X196124535Y-114027842D01*
X196208408Y-113959009D01*
X196208413Y-113959004D01*
X196236452Y-113935993D01*
X196259464Y-113907953D01*
X199036841Y-111130575D01*
X199064880Y-111107564D01*
X199087894Y-111079522D01*
X199087895Y-111079521D01*
X199153863Y-110999138D01*
X199156729Y-110995646D01*
X199224979Y-110867960D01*
X199267006Y-110729414D01*
X199267007Y-110729412D01*
X199270333Y-110695638D01*
X199281198Y-110585326D01*
X199267007Y-110441241D01*
X199224978Y-110302693D01*
X199156728Y-110175006D01*
X199087895Y-110091133D01*
X199087886Y-110091124D01*
X199064879Y-110063090D01*
X199036845Y-110040083D01*
X197673678Y-108676919D01*
X197650664Y-108648876D01*
X197538746Y-108557027D01*
X197509766Y-108541537D01*
X197411059Y-108488777D01*
X197272511Y-108446749D01*
X197128427Y-108432558D01*
X197128426Y-108432558D01*
X196984341Y-108446749D01*
X196845793Y-108488778D01*
X196718106Y-108557028D01*
X196634233Y-108625861D01*
X196634228Y-108625866D01*
X196606189Y-108648877D01*
X196583177Y-108676917D01*
X195220025Y-110040071D01*
X195220020Y-110040075D01*
X193805809Y-111454287D01*
X193777764Y-111477303D01*
X193685915Y-111589221D01*
X193641542Y-111672238D01*
X193617665Y-111716908D01*
X193575636Y-111855456D01*
X193561445Y-111999541D01*
X187676105Y-111999541D01*
X190791613Y-108884033D01*
X190789237Y-108888479D01*
X190747208Y-109027027D01*
X190733017Y-109171112D01*
X190747208Y-109315196D01*
X190789237Y-109453745D01*
X190857486Y-109581431D01*
X190914714Y-109651163D01*
X190949335Y-109693349D01*
X190977380Y-109716365D01*
X192340543Y-111079530D01*
X192363550Y-111107564D01*
X192391584Y-111130571D01*
X192391593Y-111130580D01*
X192475466Y-111199413D01*
X192603153Y-111267663D01*
X192627920Y-111275176D01*
X192741702Y-111309692D01*
X192885787Y-111323883D01*
X193029872Y-111309692D01*
X193168420Y-111267663D01*
X193296106Y-111199413D01*
X193379980Y-111130580D01*
X193379985Y-111130575D01*
X193408024Y-111107564D01*
X193431038Y-111079522D01*
X194845253Y-109665308D01*
X194845257Y-109665303D01*
X196208417Y-108302145D01*
X196236451Y-108279138D01*
X196259458Y-108251104D01*
X196259467Y-108251095D01*
X196328300Y-108167222D01*
X196396550Y-108039535D01*
X196438579Y-107900987D01*
X196452770Y-107756902D01*
X196438579Y-107612817D01*
X196396550Y-107474268D01*
X196396550Y-107474267D01*
X196328300Y-107346580D01*
X196259467Y-107262707D01*
X196259463Y-107262703D01*
X196236452Y-107234664D01*
X196208412Y-107211652D01*
X194845257Y-105848499D01*
X194822237Y-105820449D01*
X194710319Y-105728600D01*
X194582632Y-105660351D01*
X194444084Y-105618322D01*
X194299999Y-105604131D01*
X194155914Y-105618322D01*
X194017365Y-105660350D01*
X194012922Y-105662725D01*
X197480693Y-102194954D01*
X197508738Y-102171938D01*
X197600587Y-102060020D01*
X197668837Y-101932333D01*
X197706842Y-101807048D01*
X197710865Y-101793786D01*
X197725056Y-101649701D01*
X197721500Y-101613596D01*
X197721500Y-99644211D01*
X197790437Y-99575274D01*
X197903705Y-99405756D01*
X197981726Y-99217398D01*
X198021500Y-99017439D01*
X198021500Y-98813561D01*
X197981726Y-98613602D01*
X197903705Y-98425244D01*
X197790437Y-98255726D01*
X197646274Y-98111563D01*
X197476756Y-97998295D01*
X197288398Y-97920274D01*
X197088439Y-97880500D01*
X196884561Y-97880500D01*
X196684602Y-97920274D01*
X196496244Y-97998295D01*
X196326726Y-98111563D01*
X196182563Y-98255726D01*
X196088960Y-98395813D01*
X195221900Y-97528754D01*
X195221900Y-97360561D01*
X195182126Y-97160602D01*
X195104105Y-96972244D01*
X194990837Y-96802726D01*
X194846674Y-96658563D01*
X194677156Y-96545295D01*
X194488798Y-96467274D01*
X194288839Y-96427500D01*
X194084961Y-96427500D01*
X193885002Y-96467274D01*
X193696644Y-96545295D01*
X193527126Y-96658563D01*
X193450168Y-96735521D01*
X193065772Y-96351126D01*
X193344771Y-96406623D01*
X193708415Y-96406623D01*
X194065070Y-96335679D01*
X194401033Y-96196519D01*
X194703391Y-95994490D01*
X194960526Y-95737355D01*
X195162555Y-95434997D01*
X195301715Y-95099034D01*
X195372659Y-94742379D01*
X195372659Y-94378735D01*
X195301715Y-94022080D01*
X195162555Y-93686117D01*
X194960526Y-93383759D01*
X194703391Y-93126624D01*
X194401033Y-92924595D01*
X194065070Y-92785435D01*
X193708415Y-92714491D01*
X193344771Y-92714491D01*
X192988116Y-92785435D01*
X192652153Y-92924595D01*
X192349795Y-93126624D01*
X192235000Y-93241419D01*
X192235000Y-92554446D01*
X192516916Y-92272531D01*
X192592020Y-92232387D01*
X192703938Y-92140538D01*
X192795787Y-92028620D01*
X192864037Y-91900933D01*
X192906065Y-91762385D01*
X192920256Y-91618300D01*
X192916700Y-91582195D01*
X192916700Y-85544568D01*
X192922655Y-85484101D01*
X192921122Y-85468529D01*
X192919336Y-85450396D01*
X192908465Y-85340016D01*
X192901041Y-85315543D01*
X193165399Y-85051185D01*
X193244751Y-84954494D01*
X193303716Y-84844180D01*
X193340026Y-84724482D01*
X193352286Y-84600000D01*
X193340026Y-84475518D01*
X193303716Y-84355820D01*
X193244751Y-84245506D01*
X193165399Y-84148815D01*
X192883132Y-83866548D01*
X192887634Y-83866991D01*
X192923739Y-83863435D01*
X194408875Y-83863435D01*
X194444980Y-83866991D01*
X194481085Y-83863435D01*
X194589065Y-83852800D01*
X194727613Y-83810772D01*
X194855300Y-83742522D01*
X194967218Y-83650673D01*
X194990238Y-83622623D01*
X196558415Y-82054448D01*
X196586460Y-82031432D01*
X196678309Y-81919514D01*
X196746559Y-81791827D01*
X196788587Y-81653278D01*
X196799222Y-81545298D01*
X196799222Y-81545290D01*
X196802777Y-81509195D01*
X196799222Y-81473100D01*
X196799222Y-81255330D01*
X196802777Y-81219233D01*
X196799222Y-81183136D01*
X196799222Y-81183129D01*
X196789810Y-81087564D01*
X196788587Y-81075148D01*
X196771493Y-81018797D01*
X196746559Y-80936601D01*
X196678309Y-80808914D01*
X196660860Y-80787653D01*
X196609475Y-80725040D01*
X196609472Y-80725037D01*
X196586459Y-80696996D01*
X196558419Y-80673984D01*
X194313400Y-78428966D01*
X194313400Y-78174419D01*
X195220020Y-79081040D01*
X195220026Y-79081045D01*
X196583180Y-80444199D01*
X196606191Y-80472238D01*
X196634230Y-80495249D01*
X196634234Y-80495253D01*
X196718108Y-80564087D01*
X196794927Y-80605147D01*
X196845796Y-80632337D01*
X196924014Y-80656064D01*
X196984343Y-80674365D01*
X197128428Y-80688556D01*
X197272513Y-80674365D01*
X197411061Y-80632336D01*
X197538748Y-80564086D01*
X197622621Y-80495253D01*
X197650666Y-80472237D01*
X197673682Y-80444192D01*
X199036843Y-79081030D01*
X199064877Y-79058023D01*
X199087885Y-79029988D01*
X199087893Y-79029980D01*
X199156727Y-78946106D01*
X199224976Y-78818420D01*
X199267005Y-78679871D01*
X199281195Y-78535786D01*
X199280320Y-78526898D01*
X199267005Y-78391701D01*
X199224976Y-78253152D01*
X199156726Y-78125466D01*
X199087893Y-78041592D01*
X199087888Y-78041587D01*
X199064877Y-78013548D01*
X199036838Y-77990537D01*
X196259473Y-75213172D01*
X196236452Y-75185121D01*
X196124534Y-75093272D01*
X195996847Y-75025022D01*
X195858299Y-74982994D01*
X195714214Y-74968803D01*
X195570129Y-74982994D01*
X195431580Y-75025022D01*
X195303894Y-75093272D01*
X195220020Y-75162106D01*
X195220015Y-75162111D01*
X195191977Y-75185121D01*
X195168965Y-75213161D01*
X194313400Y-76068727D01*
X194313400Y-73830803D01*
X194316956Y-73794698D01*
X194302765Y-73650613D01*
X194260737Y-73512064D01*
X194192487Y-73384378D01*
X194123653Y-73300504D01*
X194123650Y-73300501D01*
X194100637Y-73272460D01*
X194072598Y-73249449D01*
X185279500Y-64456352D01*
X185256479Y-64428301D01*
X185144561Y-64336452D01*
X185016874Y-64268202D01*
X184899131Y-64232485D01*
X182754159Y-62087513D01*
X182731138Y-62059462D01*
X182619220Y-61967613D01*
X182491533Y-61899363D01*
X182352985Y-61857335D01*
X182245005Y-61846700D01*
X182208900Y-61843144D01*
X182172795Y-61846700D01*
X174472896Y-61846700D01*
X174436799Y-61843145D01*
X174400702Y-61846700D01*
X174400695Y-61846700D01*
X174306932Y-61855935D01*
X174292714Y-61857335D01*
X174250686Y-61870084D01*
X174154167Y-61899363D01*
X174026480Y-61967613D01*
X173914562Y-62059462D01*
X173891546Y-62087507D01*
X172467108Y-63511946D01*
X172439063Y-63534962D01*
X172347214Y-63646880D01*
X172307670Y-63720862D01*
X172278964Y-63774567D01*
X172236935Y-63913115D01*
X172222744Y-64057200D01*
X172226301Y-64093315D01*
X172226301Y-65526809D01*
X172155536Y-65497497D01*
X171839657Y-65434665D01*
X171517591Y-65434665D01*
X171201712Y-65497497D01*
X170904161Y-65620747D01*
X170636372Y-65799678D01*
X170495594Y-65940456D01*
X170495594Y-59210639D01*
X170504098Y-59123900D01*
X170518848Y-59075047D01*
X170542805Y-59029989D01*
X170575059Y-58990443D01*
X170614382Y-58957911D01*
X170659266Y-58933642D01*
X170708021Y-58918550D01*
X170780530Y-58910929D01*
X173066566Y-59049497D01*
%TA.AperFunction,Conductor*%
D23*
G36*
X173066566Y-59049497D02*
G01*
X175351301Y-59336860D01*
X177612695Y-59771057D01*
X179841373Y-60350286D01*
X182028041Y-61072133D01*
X184163552Y-61933581D01*
X186239027Y-62931046D01*
X188245804Y-64060364D01*
X188345981Y-64125591D01*
X188292874Y-64253802D01*
X188253100Y-64453761D01*
X188253100Y-64657639D01*
X188292874Y-64857598D01*
X188370895Y-65045956D01*
X188484163Y-65215474D01*
X188628326Y-65359637D01*
X188797844Y-65472905D01*
X188986202Y-65550926D01*
X189186161Y-65590700D01*
X189283654Y-65590700D01*
X199528901Y-75835948D01*
X199528900Y-83895823D01*
X199524605Y-83895400D01*
X199488500Y-83891844D01*
X199452395Y-83895400D01*
X199023794Y-83895400D01*
X198987699Y-83891845D01*
X198951604Y-83895400D01*
X198951595Y-83895400D01*
X198843615Y-83906035D01*
X198705067Y-83948063D01*
X198577380Y-84016313D01*
X198465462Y-84108162D01*
X198442446Y-84136207D01*
X196393308Y-86185346D01*
X196365262Y-86208363D01*
X196273413Y-86320281D01*
X196205163Y-86447968D01*
X196179172Y-86533649D01*
X196163135Y-86586515D01*
X196148944Y-86730600D01*
X196152500Y-86766706D01*
X196152500Y-86961289D01*
X196083563Y-87030226D01*
X195970295Y-87199744D01*
X195892274Y-87388102D01*
X195852500Y-87588061D01*
X195852500Y-87791939D01*
X195892274Y-87991898D01*
X195970295Y-88180256D01*
X196083563Y-88349774D01*
X196227726Y-88493937D01*
X196397244Y-88607205D01*
X196585602Y-88685226D01*
X196785561Y-88725000D01*
X196989439Y-88725000D01*
X197189398Y-88685226D01*
X197377756Y-88607205D01*
X197547274Y-88493937D01*
X197691437Y-88349774D01*
X197804705Y-88180256D01*
X197882726Y-87991898D01*
X197922500Y-87791939D01*
X197922500Y-87588061D01*
X197882726Y-87388102D01*
X197804705Y-87199744D01*
X197691437Y-87030226D01*
X197659379Y-86998168D01*
X198150200Y-86507346D01*
X198150201Y-88620952D01*
X196943254Y-89827900D01*
X196845761Y-89827900D01*
X196645802Y-89867674D01*
X196457444Y-89945695D01*
X196287926Y-90058963D01*
X196143763Y-90203126D01*
X196030495Y-90372644D01*
X195952474Y-90561002D01*
X195912700Y-90760961D01*
X195912700Y-90964839D01*
X195952474Y-91164798D01*
X196030495Y-91353156D01*
X196143763Y-91522674D01*
X196287926Y-91666837D01*
X196457444Y-91780105D01*
X196645802Y-91858126D01*
X196845761Y-91897900D01*
X197049639Y-91897900D01*
X197249598Y-91858126D01*
X197437956Y-91780105D01*
X197607474Y-91666837D01*
X197751637Y-91522674D01*
X197864905Y-91353156D01*
X197942926Y-91164798D01*
X197982700Y-90964839D01*
X197982700Y-90867346D01*
X198285734Y-90564312D01*
X198296274Y-90617298D01*
X198374295Y-90805656D01*
X198487563Y-90975174D01*
X198631726Y-91119337D01*
X198801244Y-91232605D01*
X198842001Y-91249487D01*
X198842000Y-93291589D01*
X198773063Y-93360526D01*
X198659795Y-93530044D01*
X198581774Y-93718402D01*
X198542000Y-93918361D01*
X198542000Y-94122239D01*
X198581774Y-94322198D01*
X198659795Y-94510556D01*
X198773063Y-94680074D01*
X198917226Y-94824237D01*
X199086744Y-94937505D01*
X199275102Y-95015526D01*
X199475061Y-95055300D01*
X199678939Y-95055300D01*
X199878898Y-95015526D01*
X200067256Y-94937505D01*
X200236774Y-94824237D01*
X200380937Y-94680074D01*
X200494205Y-94510556D01*
X200572226Y-94322198D01*
X200606424Y-94150271D01*
X200935053Y-94478900D01*
X200909461Y-94478900D01*
X200709502Y-94518674D01*
X200521144Y-94596695D01*
X200351626Y-94709963D01*
X200207463Y-94854126D01*
X200094195Y-95023644D01*
X200016174Y-95212002D01*
X199976400Y-95411961D01*
X199976400Y-95615839D01*
X200016174Y-95815798D01*
X200094195Y-96004156D01*
X200207463Y-96173674D01*
X200276401Y-96242612D01*
X200276400Y-99630485D01*
X200229702Y-99639774D01*
X200041344Y-99717795D01*
X199871826Y-99831063D01*
X199727663Y-99975226D01*
X199614395Y-100144744D01*
X199536374Y-100333102D01*
X199496600Y-100533061D01*
X199496600Y-100736939D01*
X199536374Y-100936898D01*
X199614395Y-101125256D01*
X199727663Y-101294774D01*
X199871826Y-101438937D01*
X200041344Y-101552205D01*
X200229702Y-101630226D01*
X200429661Y-101670000D01*
X200633539Y-101670000D01*
X200833498Y-101630226D01*
X201021856Y-101552205D01*
X201191374Y-101438937D01*
X201335537Y-101294774D01*
X201448805Y-101125256D01*
X201526826Y-100936898D01*
X201566600Y-100736939D01*
X201566600Y-100637273D01*
X201625487Y-100565520D01*
X201632747Y-100551937D01*
X201693737Y-100437834D01*
X201735765Y-100299285D01*
X201749956Y-100155200D01*
X201746400Y-100119095D01*
X201746400Y-96995971D01*
X201804861Y-97007600D01*
X202008739Y-97007600D01*
X202208698Y-96967826D01*
X202397056Y-96889805D01*
X202566574Y-96776537D01*
X202710737Y-96632374D01*
X202824005Y-96462856D01*
X202902026Y-96274498D01*
X202941800Y-96074539D01*
X202941800Y-95870661D01*
X202902026Y-95670702D01*
X202824005Y-95482344D01*
X202710737Y-95312826D01*
X202641800Y-95243889D01*
X202641800Y-94447294D01*
X202645355Y-94411199D01*
X202641800Y-94375104D01*
X202641800Y-94375095D01*
X202631165Y-94267115D01*
X202589137Y-94128567D01*
X202527374Y-94013016D01*
X202579574Y-93978137D01*
X202723737Y-93833974D01*
X202837005Y-93664456D01*
X202915026Y-93476098D01*
X202954800Y-93276139D01*
X202954800Y-93178646D01*
X205222336Y-90911110D01*
X205366738Y-92519190D01*
X205424255Y-94821206D01*
X205333099Y-97122126D01*
X205093650Y-99412343D01*
X204706901Y-101682375D01*
X204174478Y-103922676D01*
X203498582Y-106123984D01*
X202682046Y-108277068D01*
X201728264Y-110372983D01*
X200641228Y-112402954D01*
X199425445Y-114358569D01*
X198085995Y-116231652D01*
X196628467Y-118014388D01*
X195058938Y-119699341D01*
X193383945Y-121279502D01*
X191610465Y-122748283D01*
X189745911Y-124099546D01*
X187798034Y-125327674D01*
X185774960Y-126427543D01*
X184277289Y-127120557D01*
X186045293Y-125352554D01*
X186073338Y-125329538D01*
X186165187Y-125217620D01*
X186233437Y-125089933D01*
X186275465Y-124951385D01*
X186286100Y-124843405D01*
X186289656Y-124807300D01*
X186286100Y-124771195D01*
X186286100Y-117953994D01*
X186289655Y-117917899D01*
X186286100Y-117881804D01*
X186286100Y-117881795D01*
X186275465Y-117773815D01*
X186233437Y-117635267D01*
X186165187Y-117507580D01*
X186131351Y-117466351D01*
X186096353Y-117423706D01*
X186096350Y-117423703D01*
X186073337Y-117395662D01*
X186045297Y-117372650D01*
X185463700Y-116791054D01*
X185463700Y-114211946D01*
X187676105Y-111999541D01*
X193561445Y-111999541D01*
X193575636Y-112143626D01*
X193606111Y-112244085D01*
X193617665Y-112282174D01*
X193685914Y-112409860D01*
X193754748Y-112493734D01*
X193754753Y-112493739D01*
X193777764Y-112521778D01*
X193805803Y-112544789D01*
X195168966Y-113907954D01*
X195191978Y-113935994D01*
X195220017Y-113959005D01*
X195220021Y-113959009D01*
X195303894Y-114027842D01*
X195431581Y-114096092D01*
X195491911Y-114114393D01*
X195570131Y-114138121D01*
X195714215Y-114152312D01*
X195858300Y-114138121D01*
X195996848Y-114096092D01*
X196124535Y-114027842D01*
X196208408Y-113959009D01*
X196208413Y-113959004D01*
X196236452Y-113935993D01*
X196259464Y-113907953D01*
X199036841Y-111130575D01*
X199064880Y-111107564D01*
X199087894Y-111079522D01*
X199087895Y-111079521D01*
X199153863Y-110999138D01*
X199156729Y-110995646D01*
X199224979Y-110867960D01*
X199267006Y-110729414D01*
X199267007Y-110729412D01*
X199270333Y-110695638D01*
X199281198Y-110585326D01*
X199267007Y-110441241D01*
X199224978Y-110302693D01*
X199156728Y-110175006D01*
X199087895Y-110091133D01*
X199087886Y-110091124D01*
X199064879Y-110063090D01*
X199036845Y-110040083D01*
X197673678Y-108676919D01*
X197650664Y-108648876D01*
X197538746Y-108557027D01*
X197509766Y-108541537D01*
X197411059Y-108488777D01*
X197272511Y-108446749D01*
X197128427Y-108432558D01*
X197128426Y-108432558D01*
X196984341Y-108446749D01*
X196845793Y-108488778D01*
X196718106Y-108557028D01*
X196634233Y-108625861D01*
X196634228Y-108625866D01*
X196606189Y-108648877D01*
X196583177Y-108676917D01*
X195220025Y-110040071D01*
X195220020Y-110040075D01*
X193805809Y-111454287D01*
X193777764Y-111477303D01*
X193685915Y-111589221D01*
X193641542Y-111672238D01*
X193617665Y-111716908D01*
X193575636Y-111855456D01*
X193561445Y-111999541D01*
X187676105Y-111999541D01*
X190791613Y-108884033D01*
X190789237Y-108888479D01*
X190747208Y-109027027D01*
X190733017Y-109171112D01*
X190747208Y-109315196D01*
X190789237Y-109453745D01*
X190857486Y-109581431D01*
X190914714Y-109651163D01*
X190949335Y-109693349D01*
X190977380Y-109716365D01*
X192340543Y-111079530D01*
X192363550Y-111107564D01*
X192391584Y-111130571D01*
X192391593Y-111130580D01*
X192475466Y-111199413D01*
X192603153Y-111267663D01*
X192627920Y-111275176D01*
X192741702Y-111309692D01*
X192885787Y-111323883D01*
X193029872Y-111309692D01*
X193168420Y-111267663D01*
X193296106Y-111199413D01*
X193379980Y-111130580D01*
X193379985Y-111130575D01*
X193408024Y-111107564D01*
X193431038Y-111079522D01*
X194845253Y-109665308D01*
X194845257Y-109665303D01*
X196208417Y-108302145D01*
X196236451Y-108279138D01*
X196259458Y-108251104D01*
X196259467Y-108251095D01*
X196328300Y-108167222D01*
X196396550Y-108039535D01*
X196438579Y-107900987D01*
X196452770Y-107756902D01*
X196438579Y-107612817D01*
X196396550Y-107474268D01*
X196396550Y-107474267D01*
X196328300Y-107346580D01*
X196259467Y-107262707D01*
X196259463Y-107262703D01*
X196236452Y-107234664D01*
X196208412Y-107211652D01*
X194845257Y-105848499D01*
X194822237Y-105820449D01*
X194710319Y-105728600D01*
X194582632Y-105660351D01*
X194444084Y-105618322D01*
X194299999Y-105604131D01*
X194155914Y-105618322D01*
X194017365Y-105660350D01*
X194012922Y-105662725D01*
X197480693Y-102194954D01*
X197508738Y-102171938D01*
X197600587Y-102060020D01*
X197668837Y-101932333D01*
X197706842Y-101807048D01*
X197710865Y-101793786D01*
X197725056Y-101649701D01*
X197721500Y-101613596D01*
X197721500Y-99644211D01*
X197790437Y-99575274D01*
X197903705Y-99405756D01*
X197981726Y-99217398D01*
X198021500Y-99017439D01*
X198021500Y-98813561D01*
X197981726Y-98613602D01*
X197903705Y-98425244D01*
X197790437Y-98255726D01*
X197646274Y-98111563D01*
X197476756Y-97998295D01*
X197288398Y-97920274D01*
X197088439Y-97880500D01*
X196884561Y-97880500D01*
X196684602Y-97920274D01*
X196496244Y-97998295D01*
X196326726Y-98111563D01*
X196182563Y-98255726D01*
X196088960Y-98395813D01*
X195221900Y-97528754D01*
X195221900Y-97360561D01*
X195182126Y-97160602D01*
X195104105Y-96972244D01*
X194990837Y-96802726D01*
X194846674Y-96658563D01*
X194677156Y-96545295D01*
X194488798Y-96467274D01*
X194288839Y-96427500D01*
X194084961Y-96427500D01*
X193885002Y-96467274D01*
X193696644Y-96545295D01*
X193527126Y-96658563D01*
X193450168Y-96735521D01*
X193065772Y-96351126D01*
X193344771Y-96406623D01*
X193708415Y-96406623D01*
X194065070Y-96335679D01*
X194401033Y-96196519D01*
X194703391Y-95994490D01*
X194960526Y-95737355D01*
X195162555Y-95434997D01*
X195301715Y-95099034D01*
X195372659Y-94742379D01*
X195372659Y-94378735D01*
X195301715Y-94022080D01*
X195162555Y-93686117D01*
X194960526Y-93383759D01*
X194703391Y-93126624D01*
X194401033Y-92924595D01*
X194065070Y-92785435D01*
X193708415Y-92714491D01*
X193344771Y-92714491D01*
X192988116Y-92785435D01*
X192652153Y-92924595D01*
X192349795Y-93126624D01*
X192235000Y-93241419D01*
X192235000Y-92554446D01*
X192516916Y-92272531D01*
X192592020Y-92232387D01*
X192703938Y-92140538D01*
X192795787Y-92028620D01*
X192864037Y-91900933D01*
X192906065Y-91762385D01*
X192920256Y-91618300D01*
X192916700Y-91582195D01*
X192916700Y-85544568D01*
X192922655Y-85484101D01*
X192921122Y-85468529D01*
X192919336Y-85450396D01*
X192908465Y-85340016D01*
X192901041Y-85315543D01*
X193165399Y-85051185D01*
X193244751Y-84954494D01*
X193303716Y-84844180D01*
X193340026Y-84724482D01*
X193352286Y-84600000D01*
X193340026Y-84475518D01*
X193303716Y-84355820D01*
X193244751Y-84245506D01*
X193165399Y-84148815D01*
X192883132Y-83866548D01*
X192887634Y-83866991D01*
X192923739Y-83863435D01*
X194408875Y-83863435D01*
X194444980Y-83866991D01*
X194481085Y-83863435D01*
X194589065Y-83852800D01*
X194727613Y-83810772D01*
X194855300Y-83742522D01*
X194967218Y-83650673D01*
X194990238Y-83622623D01*
X196558415Y-82054448D01*
X196586460Y-82031432D01*
X196678309Y-81919514D01*
X196746559Y-81791827D01*
X196788587Y-81653278D01*
X196799222Y-81545298D01*
X196799222Y-81545290D01*
X196802777Y-81509195D01*
X196799222Y-81473100D01*
X196799222Y-81255330D01*
X196802777Y-81219233D01*
X196799222Y-81183136D01*
X196799222Y-81183129D01*
X196789810Y-81087564D01*
X196788587Y-81075148D01*
X196771493Y-81018797D01*
X196746559Y-80936601D01*
X196678309Y-80808914D01*
X196660860Y-80787653D01*
X196609475Y-80725040D01*
X196609472Y-80725037D01*
X196586459Y-80696996D01*
X196558419Y-80673984D01*
X194313400Y-78428966D01*
X194313400Y-78174419D01*
X195220020Y-79081040D01*
X195220026Y-79081045D01*
X196583180Y-80444199D01*
X196606191Y-80472238D01*
X196634230Y-80495249D01*
X196634234Y-80495253D01*
X196718108Y-80564087D01*
X196794927Y-80605147D01*
X196845796Y-80632337D01*
X196924014Y-80656064D01*
X196984343Y-80674365D01*
X197128428Y-80688556D01*
X197272513Y-80674365D01*
X197411061Y-80632336D01*
X197538748Y-80564086D01*
X197622621Y-80495253D01*
X197650666Y-80472237D01*
X197673682Y-80444192D01*
X199036843Y-79081030D01*
X199064877Y-79058023D01*
X199087885Y-79029988D01*
X199087893Y-79029980D01*
X199156727Y-78946106D01*
X199224976Y-78818420D01*
X199267005Y-78679871D01*
X199281195Y-78535786D01*
X199280320Y-78526898D01*
X199267005Y-78391701D01*
X199224976Y-78253152D01*
X199156726Y-78125466D01*
X199087893Y-78041592D01*
X199087888Y-78041587D01*
X199064877Y-78013548D01*
X199036838Y-77990537D01*
X196259473Y-75213172D01*
X196236452Y-75185121D01*
X196124534Y-75093272D01*
X195996847Y-75025022D01*
X195858299Y-74982994D01*
X195714214Y-74968803D01*
X195570129Y-74982994D01*
X195431580Y-75025022D01*
X195303894Y-75093272D01*
X195220020Y-75162106D01*
X195220015Y-75162111D01*
X195191977Y-75185121D01*
X195168965Y-75213161D01*
X194313400Y-76068727D01*
X194313400Y-73830803D01*
X194316956Y-73794698D01*
X194302765Y-73650613D01*
X194260737Y-73512064D01*
X194192487Y-73384378D01*
X194123653Y-73300504D01*
X194123650Y-73300501D01*
X194100637Y-73272460D01*
X194072598Y-73249449D01*
X185279500Y-64456352D01*
X185256479Y-64428301D01*
X185144561Y-64336452D01*
X185016874Y-64268202D01*
X184899131Y-64232485D01*
X182754159Y-62087513D01*
X182731138Y-62059462D01*
X182619220Y-61967613D01*
X182491533Y-61899363D01*
X182352985Y-61857335D01*
X182245005Y-61846700D01*
X182208900Y-61843144D01*
X182172795Y-61846700D01*
X174472896Y-61846700D01*
X174436799Y-61843145D01*
X174400702Y-61846700D01*
X174400695Y-61846700D01*
X174306932Y-61855935D01*
X174292714Y-61857335D01*
X174250686Y-61870084D01*
X174154167Y-61899363D01*
X174026480Y-61967613D01*
X173914562Y-62059462D01*
X173891546Y-62087507D01*
X172467108Y-63511946D01*
X172439063Y-63534962D01*
X172347214Y-63646880D01*
X172307670Y-63720862D01*
X172278964Y-63774567D01*
X172236935Y-63913115D01*
X172222744Y-64057200D01*
X172226301Y-64093315D01*
X172226301Y-65526809D01*
X172155536Y-65497497D01*
X171839657Y-65434665D01*
X171517591Y-65434665D01*
X171201712Y-65497497D01*
X170904161Y-65620747D01*
X170636372Y-65799678D01*
X170495594Y-65940456D01*
X170495594Y-59210639D01*
X170504098Y-59123900D01*
X170518848Y-59075047D01*
X170542805Y-59029989D01*
X170575059Y-58990443D01*
X170614382Y-58957911D01*
X170659266Y-58933642D01*
X170708021Y-58918550D01*
X170780530Y-58910929D01*
X173066566Y-59049497D01*
G37*
%TD.AperFunction*%
D22*
X172939000Y-78253695D02*
X172935444Y-78289800D01*
X172949635Y-78433885D01*
X172954760Y-78450779D01*
X172991663Y-78572432D01*
X173059913Y-78700119D01*
X173151762Y-78812037D01*
X173179808Y-78835054D01*
X179687700Y-85342947D01*
X179687700Y-85440439D01*
X179727474Y-85640398D01*
X179805495Y-85828756D01*
X179918763Y-85998274D01*
X180062926Y-86142437D01*
X180232444Y-86255705D01*
X180291101Y-86280002D01*
X180291101Y-90125767D01*
X179769333Y-89313880D01*
X178951315Y-88369836D01*
X178007271Y-87551818D01*
X176956419Y-86876477D01*
X175820153Y-86357561D01*
X174621603Y-86005635D01*
X173385169Y-85827863D01*
X172136019Y-85827863D01*
X170899585Y-86005635D01*
X169701035Y-86357561D01*
X168564769Y-86876477D01*
X167513917Y-87551818D01*
X166569873Y-88369836D01*
X165751855Y-89313880D01*
X165076514Y-90364732D01*
X164557598Y-91500998D01*
X164205672Y-92699548D01*
X164027900Y-93935982D01*
X164027900Y-95185132D01*
X164205672Y-96421566D01*
X164557598Y-97620116D01*
X165076514Y-98756382D01*
X165751855Y-99807234D01*
X166569873Y-100751278D01*
X167513917Y-101569296D01*
X168564769Y-102244637D01*
X169701035Y-102763553D01*
X170899585Y-103115479D01*
X172136019Y-103293251D01*
X173385169Y-103293251D01*
X174621603Y-103115479D01*
X175820153Y-102763553D01*
X176956419Y-102244637D01*
X178007271Y-101569296D01*
X178951315Y-100751278D01*
X179769333Y-99807234D01*
X180291101Y-98995347D01*
X180291100Y-112282753D01*
X174863019Y-117710835D01*
X174859696Y-117713108D01*
X174811868Y-117761986D01*
X174789147Y-117784707D01*
X174786609Y-117787799D01*
X174758437Y-117816590D01*
X174740792Y-117843629D01*
X174720314Y-117868581D01*
X174701330Y-117904098D01*
X174679311Y-117937838D01*
X174667279Y-117967802D01*
X174652064Y-117996267D01*
X174640371Y-118034812D01*
X174637577Y-118041771D01*
X174446913Y-118120747D01*
X174179124Y-118299678D01*
X173951389Y-118527413D01*
X173772458Y-118795202D01*
X173649208Y-119092753D01*
X173586376Y-119408632D01*
X173586376Y-119730698D01*
X173649208Y-120046577D01*
X173772458Y-120344128D01*
X173833831Y-120435978D01*
X173784055Y-120457235D01*
X173680816Y-120527859D01*
X173593338Y-120617266D01*
X173524984Y-120722021D01*
X173478380Y-120838099D01*
X173455317Y-120961039D01*
X173427067Y-121283940D01*
X173395765Y-121263513D01*
X173391418Y-121261767D01*
X173418994Y-120946572D01*
X173417630Y-120821496D01*
X173391890Y-120699089D01*
X173342765Y-120584055D01*
X173272141Y-120480816D01*
X173182734Y-120393338D01*
X173138685Y-120364595D01*
X173191363Y-120311917D01*
X173370294Y-120044128D01*
X173493544Y-119746577D01*
X173556376Y-119430698D01*
X173556376Y-119108632D01*
X173493544Y-118792753D01*
X173370294Y-118495202D01*
X173191363Y-118227413D01*
X172963628Y-117999678D01*
X172695839Y-117820747D01*
X172398288Y-117697497D01*
X172082409Y-117634665D01*
X171760343Y-117634665D01*
X171444464Y-117697497D01*
X171146913Y-117820747D01*
X171080300Y-117865256D01*
X171080300Y-117453505D01*
X171083856Y-117417400D01*
X171069665Y-117273315D01*
X171027637Y-117134766D01*
X170959387Y-117007080D01*
X170934403Y-116976637D01*
X170867538Y-116895162D01*
X170839493Y-116872146D01*
X169562900Y-115595554D01*
X169562900Y-115498061D01*
X169523126Y-115298102D01*
X169445105Y-115109744D01*
X169331837Y-114940226D01*
X169187674Y-114796063D01*
X169018156Y-114682795D01*
X168829798Y-114604774D01*
X168629839Y-114565000D01*
X168532347Y-114565000D01*
X161843159Y-107875813D01*
X161820138Y-107847762D01*
X161708220Y-107755913D01*
X161580533Y-107687663D01*
X161441985Y-107645635D01*
X161334005Y-107635000D01*
X161297900Y-107631444D01*
X161261795Y-107635000D01*
X159848111Y-107635000D01*
X159779174Y-107566063D01*
X159609656Y-107452795D01*
X159421298Y-107374774D01*
X159221339Y-107335000D01*
X159017461Y-107335000D01*
X158817502Y-107374774D01*
X158629144Y-107452795D01*
X158459626Y-107566063D01*
X158390689Y-107635000D01*
X149643210Y-107635000D01*
X149678220Y-107616287D01*
X149790138Y-107524438D01*
X149813159Y-107496387D01*
X155889598Y-101419949D01*
X155917637Y-101396938D01*
X155940650Y-101368897D01*
X155940653Y-101368894D01*
X156009487Y-101285020D01*
X156077737Y-101157334D01*
X156119765Y-101018785D01*
X156133956Y-100874700D01*
X156130400Y-100838595D01*
X156130400Y-98451007D01*
X156254274Y-98368237D01*
X156398437Y-98224074D01*
X156511705Y-98054556D01*
X156589726Y-97866198D01*
X156629500Y-97666239D01*
X156629500Y-97462361D01*
X156589726Y-97262402D01*
X156511705Y-97074044D01*
X156398437Y-96904526D01*
X156254274Y-96760363D01*
X156130400Y-96677593D01*
X156130400Y-83453761D01*
X160923300Y-83453761D01*
X160923300Y-83657639D01*
X160963074Y-83857598D01*
X161041095Y-84045956D01*
X161154363Y-84215474D01*
X161298526Y-84359637D01*
X161468044Y-84472905D01*
X161656402Y-84550926D01*
X161856361Y-84590700D01*
X162060239Y-84590700D01*
X162260198Y-84550926D01*
X162448556Y-84472905D01*
X162618074Y-84359637D01*
X162762237Y-84215474D01*
X162875505Y-84045956D01*
X162953526Y-83857598D01*
X162993300Y-83657639D01*
X162993300Y-83453761D01*
X162953526Y-83253802D01*
X162875505Y-83065444D01*
X162762237Y-82895926D01*
X162693300Y-82826989D01*
X162693300Y-80123346D01*
X165741047Y-77075600D01*
X165838539Y-77075600D01*
X166038498Y-77035826D01*
X166226856Y-76957805D01*
X166396374Y-76844537D01*
X166540537Y-76700374D01*
X166653805Y-76530856D01*
X166731826Y-76342498D01*
X166771600Y-76142539D01*
X166771600Y-75938661D01*
X166731826Y-75738702D01*
X166653805Y-75550344D01*
X166540537Y-75380826D01*
X166396374Y-75236663D01*
X166226856Y-75123395D01*
X166038498Y-75045374D01*
X165838539Y-75005600D01*
X165634661Y-75005600D01*
X165434702Y-75045374D01*
X165246344Y-75123395D01*
X165076826Y-75236663D01*
X164932663Y-75380826D01*
X164819395Y-75550344D01*
X164741374Y-75738702D01*
X164701600Y-75938661D01*
X164701600Y-76036153D01*
X161464108Y-79273646D01*
X161436063Y-79296662D01*
X161344214Y-79408580D01*
X161288196Y-79513382D01*
X161275964Y-79536267D01*
X161233935Y-79674815D01*
X161219744Y-79818900D01*
X161223301Y-79855015D01*
X161223300Y-82826989D01*
X161154363Y-82895926D01*
X161041095Y-83065444D01*
X160963074Y-83253802D01*
X160923300Y-83453761D01*
X156130400Y-83453761D01*
X156130400Y-79737111D01*
X156199337Y-79668174D01*
X156312605Y-79498656D01*
X156390626Y-79310298D01*
X156430400Y-79110339D01*
X156430400Y-78906461D01*
X156390626Y-78706502D01*
X156312605Y-78518144D01*
X156199337Y-78348626D01*
X156055174Y-78204463D01*
X155885656Y-78091195D01*
X155697298Y-78013174D01*
X155497339Y-77973400D01*
X155293461Y-77973400D01*
X155093502Y-78013174D01*
X154905144Y-78091195D01*
X154735626Y-78204463D01*
X154591463Y-78348626D01*
X154478195Y-78518144D01*
X154400174Y-78706502D01*
X154360400Y-78906461D01*
X154360400Y-79110339D01*
X154400174Y-79310298D01*
X154478195Y-79498656D01*
X154591463Y-79668174D01*
X154660401Y-79737112D01*
X154660400Y-91787953D01*
X145222159Y-82349713D01*
X145199138Y-82321662D01*
X145087220Y-82229813D01*
X144959533Y-82161563D01*
X144820985Y-82119535D01*
X144713005Y-82108900D01*
X144676900Y-82105344D01*
X144640795Y-82108900D01*
X136932271Y-82108900D01*
X136938072Y-82050000D01*
X136938072Y-80950000D01*
X136925812Y-80825518D01*
X136889502Y-80705820D01*
X136859665Y-80650000D01*
X136889502Y-80594180D01*
X136925812Y-80474482D01*
X136938072Y-80350000D01*
X136935000Y-80085750D01*
X136776250Y-79927000D01*
X136077000Y-79927000D01*
X136077000Y-79947000D01*
X135823000Y-79947000D01*
X135823000Y-79927000D01*
X135123750Y-79927000D01*
X134965000Y-80085750D01*
X134962371Y-80311928D01*
X134737629Y-80311928D01*
X134735000Y-80085750D01*
X134576250Y-79927000D01*
X133827000Y-79927000D01*
X133827000Y-79947000D01*
X133573000Y-79947000D01*
X133573000Y-79927000D01*
X132677000Y-79927000D01*
X132677000Y-79947000D01*
X132423000Y-79947000D01*
X132423000Y-79927000D01*
X131577000Y-79927000D01*
X131577000Y-79947000D01*
X131323000Y-79947000D01*
X131323000Y-79927000D01*
X130623750Y-79927000D01*
X130465000Y-80085750D01*
X130461928Y-80350000D01*
X130474188Y-80474482D01*
X130510498Y-80594180D01*
X130540335Y-80650000D01*
X130510498Y-80705820D01*
X130474188Y-80825518D01*
X130461928Y-80950000D01*
X130461928Y-81121925D01*
X125877244Y-85706609D01*
X125874900Y-85682806D01*
X125874900Y-80942046D01*
X132833147Y-73983800D01*
X132930639Y-73983800D01*
X133130598Y-73944026D01*
X133318956Y-73866005D01*
X133488474Y-73752737D01*
X133632637Y-73608574D01*
X133745905Y-73439056D01*
X133823926Y-73250698D01*
X133854785Y-73095558D01*
X139114695Y-73095558D01*
X135455808Y-76754446D01*
X135427763Y-76777462D01*
X135335914Y-76889380D01*
X135317668Y-76923517D01*
X135200000Y-76911928D01*
X134500000Y-76911928D01*
X134375518Y-76924188D01*
X134300000Y-76947096D01*
X134224482Y-76924188D01*
X134100000Y-76911928D01*
X133300000Y-76911928D01*
X133175518Y-76924188D01*
X133100000Y-76947096D01*
X133024482Y-76924188D01*
X132900000Y-76911928D01*
X132200000Y-76911928D01*
X132075518Y-76924188D01*
X132000000Y-76947096D01*
X131924482Y-76924188D01*
X131800000Y-76911928D01*
X131100000Y-76911928D01*
X130975518Y-76924188D01*
X130855820Y-76960498D01*
X130745506Y-77019463D01*
X130648815Y-77098815D01*
X130569463Y-77195506D01*
X130510498Y-77305820D01*
X130474188Y-77425518D01*
X130461928Y-77550000D01*
X130461928Y-78650000D01*
X130474188Y-78774482D01*
X130510498Y-78894180D01*
X130540335Y-78950000D01*
X130510498Y-79005820D01*
X130474188Y-79125518D01*
X130461928Y-79250000D01*
X130465000Y-79514250D01*
X130623750Y-79673000D01*
X131323000Y-79673000D01*
X131323000Y-79653000D01*
X131577000Y-79653000D01*
X131577000Y-79673000D01*
X132423000Y-79673000D01*
X132423000Y-79653000D01*
X132677000Y-79653000D01*
X132677000Y-79673000D01*
X133573000Y-79673000D01*
X133573000Y-79653000D01*
X133827000Y-79653000D01*
X133827000Y-79673000D01*
X134576250Y-79673000D01*
X134613950Y-79635300D01*
X135086050Y-79635300D01*
X135123750Y-79673000D01*
X135823000Y-79673000D01*
X135823000Y-79653000D01*
X136077000Y-79653000D01*
X136077000Y-79673000D01*
X136776250Y-79673000D01*
X136935000Y-79514250D01*
X136938072Y-79250000D01*
X136925812Y-79125518D01*
X136889502Y-79005820D01*
X136859665Y-78950000D01*
X136889502Y-78894180D01*
X136925812Y-78774482D01*
X136938072Y-78650000D01*
X136938072Y-77550000D01*
X136925812Y-77425518D01*
X136911339Y-77377807D01*
X140558447Y-73730700D01*
X154523319Y-73730700D01*
X154485468Y-73822080D01*
X154414524Y-74178736D01*
X154414524Y-74542380D01*
X154485468Y-74899036D01*
X154624628Y-75234999D01*
X154826658Y-75537358D01*
X155083793Y-75794493D01*
X155386152Y-75996523D01*
X155722115Y-76135683D01*
X156078771Y-76206627D01*
X156442415Y-76206627D01*
X156799071Y-76135683D01*
X157135034Y-75996523D01*
X157437393Y-75794493D01*
X157694528Y-75537358D01*
X157896558Y-75234999D01*
X158035718Y-74899036D01*
X158106662Y-74542380D01*
X158106662Y-74178736D01*
X158035718Y-73822080D01*
X157997867Y-73730700D01*
X170886495Y-73730700D01*
X170922600Y-73734256D01*
X170958705Y-73730700D01*
X171066685Y-73720065D01*
X171205233Y-73678037D01*
X171332920Y-73609787D01*
X171444838Y-73517938D01*
X171467859Y-73489888D01*
X172939000Y-72018746D01*
X172939000Y-78253695D01*
%TA.AperFunction,Conductor*%
D23*
G36*
X172939000Y-78253695D02*
G01*
X172935444Y-78289800D01*
X172949635Y-78433885D01*
X172954760Y-78450779D01*
X172991663Y-78572432D01*
X173059913Y-78700119D01*
X173151762Y-78812037D01*
X173179808Y-78835054D01*
X179687700Y-85342947D01*
X179687700Y-85440439D01*
X179727474Y-85640398D01*
X179805495Y-85828756D01*
X179918763Y-85998274D01*
X180062926Y-86142437D01*
X180232444Y-86255705D01*
X180291101Y-86280002D01*
X180291101Y-90125767D01*
X179769333Y-89313880D01*
X178951315Y-88369836D01*
X178007271Y-87551818D01*
X176956419Y-86876477D01*
X175820153Y-86357561D01*
X174621603Y-86005635D01*
X173385169Y-85827863D01*
X172136019Y-85827863D01*
X170899585Y-86005635D01*
X169701035Y-86357561D01*
X168564769Y-86876477D01*
X167513917Y-87551818D01*
X166569873Y-88369836D01*
X165751855Y-89313880D01*
X165076514Y-90364732D01*
X164557598Y-91500998D01*
X164205672Y-92699548D01*
X164027900Y-93935982D01*
X164027900Y-95185132D01*
X164205672Y-96421566D01*
X164557598Y-97620116D01*
X165076514Y-98756382D01*
X165751855Y-99807234D01*
X166569873Y-100751278D01*
X167513917Y-101569296D01*
X168564769Y-102244637D01*
X169701035Y-102763553D01*
X170899585Y-103115479D01*
X172136019Y-103293251D01*
X173385169Y-103293251D01*
X174621603Y-103115479D01*
X175820153Y-102763553D01*
X176956419Y-102244637D01*
X178007271Y-101569296D01*
X178951315Y-100751278D01*
X179769333Y-99807234D01*
X180291101Y-98995347D01*
X180291100Y-112282753D01*
X174863019Y-117710835D01*
X174859696Y-117713108D01*
X174811868Y-117761986D01*
X174789147Y-117784707D01*
X174786609Y-117787799D01*
X174758437Y-117816590D01*
X174740792Y-117843629D01*
X174720314Y-117868581D01*
X174701330Y-117904098D01*
X174679311Y-117937838D01*
X174667279Y-117967802D01*
X174652064Y-117996267D01*
X174640371Y-118034812D01*
X174637577Y-118041771D01*
X174446913Y-118120747D01*
X174179124Y-118299678D01*
X173951389Y-118527413D01*
X173772458Y-118795202D01*
X173649208Y-119092753D01*
X173586376Y-119408632D01*
X173586376Y-119730698D01*
X173649208Y-120046577D01*
X173772458Y-120344128D01*
X173833831Y-120435978D01*
X173784055Y-120457235D01*
X173680816Y-120527859D01*
X173593338Y-120617266D01*
X173524984Y-120722021D01*
X173478380Y-120838099D01*
X173455317Y-120961039D01*
X173427067Y-121283940D01*
X173395765Y-121263513D01*
X173391418Y-121261767D01*
X173418994Y-120946572D01*
X173417630Y-120821496D01*
X173391890Y-120699089D01*
X173342765Y-120584055D01*
X173272141Y-120480816D01*
X173182734Y-120393338D01*
X173138685Y-120364595D01*
X173191363Y-120311917D01*
X173370294Y-120044128D01*
X173493544Y-119746577D01*
X173556376Y-119430698D01*
X173556376Y-119108632D01*
X173493544Y-118792753D01*
X173370294Y-118495202D01*
X173191363Y-118227413D01*
X172963628Y-117999678D01*
X172695839Y-117820747D01*
X172398288Y-117697497D01*
X172082409Y-117634665D01*
X171760343Y-117634665D01*
X171444464Y-117697497D01*
X171146913Y-117820747D01*
X171080300Y-117865256D01*
X171080300Y-117453505D01*
X171083856Y-117417400D01*
X171069665Y-117273315D01*
X171027637Y-117134766D01*
X170959387Y-117007080D01*
X170934403Y-116976637D01*
X170867538Y-116895162D01*
X170839493Y-116872146D01*
X169562900Y-115595554D01*
X169562900Y-115498061D01*
X169523126Y-115298102D01*
X169445105Y-115109744D01*
X169331837Y-114940226D01*
X169187674Y-114796063D01*
X169018156Y-114682795D01*
X168829798Y-114604774D01*
X168629839Y-114565000D01*
X168532347Y-114565000D01*
X161843159Y-107875813D01*
X161820138Y-107847762D01*
X161708220Y-107755913D01*
X161580533Y-107687663D01*
X161441985Y-107645635D01*
X161334005Y-107635000D01*
X161297900Y-107631444D01*
X161261795Y-107635000D01*
X159848111Y-107635000D01*
X159779174Y-107566063D01*
X159609656Y-107452795D01*
X159421298Y-107374774D01*
X159221339Y-107335000D01*
X159017461Y-107335000D01*
X158817502Y-107374774D01*
X158629144Y-107452795D01*
X158459626Y-107566063D01*
X158390689Y-107635000D01*
X149643210Y-107635000D01*
X149678220Y-107616287D01*
X149790138Y-107524438D01*
X149813159Y-107496387D01*
X155889598Y-101419949D01*
X155917637Y-101396938D01*
X155940650Y-101368897D01*
X155940653Y-101368894D01*
X156009487Y-101285020D01*
X156077737Y-101157334D01*
X156119765Y-101018785D01*
X156133956Y-100874700D01*
X156130400Y-100838595D01*
X156130400Y-98451007D01*
X156254274Y-98368237D01*
X156398437Y-98224074D01*
X156511705Y-98054556D01*
X156589726Y-97866198D01*
X156629500Y-97666239D01*
X156629500Y-97462361D01*
X156589726Y-97262402D01*
X156511705Y-97074044D01*
X156398437Y-96904526D01*
X156254274Y-96760363D01*
X156130400Y-96677593D01*
X156130400Y-83453761D01*
X160923300Y-83453761D01*
X160923300Y-83657639D01*
X160963074Y-83857598D01*
X161041095Y-84045956D01*
X161154363Y-84215474D01*
X161298526Y-84359637D01*
X161468044Y-84472905D01*
X161656402Y-84550926D01*
X161856361Y-84590700D01*
X162060239Y-84590700D01*
X162260198Y-84550926D01*
X162448556Y-84472905D01*
X162618074Y-84359637D01*
X162762237Y-84215474D01*
X162875505Y-84045956D01*
X162953526Y-83857598D01*
X162993300Y-83657639D01*
X162993300Y-83453761D01*
X162953526Y-83253802D01*
X162875505Y-83065444D01*
X162762237Y-82895926D01*
X162693300Y-82826989D01*
X162693300Y-80123346D01*
X165741047Y-77075600D01*
X165838539Y-77075600D01*
X166038498Y-77035826D01*
X166226856Y-76957805D01*
X166396374Y-76844537D01*
X166540537Y-76700374D01*
X166653805Y-76530856D01*
X166731826Y-76342498D01*
X166771600Y-76142539D01*
X166771600Y-75938661D01*
X166731826Y-75738702D01*
X166653805Y-75550344D01*
X166540537Y-75380826D01*
X166396374Y-75236663D01*
X166226856Y-75123395D01*
X166038498Y-75045374D01*
X165838539Y-75005600D01*
X165634661Y-75005600D01*
X165434702Y-75045374D01*
X165246344Y-75123395D01*
X165076826Y-75236663D01*
X164932663Y-75380826D01*
X164819395Y-75550344D01*
X164741374Y-75738702D01*
X164701600Y-75938661D01*
X164701600Y-76036153D01*
X161464108Y-79273646D01*
X161436063Y-79296662D01*
X161344214Y-79408580D01*
X161288196Y-79513382D01*
X161275964Y-79536267D01*
X161233935Y-79674815D01*
X161219744Y-79818900D01*
X161223301Y-79855015D01*
X161223300Y-82826989D01*
X161154363Y-82895926D01*
X161041095Y-83065444D01*
X160963074Y-83253802D01*
X160923300Y-83453761D01*
X156130400Y-83453761D01*
X156130400Y-79737111D01*
X156199337Y-79668174D01*
X156312605Y-79498656D01*
X156390626Y-79310298D01*
X156430400Y-79110339D01*
X156430400Y-78906461D01*
X156390626Y-78706502D01*
X156312605Y-78518144D01*
X156199337Y-78348626D01*
X156055174Y-78204463D01*
X155885656Y-78091195D01*
X155697298Y-78013174D01*
X155497339Y-77973400D01*
X155293461Y-77973400D01*
X155093502Y-78013174D01*
X154905144Y-78091195D01*
X154735626Y-78204463D01*
X154591463Y-78348626D01*
X154478195Y-78518144D01*
X154400174Y-78706502D01*
X154360400Y-78906461D01*
X154360400Y-79110339D01*
X154400174Y-79310298D01*
X154478195Y-79498656D01*
X154591463Y-79668174D01*
X154660401Y-79737112D01*
X154660400Y-91787953D01*
X145222159Y-82349713D01*
X145199138Y-82321662D01*
X145087220Y-82229813D01*
X144959533Y-82161563D01*
X144820985Y-82119535D01*
X144713005Y-82108900D01*
X144676900Y-82105344D01*
X144640795Y-82108900D01*
X136932271Y-82108900D01*
X136938072Y-82050000D01*
X136938072Y-80950000D01*
X136925812Y-80825518D01*
X136889502Y-80705820D01*
X136859665Y-80650000D01*
X136889502Y-80594180D01*
X136925812Y-80474482D01*
X136938072Y-80350000D01*
X136935000Y-80085750D01*
X136776250Y-79927000D01*
X136077000Y-79927000D01*
X136077000Y-79947000D01*
X135823000Y-79947000D01*
X135823000Y-79927000D01*
X135123750Y-79927000D01*
X134965000Y-80085750D01*
X134962371Y-80311928D01*
X134737629Y-80311928D01*
X134735000Y-80085750D01*
X134576250Y-79927000D01*
X133827000Y-79927000D01*
X133827000Y-79947000D01*
X133573000Y-79947000D01*
X133573000Y-79927000D01*
X132677000Y-79927000D01*
X132677000Y-79947000D01*
X132423000Y-79947000D01*
X132423000Y-79927000D01*
X131577000Y-79927000D01*
X131577000Y-79947000D01*
X131323000Y-79947000D01*
X131323000Y-79927000D01*
X130623750Y-79927000D01*
X130465000Y-80085750D01*
X130461928Y-80350000D01*
X130474188Y-80474482D01*
X130510498Y-80594180D01*
X130540335Y-80650000D01*
X130510498Y-80705820D01*
X130474188Y-80825518D01*
X130461928Y-80950000D01*
X130461928Y-81121925D01*
X125877244Y-85706609D01*
X125874900Y-85682806D01*
X125874900Y-80942046D01*
X132833147Y-73983800D01*
X132930639Y-73983800D01*
X133130598Y-73944026D01*
X133318956Y-73866005D01*
X133488474Y-73752737D01*
X133632637Y-73608574D01*
X133745905Y-73439056D01*
X133823926Y-73250698D01*
X133854785Y-73095558D01*
X139114695Y-73095558D01*
X135455808Y-76754446D01*
X135427763Y-76777462D01*
X135335914Y-76889380D01*
X135317668Y-76923517D01*
X135200000Y-76911928D01*
X134500000Y-76911928D01*
X134375518Y-76924188D01*
X134300000Y-76947096D01*
X134224482Y-76924188D01*
X134100000Y-76911928D01*
X133300000Y-76911928D01*
X133175518Y-76924188D01*
X133100000Y-76947096D01*
X133024482Y-76924188D01*
X132900000Y-76911928D01*
X132200000Y-76911928D01*
X132075518Y-76924188D01*
X132000000Y-76947096D01*
X131924482Y-76924188D01*
X131800000Y-76911928D01*
X131100000Y-76911928D01*
X130975518Y-76924188D01*
X130855820Y-76960498D01*
X130745506Y-77019463D01*
X130648815Y-77098815D01*
X130569463Y-77195506D01*
X130510498Y-77305820D01*
X130474188Y-77425518D01*
X130461928Y-77550000D01*
X130461928Y-78650000D01*
X130474188Y-78774482D01*
X130510498Y-78894180D01*
X130540335Y-78950000D01*
X130510498Y-79005820D01*
X130474188Y-79125518D01*
X130461928Y-79250000D01*
X130465000Y-79514250D01*
X130623750Y-79673000D01*
X131323000Y-79673000D01*
X131323000Y-79653000D01*
X131577000Y-79653000D01*
X131577000Y-79673000D01*
X132423000Y-79673000D01*
X132423000Y-79653000D01*
X132677000Y-79653000D01*
X132677000Y-79673000D01*
X133573000Y-79673000D01*
X133573000Y-79653000D01*
X133827000Y-79653000D01*
X133827000Y-79673000D01*
X134576250Y-79673000D01*
X134613950Y-79635300D01*
X135086050Y-79635300D01*
X135123750Y-79673000D01*
X135823000Y-79673000D01*
X135823000Y-79653000D01*
X136077000Y-79653000D01*
X136077000Y-79673000D01*
X136776250Y-79673000D01*
X136935000Y-79514250D01*
X136938072Y-79250000D01*
X136925812Y-79125518D01*
X136889502Y-79005820D01*
X136859665Y-78950000D01*
X136889502Y-78894180D01*
X136925812Y-78774482D01*
X136938072Y-78650000D01*
X136938072Y-77550000D01*
X136925812Y-77425518D01*
X136911339Y-77377807D01*
X140558447Y-73730700D01*
X154523319Y-73730700D01*
X154485468Y-73822080D01*
X154414524Y-74178736D01*
X154414524Y-74542380D01*
X154485468Y-74899036D01*
X154624628Y-75234999D01*
X154826658Y-75537358D01*
X155083793Y-75794493D01*
X155386152Y-75996523D01*
X155722115Y-76135683D01*
X156078771Y-76206627D01*
X156442415Y-76206627D01*
X156799071Y-76135683D01*
X157135034Y-75996523D01*
X157437393Y-75794493D01*
X157694528Y-75537358D01*
X157896558Y-75234999D01*
X158035718Y-74899036D01*
X158106662Y-74542380D01*
X158106662Y-74178736D01*
X158035718Y-73822080D01*
X157997867Y-73730700D01*
X170886495Y-73730700D01*
X170922600Y-73734256D01*
X170958705Y-73730700D01*
X171066685Y-73720065D01*
X171205233Y-73678037D01*
X171332920Y-73609787D01*
X171444838Y-73517938D01*
X171467859Y-73489888D01*
X172939000Y-72018746D01*
X172939000Y-78253695D01*
G37*
%TD.AperFunction*%
D22*
X134948161Y-97073100D02*
X135045654Y-97073100D01*
X146836746Y-108864193D01*
X146859762Y-108892238D01*
X146971680Y-108984087D01*
X147099367Y-109052337D01*
X147237915Y-109094365D01*
X147345895Y-109105000D01*
X147345904Y-109105000D01*
X147381999Y-109108555D01*
X147418094Y-109105000D01*
X158390689Y-109105000D01*
X158459626Y-109173937D01*
X158629144Y-109287205D01*
X158817502Y-109365226D01*
X159017461Y-109405000D01*
X159221339Y-109405000D01*
X159421298Y-109365226D01*
X159609656Y-109287205D01*
X159779174Y-109173937D01*
X159848111Y-109105000D01*
X160993454Y-109105000D01*
X167492900Y-115604447D01*
X167492900Y-115701939D01*
X167532674Y-115901898D01*
X167583895Y-116025556D01*
X157606327Y-116025556D01*
X157694527Y-115937356D01*
X157896557Y-115634997D01*
X158035717Y-115299034D01*
X158106661Y-114942378D01*
X158106661Y-114578734D01*
X158035717Y-114222078D01*
X157896557Y-113886115D01*
X157694527Y-113583756D01*
X157437392Y-113326621D01*
X157135033Y-113124591D01*
X156799070Y-112985431D01*
X156442414Y-112914487D01*
X156078770Y-112914487D01*
X155722114Y-112985431D01*
X155386151Y-113124591D01*
X155083792Y-113326621D01*
X154826657Y-113583756D01*
X154624627Y-113886115D01*
X154485467Y-114222078D01*
X154414523Y-114578734D01*
X154414523Y-114942378D01*
X154485467Y-115299034D01*
X154624627Y-115634997D01*
X154826657Y-115937356D01*
X154914857Y-116025556D01*
X141620708Y-116025556D01*
X141589926Y-115870802D01*
X141511905Y-115682444D01*
X141398637Y-115512926D01*
X141329700Y-115443989D01*
X141329700Y-110376104D01*
X141333256Y-110339999D01*
X141319065Y-110195914D01*
X141302061Y-110139860D01*
X141277037Y-110057367D01*
X141208787Y-109929680D01*
X141116938Y-109817762D01*
X141088893Y-109794746D01*
X131126846Y-99832700D01*
X131881695Y-99832700D01*
X131917800Y-99836256D01*
X131953905Y-99832700D01*
X132061885Y-99822065D01*
X132200433Y-99780037D01*
X132328120Y-99711787D01*
X132440038Y-99619938D01*
X132463058Y-99591888D01*
X133785547Y-98269400D01*
X133883039Y-98269400D01*
X134082998Y-98229626D01*
X134271356Y-98151605D01*
X134440874Y-98038337D01*
X134585037Y-97894174D01*
X134698305Y-97724656D01*
X134776326Y-97536298D01*
X134816100Y-97336339D01*
X134816100Y-97132461D01*
X134798366Y-97043304D01*
X134948161Y-97073100D01*
%TA.AperFunction,Conductor*%
D23*
G36*
X134948161Y-97073100D02*
G01*
X135045654Y-97073100D01*
X146836746Y-108864193D01*
X146859762Y-108892238D01*
X146971680Y-108984087D01*
X147099367Y-109052337D01*
X147237915Y-109094365D01*
X147345895Y-109105000D01*
X147345904Y-109105000D01*
X147381999Y-109108555D01*
X147418094Y-109105000D01*
X158390689Y-109105000D01*
X158459626Y-109173937D01*
X158629144Y-109287205D01*
X158817502Y-109365226D01*
X159017461Y-109405000D01*
X159221339Y-109405000D01*
X159421298Y-109365226D01*
X159609656Y-109287205D01*
X159779174Y-109173937D01*
X159848111Y-109105000D01*
X160993454Y-109105000D01*
X167492900Y-115604447D01*
X167492900Y-115701939D01*
X167532674Y-115901898D01*
X167583895Y-116025556D01*
X157606327Y-116025556D01*
X157694527Y-115937356D01*
X157896557Y-115634997D01*
X158035717Y-115299034D01*
X158106661Y-114942378D01*
X158106661Y-114578734D01*
X158035717Y-114222078D01*
X157896557Y-113886115D01*
X157694527Y-113583756D01*
X157437392Y-113326621D01*
X157135033Y-113124591D01*
X156799070Y-112985431D01*
X156442414Y-112914487D01*
X156078770Y-112914487D01*
X155722114Y-112985431D01*
X155386151Y-113124591D01*
X155083792Y-113326621D01*
X154826657Y-113583756D01*
X154624627Y-113886115D01*
X154485467Y-114222078D01*
X154414523Y-114578734D01*
X154414523Y-114942378D01*
X154485467Y-115299034D01*
X154624627Y-115634997D01*
X154826657Y-115937356D01*
X154914857Y-116025556D01*
X141620708Y-116025556D01*
X141589926Y-115870802D01*
X141511905Y-115682444D01*
X141398637Y-115512926D01*
X141329700Y-115443989D01*
X141329700Y-110376104D01*
X141333256Y-110339999D01*
X141319065Y-110195914D01*
X141302061Y-110139860D01*
X141277037Y-110057367D01*
X141208787Y-109929680D01*
X141116938Y-109817762D01*
X141088893Y-109794746D01*
X131126846Y-99832700D01*
X131881695Y-99832700D01*
X131917800Y-99836256D01*
X131953905Y-99832700D01*
X132061885Y-99822065D01*
X132200433Y-99780037D01*
X132328120Y-99711787D01*
X132440038Y-99619938D01*
X132463058Y-99591888D01*
X133785547Y-98269400D01*
X133883039Y-98269400D01*
X134082998Y-98229626D01*
X134271356Y-98151605D01*
X134440874Y-98038337D01*
X134585037Y-97894174D01*
X134698305Y-97724656D01*
X134776326Y-97536298D01*
X134816100Y-97336339D01*
X134816100Y-97132461D01*
X134798366Y-97043304D01*
X134948161Y-97073100D01*
G37*
%TD.AperFunction*%
D22*
X177897955Y-70174002D02*
X177899902Y-70184380D01*
X177901228Y-70191450D01*
X177933620Y-70272128D01*
X177954593Y-70324365D01*
X177955172Y-70325808D01*
X177967603Y-70344859D01*
X178034288Y-70447057D01*
X178034291Y-70447060D01*
X178104580Y-70518899D01*
X178135542Y-70550544D01*
X178165483Y-70571026D01*
X178307594Y-70690271D01*
X178310162Y-70693400D01*
X178363070Y-70736821D01*
X178387610Y-70757412D01*
X178390918Y-70759675D01*
X178422080Y-70785249D01*
X178450541Y-70800461D01*
X178477164Y-70818674D01*
X178514220Y-70834499D01*
X178549767Y-70853499D01*
X178580645Y-70862866D01*
X178610312Y-70875535D01*
X178649744Y-70883827D01*
X178688315Y-70895527D01*
X178720427Y-70898690D01*
X178751996Y-70905328D01*
X178792289Y-70905767D01*
X178796295Y-70906162D01*
X178828463Y-70906162D01*
X178896770Y-70906907D01*
X178900741Y-70906162D01*
X183337216Y-70906162D01*
X183963471Y-71532418D01*
X183946463Y-71549426D01*
X183833195Y-71718944D01*
X183755174Y-71907302D01*
X183715400Y-72107261D01*
X183715400Y-72311139D01*
X183755174Y-72511098D01*
X183833195Y-72699456D01*
X183946463Y-72868974D01*
X184015401Y-72937912D01*
X184015400Y-86229400D01*
X183992661Y-86229400D01*
X183792702Y-86269174D01*
X183604344Y-86347195D01*
X183434826Y-86460463D01*
X183290663Y-86604626D01*
X183177395Y-86774144D01*
X183099374Y-86962502D01*
X183059600Y-87162461D01*
X183059600Y-87366339D01*
X183099374Y-87566298D01*
X183177395Y-87754656D01*
X183290663Y-87924174D01*
X183359601Y-87993112D01*
X183359600Y-100458495D01*
X183356044Y-100494600D01*
X183370235Y-100638685D01*
X183381991Y-100677437D01*
X183412263Y-100777232D01*
X183480513Y-100904919D01*
X183572362Y-101016837D01*
X183600408Y-101039854D01*
X185621985Y-103061431D01*
X185434601Y-103248815D01*
X185355249Y-103345506D01*
X185296284Y-103455820D01*
X185259974Y-103575518D01*
X185247714Y-103700000D01*
X185259974Y-103824482D01*
X185296284Y-103944180D01*
X185355249Y-104054494D01*
X185434601Y-104151185D01*
X185698959Y-104415543D01*
X185691535Y-104440015D01*
X185677344Y-104584100D01*
X185680900Y-104620205D01*
X185680901Y-107388452D01*
X181761100Y-111308253D01*
X181761100Y-86259246D01*
X181867192Y-86153154D01*
X181895237Y-86130138D01*
X181987087Y-86018220D01*
X182044793Y-85910260D01*
X182055337Y-85890534D01*
X182097365Y-85751985D01*
X182111556Y-85607900D01*
X182108000Y-85571795D01*
X182108000Y-85105205D01*
X182111556Y-85069100D01*
X182097365Y-84925015D01*
X182055337Y-84786466D01*
X182002404Y-84687436D01*
X181987087Y-84658780D01*
X181895238Y-84546862D01*
X181867187Y-84523841D01*
X181761100Y-84417754D01*
X181761100Y-76398305D01*
X181764656Y-76362200D01*
X181750465Y-76218115D01*
X181746980Y-76206627D01*
X181708437Y-76079567D01*
X181640187Y-75951880D01*
X181548338Y-75839962D01*
X181520293Y-75816946D01*
X176506900Y-70803554D01*
X176577979Y-70775016D01*
X176682734Y-70706662D01*
X176772141Y-70619184D01*
X176842765Y-70515945D01*
X176891890Y-70400911D01*
X176917630Y-70278504D01*
X176918994Y-70153428D01*
X176827107Y-69103154D01*
X177897955Y-70174002D01*
%TA.AperFunction,Conductor*%
D23*
G36*
X177897955Y-70174002D02*
G01*
X177899902Y-70184380D01*
X177901228Y-70191450D01*
X177933620Y-70272128D01*
X177954593Y-70324365D01*
X177955172Y-70325808D01*
X177967603Y-70344859D01*
X178034288Y-70447057D01*
X178034291Y-70447060D01*
X178104580Y-70518899D01*
X178135542Y-70550544D01*
X178165483Y-70571026D01*
X178307594Y-70690271D01*
X178310162Y-70693400D01*
X178363070Y-70736821D01*
X178387610Y-70757412D01*
X178390918Y-70759675D01*
X178422080Y-70785249D01*
X178450541Y-70800461D01*
X178477164Y-70818674D01*
X178514220Y-70834499D01*
X178549767Y-70853499D01*
X178580645Y-70862866D01*
X178610312Y-70875535D01*
X178649744Y-70883827D01*
X178688315Y-70895527D01*
X178720427Y-70898690D01*
X178751996Y-70905328D01*
X178792289Y-70905767D01*
X178796295Y-70906162D01*
X178828463Y-70906162D01*
X178896770Y-70906907D01*
X178900741Y-70906162D01*
X183337216Y-70906162D01*
X183963471Y-71532418D01*
X183946463Y-71549426D01*
X183833195Y-71718944D01*
X183755174Y-71907302D01*
X183715400Y-72107261D01*
X183715400Y-72311139D01*
X183755174Y-72511098D01*
X183833195Y-72699456D01*
X183946463Y-72868974D01*
X184015401Y-72937912D01*
X184015400Y-86229400D01*
X183992661Y-86229400D01*
X183792702Y-86269174D01*
X183604344Y-86347195D01*
X183434826Y-86460463D01*
X183290663Y-86604626D01*
X183177395Y-86774144D01*
X183099374Y-86962502D01*
X183059600Y-87162461D01*
X183059600Y-87366339D01*
X183099374Y-87566298D01*
X183177395Y-87754656D01*
X183290663Y-87924174D01*
X183359601Y-87993112D01*
X183359600Y-100458495D01*
X183356044Y-100494600D01*
X183370235Y-100638685D01*
X183381991Y-100677437D01*
X183412263Y-100777232D01*
X183480513Y-100904919D01*
X183572362Y-101016837D01*
X183600408Y-101039854D01*
X185621985Y-103061431D01*
X185434601Y-103248815D01*
X185355249Y-103345506D01*
X185296284Y-103455820D01*
X185259974Y-103575518D01*
X185247714Y-103700000D01*
X185259974Y-103824482D01*
X185296284Y-103944180D01*
X185355249Y-104054494D01*
X185434601Y-104151185D01*
X185698959Y-104415543D01*
X185691535Y-104440015D01*
X185677344Y-104584100D01*
X185680900Y-104620205D01*
X185680901Y-107388452D01*
X181761100Y-111308253D01*
X181761100Y-86259246D01*
X181867192Y-86153154D01*
X181895237Y-86130138D01*
X181987087Y-86018220D01*
X182044793Y-85910260D01*
X182055337Y-85890534D01*
X182097365Y-85751985D01*
X182111556Y-85607900D01*
X182108000Y-85571795D01*
X182108000Y-85105205D01*
X182111556Y-85069100D01*
X182097365Y-84925015D01*
X182055337Y-84786466D01*
X182002404Y-84687436D01*
X181987087Y-84658780D01*
X181895238Y-84546862D01*
X181867187Y-84523841D01*
X181761100Y-84417754D01*
X181761100Y-76398305D01*
X181764656Y-76362200D01*
X181750465Y-76218115D01*
X181746980Y-76206627D01*
X181708437Y-76079567D01*
X181640187Y-75951880D01*
X181548338Y-75839962D01*
X181520293Y-75816946D01*
X176506900Y-70803554D01*
X176577979Y-70775016D01*
X176682734Y-70706662D01*
X176772141Y-70619184D01*
X176842765Y-70515945D01*
X176891890Y-70400911D01*
X176917630Y-70278504D01*
X176918994Y-70153428D01*
X176827107Y-69103154D01*
X177897955Y-70174002D01*
G37*
%TD.AperFunction*%
D22*
X116149201Y-100795552D02*
X114654754Y-102290000D01*
X114557261Y-102290000D01*
X114357302Y-102329774D01*
X114168944Y-102407795D01*
X113999426Y-102521063D01*
X113855263Y-102665226D01*
X113741995Y-102834744D01*
X113663974Y-103023102D01*
X113624200Y-103223061D01*
X113624200Y-103426939D01*
X113663974Y-103626898D01*
X113741995Y-103815256D01*
X113855263Y-103984774D01*
X113999426Y-104128937D01*
X114168944Y-104242205D01*
X114357302Y-104320226D01*
X114557261Y-104360000D01*
X114761139Y-104360000D01*
X114961098Y-104320226D01*
X115149456Y-104242205D01*
X115318974Y-104128937D01*
X115463137Y-103984774D01*
X115576405Y-103815256D01*
X115654426Y-103626898D01*
X115694200Y-103426939D01*
X115694200Y-103329446D01*
X116321982Y-102701665D01*
X116350426Y-102846061D01*
X116420592Y-103016351D01*
X116422237Y-103019425D01*
X116520143Y-103024751D01*
X116570392Y-103075000D01*
X116520143Y-103125249D01*
X116422237Y-103130575D01*
X116351438Y-103300603D01*
X116315172Y-103481176D01*
X116314829Y-103665355D01*
X116350426Y-103846061D01*
X116420592Y-104016351D01*
X116422237Y-104019425D01*
X116615459Y-104029936D01*
X117070395Y-103575000D01*
X117056253Y-103560858D01*
X117079001Y-103538109D01*
X117079001Y-103925604D01*
X116795064Y-104209541D01*
X116805575Y-104402763D01*
X116975603Y-104473562D01*
X117079001Y-104494328D01*
X117079001Y-104998114D01*
X117023902Y-105009074D01*
X116835544Y-105087095D01*
X116666026Y-105200363D01*
X116521863Y-105344526D01*
X116408595Y-105514044D01*
X116330574Y-105702402D01*
X116290800Y-105902361D01*
X116290800Y-106106239D01*
X116330574Y-106306198D01*
X116408595Y-106494556D01*
X116521863Y-106664074D01*
X116579971Y-106722182D01*
X113598400Y-109703754D01*
X113598400Y-101899346D01*
X116149200Y-99348546D01*
X116149201Y-100795552D01*
%TA.AperFunction,Conductor*%
D23*
G36*
X116149201Y-100795552D02*
G01*
X114654754Y-102290000D01*
X114557261Y-102290000D01*
X114357302Y-102329774D01*
X114168944Y-102407795D01*
X113999426Y-102521063D01*
X113855263Y-102665226D01*
X113741995Y-102834744D01*
X113663974Y-103023102D01*
X113624200Y-103223061D01*
X113624200Y-103426939D01*
X113663974Y-103626898D01*
X113741995Y-103815256D01*
X113855263Y-103984774D01*
X113999426Y-104128937D01*
X114168944Y-104242205D01*
X114357302Y-104320226D01*
X114557261Y-104360000D01*
X114761139Y-104360000D01*
X114961098Y-104320226D01*
X115149456Y-104242205D01*
X115318974Y-104128937D01*
X115463137Y-103984774D01*
X115576405Y-103815256D01*
X115654426Y-103626898D01*
X115694200Y-103426939D01*
X115694200Y-103329446D01*
X116321982Y-102701665D01*
X116350426Y-102846061D01*
X116420592Y-103016351D01*
X116422237Y-103019425D01*
X116520143Y-103024751D01*
X116570392Y-103075000D01*
X116520143Y-103125249D01*
X116422237Y-103130575D01*
X116351438Y-103300603D01*
X116315172Y-103481176D01*
X116314829Y-103665355D01*
X116350426Y-103846061D01*
X116420592Y-104016351D01*
X116422237Y-104019425D01*
X116615459Y-104029936D01*
X117070395Y-103575000D01*
X117056253Y-103560858D01*
X117079001Y-103538109D01*
X117079001Y-103925604D01*
X116795064Y-104209541D01*
X116805575Y-104402763D01*
X116975603Y-104473562D01*
X117079001Y-104494328D01*
X117079001Y-104998114D01*
X117023902Y-105009074D01*
X116835544Y-105087095D01*
X116666026Y-105200363D01*
X116521863Y-105344526D01*
X116408595Y-105514044D01*
X116330574Y-105702402D01*
X116290800Y-105902361D01*
X116290800Y-106106239D01*
X116330574Y-106306198D01*
X116408595Y-106494556D01*
X116521863Y-106664074D01*
X116579971Y-106722182D01*
X113598400Y-109703754D01*
X113598400Y-101899346D01*
X116149200Y-99348546D01*
X116149201Y-100795552D01*
G37*
%TD.AperFunction*%
D22*
X153217441Y-94554437D02*
X153217441Y-94651929D01*
X153257215Y-94851888D01*
X153335236Y-95040246D01*
X153448504Y-95209764D01*
X153592667Y-95353927D01*
X153762185Y-95467195D01*
X153950543Y-95545216D01*
X154150502Y-95584990D01*
X154194801Y-95584990D01*
X154194800Y-100540353D01*
X149355726Y-105379428D01*
X149175498Y-105304774D01*
X148975539Y-105265000D01*
X148771661Y-105265000D01*
X148571702Y-105304774D01*
X148383344Y-105382795D01*
X148213826Y-105496063D01*
X148195118Y-105514771D01*
X147472900Y-104792554D01*
X147472900Y-100352694D01*
X147476455Y-100316599D01*
X147472900Y-100280504D01*
X147472900Y-100280495D01*
X147462265Y-100172515D01*
X147420237Y-100033967D01*
X147351987Y-99906280D01*
X147324319Y-99872567D01*
X147283153Y-99822406D01*
X147283150Y-99822403D01*
X147260137Y-99794362D01*
X147232097Y-99771350D01*
X147016900Y-99556153D01*
X147016900Y-99458661D01*
X146977126Y-99258702D01*
X146960800Y-99219288D01*
X146960800Y-95207711D01*
X147029737Y-95138774D01*
X147143005Y-94969256D01*
X147221026Y-94780898D01*
X147260800Y-94580939D01*
X147260800Y-94377061D01*
X147228246Y-94213400D01*
X148152354Y-94213400D01*
X148303800Y-94364846D01*
X148303800Y-94462339D01*
X148343574Y-94662298D01*
X148421595Y-94850656D01*
X148534863Y-95020174D01*
X148679026Y-95164337D01*
X148848544Y-95277605D01*
X149036902Y-95355626D01*
X149236861Y-95395400D01*
X149440739Y-95395400D01*
X149640698Y-95355626D01*
X149829056Y-95277605D01*
X149998574Y-95164337D01*
X150142737Y-95020174D01*
X150256005Y-94850656D01*
X150334026Y-94662298D01*
X150373800Y-94462339D01*
X150373800Y-94258461D01*
X150334026Y-94058502D01*
X150256005Y-93870144D01*
X150142737Y-93700626D01*
X150131111Y-93689000D01*
X152352005Y-93689000D01*
X153217441Y-94554437D01*
%TA.AperFunction,Conductor*%
D23*
G36*
X153217441Y-94554437D02*
G01*
X153217441Y-94651929D01*
X153257215Y-94851888D01*
X153335236Y-95040246D01*
X153448504Y-95209764D01*
X153592667Y-95353927D01*
X153762185Y-95467195D01*
X153950543Y-95545216D01*
X154150502Y-95584990D01*
X154194801Y-95584990D01*
X154194800Y-100540353D01*
X149355726Y-105379428D01*
X149175498Y-105304774D01*
X148975539Y-105265000D01*
X148771661Y-105265000D01*
X148571702Y-105304774D01*
X148383344Y-105382795D01*
X148213826Y-105496063D01*
X148195118Y-105514771D01*
X147472900Y-104792554D01*
X147472900Y-100352694D01*
X147476455Y-100316599D01*
X147472900Y-100280504D01*
X147472900Y-100280495D01*
X147462265Y-100172515D01*
X147420237Y-100033967D01*
X147351987Y-99906280D01*
X147324319Y-99872567D01*
X147283153Y-99822406D01*
X147283150Y-99822403D01*
X147260137Y-99794362D01*
X147232097Y-99771350D01*
X147016900Y-99556153D01*
X147016900Y-99458661D01*
X146977126Y-99258702D01*
X146960800Y-99219288D01*
X146960800Y-95207711D01*
X147029737Y-95138774D01*
X147143005Y-94969256D01*
X147221026Y-94780898D01*
X147260800Y-94580939D01*
X147260800Y-94377061D01*
X147228246Y-94213400D01*
X148152354Y-94213400D01*
X148303800Y-94364846D01*
X148303800Y-94462339D01*
X148343574Y-94662298D01*
X148421595Y-94850656D01*
X148534863Y-95020174D01*
X148679026Y-95164337D01*
X148848544Y-95277605D01*
X149036902Y-95355626D01*
X149236861Y-95395400D01*
X149440739Y-95395400D01*
X149640698Y-95355626D01*
X149829056Y-95277605D01*
X149998574Y-95164337D01*
X150142737Y-95020174D01*
X150256005Y-94850656D01*
X150334026Y-94662298D01*
X150373800Y-94462339D01*
X150373800Y-94258461D01*
X150334026Y-94058502D01*
X150256005Y-93870144D01*
X150142737Y-93700626D01*
X150131111Y-93689000D01*
X152352005Y-93689000D01*
X153217441Y-94554437D01*
G37*
%TD.AperFunction*%
D22*
X185531781Y-85580861D02*
X185655031Y-85878412D01*
X185833962Y-86146201D01*
X186061697Y-86373936D01*
X186329486Y-86552867D01*
X186502627Y-86624585D01*
X186487891Y-86673163D01*
X186486935Y-86676315D01*
X186472744Y-86820400D01*
X186476300Y-86856505D01*
X186476300Y-87367395D01*
X186472744Y-87403500D01*
X186486935Y-87547585D01*
X186493409Y-87568926D01*
X186528963Y-87686132D01*
X186597213Y-87813819D01*
X186689062Y-87925737D01*
X186717108Y-87948754D01*
X189672221Y-90903868D01*
X189659963Y-90916126D01*
X189546695Y-91085644D01*
X189468674Y-91274002D01*
X189428900Y-91473961D01*
X189428900Y-91677839D01*
X189468674Y-91877798D01*
X189546695Y-92066156D01*
X189659963Y-92235674D01*
X189728901Y-92304612D01*
X189728900Y-98148095D01*
X189725344Y-98184200D01*
X189739535Y-98328285D01*
X189749975Y-98362700D01*
X189781563Y-98466832D01*
X189849813Y-98594519D01*
X189941662Y-98706437D01*
X189969708Y-98729454D01*
X192304446Y-101064193D01*
X192327462Y-101092238D01*
X192410961Y-101160764D01*
X192439380Y-101184087D01*
X192567066Y-101252337D01*
X192705615Y-101294365D01*
X192720721Y-101295853D01*
X192876480Y-101451612D01*
X193062376Y-101575824D01*
X193148893Y-101611661D01*
X192012426Y-102748127D01*
X191972963Y-102731781D01*
X191657084Y-102668949D01*
X191335018Y-102668949D01*
X191019139Y-102731781D01*
X190721588Y-102855031D01*
X190715200Y-102859299D01*
X190715200Y-102824094D01*
X190718755Y-102787999D01*
X190715200Y-102751904D01*
X190715200Y-102751895D01*
X190704565Y-102643915D01*
X190662537Y-102505367D01*
X190636683Y-102456997D01*
X190668219Y-102380861D01*
X190731051Y-102064982D01*
X190731051Y-101742916D01*
X190668219Y-101427037D01*
X190544969Y-101129486D01*
X190366038Y-100861697D01*
X190138303Y-100633962D01*
X189870514Y-100455031D01*
X189572963Y-100331781D01*
X189257084Y-100268949D01*
X188935018Y-100268949D01*
X188619139Y-100331781D01*
X188321588Y-100455031D01*
X188053799Y-100633962D01*
X187826064Y-100861697D01*
X187647133Y-101129486D01*
X187631199Y-101167953D01*
X185485400Y-99022154D01*
X185485400Y-85347687D01*
X185531781Y-85580861D01*
%TA.AperFunction,Conductor*%
D23*
G36*
X185531781Y-85580861D02*
G01*
X185655031Y-85878412D01*
X185833962Y-86146201D01*
X186061697Y-86373936D01*
X186329486Y-86552867D01*
X186502627Y-86624585D01*
X186487891Y-86673163D01*
X186486935Y-86676315D01*
X186472744Y-86820400D01*
X186476300Y-86856505D01*
X186476300Y-87367395D01*
X186472744Y-87403500D01*
X186486935Y-87547585D01*
X186493409Y-87568926D01*
X186528963Y-87686132D01*
X186597213Y-87813819D01*
X186689062Y-87925737D01*
X186717108Y-87948754D01*
X189672221Y-90903868D01*
X189659963Y-90916126D01*
X189546695Y-91085644D01*
X189468674Y-91274002D01*
X189428900Y-91473961D01*
X189428900Y-91677839D01*
X189468674Y-91877798D01*
X189546695Y-92066156D01*
X189659963Y-92235674D01*
X189728901Y-92304612D01*
X189728900Y-98148095D01*
X189725344Y-98184200D01*
X189739535Y-98328285D01*
X189749975Y-98362700D01*
X189781563Y-98466832D01*
X189849813Y-98594519D01*
X189941662Y-98706437D01*
X189969708Y-98729454D01*
X192304446Y-101064193D01*
X192327462Y-101092238D01*
X192410961Y-101160764D01*
X192439380Y-101184087D01*
X192567066Y-101252337D01*
X192705615Y-101294365D01*
X192720721Y-101295853D01*
X192876480Y-101451612D01*
X193062376Y-101575824D01*
X193148893Y-101611661D01*
X192012426Y-102748127D01*
X191972963Y-102731781D01*
X191657084Y-102668949D01*
X191335018Y-102668949D01*
X191019139Y-102731781D01*
X190721588Y-102855031D01*
X190715200Y-102859299D01*
X190715200Y-102824094D01*
X190718755Y-102787999D01*
X190715200Y-102751904D01*
X190715200Y-102751895D01*
X190704565Y-102643915D01*
X190662537Y-102505367D01*
X190636683Y-102456997D01*
X190668219Y-102380861D01*
X190731051Y-102064982D01*
X190731051Y-101742916D01*
X190668219Y-101427037D01*
X190544969Y-101129486D01*
X190366038Y-100861697D01*
X190138303Y-100633962D01*
X189870514Y-100455031D01*
X189572963Y-100331781D01*
X189257084Y-100268949D01*
X188935018Y-100268949D01*
X188619139Y-100331781D01*
X188321588Y-100455031D01*
X188053799Y-100633962D01*
X187826064Y-100861697D01*
X187647133Y-101129486D01*
X187631199Y-101167953D01*
X185485400Y-99022154D01*
X185485400Y-85347687D01*
X185531781Y-85580861D01*
G37*
%TD.AperFunction*%
D22*
X109227000Y-100613000D02*
X109247000Y-100613000D01*
X109247000Y-100867000D01*
X109227000Y-100867000D01*
X109227000Y-100887000D01*
X108973000Y-100887000D01*
X108973000Y-100867000D01*
X108953000Y-100867000D01*
X108953000Y-100613000D01*
X108973000Y-100613000D01*
X108973000Y-100593000D01*
X109227000Y-100593000D01*
X109227000Y-100613000D01*
%TA.AperFunction,Conductor*%
D23*
G36*
X109227000Y-100613000D02*
G01*
X109247000Y-100613000D01*
X109247000Y-100867000D01*
X109227000Y-100867000D01*
X109227000Y-100887000D01*
X108973000Y-100887000D01*
X108973000Y-100867000D01*
X108953000Y-100867000D01*
X108953000Y-100613000D01*
X108973000Y-100613000D01*
X108973000Y-100593000D01*
X109227000Y-100593000D01*
X109227000Y-100613000D01*
G37*
%TD.AperFunction*%
D22*
X125158495Y-94818456D02*
X125271763Y-94987974D01*
X125340700Y-95056911D01*
X125340701Y-96346285D01*
X125337144Y-96382400D01*
X125340700Y-96418505D01*
X125340701Y-97354752D01*
X124338354Y-98357100D01*
X124240861Y-98357100D01*
X124040902Y-98396874D01*
X123852544Y-98474895D01*
X123780931Y-98522745D01*
X123765437Y-98471667D01*
X123697187Y-98343980D01*
X123605338Y-98232062D01*
X123577287Y-98209041D01*
X123467800Y-98099554D01*
X123467800Y-95895111D01*
X123536737Y-95826174D01*
X123650005Y-95656656D01*
X123728026Y-95468298D01*
X123767800Y-95268339D01*
X123767800Y-95064461D01*
X123738150Y-94915400D01*
X124636495Y-94915400D01*
X124672600Y-94918956D01*
X124708705Y-94915400D01*
X124816685Y-94904765D01*
X124955233Y-94862737D01*
X125082920Y-94794487D01*
X125131912Y-94754280D01*
X125158495Y-94818456D01*
%TA.AperFunction,Conductor*%
D23*
G36*
X125158495Y-94818456D02*
G01*
X125271763Y-94987974D01*
X125340700Y-95056911D01*
X125340701Y-96346285D01*
X125337144Y-96382400D01*
X125340700Y-96418505D01*
X125340701Y-97354752D01*
X124338354Y-98357100D01*
X124240861Y-98357100D01*
X124040902Y-98396874D01*
X123852544Y-98474895D01*
X123780931Y-98522745D01*
X123765437Y-98471667D01*
X123697187Y-98343980D01*
X123605338Y-98232062D01*
X123577287Y-98209041D01*
X123467800Y-98099554D01*
X123467800Y-95895111D01*
X123536737Y-95826174D01*
X123650005Y-95656656D01*
X123728026Y-95468298D01*
X123767800Y-95268339D01*
X123767800Y-95064461D01*
X123738150Y-94915400D01*
X124636495Y-94915400D01*
X124672600Y-94918956D01*
X124708705Y-94915400D01*
X124816685Y-94904765D01*
X124955233Y-94862737D01*
X125082920Y-94794487D01*
X125131912Y-94754280D01*
X125158495Y-94818456D01*
G37*
%TD.AperFunction*%
D22*
X145190800Y-94377061D02*
X145190800Y-94580939D01*
X145230574Y-94780898D01*
X145308595Y-94969256D01*
X145421863Y-95138774D01*
X145490800Y-95207711D01*
X145490801Y-98030054D01*
X144837758Y-97377012D01*
X144814738Y-97348962D01*
X144702820Y-97257113D01*
X144575133Y-97188863D01*
X144436585Y-97146835D01*
X144436584Y-97146835D01*
X144292500Y-97132644D01*
X144256395Y-97136200D01*
X143419347Y-97136200D01*
X140496546Y-94213400D01*
X145223354Y-94213400D01*
X145190800Y-94377061D01*
%TA.AperFunction,Conductor*%
D23*
G36*
X145190800Y-94377061D02*
G01*
X145190800Y-94580939D01*
X145230574Y-94780898D01*
X145308595Y-94969256D01*
X145421863Y-95138774D01*
X145490800Y-95207711D01*
X145490801Y-98030054D01*
X144837758Y-97377012D01*
X144814738Y-97348962D01*
X144702820Y-97257113D01*
X144575133Y-97188863D01*
X144436585Y-97146835D01*
X144436584Y-97146835D01*
X144292500Y-97132644D01*
X144256395Y-97136200D01*
X143419347Y-97136200D01*
X140496546Y-94213400D01*
X145223354Y-94213400D01*
X145190800Y-94377061D01*
G37*
%TD.AperFunction*%
D22*
X116516946Y-91308793D02*
X116539962Y-91336838D01*
X116622636Y-91404687D01*
X116651880Y-91428687D01*
X116779566Y-91496937D01*
X116918115Y-91538965D01*
X117062200Y-91553156D01*
X117098305Y-91549600D01*
X120006953Y-91549600D01*
X115101982Y-96454571D01*
X115084174Y-96436763D01*
X114914656Y-96323495D01*
X114726298Y-96245474D01*
X114526339Y-96205700D01*
X114322461Y-96205700D01*
X114122502Y-96245474D01*
X113934144Y-96323495D01*
X113764626Y-96436763D01*
X113620463Y-96580926D01*
X113507195Y-96750444D01*
X113429174Y-96938802D01*
X113389400Y-97138761D01*
X113389400Y-97236254D01*
X113160654Y-97465000D01*
X112934883Y-97465000D01*
X112793475Y-97253368D01*
X112586632Y-97046525D01*
X112343411Y-96884010D01*
X112073158Y-96772068D01*
X111786260Y-96715000D01*
X111493740Y-96715000D01*
X111242500Y-96764975D01*
X111242500Y-91816946D01*
X111244102Y-91815344D01*
X111493740Y-91865000D01*
X111786260Y-91865000D01*
X112073158Y-91807932D01*
X112343411Y-91695990D01*
X112586632Y-91533475D01*
X112793475Y-91326632D01*
X112955990Y-91083411D01*
X113067932Y-90813158D01*
X113125000Y-90526260D01*
X113125000Y-90233740D01*
X113067932Y-89946842D01*
X113066423Y-89943200D01*
X115151354Y-89943200D01*
X116516946Y-91308793D01*
%TA.AperFunction,Conductor*%
D23*
G36*
X116516946Y-91308793D02*
G01*
X116539962Y-91336838D01*
X116622636Y-91404687D01*
X116651880Y-91428687D01*
X116779566Y-91496937D01*
X116918115Y-91538965D01*
X117062200Y-91553156D01*
X117098305Y-91549600D01*
X120006953Y-91549600D01*
X115101982Y-96454571D01*
X115084174Y-96436763D01*
X114914656Y-96323495D01*
X114726298Y-96245474D01*
X114526339Y-96205700D01*
X114322461Y-96205700D01*
X114122502Y-96245474D01*
X113934144Y-96323495D01*
X113764626Y-96436763D01*
X113620463Y-96580926D01*
X113507195Y-96750444D01*
X113429174Y-96938802D01*
X113389400Y-97138761D01*
X113389400Y-97236254D01*
X113160654Y-97465000D01*
X112934883Y-97465000D01*
X112793475Y-97253368D01*
X112586632Y-97046525D01*
X112343411Y-96884010D01*
X112073158Y-96772068D01*
X111786260Y-96715000D01*
X111493740Y-96715000D01*
X111242500Y-96764975D01*
X111242500Y-91816946D01*
X111244102Y-91815344D01*
X111493740Y-91865000D01*
X111786260Y-91865000D01*
X112073158Y-91807932D01*
X112343411Y-91695990D01*
X112586632Y-91533475D01*
X112793475Y-91326632D01*
X112955990Y-91083411D01*
X113067932Y-90813158D01*
X113125000Y-90526260D01*
X113125000Y-90233740D01*
X113067932Y-89946842D01*
X113066423Y-89943200D01*
X115151354Y-89943200D01*
X116516946Y-91308793D01*
G37*
%TD.AperFunction*%
D22*
X201955968Y-79217071D02*
X202879013Y-81326698D01*
X203663991Y-83491486D01*
X204307635Y-85702422D01*
X204807266Y-87950301D01*
X204845351Y-88195431D01*
X204802402Y-88203974D01*
X204614044Y-88281995D01*
X204444526Y-88395263D01*
X204300363Y-88539426D01*
X204187095Y-88708944D01*
X204109074Y-88897302D01*
X204069300Y-89097261D01*
X204069300Y-89301139D01*
X204109074Y-89501098D01*
X204187095Y-89689456D01*
X204258393Y-89796161D01*
X201915354Y-92139200D01*
X201817861Y-92139200D01*
X201617902Y-92178974D01*
X201429544Y-92256995D01*
X201301717Y-92342406D01*
X201195674Y-92236363D01*
X201026156Y-92123095D01*
X200837798Y-92045074D01*
X200637839Y-92005300D01*
X200433961Y-92005300D01*
X200312000Y-92029559D01*
X200312000Y-91254046D01*
X202309697Y-89256350D01*
X202337737Y-89233338D01*
X202360750Y-89205297D01*
X202360753Y-89205294D01*
X202396657Y-89161545D01*
X202429587Y-89121420D01*
X202479073Y-89028838D01*
X202619437Y-88888474D01*
X202732705Y-88718956D01*
X202810726Y-88530598D01*
X202850500Y-88330639D01*
X202850500Y-88126761D01*
X202810726Y-87926802D01*
X202732705Y-87738444D01*
X202619437Y-87568926D01*
X202475274Y-87424763D01*
X202305756Y-87311495D01*
X202117398Y-87233474D01*
X201917439Y-87193700D01*
X201713561Y-87193700D01*
X201513602Y-87233474D01*
X201325244Y-87311495D01*
X201155726Y-87424763D01*
X201011563Y-87568926D01*
X200998900Y-87587878D01*
X200998900Y-77365266D01*
X201955968Y-79217071D01*
%TA.AperFunction,Conductor*%
D23*
G36*
X201955968Y-79217071D02*
G01*
X202879013Y-81326698D01*
X203663991Y-83491486D01*
X204307635Y-85702422D01*
X204807266Y-87950301D01*
X204845351Y-88195431D01*
X204802402Y-88203974D01*
X204614044Y-88281995D01*
X204444526Y-88395263D01*
X204300363Y-88539426D01*
X204187095Y-88708944D01*
X204109074Y-88897302D01*
X204069300Y-89097261D01*
X204069300Y-89301139D01*
X204109074Y-89501098D01*
X204187095Y-89689456D01*
X204258393Y-89796161D01*
X201915354Y-92139200D01*
X201817861Y-92139200D01*
X201617902Y-92178974D01*
X201429544Y-92256995D01*
X201301717Y-92342406D01*
X201195674Y-92236363D01*
X201026156Y-92123095D01*
X200837798Y-92045074D01*
X200637839Y-92005300D01*
X200433961Y-92005300D01*
X200312000Y-92029559D01*
X200312000Y-91254046D01*
X202309697Y-89256350D01*
X202337737Y-89233338D01*
X202360750Y-89205297D01*
X202360753Y-89205294D01*
X202396657Y-89161545D01*
X202429587Y-89121420D01*
X202479073Y-89028838D01*
X202619437Y-88888474D01*
X202732705Y-88718956D01*
X202810726Y-88530598D01*
X202850500Y-88330639D01*
X202850500Y-88126761D01*
X202810726Y-87926802D01*
X202732705Y-87738444D01*
X202619437Y-87568926D01*
X202475274Y-87424763D01*
X202305756Y-87311495D01*
X202117398Y-87233474D01*
X201917439Y-87193700D01*
X201713561Y-87193700D01*
X201513602Y-87233474D01*
X201325244Y-87311495D01*
X201155726Y-87424763D01*
X201011563Y-87568926D01*
X200998900Y-87587878D01*
X200998900Y-77365266D01*
X201955968Y-79217071D01*
G37*
%TD.AperFunction*%
D22*
X133085914Y-82710620D02*
X133177763Y-82822538D01*
X133205808Y-82845554D01*
X133698346Y-83338092D01*
X133721362Y-83366138D01*
X133833280Y-83457987D01*
X133960967Y-83526237D01*
X134099515Y-83568265D01*
X134207495Y-83578900D01*
X134207504Y-83578900D01*
X134243599Y-83582455D01*
X134279694Y-83578900D01*
X144372454Y-83578900D01*
X145063676Y-84270122D01*
X144896002Y-84303474D01*
X144707644Y-84381495D01*
X144538126Y-84494763D01*
X144393963Y-84638926D01*
X144280695Y-84808444D01*
X144202674Y-84996802D01*
X144162900Y-85196761D01*
X144162900Y-85400639D01*
X144202674Y-85600598D01*
X144280695Y-85788956D01*
X144393963Y-85958474D01*
X144538126Y-86102637D01*
X144707644Y-86215905D01*
X144896002Y-86293926D01*
X145095961Y-86333700D01*
X145193454Y-86333700D01*
X150600153Y-91740400D01*
X143151269Y-91740400D01*
X143070637Y-91619726D01*
X142926474Y-91475563D01*
X142756956Y-91362295D01*
X142568598Y-91284274D01*
X142368639Y-91244500D01*
X142164761Y-91244500D01*
X141964802Y-91284274D01*
X141776444Y-91362295D01*
X141606926Y-91475563D01*
X141462763Y-91619726D01*
X141349495Y-91789244D01*
X141271474Y-91977602D01*
X141231700Y-92177561D01*
X141231700Y-92219000D01*
X139492947Y-92219000D01*
X138988658Y-91714712D01*
X138965638Y-91686662D01*
X138853720Y-91594813D01*
X138726033Y-91526563D01*
X138587485Y-91484535D01*
X138479505Y-91473900D01*
X138443400Y-91470344D01*
X138407295Y-91473900D01*
X135964805Y-91473900D01*
X135928700Y-91470344D01*
X135784615Y-91484535D01*
X135646066Y-91526563D01*
X135548591Y-91578665D01*
X135518380Y-91594813D01*
X135406462Y-91686662D01*
X135383446Y-91714707D01*
X135240620Y-91857534D01*
X135162037Y-91739926D01*
X135141529Y-91719418D01*
X136154747Y-90706200D01*
X136182589Y-90706200D01*
X136251526Y-90775137D01*
X136421044Y-90888405D01*
X136609402Y-90966426D01*
X136809361Y-91006200D01*
X137013239Y-91006200D01*
X137213198Y-90966426D01*
X137401556Y-90888405D01*
X137571074Y-90775137D01*
X137715237Y-90630974D01*
X137828505Y-90461456D01*
X137906526Y-90273098D01*
X137946300Y-90073139D01*
X137946300Y-89869261D01*
X137906526Y-89669302D01*
X137828505Y-89480944D01*
X137715237Y-89311426D01*
X137571074Y-89167263D01*
X137401556Y-89053995D01*
X137213198Y-88975974D01*
X137013239Y-88936200D01*
X136809361Y-88936200D01*
X136609402Y-88975974D01*
X136421044Y-89053995D01*
X136251526Y-89167263D01*
X136182589Y-89236200D01*
X135886405Y-89236200D01*
X135850300Y-89232644D01*
X135706215Y-89246835D01*
X135567666Y-89288863D01*
X135444219Y-89354847D01*
X135439980Y-89357113D01*
X135328062Y-89448962D01*
X135305046Y-89477007D01*
X133385602Y-91396452D01*
X133415600Y-91245639D01*
X133415600Y-91148146D01*
X136311047Y-88252700D01*
X137531589Y-88252700D01*
X137600526Y-88321637D01*
X137770044Y-88434905D01*
X137958402Y-88512926D01*
X138158361Y-88552700D01*
X138362239Y-88552700D01*
X138562198Y-88512926D01*
X138750556Y-88434905D01*
X138920074Y-88321637D01*
X139064237Y-88177474D01*
X139177505Y-88007956D01*
X139255526Y-87819598D01*
X139295300Y-87619639D01*
X139295300Y-87415761D01*
X139255526Y-87215802D01*
X139177505Y-87027444D01*
X139064237Y-86857926D01*
X138920074Y-86713763D01*
X138750556Y-86600495D01*
X138562198Y-86522474D01*
X138362239Y-86482700D01*
X138158361Y-86482700D01*
X137958402Y-86522474D01*
X137770044Y-86600495D01*
X137600526Y-86713763D01*
X137531589Y-86782700D01*
X136042694Y-86782700D01*
X136006599Y-86779145D01*
X135970504Y-86782700D01*
X135970495Y-86782700D01*
X135862515Y-86793335D01*
X135723967Y-86835363D01*
X135596280Y-86903613D01*
X135484362Y-86995462D01*
X135461346Y-87023507D01*
X132376154Y-90108700D01*
X132285800Y-90108700D01*
X132285800Y-87279096D01*
X132289355Y-87242999D01*
X132285800Y-87206902D01*
X132285800Y-87206895D01*
X132275165Y-87098915D01*
X132270175Y-87082463D01*
X132262416Y-87056886D01*
X132233137Y-86960367D01*
X132164887Y-86832680D01*
X132073038Y-86720762D01*
X132044993Y-86697746D01*
X131794500Y-86447253D01*
X131794500Y-86349761D01*
X131754726Y-86149802D01*
X131676705Y-85961444D01*
X131563437Y-85791926D01*
X131419274Y-85647763D01*
X131249756Y-85534495D01*
X131061398Y-85456474D01*
X130861439Y-85416700D01*
X130657561Y-85416700D01*
X130457602Y-85456474D01*
X130269244Y-85534495D01*
X130099726Y-85647763D01*
X130030789Y-85716700D01*
X128989047Y-85716700D01*
X130476447Y-84229300D01*
X131389289Y-84229300D01*
X131458226Y-84298237D01*
X131627744Y-84411505D01*
X131816102Y-84489526D01*
X132016061Y-84529300D01*
X132219939Y-84529300D01*
X132419898Y-84489526D01*
X132608256Y-84411505D01*
X132777774Y-84298237D01*
X132921937Y-84154074D01*
X133035205Y-83984556D01*
X133113226Y-83796198D01*
X133153000Y-83596239D01*
X133153000Y-83392361D01*
X133113226Y-83192402D01*
X133035205Y-83004044D01*
X132921937Y-82834526D01*
X132777774Y-82690363D01*
X132774345Y-82688072D01*
X132900000Y-82688072D01*
X133024482Y-82675812D01*
X133061334Y-82664633D01*
X133085914Y-82710620D01*
%TA.AperFunction,Conductor*%
D23*
G36*
X133085914Y-82710620D02*
G01*
X133177763Y-82822538D01*
X133205808Y-82845554D01*
X133698346Y-83338092D01*
X133721362Y-83366138D01*
X133833280Y-83457987D01*
X133960967Y-83526237D01*
X134099515Y-83568265D01*
X134207495Y-83578900D01*
X134207504Y-83578900D01*
X134243599Y-83582455D01*
X134279694Y-83578900D01*
X144372454Y-83578900D01*
X145063676Y-84270122D01*
X144896002Y-84303474D01*
X144707644Y-84381495D01*
X144538126Y-84494763D01*
X144393963Y-84638926D01*
X144280695Y-84808444D01*
X144202674Y-84996802D01*
X144162900Y-85196761D01*
X144162900Y-85400639D01*
X144202674Y-85600598D01*
X144280695Y-85788956D01*
X144393963Y-85958474D01*
X144538126Y-86102637D01*
X144707644Y-86215905D01*
X144896002Y-86293926D01*
X145095961Y-86333700D01*
X145193454Y-86333700D01*
X150600153Y-91740400D01*
X143151269Y-91740400D01*
X143070637Y-91619726D01*
X142926474Y-91475563D01*
X142756956Y-91362295D01*
X142568598Y-91284274D01*
X142368639Y-91244500D01*
X142164761Y-91244500D01*
X141964802Y-91284274D01*
X141776444Y-91362295D01*
X141606926Y-91475563D01*
X141462763Y-91619726D01*
X141349495Y-91789244D01*
X141271474Y-91977602D01*
X141231700Y-92177561D01*
X141231700Y-92219000D01*
X139492947Y-92219000D01*
X138988658Y-91714712D01*
X138965638Y-91686662D01*
X138853720Y-91594813D01*
X138726033Y-91526563D01*
X138587485Y-91484535D01*
X138479505Y-91473900D01*
X138443400Y-91470344D01*
X138407295Y-91473900D01*
X135964805Y-91473900D01*
X135928700Y-91470344D01*
X135784615Y-91484535D01*
X135646066Y-91526563D01*
X135548591Y-91578665D01*
X135518380Y-91594813D01*
X135406462Y-91686662D01*
X135383446Y-91714707D01*
X135240620Y-91857534D01*
X135162037Y-91739926D01*
X135141529Y-91719418D01*
X136154747Y-90706200D01*
X136182589Y-90706200D01*
X136251526Y-90775137D01*
X136421044Y-90888405D01*
X136609402Y-90966426D01*
X136809361Y-91006200D01*
X137013239Y-91006200D01*
X137213198Y-90966426D01*
X137401556Y-90888405D01*
X137571074Y-90775137D01*
X137715237Y-90630974D01*
X137828505Y-90461456D01*
X137906526Y-90273098D01*
X137946300Y-90073139D01*
X137946300Y-89869261D01*
X137906526Y-89669302D01*
X137828505Y-89480944D01*
X137715237Y-89311426D01*
X137571074Y-89167263D01*
X137401556Y-89053995D01*
X137213198Y-88975974D01*
X137013239Y-88936200D01*
X136809361Y-88936200D01*
X136609402Y-88975974D01*
X136421044Y-89053995D01*
X136251526Y-89167263D01*
X136182589Y-89236200D01*
X135886405Y-89236200D01*
X135850300Y-89232644D01*
X135706215Y-89246835D01*
X135567666Y-89288863D01*
X135444219Y-89354847D01*
X135439980Y-89357113D01*
X135328062Y-89448962D01*
X135305046Y-89477007D01*
X133385602Y-91396452D01*
X133415600Y-91245639D01*
X133415600Y-91148146D01*
X136311047Y-88252700D01*
X137531589Y-88252700D01*
X137600526Y-88321637D01*
X137770044Y-88434905D01*
X137958402Y-88512926D01*
X138158361Y-88552700D01*
X138362239Y-88552700D01*
X138562198Y-88512926D01*
X138750556Y-88434905D01*
X138920074Y-88321637D01*
X139064237Y-88177474D01*
X139177505Y-88007956D01*
X139255526Y-87819598D01*
X139295300Y-87619639D01*
X139295300Y-87415761D01*
X139255526Y-87215802D01*
X139177505Y-87027444D01*
X139064237Y-86857926D01*
X138920074Y-86713763D01*
X138750556Y-86600495D01*
X138562198Y-86522474D01*
X138362239Y-86482700D01*
X138158361Y-86482700D01*
X137958402Y-86522474D01*
X137770044Y-86600495D01*
X137600526Y-86713763D01*
X137531589Y-86782700D01*
X136042694Y-86782700D01*
X136006599Y-86779145D01*
X135970504Y-86782700D01*
X135970495Y-86782700D01*
X135862515Y-86793335D01*
X135723967Y-86835363D01*
X135596280Y-86903613D01*
X135484362Y-86995462D01*
X135461346Y-87023507D01*
X132376154Y-90108700D01*
X132285800Y-90108700D01*
X132285800Y-87279096D01*
X132289355Y-87242999D01*
X132285800Y-87206902D01*
X132285800Y-87206895D01*
X132275165Y-87098915D01*
X132270175Y-87082463D01*
X132262416Y-87056886D01*
X132233137Y-86960367D01*
X132164887Y-86832680D01*
X132073038Y-86720762D01*
X132044993Y-86697746D01*
X131794500Y-86447253D01*
X131794500Y-86349761D01*
X131754726Y-86149802D01*
X131676705Y-85961444D01*
X131563437Y-85791926D01*
X131419274Y-85647763D01*
X131249756Y-85534495D01*
X131061398Y-85456474D01*
X130861439Y-85416700D01*
X130657561Y-85416700D01*
X130457602Y-85456474D01*
X130269244Y-85534495D01*
X130099726Y-85647763D01*
X130030789Y-85716700D01*
X128989047Y-85716700D01*
X130476447Y-84229300D01*
X131389289Y-84229300D01*
X131458226Y-84298237D01*
X131627744Y-84411505D01*
X131816102Y-84489526D01*
X132016061Y-84529300D01*
X132219939Y-84529300D01*
X132419898Y-84489526D01*
X132608256Y-84411505D01*
X132777774Y-84298237D01*
X132921937Y-84154074D01*
X133035205Y-83984556D01*
X133113226Y-83796198D01*
X133153000Y-83596239D01*
X133153000Y-83392361D01*
X133113226Y-83192402D01*
X133035205Y-83004044D01*
X132921937Y-82834526D01*
X132777774Y-82690363D01*
X132774345Y-82688072D01*
X132900000Y-82688072D01*
X133024482Y-82675812D01*
X133061334Y-82664633D01*
X133085914Y-82710620D01*
G37*
%TD.AperFunction*%
D22*
X115919902Y-84997426D02*
X116119861Y-85037200D01*
X116314881Y-85037200D01*
X116314829Y-85065355D01*
X116350426Y-85246061D01*
X116420592Y-85416351D01*
X116422237Y-85419425D01*
X116520143Y-85424751D01*
X116570392Y-85475000D01*
X116520143Y-85525249D01*
X116422237Y-85530575D01*
X116351438Y-85700603D01*
X116315172Y-85881176D01*
X116314829Y-86065355D01*
X116350426Y-86246061D01*
X116420592Y-86416351D01*
X116422237Y-86419425D01*
X116520143Y-86424751D01*
X116570392Y-86475000D01*
X116520143Y-86525249D01*
X116422237Y-86530575D01*
X116351438Y-86700603D01*
X116315172Y-86881176D01*
X116314829Y-87065355D01*
X116350426Y-87246061D01*
X116420592Y-87416351D01*
X116422237Y-87419425D01*
X116615459Y-87429936D01*
X117070395Y-86975000D01*
X117056253Y-86960858D01*
X117115459Y-86901651D01*
X117156176Y-86909828D01*
X117340355Y-86910171D01*
X117384387Y-86901497D01*
X117443748Y-86960858D01*
X117429605Y-86975000D01*
X117443748Y-86989143D01*
X117264143Y-87168748D01*
X117250000Y-87154605D01*
X116795064Y-87609541D01*
X116805575Y-87802763D01*
X116975603Y-87873562D01*
X116994646Y-87877387D01*
X116976514Y-87899480D01*
X116916428Y-88011894D01*
X116908264Y-88027167D01*
X116866235Y-88165715D01*
X116852044Y-88309800D01*
X116855601Y-88345915D01*
X116855600Y-89401989D01*
X116786663Y-89470926D01*
X116775171Y-89488125D01*
X116001058Y-88714012D01*
X115978038Y-88685962D01*
X115866120Y-88594113D01*
X115738433Y-88525863D01*
X115599885Y-88483835D01*
X115491905Y-88473200D01*
X115455800Y-88469644D01*
X115419695Y-88473200D01*
X112985072Y-88473200D01*
X113067932Y-88273158D01*
X113125000Y-87986260D01*
X113125000Y-87693740D01*
X113067932Y-87406842D01*
X112955990Y-87136589D01*
X112793475Y-86893368D01*
X112728377Y-86828270D01*
X112753100Y-86803546D01*
X113237046Y-87287493D01*
X113260062Y-87315538D01*
X113310743Y-87357131D01*
X113371980Y-87407387D01*
X113499666Y-87475637D01*
X113638215Y-87517665D01*
X113782300Y-87531856D01*
X113818405Y-87528300D01*
X114757895Y-87528300D01*
X114794000Y-87531856D01*
X114830105Y-87528300D01*
X114938085Y-87517665D01*
X115076633Y-87475637D01*
X115204320Y-87407387D01*
X115316238Y-87315538D01*
X115339259Y-87287487D01*
X115678487Y-86948259D01*
X115706538Y-86925238D01*
X115798387Y-86813320D01*
X115837738Y-86739700D01*
X115866637Y-86685634D01*
X115908665Y-86547085D01*
X115922856Y-86403000D01*
X115919300Y-86366895D01*
X115919300Y-84997177D01*
X115919902Y-84997426D01*
%TA.AperFunction,Conductor*%
D23*
G36*
X115919902Y-84997426D02*
G01*
X116119861Y-85037200D01*
X116314881Y-85037200D01*
X116314829Y-85065355D01*
X116350426Y-85246061D01*
X116420592Y-85416351D01*
X116422237Y-85419425D01*
X116520143Y-85424751D01*
X116570392Y-85475000D01*
X116520143Y-85525249D01*
X116422237Y-85530575D01*
X116351438Y-85700603D01*
X116315172Y-85881176D01*
X116314829Y-86065355D01*
X116350426Y-86246061D01*
X116420592Y-86416351D01*
X116422237Y-86419425D01*
X116520143Y-86424751D01*
X116570392Y-86475000D01*
X116520143Y-86525249D01*
X116422237Y-86530575D01*
X116351438Y-86700603D01*
X116315172Y-86881176D01*
X116314829Y-87065355D01*
X116350426Y-87246061D01*
X116420592Y-87416351D01*
X116422237Y-87419425D01*
X116615459Y-87429936D01*
X117070395Y-86975000D01*
X117056253Y-86960858D01*
X117115459Y-86901651D01*
X117156176Y-86909828D01*
X117340355Y-86910171D01*
X117384387Y-86901497D01*
X117443748Y-86960858D01*
X117429605Y-86975000D01*
X117443748Y-86989143D01*
X117264143Y-87168748D01*
X117250000Y-87154605D01*
X116795064Y-87609541D01*
X116805575Y-87802763D01*
X116975603Y-87873562D01*
X116994646Y-87877387D01*
X116976514Y-87899480D01*
X116916428Y-88011894D01*
X116908264Y-88027167D01*
X116866235Y-88165715D01*
X116852044Y-88309800D01*
X116855601Y-88345915D01*
X116855600Y-89401989D01*
X116786663Y-89470926D01*
X116775171Y-89488125D01*
X116001058Y-88714012D01*
X115978038Y-88685962D01*
X115866120Y-88594113D01*
X115738433Y-88525863D01*
X115599885Y-88483835D01*
X115491905Y-88473200D01*
X115455800Y-88469644D01*
X115419695Y-88473200D01*
X112985072Y-88473200D01*
X113067932Y-88273158D01*
X113125000Y-87986260D01*
X113125000Y-87693740D01*
X113067932Y-87406842D01*
X112955990Y-87136589D01*
X112793475Y-86893368D01*
X112728377Y-86828270D01*
X112753100Y-86803546D01*
X113237046Y-87287493D01*
X113260062Y-87315538D01*
X113310743Y-87357131D01*
X113371980Y-87407387D01*
X113499666Y-87475637D01*
X113638215Y-87517665D01*
X113782300Y-87531856D01*
X113818405Y-87528300D01*
X114757895Y-87528300D01*
X114794000Y-87531856D01*
X114830105Y-87528300D01*
X114938085Y-87517665D01*
X115076633Y-87475637D01*
X115204320Y-87407387D01*
X115316238Y-87315538D01*
X115339259Y-87287487D01*
X115678487Y-86948259D01*
X115706538Y-86925238D01*
X115798387Y-86813320D01*
X115837738Y-86739700D01*
X115866637Y-86685634D01*
X115908665Y-86547085D01*
X115922856Y-86403000D01*
X115919300Y-86366895D01*
X115919300Y-84997177D01*
X115919902Y-84997426D01*
G37*
%TD.AperFunction*%
D22*
X117443748Y-85960858D02*
X117429605Y-85975000D01*
X117443748Y-85989143D01*
X117384541Y-86048349D01*
X117343824Y-86040172D01*
X117159645Y-86039829D01*
X117115613Y-86048503D01*
X117056253Y-85989143D01*
X117070395Y-85975000D01*
X117056253Y-85960858D01*
X117115459Y-85901651D01*
X117156176Y-85909828D01*
X117340355Y-85910171D01*
X117384387Y-85901497D01*
X117443748Y-85960858D01*
%TA.AperFunction,Conductor*%
D23*
G36*
X117443748Y-85960858D02*
G01*
X117429605Y-85975000D01*
X117443748Y-85989143D01*
X117384541Y-86048349D01*
X117343824Y-86040172D01*
X117159645Y-86039829D01*
X117115613Y-86048503D01*
X117056253Y-85989143D01*
X117070395Y-85975000D01*
X117056253Y-85960858D01*
X117115459Y-85901651D01*
X117156176Y-85909828D01*
X117340355Y-85910171D01*
X117384387Y-85901497D01*
X117443748Y-85960858D01*
G37*
%TD.AperFunction*%
D22*
X117443748Y-84960858D02*
X117429605Y-84975000D01*
X117443748Y-84989143D01*
X117384541Y-85048349D01*
X117343824Y-85040172D01*
X117159645Y-85039829D01*
X117115613Y-85048503D01*
X117056253Y-84989143D01*
X117070395Y-84975000D01*
X117056253Y-84960858D01*
X117235858Y-84781253D01*
X117250000Y-84795395D01*
X117264143Y-84781253D01*
X117443748Y-84960858D01*
%TA.AperFunction,Conductor*%
D23*
G36*
X117443748Y-84960858D02*
G01*
X117429605Y-84975000D01*
X117443748Y-84989143D01*
X117384541Y-85048349D01*
X117343824Y-85040172D01*
X117159645Y-85039829D01*
X117115613Y-85048503D01*
X117056253Y-84989143D01*
X117070395Y-84975000D01*
X117056253Y-84960858D01*
X117235858Y-84781253D01*
X117250000Y-84795395D01*
X117264143Y-84781253D01*
X117443748Y-84960858D01*
G37*
%TD.AperFunction*%
D22*
X187884901Y-75453848D02*
X187884900Y-81733795D01*
X187881344Y-81769900D01*
X187895535Y-81913985D01*
X187899269Y-81926295D01*
X187937563Y-82052532D01*
X187998366Y-82166287D01*
X187931781Y-82327037D01*
X187868949Y-82642916D01*
X187868949Y-82964982D01*
X187931781Y-83280861D01*
X188055031Y-83578412D01*
X188233962Y-83846201D01*
X188461697Y-84073936D01*
X188498951Y-84098828D01*
X188438883Y-84158897D01*
X188373936Y-84061697D01*
X188146201Y-83833962D01*
X187878412Y-83655031D01*
X187580861Y-83531781D01*
X187264982Y-83468949D01*
X186942916Y-83468949D01*
X186627037Y-83531781D01*
X186329486Y-83655031D01*
X186061697Y-83833962D01*
X185833962Y-84061697D01*
X185655031Y-84329486D01*
X185531781Y-84627037D01*
X185485400Y-84860211D01*
X185485400Y-73054346D01*
X187884901Y-75453848D01*
%TA.AperFunction,Conductor*%
D23*
G36*
X187884901Y-75453848D02*
G01*
X187884900Y-81733795D01*
X187881344Y-81769900D01*
X187895535Y-81913985D01*
X187899269Y-81926295D01*
X187937563Y-82052532D01*
X187998366Y-82166287D01*
X187931781Y-82327037D01*
X187868949Y-82642916D01*
X187868949Y-82964982D01*
X187931781Y-83280861D01*
X188055031Y-83578412D01*
X188233962Y-83846201D01*
X188461697Y-84073936D01*
X188498951Y-84098828D01*
X188438883Y-84158897D01*
X188373936Y-84061697D01*
X188146201Y-83833962D01*
X187878412Y-83655031D01*
X187580861Y-83531781D01*
X187264982Y-83468949D01*
X186942916Y-83468949D01*
X186627037Y-83531781D01*
X186329486Y-83655031D01*
X186061697Y-83833962D01*
X185833962Y-84061697D01*
X185655031Y-84329486D01*
X185531781Y-84627037D01*
X185485400Y-84860211D01*
X185485400Y-73054346D01*
X187884901Y-75453848D01*
G37*
%TD.AperFunction*%
D22*
X174663513Y-70995765D02*
X174685530Y-71029502D01*
X174704514Y-71065019D01*
X174724992Y-71089972D01*
X174742639Y-71117013D01*
X174770811Y-71145803D01*
X174773347Y-71148893D01*
X174796073Y-71171619D01*
X174843899Y-71220494D01*
X174847218Y-71222764D01*
X180291101Y-76666648D01*
X180291100Y-83867453D01*
X174409000Y-77985354D01*
X174409000Y-71013532D01*
X174661767Y-70991418D01*
X174663513Y-70995765D01*
%TA.AperFunction,Conductor*%
D23*
G36*
X174663513Y-70995765D02*
G01*
X174685530Y-71029502D01*
X174704514Y-71065019D01*
X174724992Y-71089972D01*
X174742639Y-71117013D01*
X174770811Y-71145803D01*
X174773347Y-71148893D01*
X174796073Y-71171619D01*
X174843899Y-71220494D01*
X174847218Y-71222764D01*
X180291101Y-76666648D01*
X180291100Y-83867453D01*
X174409000Y-77985354D01*
X174409000Y-71013532D01*
X174661767Y-70991418D01*
X174663513Y-70995765D01*
G37*
%TD.AperFunction*%
D22*
X192843400Y-74099145D02*
X192843401Y-77801406D01*
X192741702Y-77811422D01*
X192603153Y-77853451D01*
X192475467Y-77921700D01*
X192391593Y-77990534D01*
X192391584Y-77990543D01*
X192363550Y-78013550D01*
X192340543Y-78041584D01*
X190977375Y-79404752D01*
X190949336Y-79427763D01*
X190926325Y-79455802D01*
X190926320Y-79455807D01*
X190857487Y-79539680D01*
X190801574Y-79644286D01*
X190789237Y-79667367D01*
X190747208Y-79805915D01*
X190733017Y-79950000D01*
X190747208Y-80094085D01*
X190762170Y-80143407D01*
X190789237Y-80232633D01*
X190857486Y-80360319D01*
X190949335Y-80472237D01*
X190977380Y-80495253D01*
X192627372Y-82145245D01*
X192605495Y-82147400D01*
X191285910Y-82147400D01*
X191249815Y-82143845D01*
X191213720Y-82147400D01*
X191213711Y-82147400D01*
X191105731Y-82158035D01*
X191017234Y-82184880D01*
X190952867Y-82029486D01*
X190773936Y-81761697D01*
X190546201Y-81533962D01*
X190278412Y-81355031D01*
X189980861Y-81231781D01*
X189664982Y-81168949D01*
X189354900Y-81168949D01*
X189354900Y-75185505D01*
X189358456Y-75149400D01*
X189344265Y-75005315D01*
X189302237Y-74866766D01*
X189233987Y-74739080D01*
X189165153Y-74655206D01*
X189142138Y-74627162D01*
X189114093Y-74604146D01*
X184565948Y-70056002D01*
X184951581Y-70022263D01*
X184987856Y-70022659D01*
X185023511Y-70015970D01*
X185023514Y-70015970D01*
X185130156Y-69995964D01*
X185264514Y-69942021D01*
X185385767Y-69862902D01*
X185489254Y-69761648D01*
X185570999Y-69642151D01*
X185627861Y-69509001D01*
X185657653Y-69367318D01*
X185659232Y-69222545D01*
X185652542Y-69186883D01*
X185434078Y-66689823D01*
X192843400Y-74099145D01*
%TA.AperFunction,Conductor*%
D23*
G36*
X192843400Y-74099145D02*
G01*
X192843401Y-77801406D01*
X192741702Y-77811422D01*
X192603153Y-77853451D01*
X192475467Y-77921700D01*
X192391593Y-77990534D01*
X192391584Y-77990543D01*
X192363550Y-78013550D01*
X192340543Y-78041584D01*
X190977375Y-79404752D01*
X190949336Y-79427763D01*
X190926325Y-79455802D01*
X190926320Y-79455807D01*
X190857487Y-79539680D01*
X190801574Y-79644286D01*
X190789237Y-79667367D01*
X190747208Y-79805915D01*
X190733017Y-79950000D01*
X190747208Y-80094085D01*
X190762170Y-80143407D01*
X190789237Y-80232633D01*
X190857486Y-80360319D01*
X190949335Y-80472237D01*
X190977380Y-80495253D01*
X192627372Y-82145245D01*
X192605495Y-82147400D01*
X191285910Y-82147400D01*
X191249815Y-82143845D01*
X191213720Y-82147400D01*
X191213711Y-82147400D01*
X191105731Y-82158035D01*
X191017234Y-82184880D01*
X190952867Y-82029486D01*
X190773936Y-81761697D01*
X190546201Y-81533962D01*
X190278412Y-81355031D01*
X189980861Y-81231781D01*
X189664982Y-81168949D01*
X189354900Y-81168949D01*
X189354900Y-75185505D01*
X189358456Y-75149400D01*
X189344265Y-75005315D01*
X189302237Y-74866766D01*
X189233987Y-74739080D01*
X189165153Y-74655206D01*
X189142138Y-74627162D01*
X189114093Y-74604146D01*
X184565948Y-70056002D01*
X184951581Y-70022263D01*
X184987856Y-70022659D01*
X185023511Y-70015970D01*
X185023514Y-70015970D01*
X185130156Y-69995964D01*
X185264514Y-69942021D01*
X185385767Y-69862902D01*
X185489254Y-69761648D01*
X185570999Y-69642151D01*
X185627861Y-69509001D01*
X185657653Y-69367318D01*
X185659232Y-69222545D01*
X185652542Y-69186883D01*
X185434078Y-66689823D01*
X192843400Y-74099145D01*
G37*
%TD.AperFunction*%
%TD*%
M02*
