%TF.GenerationSoftware,KiCad,Pcbnew,(5.1.7)-1*%
%TF.CreationDate,2021-11-24T18:57:27+09:00*%
%TF.ProjectId,Quatro,51756174-726f-42e6-9b69-6361645f7063,0*%
%TF.SameCoordinates,Original*%
%TF.FileFunction,Soldermask,Top*%
%TF.FilePolarity,Negative*%
%FSLAX46Y46*%
G04 Gerber Fmt 4.6, Leading zero omitted, Abs format (unit mm)*
G04 Created by KiCad (PCBNEW (5.1.7)-1) date 2021-11-24 18:57:27*
%MOMM*%
%LPD*%
G01*
G04 APERTURE LIST*
%TA.AperFunction,Profile*%
%ADD10C,0.200000*%
%TD*%
%ADD11C,0.100000*%
%ADD12R,1.600000X1.750000*%
%ADD13R,1.450000X2.400000*%
%ADD14R,0.800000X1.100000*%
%ADD15R,0.700000X1.100000*%
%ADD16R,1.000000X1.000000*%
%ADD17O,1.000000X1.000000*%
%ADD18R,1.700000X1.700000*%
%ADD19O,1.700000X1.700000*%
%ADD20R,0.800000X0.900000*%
%ADD21R,0.900000X0.800000*%
%ADD22R,1.050000X0.650000*%
%ADD23R,2.000000X3.800000*%
%ADD24R,2.000000X1.500000*%
%ADD25R,2.500000X0.700000*%
%ADD26R,0.900000X5.000000*%
%ADD27C,0.600000*%
%ADD28R,1.000000X0.280000*%
G04 APERTURE END LIST*
D10*
X170788838Y-58175084D02*
G75*
G02*
X170788843Y-130946030I-1028246J-36385473D01*
G01*
X169760594Y-71360558D02*
X169760594Y-59174685D01*
X110760595Y-60360557D02*
X113160593Y-60360557D01*
X157360593Y-114760556D02*
G75*
G03*
X157360593Y-114760556I-1100001J0D01*
G01*
X169760593Y-129946429D02*
X169760593Y-117760555D01*
X106160594Y-128760556D02*
X106160593Y-60360557D01*
X169760595Y-71360555D02*
G75*
G02*
X168760594Y-72360558I-1000002J-1D01*
G01*
X197128428Y-79950000D02*
X198542640Y-78535786D01*
X106160593Y-60360557D02*
X110760595Y-60360557D01*
X130360596Y-114760557D02*
G75*
G03*
X130360596Y-114760557I-1100001J0D01*
G01*
X195714214Y-78535787D02*
X197128428Y-79950000D01*
X194300000Y-77121573D02*
X195714214Y-78535787D01*
X180760595Y-94560557D02*
G75*
G03*
X180760595Y-94560557I-8000001J0D01*
G01*
X157360594Y-74360558D02*
G75*
G03*
X157360594Y-74360558I-1100001J0D01*
G01*
X130360597Y-74360557D02*
G75*
G03*
X130360597Y-74360557I-1100000J0D01*
G01*
X169760595Y-59174687D02*
G75*
G02*
X170788841Y-58175085I999999J2D01*
G01*
X170788842Y-130946030D02*
G75*
G02*
X169760593Y-129946429I-28249J999601D01*
G01*
X115760595Y-72360558D02*
X168760594Y-72360558D01*
X113160593Y-60360557D02*
X115760595Y-72360558D01*
X168760592Y-116760556D02*
G75*
G02*
X169760593Y-117760555I1J-1000000D01*
G01*
X113160595Y-128760558D02*
X106160594Y-128760556D01*
X115760595Y-116760556D02*
X113160595Y-128760558D01*
X168760593Y-116760556D02*
X115760595Y-116760556D01*
X195714214Y-107756901D02*
X194299999Y-106342687D01*
X180764400Y-67643148D02*
X180938710Y-69635540D01*
X184923487Y-69286914D02*
X184574865Y-65302137D01*
X182756788Y-67468837D02*
X182931100Y-69461226D01*
X182582477Y-65476446D02*
X182756788Y-67468837D01*
X194626591Y-94560557D02*
G75*
G03*
X194626591Y-94560557I-1099998J0D01*
G01*
X192885787Y-78535787D02*
X194300000Y-79950000D01*
X195714214Y-75707359D02*
X194300000Y-77121573D01*
X184574865Y-123818979D02*
X182582477Y-123644667D01*
X178946321Y-69809849D02*
X178597697Y-65825070D01*
X194300001Y-111999541D02*
X195714214Y-110585328D01*
X180938710Y-69635540D02*
X178946321Y-69809849D01*
X195714214Y-110585328D02*
X197128427Y-109171114D01*
X182931100Y-69461226D02*
X184923487Y-69286914D01*
X182931100Y-119659889D02*
X184923489Y-119834198D01*
X178597697Y-65825070D02*
X180590087Y-65650759D01*
X194300000Y-82778427D02*
X191471573Y-79950000D01*
X191471573Y-109171112D02*
X192885787Y-110585327D01*
X178597699Y-123296044D02*
X180590088Y-123470356D01*
X180938709Y-119485577D02*
X178946320Y-119311265D01*
X191471573Y-79950000D02*
X192885787Y-78535787D01*
X184923489Y-119834198D02*
X184574865Y-123818979D01*
X195714214Y-81364214D02*
X194300000Y-82778427D01*
X198542642Y-110585327D02*
X195714215Y-113413756D01*
X194299999Y-106342687D02*
X191471573Y-109171112D01*
X184574865Y-65302137D02*
X182582477Y-65476446D01*
X180590088Y-123470356D02*
X180764398Y-121477967D01*
X178946320Y-119311265D02*
X178597699Y-123296044D01*
X198542640Y-78535786D02*
X195714214Y-75707359D01*
X182582477Y-123644667D02*
X182756788Y-121652278D01*
X180764398Y-121477967D02*
X180938709Y-119485577D01*
X182756788Y-121652278D02*
X182931100Y-119659889D01*
X195714215Y-113413756D02*
X194300001Y-111999541D01*
X197128427Y-109171114D02*
X198542642Y-110585327D01*
X194300000Y-109171114D02*
X195714214Y-107756901D01*
X192885787Y-110585327D02*
X194300000Y-109171114D01*
X180590087Y-65650759D02*
X180764400Y-67643148D01*
X194300000Y-79950000D02*
X195714214Y-81364214D01*
D11*
%TO.C,U6*%
G36*
X152919231Y-93346235D02*
G01*
X152916955Y-93353738D01*
X152913259Y-93360654D01*
X152908284Y-93366715D01*
X152811715Y-93463284D01*
X152805654Y-93468259D01*
X152798738Y-93471955D01*
X152791235Y-93474231D01*
X152783431Y-93475000D01*
X152760000Y-93475000D01*
X152752196Y-93474231D01*
X152744693Y-93471955D01*
X152737777Y-93468259D01*
X152731716Y-93463284D01*
X152726741Y-93457223D01*
X152723045Y-93450307D01*
X152720769Y-93442804D01*
X152720000Y-93435000D01*
X152720000Y-92765000D01*
X152720769Y-92757196D01*
X152723045Y-92749693D01*
X152726741Y-92742777D01*
X152731716Y-92736716D01*
X152737777Y-92731741D01*
X152744693Y-92728045D01*
X152752196Y-92725769D01*
X152760000Y-92725000D01*
X152880000Y-92725000D01*
X152887804Y-92725769D01*
X152895307Y-92728045D01*
X152902223Y-92731741D01*
X152908284Y-92736716D01*
X152913259Y-92742777D01*
X152916955Y-92749693D01*
X152919231Y-92757196D01*
X152920000Y-92765000D01*
X152920000Y-93338431D01*
X152919231Y-93346235D01*
G37*
G36*
G01*
X152370000Y-92725000D02*
X152470000Y-92725000D01*
G75*
G02*
X152520000Y-92775000I0J-50000D01*
G01*
X152520000Y-93425000D01*
G75*
G02*
X152470000Y-93475000I-50000J0D01*
G01*
X152370000Y-93475000D01*
G75*
G02*
X152320000Y-93425000I0J50000D01*
G01*
X152320000Y-92775000D01*
G75*
G02*
X152370000Y-92725000I50000J0D01*
G01*
G37*
G36*
G01*
X151970000Y-92725000D02*
X152070000Y-92725000D01*
G75*
G02*
X152120000Y-92775000I0J-50000D01*
G01*
X152120000Y-93425000D01*
G75*
G02*
X152070000Y-93475000I-50000J0D01*
G01*
X151970000Y-93475000D01*
G75*
G02*
X151920000Y-93425000I0J50000D01*
G01*
X151920000Y-92775000D01*
G75*
G02*
X151970000Y-92725000I50000J0D01*
G01*
G37*
G36*
G01*
X151570000Y-92725000D02*
X151670000Y-92725000D01*
G75*
G02*
X151720000Y-92775000I0J-50000D01*
G01*
X151720000Y-93425000D01*
G75*
G02*
X151670000Y-93475000I-50000J0D01*
G01*
X151570000Y-93475000D01*
G75*
G02*
X151520000Y-93425000I0J50000D01*
G01*
X151520000Y-92775000D01*
G75*
G02*
X151570000Y-92725000I50000J0D01*
G01*
G37*
G36*
G01*
X151170000Y-92725000D02*
X151270000Y-92725000D01*
G75*
G02*
X151320000Y-92775000I0J-50000D01*
G01*
X151320000Y-93425000D01*
G75*
G02*
X151270000Y-93475000I-50000J0D01*
G01*
X151170000Y-93475000D01*
G75*
G02*
X151120000Y-93425000I0J50000D01*
G01*
X151120000Y-92775000D01*
G75*
G02*
X151170000Y-92725000I50000J0D01*
G01*
G37*
G36*
X150919231Y-93442804D02*
G01*
X150916955Y-93450307D01*
X150913259Y-93457223D01*
X150908284Y-93463284D01*
X150902223Y-93468259D01*
X150895307Y-93471955D01*
X150887804Y-93474231D01*
X150880000Y-93475000D01*
X150856569Y-93475000D01*
X150848765Y-93474231D01*
X150841262Y-93471955D01*
X150834346Y-93468259D01*
X150828285Y-93463284D01*
X150731716Y-93366715D01*
X150726741Y-93360654D01*
X150723045Y-93353738D01*
X150720769Y-93346235D01*
X150720000Y-93338431D01*
X150720000Y-92765000D01*
X150720769Y-92757196D01*
X150723045Y-92749693D01*
X150726741Y-92742777D01*
X150731716Y-92736716D01*
X150737777Y-92731741D01*
X150744693Y-92728045D01*
X150752196Y-92725769D01*
X150760000Y-92725000D01*
X150880000Y-92725000D01*
X150887804Y-92725769D01*
X150895307Y-92728045D01*
X150902223Y-92731741D01*
X150908284Y-92736716D01*
X150913259Y-92742777D01*
X150916955Y-92749693D01*
X150919231Y-92757196D01*
X150920000Y-92765000D01*
X150920000Y-93435000D01*
X150919231Y-93442804D01*
G37*
G36*
X150694231Y-93667804D02*
G01*
X150691955Y-93675307D01*
X150688259Y-93682223D01*
X150683284Y-93688284D01*
X150677223Y-93693259D01*
X150670307Y-93696955D01*
X150662804Y-93699231D01*
X150655000Y-93700000D01*
X149985000Y-93700000D01*
X149977196Y-93699231D01*
X149969693Y-93696955D01*
X149962777Y-93693259D01*
X149956716Y-93688284D01*
X149951741Y-93682223D01*
X149948045Y-93675307D01*
X149945769Y-93667804D01*
X149945000Y-93660000D01*
X149945000Y-93540000D01*
X149945769Y-93532196D01*
X149948045Y-93524693D01*
X149951741Y-93517777D01*
X149956716Y-93511716D01*
X149962777Y-93506741D01*
X149969693Y-93503045D01*
X149977196Y-93500769D01*
X149985000Y-93500000D01*
X150558431Y-93500000D01*
X150566235Y-93500769D01*
X150573738Y-93503045D01*
X150580654Y-93506741D01*
X150586715Y-93511716D01*
X150683284Y-93608285D01*
X150688259Y-93614346D01*
X150691955Y-93621262D01*
X150694231Y-93628765D01*
X150695000Y-93636569D01*
X150695000Y-93660000D01*
X150694231Y-93667804D01*
G37*
G36*
G01*
X149995000Y-93900000D02*
X150645000Y-93900000D01*
G75*
G02*
X150695000Y-93950000I0J-50000D01*
G01*
X150695000Y-94050000D01*
G75*
G02*
X150645000Y-94100000I-50000J0D01*
G01*
X149995000Y-94100000D01*
G75*
G02*
X149945000Y-94050000I0J50000D01*
G01*
X149945000Y-93950000D01*
G75*
G02*
X149995000Y-93900000I50000J0D01*
G01*
G37*
G36*
G01*
X149995000Y-94300000D02*
X150645000Y-94300000D01*
G75*
G02*
X150695000Y-94350000I0J-50000D01*
G01*
X150695000Y-94450000D01*
G75*
G02*
X150645000Y-94500000I-50000J0D01*
G01*
X149995000Y-94500000D01*
G75*
G02*
X149945000Y-94450000I0J50000D01*
G01*
X149945000Y-94350000D01*
G75*
G02*
X149995000Y-94300000I50000J0D01*
G01*
G37*
G36*
G01*
X149995000Y-94700000D02*
X150645000Y-94700000D01*
G75*
G02*
X150695000Y-94750000I0J-50000D01*
G01*
X150695000Y-94850000D01*
G75*
G02*
X150645000Y-94900000I-50000J0D01*
G01*
X149995000Y-94900000D01*
G75*
G02*
X149945000Y-94850000I0J50000D01*
G01*
X149945000Y-94750000D01*
G75*
G02*
X149995000Y-94700000I50000J0D01*
G01*
G37*
G36*
G01*
X149995000Y-95100000D02*
X150645000Y-95100000D01*
G75*
G02*
X150695000Y-95150000I0J-50000D01*
G01*
X150695000Y-95250000D01*
G75*
G02*
X150645000Y-95300000I-50000J0D01*
G01*
X149995000Y-95300000D01*
G75*
G02*
X149945000Y-95250000I0J50000D01*
G01*
X149945000Y-95150000D01*
G75*
G02*
X149995000Y-95100000I50000J0D01*
G01*
G37*
G36*
X150694231Y-95571235D02*
G01*
X150691955Y-95578738D01*
X150688259Y-95585654D01*
X150683284Y-95591715D01*
X150586715Y-95688284D01*
X150580654Y-95693259D01*
X150573738Y-95696955D01*
X150566235Y-95699231D01*
X150558431Y-95700000D01*
X149985000Y-95700000D01*
X149977196Y-95699231D01*
X149969693Y-95696955D01*
X149962777Y-95693259D01*
X149956716Y-95688284D01*
X149951741Y-95682223D01*
X149948045Y-95675307D01*
X149945769Y-95667804D01*
X149945000Y-95660000D01*
X149945000Y-95540000D01*
X149945769Y-95532196D01*
X149948045Y-95524693D01*
X149951741Y-95517777D01*
X149956716Y-95511716D01*
X149962777Y-95506741D01*
X149969693Y-95503045D01*
X149977196Y-95500769D01*
X149985000Y-95500000D01*
X150655000Y-95500000D01*
X150662804Y-95500769D01*
X150670307Y-95503045D01*
X150677223Y-95506741D01*
X150683284Y-95511716D01*
X150688259Y-95517777D01*
X150691955Y-95524693D01*
X150694231Y-95532196D01*
X150695000Y-95540000D01*
X150695000Y-95563431D01*
X150694231Y-95571235D01*
G37*
G36*
X150919231Y-96442804D02*
G01*
X150916955Y-96450307D01*
X150913259Y-96457223D01*
X150908284Y-96463284D01*
X150902223Y-96468259D01*
X150895307Y-96471955D01*
X150887804Y-96474231D01*
X150880000Y-96475000D01*
X150760000Y-96475000D01*
X150752196Y-96474231D01*
X150744693Y-96471955D01*
X150737777Y-96468259D01*
X150731716Y-96463284D01*
X150726741Y-96457223D01*
X150723045Y-96450307D01*
X150720769Y-96442804D01*
X150720000Y-96435000D01*
X150720000Y-95861569D01*
X150720769Y-95853765D01*
X150723045Y-95846262D01*
X150726741Y-95839346D01*
X150731716Y-95833285D01*
X150828285Y-95736716D01*
X150834346Y-95731741D01*
X150841262Y-95728045D01*
X150848765Y-95725769D01*
X150856569Y-95725000D01*
X150880000Y-95725000D01*
X150887804Y-95725769D01*
X150895307Y-95728045D01*
X150902223Y-95731741D01*
X150908284Y-95736716D01*
X150913259Y-95742777D01*
X150916955Y-95749693D01*
X150919231Y-95757196D01*
X150920000Y-95765000D01*
X150920000Y-96435000D01*
X150919231Y-96442804D01*
G37*
G36*
G01*
X151170000Y-95725000D02*
X151270000Y-95725000D01*
G75*
G02*
X151320000Y-95775000I0J-50000D01*
G01*
X151320000Y-96425000D01*
G75*
G02*
X151270000Y-96475000I-50000J0D01*
G01*
X151170000Y-96475000D01*
G75*
G02*
X151120000Y-96425000I0J50000D01*
G01*
X151120000Y-95775000D01*
G75*
G02*
X151170000Y-95725000I50000J0D01*
G01*
G37*
G36*
G01*
X151570000Y-95725000D02*
X151670000Y-95725000D01*
G75*
G02*
X151720000Y-95775000I0J-50000D01*
G01*
X151720000Y-96425000D01*
G75*
G02*
X151670000Y-96475000I-50000J0D01*
G01*
X151570000Y-96475000D01*
G75*
G02*
X151520000Y-96425000I0J50000D01*
G01*
X151520000Y-95775000D01*
G75*
G02*
X151570000Y-95725000I50000J0D01*
G01*
G37*
G36*
G01*
X151970000Y-95725000D02*
X152070000Y-95725000D01*
G75*
G02*
X152120000Y-95775000I0J-50000D01*
G01*
X152120000Y-96425000D01*
G75*
G02*
X152070000Y-96475000I-50000J0D01*
G01*
X151970000Y-96475000D01*
G75*
G02*
X151920000Y-96425000I0J50000D01*
G01*
X151920000Y-95775000D01*
G75*
G02*
X151970000Y-95725000I50000J0D01*
G01*
G37*
G36*
G01*
X152370000Y-95725000D02*
X152470000Y-95725000D01*
G75*
G02*
X152520000Y-95775000I0J-50000D01*
G01*
X152520000Y-96425000D01*
G75*
G02*
X152470000Y-96475000I-50000J0D01*
G01*
X152370000Y-96475000D01*
G75*
G02*
X152320000Y-96425000I0J50000D01*
G01*
X152320000Y-95775000D01*
G75*
G02*
X152370000Y-95725000I50000J0D01*
G01*
G37*
G36*
X152919231Y-96442804D02*
G01*
X152916955Y-96450307D01*
X152913259Y-96457223D01*
X152908284Y-96463284D01*
X152902223Y-96468259D01*
X152895307Y-96471955D01*
X152887804Y-96474231D01*
X152880000Y-96475000D01*
X152760000Y-96475000D01*
X152752196Y-96474231D01*
X152744693Y-96471955D01*
X152737777Y-96468259D01*
X152731716Y-96463284D01*
X152726741Y-96457223D01*
X152723045Y-96450307D01*
X152720769Y-96442804D01*
X152720000Y-96435000D01*
X152720000Y-95765000D01*
X152720769Y-95757196D01*
X152723045Y-95749693D01*
X152726741Y-95742777D01*
X152731716Y-95736716D01*
X152737777Y-95731741D01*
X152744693Y-95728045D01*
X152752196Y-95725769D01*
X152760000Y-95725000D01*
X152783431Y-95725000D01*
X152791235Y-95725769D01*
X152798738Y-95728045D01*
X152805654Y-95731741D01*
X152811715Y-95736716D01*
X152908284Y-95833285D01*
X152913259Y-95839346D01*
X152916955Y-95846262D01*
X152919231Y-95853765D01*
X152920000Y-95861569D01*
X152920000Y-96435000D01*
X152919231Y-96442804D01*
G37*
G36*
X153694231Y-95667804D02*
G01*
X153691955Y-95675307D01*
X153688259Y-95682223D01*
X153683284Y-95688284D01*
X153677223Y-95693259D01*
X153670307Y-95696955D01*
X153662804Y-95699231D01*
X153655000Y-95700000D01*
X153081569Y-95700000D01*
X153073765Y-95699231D01*
X153066262Y-95696955D01*
X153059346Y-95693259D01*
X153053285Y-95688284D01*
X152956716Y-95591715D01*
X152951741Y-95585654D01*
X152948045Y-95578738D01*
X152945769Y-95571235D01*
X152945000Y-95563431D01*
X152945000Y-95540000D01*
X152945769Y-95532196D01*
X152948045Y-95524693D01*
X152951741Y-95517777D01*
X152956716Y-95511716D01*
X152962777Y-95506741D01*
X152969693Y-95503045D01*
X152977196Y-95500769D01*
X152985000Y-95500000D01*
X153655000Y-95500000D01*
X153662804Y-95500769D01*
X153670307Y-95503045D01*
X153677223Y-95506741D01*
X153683284Y-95511716D01*
X153688259Y-95517777D01*
X153691955Y-95524693D01*
X153694231Y-95532196D01*
X153695000Y-95540000D01*
X153695000Y-95660000D01*
X153694231Y-95667804D01*
G37*
G36*
G01*
X152995000Y-95100000D02*
X153645000Y-95100000D01*
G75*
G02*
X153695000Y-95150000I0J-50000D01*
G01*
X153695000Y-95250000D01*
G75*
G02*
X153645000Y-95300000I-50000J0D01*
G01*
X152995000Y-95300000D01*
G75*
G02*
X152945000Y-95250000I0J50000D01*
G01*
X152945000Y-95150000D01*
G75*
G02*
X152995000Y-95100000I50000J0D01*
G01*
G37*
G36*
G01*
X152995000Y-94700000D02*
X153645000Y-94700000D01*
G75*
G02*
X153695000Y-94750000I0J-50000D01*
G01*
X153695000Y-94850000D01*
G75*
G02*
X153645000Y-94900000I-50000J0D01*
G01*
X152995000Y-94900000D01*
G75*
G02*
X152945000Y-94850000I0J50000D01*
G01*
X152945000Y-94750000D01*
G75*
G02*
X152995000Y-94700000I50000J0D01*
G01*
G37*
G36*
G01*
X152995000Y-94300000D02*
X153645000Y-94300000D01*
G75*
G02*
X153695000Y-94350000I0J-50000D01*
G01*
X153695000Y-94450000D01*
G75*
G02*
X153645000Y-94500000I-50000J0D01*
G01*
X152995000Y-94500000D01*
G75*
G02*
X152945000Y-94450000I0J50000D01*
G01*
X152945000Y-94350000D01*
G75*
G02*
X152995000Y-94300000I50000J0D01*
G01*
G37*
G36*
G01*
X152995000Y-93900000D02*
X153645000Y-93900000D01*
G75*
G02*
X153695000Y-93950000I0J-50000D01*
G01*
X153695000Y-94050000D01*
G75*
G02*
X153645000Y-94100000I-50000J0D01*
G01*
X152995000Y-94100000D01*
G75*
G02*
X152945000Y-94050000I0J50000D01*
G01*
X152945000Y-93950000D01*
G75*
G02*
X152995000Y-93900000I50000J0D01*
G01*
G37*
G36*
X153694231Y-93667804D02*
G01*
X153691955Y-93675307D01*
X153688259Y-93682223D01*
X153683284Y-93688284D01*
X153677223Y-93693259D01*
X153670307Y-93696955D01*
X153662804Y-93699231D01*
X153655000Y-93700000D01*
X152985000Y-93700000D01*
X152977196Y-93699231D01*
X152969693Y-93696955D01*
X152962777Y-93693259D01*
X152956716Y-93688284D01*
X152951741Y-93682223D01*
X152948045Y-93675307D01*
X152945769Y-93667804D01*
X152945000Y-93660000D01*
X152945000Y-93636569D01*
X152945769Y-93628765D01*
X152948045Y-93621262D01*
X152951741Y-93614346D01*
X152956716Y-93608285D01*
X153053285Y-93511716D01*
X153059346Y-93506741D01*
X153066262Y-93503045D01*
X153073765Y-93500769D01*
X153081569Y-93500000D01*
X153655000Y-93500000D01*
X153662804Y-93500769D01*
X153670307Y-93503045D01*
X153677223Y-93506741D01*
X153683284Y-93511716D01*
X153688259Y-93517777D01*
X153691955Y-93524693D01*
X153694231Y-93532196D01*
X153695000Y-93540000D01*
X153695000Y-93660000D01*
X153694231Y-93667804D01*
G37*
D12*
X151820000Y-94600000D03*
%TD*%
D13*
%TO.C,SP1*%
X157150000Y-79008400D03*
X160800000Y-79008400D03*
%TD*%
D14*
%TO.C,U5*%
X133700000Y-81500000D03*
X133700000Y-79800000D03*
X133700000Y-78100000D03*
D15*
X131450000Y-81500000D03*
X132550000Y-81500000D03*
X134850000Y-81500000D03*
X135950000Y-81500000D03*
X131450000Y-79800000D03*
X132550000Y-79800000D03*
X135950000Y-79800000D03*
X131450000Y-78100000D03*
X132550000Y-78100000D03*
X134850000Y-78100000D03*
X135950000Y-78100000D03*
%TD*%
%TO.C,22p1*%
G36*
G01*
X201370000Y-87167500D02*
X201370000Y-86692500D01*
G75*
G02*
X201607500Y-86455000I237500J0D01*
G01*
X202207500Y-86455000D01*
G75*
G02*
X202445000Y-86692500I0J-237500D01*
G01*
X202445000Y-87167500D01*
G75*
G02*
X202207500Y-87405000I-237500J0D01*
G01*
X201607500Y-87405000D01*
G75*
G02*
X201370000Y-87167500I0J237500D01*
G01*
G37*
G36*
G01*
X203095000Y-87167500D02*
X203095000Y-86692500D01*
G75*
G02*
X203332500Y-86455000I237500J0D01*
G01*
X203932500Y-86455000D01*
G75*
G02*
X204170000Y-86692500I0J-237500D01*
G01*
X204170000Y-87167500D01*
G75*
G02*
X203932500Y-87405000I-237500J0D01*
G01*
X203332500Y-87405000D01*
G75*
G02*
X203095000Y-87167500I0J237500D01*
G01*
G37*
%TD*%
%TO.C,22p2*%
G36*
G01*
X200380000Y-86692500D02*
X200380000Y-87167500D01*
G75*
G02*
X200142500Y-87405000I-237500J0D01*
G01*
X199542500Y-87405000D01*
G75*
G02*
X199305000Y-87167500I0J237500D01*
G01*
X199305000Y-86692500D01*
G75*
G02*
X199542500Y-86455000I237500J0D01*
G01*
X200142500Y-86455000D01*
G75*
G02*
X200380000Y-86692500I0J-237500D01*
G01*
G37*
G36*
G01*
X198655000Y-86692500D02*
X198655000Y-87167500D01*
G75*
G02*
X198417500Y-87405000I-237500J0D01*
G01*
X197817500Y-87405000D01*
G75*
G02*
X197580000Y-87167500I0J237500D01*
G01*
X197580000Y-86692500D01*
G75*
G02*
X197817500Y-86455000I237500J0D01*
G01*
X198417500Y-86455000D01*
G75*
G02*
X198655000Y-86692500I0J-237500D01*
G01*
G37*
%TD*%
%TO.C,22p3*%
G36*
G01*
X200380000Y-101662500D02*
X200380000Y-102137500D01*
G75*
G02*
X200142500Y-102375000I-237500J0D01*
G01*
X199542500Y-102375000D01*
G75*
G02*
X199305000Y-102137500I0J237500D01*
G01*
X199305000Y-101662500D01*
G75*
G02*
X199542500Y-101425000I237500J0D01*
G01*
X200142500Y-101425000D01*
G75*
G02*
X200380000Y-101662500I0J-237500D01*
G01*
G37*
G36*
G01*
X198655000Y-101662500D02*
X198655000Y-102137500D01*
G75*
G02*
X198417500Y-102375000I-237500J0D01*
G01*
X197817500Y-102375000D01*
G75*
G02*
X197580000Y-102137500I0J237500D01*
G01*
X197580000Y-101662500D01*
G75*
G02*
X197817500Y-101425000I237500J0D01*
G01*
X198417500Y-101425000D01*
G75*
G02*
X198655000Y-101662500I0J-237500D01*
G01*
G37*
%TD*%
%TO.C,22p4*%
G36*
G01*
X203095000Y-102137500D02*
X203095000Y-101662500D01*
G75*
G02*
X203332500Y-101425000I237500J0D01*
G01*
X203932500Y-101425000D01*
G75*
G02*
X204170000Y-101662500I0J-237500D01*
G01*
X204170000Y-102137500D01*
G75*
G02*
X203932500Y-102375000I-237500J0D01*
G01*
X203332500Y-102375000D01*
G75*
G02*
X203095000Y-102137500I0J237500D01*
G01*
G37*
G36*
G01*
X201370000Y-102137500D02*
X201370000Y-101662500D01*
G75*
G02*
X201607500Y-101425000I237500J0D01*
G01*
X202207500Y-101425000D01*
G75*
G02*
X202445000Y-101662500I0J-237500D01*
G01*
X202445000Y-102137500D01*
G75*
G02*
X202207500Y-102375000I-237500J0D01*
G01*
X201607500Y-102375000D01*
G75*
G02*
X201370000Y-102137500I0J237500D01*
G01*
G37*
%TD*%
%TO.C,C1*%
G36*
G01*
X175875000Y-59982500D02*
X175875000Y-60457500D01*
G75*
G02*
X175637500Y-60695000I-237500J0D01*
G01*
X175037500Y-60695000D01*
G75*
G02*
X174800000Y-60457500I0J237500D01*
G01*
X174800000Y-59982500D01*
G75*
G02*
X175037500Y-59745000I237500J0D01*
G01*
X175637500Y-59745000D01*
G75*
G02*
X175875000Y-59982500I0J-237500D01*
G01*
G37*
G36*
G01*
X177600000Y-59982500D02*
X177600000Y-60457500D01*
G75*
G02*
X177362500Y-60695000I-237500J0D01*
G01*
X176762500Y-60695000D01*
G75*
G02*
X176525000Y-60457500I0J237500D01*
G01*
X176525000Y-59982500D01*
G75*
G02*
X176762500Y-59745000I237500J0D01*
G01*
X177362500Y-59745000D01*
G75*
G02*
X177600000Y-59982500I0J-237500D01*
G01*
G37*
%TD*%
%TO.C,C2*%
G36*
G01*
X175875000Y-62242500D02*
X175875000Y-62717500D01*
G75*
G02*
X175637500Y-62955000I-237500J0D01*
G01*
X175037500Y-62955000D01*
G75*
G02*
X174800000Y-62717500I0J237500D01*
G01*
X174800000Y-62242500D01*
G75*
G02*
X175037500Y-62005000I237500J0D01*
G01*
X175637500Y-62005000D01*
G75*
G02*
X175875000Y-62242500I0J-237500D01*
G01*
G37*
G36*
G01*
X177600000Y-62242500D02*
X177600000Y-62717500D01*
G75*
G02*
X177362500Y-62955000I-237500J0D01*
G01*
X176762500Y-62955000D01*
G75*
G02*
X176525000Y-62717500I0J237500D01*
G01*
X176525000Y-62242500D01*
G75*
G02*
X176762500Y-62005000I237500J0D01*
G01*
X177362500Y-62005000D01*
G75*
G02*
X177600000Y-62242500I0J-237500D01*
G01*
G37*
%TD*%
%TO.C,C3*%
G36*
G01*
X175895000Y-126092500D02*
X175895000Y-126567500D01*
G75*
G02*
X175657500Y-126805000I-237500J0D01*
G01*
X175057500Y-126805000D01*
G75*
G02*
X174820000Y-126567500I0J237500D01*
G01*
X174820000Y-126092500D01*
G75*
G02*
X175057500Y-125855000I237500J0D01*
G01*
X175657500Y-125855000D01*
G75*
G02*
X175895000Y-126092500I0J-237500D01*
G01*
G37*
G36*
G01*
X177620000Y-126092500D02*
X177620000Y-126567500D01*
G75*
G02*
X177382500Y-126805000I-237500J0D01*
G01*
X176782500Y-126805000D01*
G75*
G02*
X176545000Y-126567500I0J237500D01*
G01*
X176545000Y-126092500D01*
G75*
G02*
X176782500Y-125855000I237500J0D01*
G01*
X177382500Y-125855000D01*
G75*
G02*
X177620000Y-126092500I0J-237500D01*
G01*
G37*
%TD*%
%TO.C,C4*%
G36*
G01*
X175895000Y-128452500D02*
X175895000Y-128927500D01*
G75*
G02*
X175657500Y-129165000I-237500J0D01*
G01*
X175057500Y-129165000D01*
G75*
G02*
X174820000Y-128927500I0J237500D01*
G01*
X174820000Y-128452500D01*
G75*
G02*
X175057500Y-128215000I237500J0D01*
G01*
X175657500Y-128215000D01*
G75*
G02*
X175895000Y-128452500I0J-237500D01*
G01*
G37*
G36*
G01*
X177620000Y-128452500D02*
X177620000Y-128927500D01*
G75*
G02*
X177382500Y-129165000I-237500J0D01*
G01*
X176782500Y-129165000D01*
G75*
G02*
X176545000Y-128927500I0J237500D01*
G01*
X176545000Y-128452500D01*
G75*
G02*
X176782500Y-128215000I237500J0D01*
G01*
X177382500Y-128215000D01*
G75*
G02*
X177620000Y-128452500I0J-237500D01*
G01*
G37*
%TD*%
%TO.C,C5*%
G36*
G01*
X150802500Y-105310000D02*
X151277500Y-105310000D01*
G75*
G02*
X151515000Y-105547500I0J-237500D01*
G01*
X151515000Y-106147500D01*
G75*
G02*
X151277500Y-106385000I-237500J0D01*
G01*
X150802500Y-106385000D01*
G75*
G02*
X150565000Y-106147500I0J237500D01*
G01*
X150565000Y-105547500D01*
G75*
G02*
X150802500Y-105310000I237500J0D01*
G01*
G37*
G36*
G01*
X150802500Y-107035000D02*
X151277500Y-107035000D01*
G75*
G02*
X151515000Y-107272500I0J-237500D01*
G01*
X151515000Y-107872500D01*
G75*
G02*
X151277500Y-108110000I-237500J0D01*
G01*
X150802500Y-108110000D01*
G75*
G02*
X150565000Y-107872500I0J237500D01*
G01*
X150565000Y-107272500D01*
G75*
G02*
X150802500Y-107035000I237500J0D01*
G01*
G37*
%TD*%
%TO.C,C6*%
G36*
G01*
X152325000Y-100837500D02*
X152325000Y-100362500D01*
G75*
G02*
X152562500Y-100125000I237500J0D01*
G01*
X153162500Y-100125000D01*
G75*
G02*
X153400000Y-100362500I0J-237500D01*
G01*
X153400000Y-100837500D01*
G75*
G02*
X153162500Y-101075000I-237500J0D01*
G01*
X152562500Y-101075000D01*
G75*
G02*
X152325000Y-100837500I0J237500D01*
G01*
G37*
G36*
G01*
X150600000Y-100837500D02*
X150600000Y-100362500D01*
G75*
G02*
X150837500Y-100125000I237500J0D01*
G01*
X151437500Y-100125000D01*
G75*
G02*
X151675000Y-100362500I0J-237500D01*
G01*
X151675000Y-100837500D01*
G75*
G02*
X151437500Y-101075000I-237500J0D01*
G01*
X150837500Y-101075000D01*
G75*
G02*
X150600000Y-100837500I0J237500D01*
G01*
G37*
%TD*%
%TO.C,C7*%
G36*
G01*
X147287500Y-93750000D02*
X146812500Y-93750000D01*
G75*
G02*
X146575000Y-93512500I0J237500D01*
G01*
X146575000Y-92912500D01*
G75*
G02*
X146812500Y-92675000I237500J0D01*
G01*
X147287500Y-92675000D01*
G75*
G02*
X147525000Y-92912500I0J-237500D01*
G01*
X147525000Y-93512500D01*
G75*
G02*
X147287500Y-93750000I-237500J0D01*
G01*
G37*
G36*
G01*
X147287500Y-92025000D02*
X146812500Y-92025000D01*
G75*
G02*
X146575000Y-91787500I0J237500D01*
G01*
X146575000Y-91187500D01*
G75*
G02*
X146812500Y-90950000I237500J0D01*
G01*
X147287500Y-90950000D01*
G75*
G02*
X147525000Y-91187500I0J-237500D01*
G01*
X147525000Y-91787500D01*
G75*
G02*
X147287500Y-92025000I-237500J0D01*
G01*
G37*
%TD*%
%TO.C,C8*%
G36*
G01*
X129162500Y-77300000D02*
X129637500Y-77300000D01*
G75*
G02*
X129875000Y-77537500I0J-237500D01*
G01*
X129875000Y-78137500D01*
G75*
G02*
X129637500Y-78375000I-237500J0D01*
G01*
X129162500Y-78375000D01*
G75*
G02*
X128925000Y-78137500I0J237500D01*
G01*
X128925000Y-77537500D01*
G75*
G02*
X129162500Y-77300000I237500J0D01*
G01*
G37*
G36*
G01*
X129162500Y-79025000D02*
X129637500Y-79025000D01*
G75*
G02*
X129875000Y-79262500I0J-237500D01*
G01*
X129875000Y-79862500D01*
G75*
G02*
X129637500Y-80100000I-237500J0D01*
G01*
X129162500Y-80100000D01*
G75*
G02*
X128925000Y-79862500I0J237500D01*
G01*
X128925000Y-79262500D01*
G75*
G02*
X129162500Y-79025000I237500J0D01*
G01*
G37*
%TD*%
%TO.C,C9*%
G36*
G01*
X146812500Y-98875000D02*
X147287500Y-98875000D01*
G75*
G02*
X147525000Y-99112500I0J-237500D01*
G01*
X147525000Y-99712500D01*
G75*
G02*
X147287500Y-99950000I-237500J0D01*
G01*
X146812500Y-99950000D01*
G75*
G02*
X146575000Y-99712500I0J237500D01*
G01*
X146575000Y-99112500D01*
G75*
G02*
X146812500Y-98875000I237500J0D01*
G01*
G37*
G36*
G01*
X146812500Y-97150000D02*
X147287500Y-97150000D01*
G75*
G02*
X147525000Y-97387500I0J-237500D01*
G01*
X147525000Y-97987500D01*
G75*
G02*
X147287500Y-98225000I-237500J0D01*
G01*
X146812500Y-98225000D01*
G75*
G02*
X146575000Y-97987500I0J237500D01*
G01*
X146575000Y-97387500D01*
G75*
G02*
X146812500Y-97150000I237500J0D01*
G01*
G37*
%TD*%
%TO.C,C10*%
G36*
G01*
X151277500Y-111860000D02*
X150802500Y-111860000D01*
G75*
G02*
X150565000Y-111622500I0J237500D01*
G01*
X150565000Y-111022500D01*
G75*
G02*
X150802500Y-110785000I237500J0D01*
G01*
X151277500Y-110785000D01*
G75*
G02*
X151515000Y-111022500I0J-237500D01*
G01*
X151515000Y-111622500D01*
G75*
G02*
X151277500Y-111860000I-237500J0D01*
G01*
G37*
G36*
G01*
X151277500Y-110135000D02*
X150802500Y-110135000D01*
G75*
G02*
X150565000Y-109897500I0J237500D01*
G01*
X150565000Y-109297500D01*
G75*
G02*
X150802500Y-109060000I237500J0D01*
G01*
X151277500Y-109060000D01*
G75*
G02*
X151515000Y-109297500I0J-237500D01*
G01*
X151515000Y-109897500D01*
G75*
G02*
X151277500Y-110135000I-237500J0D01*
G01*
G37*
%TD*%
%TO.C,C11*%
G36*
G01*
X161287500Y-110135000D02*
X160812500Y-110135000D01*
G75*
G02*
X160575000Y-109897500I0J237500D01*
G01*
X160575000Y-109297500D01*
G75*
G02*
X160812500Y-109060000I237500J0D01*
G01*
X161287500Y-109060000D01*
G75*
G02*
X161525000Y-109297500I0J-237500D01*
G01*
X161525000Y-109897500D01*
G75*
G02*
X161287500Y-110135000I-237500J0D01*
G01*
G37*
G36*
G01*
X161287500Y-111860000D02*
X160812500Y-111860000D01*
G75*
G02*
X160575000Y-111622500I0J237500D01*
G01*
X160575000Y-111022500D01*
G75*
G02*
X160812500Y-110785000I237500J0D01*
G01*
X161287500Y-110785000D01*
G75*
G02*
X161525000Y-111022500I0J-237500D01*
G01*
X161525000Y-111622500D01*
G75*
G02*
X161287500Y-111860000I-237500J0D01*
G01*
G37*
%TD*%
%TO.C,C12*%
G36*
G01*
X147362500Y-78948400D02*
X147837500Y-78948400D01*
G75*
G02*
X148075000Y-79185900I0J-237500D01*
G01*
X148075000Y-79785900D01*
G75*
G02*
X147837500Y-80023400I-237500J0D01*
G01*
X147362500Y-80023400D01*
G75*
G02*
X147125000Y-79785900I0J237500D01*
G01*
X147125000Y-79185900D01*
G75*
G02*
X147362500Y-78948400I237500J0D01*
G01*
G37*
G36*
G01*
X147362500Y-77223400D02*
X147837500Y-77223400D01*
G75*
G02*
X148075000Y-77460900I0J-237500D01*
G01*
X148075000Y-78060900D01*
G75*
G02*
X147837500Y-78298400I-237500J0D01*
G01*
X147362500Y-78298400D01*
G75*
G02*
X147125000Y-78060900I0J237500D01*
G01*
X147125000Y-77460900D01*
G75*
G02*
X147362500Y-77223400I237500J0D01*
G01*
G37*
%TD*%
%TO.C,C13*%
G36*
G01*
X149472500Y-77223400D02*
X149947500Y-77223400D01*
G75*
G02*
X150185000Y-77460900I0J-237500D01*
G01*
X150185000Y-78060900D01*
G75*
G02*
X149947500Y-78298400I-237500J0D01*
G01*
X149472500Y-78298400D01*
G75*
G02*
X149235000Y-78060900I0J237500D01*
G01*
X149235000Y-77460900D01*
G75*
G02*
X149472500Y-77223400I237500J0D01*
G01*
G37*
G36*
G01*
X149472500Y-78948400D02*
X149947500Y-78948400D01*
G75*
G02*
X150185000Y-79185900I0J-237500D01*
G01*
X150185000Y-79785900D01*
G75*
G02*
X149947500Y-80023400I-237500J0D01*
G01*
X149472500Y-80023400D01*
G75*
G02*
X149235000Y-79785900I0J237500D01*
G01*
X149235000Y-79185900D01*
G75*
G02*
X149472500Y-78948400I237500J0D01*
G01*
G37*
%TD*%
%TO.C,C14*%
G36*
G01*
X166217500Y-111860000D02*
X165742500Y-111860000D01*
G75*
G02*
X165505000Y-111622500I0J237500D01*
G01*
X165505000Y-111022500D01*
G75*
G02*
X165742500Y-110785000I237500J0D01*
G01*
X166217500Y-110785000D01*
G75*
G02*
X166455000Y-111022500I0J-237500D01*
G01*
X166455000Y-111622500D01*
G75*
G02*
X166217500Y-111860000I-237500J0D01*
G01*
G37*
G36*
G01*
X166217500Y-110135000D02*
X165742500Y-110135000D01*
G75*
G02*
X165505000Y-109897500I0J237500D01*
G01*
X165505000Y-109297500D01*
G75*
G02*
X165742500Y-109060000I237500J0D01*
G01*
X166217500Y-109060000D01*
G75*
G02*
X166455000Y-109297500I0J-237500D01*
G01*
X166455000Y-109897500D01*
G75*
G02*
X166217500Y-110135000I-237500J0D01*
G01*
G37*
%TD*%
%TO.C,C15*%
G36*
G01*
X111300000Y-126692500D02*
X111300000Y-127167500D01*
G75*
G02*
X111062500Y-127405000I-237500J0D01*
G01*
X110462500Y-127405000D01*
G75*
G02*
X110225000Y-127167500I0J237500D01*
G01*
X110225000Y-126692500D01*
G75*
G02*
X110462500Y-126455000I237500J0D01*
G01*
X111062500Y-126455000D01*
G75*
G02*
X111300000Y-126692500I0J-237500D01*
G01*
G37*
G36*
G01*
X109575000Y-126692500D02*
X109575000Y-127167500D01*
G75*
G02*
X109337500Y-127405000I-237500J0D01*
G01*
X108737500Y-127405000D01*
G75*
G02*
X108500000Y-127167500I0J237500D01*
G01*
X108500000Y-126692500D01*
G75*
G02*
X108737500Y-126455000I237500J0D01*
G01*
X109337500Y-126455000D01*
G75*
G02*
X109575000Y-126692500I0J-237500D01*
G01*
G37*
%TD*%
%TO.C,C16*%
G36*
G01*
X129980000Y-81312500D02*
X129980000Y-81787500D01*
G75*
G02*
X129742500Y-82025000I-237500J0D01*
G01*
X129142500Y-82025000D01*
G75*
G02*
X128905000Y-81787500I0J237500D01*
G01*
X128905000Y-81312500D01*
G75*
G02*
X129142500Y-81075000I237500J0D01*
G01*
X129742500Y-81075000D01*
G75*
G02*
X129980000Y-81312500I0J-237500D01*
G01*
G37*
G36*
G01*
X128255000Y-81312500D02*
X128255000Y-81787500D01*
G75*
G02*
X128017500Y-82025000I-237500J0D01*
G01*
X127417500Y-82025000D01*
G75*
G02*
X127180000Y-81787500I0J237500D01*
G01*
X127180000Y-81312500D01*
G75*
G02*
X127417500Y-81075000I237500J0D01*
G01*
X128017500Y-81075000D01*
G75*
G02*
X128255000Y-81312500I0J-237500D01*
G01*
G37*
%TD*%
%TO.C,C17*%
G36*
G01*
X129300000Y-105462500D02*
X129300000Y-105937500D01*
G75*
G02*
X129062500Y-106175000I-237500J0D01*
G01*
X128462500Y-106175000D01*
G75*
G02*
X128225000Y-105937500I0J237500D01*
G01*
X128225000Y-105462500D01*
G75*
G02*
X128462500Y-105225000I237500J0D01*
G01*
X129062500Y-105225000D01*
G75*
G02*
X129300000Y-105462500I0J-237500D01*
G01*
G37*
G36*
G01*
X127575000Y-105462500D02*
X127575000Y-105937500D01*
G75*
G02*
X127337500Y-106175000I-237500J0D01*
G01*
X126737500Y-106175000D01*
G75*
G02*
X126500000Y-105937500I0J237500D01*
G01*
X126500000Y-105462500D01*
G75*
G02*
X126737500Y-105225000I237500J0D01*
G01*
X127337500Y-105225000D01*
G75*
G02*
X127575000Y-105462500I0J-237500D01*
G01*
G37*
%TD*%
%TO.C,C18*%
G36*
G01*
X139062500Y-85550000D02*
X139537500Y-85550000D01*
G75*
G02*
X139775000Y-85787500I0J-237500D01*
G01*
X139775000Y-86387500D01*
G75*
G02*
X139537500Y-86625000I-237500J0D01*
G01*
X139062500Y-86625000D01*
G75*
G02*
X138825000Y-86387500I0J237500D01*
G01*
X138825000Y-85787500D01*
G75*
G02*
X139062500Y-85550000I237500J0D01*
G01*
G37*
G36*
G01*
X139062500Y-87275000D02*
X139537500Y-87275000D01*
G75*
G02*
X139775000Y-87512500I0J-237500D01*
G01*
X139775000Y-88112500D01*
G75*
G02*
X139537500Y-88350000I-237500J0D01*
G01*
X139062500Y-88350000D01*
G75*
G02*
X138825000Y-88112500I0J237500D01*
G01*
X138825000Y-87512500D01*
G75*
G02*
X139062500Y-87275000I237500J0D01*
G01*
G37*
%TD*%
%TO.C,C19*%
G36*
G01*
X118762500Y-94825000D02*
X119237500Y-94825000D01*
G75*
G02*
X119475000Y-95062500I0J-237500D01*
G01*
X119475000Y-95662500D01*
G75*
G02*
X119237500Y-95900000I-237500J0D01*
G01*
X118762500Y-95900000D01*
G75*
G02*
X118525000Y-95662500I0J237500D01*
G01*
X118525000Y-95062500D01*
G75*
G02*
X118762500Y-94825000I237500J0D01*
G01*
G37*
G36*
G01*
X118762500Y-93100000D02*
X119237500Y-93100000D01*
G75*
G02*
X119475000Y-93337500I0J-237500D01*
G01*
X119475000Y-93937500D01*
G75*
G02*
X119237500Y-94175000I-237500J0D01*
G01*
X118762500Y-94175000D01*
G75*
G02*
X118525000Y-93937500I0J237500D01*
G01*
X118525000Y-93337500D01*
G75*
G02*
X118762500Y-93100000I237500J0D01*
G01*
G37*
%TD*%
%TO.C,C20*%
G36*
G01*
X124032500Y-105920000D02*
X124507500Y-105920000D01*
G75*
G02*
X124745000Y-106157500I0J-237500D01*
G01*
X124745000Y-106757500D01*
G75*
G02*
X124507500Y-106995000I-237500J0D01*
G01*
X124032500Y-106995000D01*
G75*
G02*
X123795000Y-106757500I0J237500D01*
G01*
X123795000Y-106157500D01*
G75*
G02*
X124032500Y-105920000I237500J0D01*
G01*
G37*
G36*
G01*
X124032500Y-107645000D02*
X124507500Y-107645000D01*
G75*
G02*
X124745000Y-107882500I0J-237500D01*
G01*
X124745000Y-108482500D01*
G75*
G02*
X124507500Y-108720000I-237500J0D01*
G01*
X124032500Y-108720000D01*
G75*
G02*
X123795000Y-108482500I0J237500D01*
G01*
X123795000Y-107882500D01*
G75*
G02*
X124032500Y-107645000I237500J0D01*
G01*
G37*
%TD*%
%TO.C,C21*%
G36*
G01*
X120877500Y-94175000D02*
X120402500Y-94175000D01*
G75*
G02*
X120165000Y-93937500I0J237500D01*
G01*
X120165000Y-93337500D01*
G75*
G02*
X120402500Y-93100000I237500J0D01*
G01*
X120877500Y-93100000D01*
G75*
G02*
X121115000Y-93337500I0J-237500D01*
G01*
X121115000Y-93937500D01*
G75*
G02*
X120877500Y-94175000I-237500J0D01*
G01*
G37*
G36*
G01*
X120877500Y-95900000D02*
X120402500Y-95900000D01*
G75*
G02*
X120165000Y-95662500I0J237500D01*
G01*
X120165000Y-95062500D01*
G75*
G02*
X120402500Y-94825000I237500J0D01*
G01*
X120877500Y-94825000D01*
G75*
G02*
X121115000Y-95062500I0J-237500D01*
G01*
X121115000Y-95662500D01*
G75*
G02*
X120877500Y-95900000I-237500J0D01*
G01*
G37*
%TD*%
%TO.C,C22*%
G36*
G01*
X128255000Y-82922500D02*
X128255000Y-83397500D01*
G75*
G02*
X128017500Y-83635000I-237500J0D01*
G01*
X127417500Y-83635000D01*
G75*
G02*
X127180000Y-83397500I0J237500D01*
G01*
X127180000Y-82922500D01*
G75*
G02*
X127417500Y-82685000I237500J0D01*
G01*
X128017500Y-82685000D01*
G75*
G02*
X128255000Y-82922500I0J-237500D01*
G01*
G37*
G36*
G01*
X129980000Y-82922500D02*
X129980000Y-83397500D01*
G75*
G02*
X129742500Y-83635000I-237500J0D01*
G01*
X129142500Y-83635000D01*
G75*
G02*
X128905000Y-83397500I0J237500D01*
G01*
X128905000Y-82922500D01*
G75*
G02*
X129142500Y-82685000I237500J0D01*
G01*
X129742500Y-82685000D01*
G75*
G02*
X129980000Y-82922500I0J-237500D01*
G01*
G37*
%TD*%
%TO.C,C23*%
G36*
G01*
X139012500Y-102475000D02*
X139487500Y-102475000D01*
G75*
G02*
X139725000Y-102712500I0J-237500D01*
G01*
X139725000Y-103312500D01*
G75*
G02*
X139487500Y-103550000I-237500J0D01*
G01*
X139012500Y-103550000D01*
G75*
G02*
X138775000Y-103312500I0J237500D01*
G01*
X138775000Y-102712500D01*
G75*
G02*
X139012500Y-102475000I237500J0D01*
G01*
G37*
G36*
G01*
X139012500Y-100750000D02*
X139487500Y-100750000D01*
G75*
G02*
X139725000Y-100987500I0J-237500D01*
G01*
X139725000Y-101587500D01*
G75*
G02*
X139487500Y-101825000I-237500J0D01*
G01*
X139012500Y-101825000D01*
G75*
G02*
X138775000Y-101587500I0J237500D01*
G01*
X138775000Y-100987500D01*
G75*
G02*
X139012500Y-100750000I237500J0D01*
G01*
G37*
%TD*%
%TO.C,D1*%
G36*
G01*
X171765780Y-68065860D02*
X171765780Y-68065860D01*
G75*
G02*
X170682429Y-67156821I-87156J996195D01*
G01*
X170682429Y-67156821D01*
G75*
G02*
X171591468Y-66073470I996195J87156D01*
G01*
X171591468Y-66073470D01*
G75*
G02*
X172674819Y-66982509I87156J-996195D01*
G01*
X172674819Y-66982509D01*
G75*
G02*
X171765780Y-68065860I-996195J-87156D01*
G01*
G37*
D11*
G36*
X172983350Y-70509039D02*
G01*
X170990961Y-70683350D01*
X170816650Y-68690961D01*
X172809039Y-68516650D01*
X172983350Y-70509039D01*
G37*
%TD*%
%TO.C,D2*%
G36*
X190314214Y-86900000D02*
G01*
X188900000Y-88314214D01*
X187485786Y-86900000D01*
X188900000Y-85485786D01*
X190314214Y-86900000D01*
G37*
G36*
G01*
X187811056Y-85811056D02*
X187811056Y-85811056D01*
G75*
G02*
X186396842Y-85811056I-707107J707107D01*
G01*
X186396842Y-85811056D01*
G75*
G02*
X186396842Y-84396842I707107J707107D01*
G01*
X186396842Y-84396842D01*
G75*
G02*
X187811056Y-84396842I707107J-707107D01*
G01*
X187811056Y-84396842D01*
G75*
G02*
X187811056Y-85811056I-707107J-707107D01*
G01*
G37*
%TD*%
%TO.C,D3*%
G36*
X187300000Y-105114214D02*
G01*
X185885786Y-103700000D01*
X187300000Y-102285786D01*
X188714214Y-103700000D01*
X187300000Y-105114214D01*
G37*
G36*
G01*
X188388944Y-102611056D02*
X188388944Y-102611056D01*
G75*
G02*
X188388944Y-101196842I707107J707107D01*
G01*
X188388944Y-101196842D01*
G75*
G02*
X189803158Y-101196842I707107J-707107D01*
G01*
X189803158Y-101196842D01*
G75*
G02*
X189803158Y-102611056I-707107J-707107D01*
G01*
X189803158Y-102611056D01*
G75*
G02*
X188388944Y-102611056I-707107J707107D01*
G01*
G37*
%TD*%
%TO.C,D4*%
G36*
G01*
X171834220Y-120265860D02*
X171834220Y-120265860D01*
G75*
G02*
X170925181Y-119182509I87156J996195D01*
G01*
X170925181Y-119182509D01*
G75*
G02*
X172008532Y-118273470I996195J-87156D01*
G01*
X172008532Y-118273470D01*
G75*
G02*
X172917571Y-119356821I-87156J-996195D01*
G01*
X172917571Y-119356821D01*
G75*
G02*
X171834220Y-120265860I-996195J87156D01*
G01*
G37*
G36*
X172609039Y-122883350D02*
G01*
X170616650Y-122709039D01*
X170790961Y-120716650D01*
X172783350Y-120890961D01*
X172609039Y-122883350D01*
G37*
%TD*%
%TO.C,D5*%
G36*
G01*
X190211056Y-83511056D02*
X190211056Y-83511056D01*
G75*
G02*
X188796842Y-83511056I-707107J707107D01*
G01*
X188796842Y-83511056D01*
G75*
G02*
X188796842Y-82096842I707107J707107D01*
G01*
X188796842Y-82096842D01*
G75*
G02*
X190211056Y-82096842I707107J-707107D01*
G01*
X190211056Y-82096842D01*
G75*
G02*
X190211056Y-83511056I-707107J-707107D01*
G01*
G37*
G36*
X192714214Y-84600000D02*
G01*
X191300000Y-86014214D01*
X189885786Y-84600000D01*
X191300000Y-83185786D01*
X192714214Y-84600000D01*
G37*
%TD*%
%TO.C,D6*%
G36*
X189700000Y-107514214D02*
G01*
X188285786Y-106100000D01*
X189700000Y-104685786D01*
X191114214Y-106100000D01*
X189700000Y-107514214D01*
G37*
G36*
G01*
X190788944Y-105011056D02*
X190788944Y-105011056D01*
G75*
G02*
X190788944Y-103596842I707107J707107D01*
G01*
X190788944Y-103596842D01*
G75*
G02*
X192203158Y-103596842I707107J-707107D01*
G01*
X192203158Y-103596842D01*
G75*
G02*
X192203158Y-105011056I-707107J-707107D01*
G01*
X192203158Y-105011056D01*
G75*
G02*
X190788944Y-105011056I-707107J707107D01*
G01*
G37*
%TD*%
%TO.C,D7*%
G36*
X176283350Y-70209039D02*
G01*
X174290961Y-70383350D01*
X174116650Y-68390961D01*
X176109039Y-68216650D01*
X176283350Y-70209039D01*
G37*
G36*
G01*
X175065780Y-67765860D02*
X175065780Y-67765860D01*
G75*
G02*
X173982429Y-66856821I-87156J996195D01*
G01*
X173982429Y-66856821D01*
G75*
G02*
X174891468Y-65773470I996195J87156D01*
G01*
X174891468Y-65773470D01*
G75*
G02*
X175974819Y-66682509I87156J-996195D01*
G01*
X175974819Y-66682509D01*
G75*
G02*
X175065780Y-67765860I-996195J-87156D01*
G01*
G37*
%TD*%
%TO.C,D8*%
G36*
G01*
X175134220Y-120565860D02*
X175134220Y-120565860D01*
G75*
G02*
X174225181Y-119482509I87156J996195D01*
G01*
X174225181Y-119482509D01*
G75*
G02*
X175308532Y-118573470I996195J-87156D01*
G01*
X175308532Y-118573470D01*
G75*
G02*
X176217571Y-119656821I-87156J-996195D01*
G01*
X176217571Y-119656821D01*
G75*
G02*
X175134220Y-120565860I-996195J87156D01*
G01*
G37*
G36*
X175909039Y-123183350D02*
G01*
X173916650Y-123009039D01*
X174090961Y-121016650D01*
X176083350Y-121190961D01*
X175909039Y-123183350D01*
G37*
%TD*%
%TO.C,D9*%
G36*
G01*
X123060000Y-73722500D02*
X123060000Y-74197500D01*
G75*
G02*
X122822500Y-74435000I-237500J0D01*
G01*
X122247500Y-74435000D01*
G75*
G02*
X122010000Y-74197500I0J237500D01*
G01*
X122010000Y-73722500D01*
G75*
G02*
X122247500Y-73485000I237500J0D01*
G01*
X122822500Y-73485000D01*
G75*
G02*
X123060000Y-73722500I0J-237500D01*
G01*
G37*
G36*
G01*
X121310000Y-73722500D02*
X121310000Y-74197500D01*
G75*
G02*
X121072500Y-74435000I-237500J0D01*
G01*
X120497500Y-74435000D01*
G75*
G02*
X120260000Y-74197500I0J237500D01*
G01*
X120260000Y-73722500D01*
G75*
G02*
X120497500Y-73485000I237500J0D01*
G01*
X121072500Y-73485000D01*
G75*
G02*
X121310000Y-73722500I0J-237500D01*
G01*
G37*
%TD*%
%TO.C,D10*%
G36*
G01*
X124100000Y-112142500D02*
X124100000Y-112617500D01*
G75*
G02*
X123862500Y-112855000I-237500J0D01*
G01*
X123287500Y-112855000D01*
G75*
G02*
X123050000Y-112617500I0J237500D01*
G01*
X123050000Y-112142500D01*
G75*
G02*
X123287500Y-111905000I237500J0D01*
G01*
X123862500Y-111905000D01*
G75*
G02*
X124100000Y-112142500I0J-237500D01*
G01*
G37*
G36*
G01*
X122350000Y-112142500D02*
X122350000Y-112617500D01*
G75*
G02*
X122112500Y-112855000I-237500J0D01*
G01*
X121537500Y-112855000D01*
G75*
G02*
X121300000Y-112617500I0J237500D01*
G01*
X121300000Y-112142500D01*
G75*
G02*
X121537500Y-111905000I237500J0D01*
G01*
X122112500Y-111905000D01*
G75*
G02*
X122350000Y-112142500I0J-237500D01*
G01*
G37*
%TD*%
%TO.C,D11*%
G36*
G01*
X122350000Y-115042500D02*
X122350000Y-115517500D01*
G75*
G02*
X122112500Y-115755000I-237500J0D01*
G01*
X121537500Y-115755000D01*
G75*
G02*
X121300000Y-115517500I0J237500D01*
G01*
X121300000Y-115042500D01*
G75*
G02*
X121537500Y-114805000I237500J0D01*
G01*
X122112500Y-114805000D01*
G75*
G02*
X122350000Y-115042500I0J-237500D01*
G01*
G37*
G36*
G01*
X124100000Y-115042500D02*
X124100000Y-115517500D01*
G75*
G02*
X123862500Y-115755000I-237500J0D01*
G01*
X123287500Y-115755000D01*
G75*
G02*
X123050000Y-115517500I0J237500D01*
G01*
X123050000Y-115042500D01*
G75*
G02*
X123287500Y-114805000I237500J0D01*
G01*
X123862500Y-114805000D01*
G75*
G02*
X124100000Y-115042500I0J-237500D01*
G01*
G37*
%TD*%
%TO.C,D12*%
G36*
G01*
X172450000Y-73637500D02*
X172450000Y-73162500D01*
G75*
G02*
X172687500Y-72925000I237500J0D01*
G01*
X173262500Y-72925000D01*
G75*
G02*
X173500000Y-73162500I0J-237500D01*
G01*
X173500000Y-73637500D01*
G75*
G02*
X173262500Y-73875000I-237500J0D01*
G01*
X172687500Y-73875000D01*
G75*
G02*
X172450000Y-73637500I0J237500D01*
G01*
G37*
G36*
G01*
X170700000Y-73637500D02*
X170700000Y-73162500D01*
G75*
G02*
X170937500Y-72925000I237500J0D01*
G01*
X171512500Y-72925000D01*
G75*
G02*
X171750000Y-73162500I0J-237500D01*
G01*
X171750000Y-73637500D01*
G75*
G02*
X171512500Y-73875000I-237500J0D01*
G01*
X170937500Y-73875000D01*
G75*
G02*
X170700000Y-73637500I0J237500D01*
G01*
G37*
%TD*%
%TO.C,D13*%
G36*
G01*
X184800000Y-78362500D02*
X184800000Y-78837500D01*
G75*
G02*
X184562500Y-79075000I-237500J0D01*
G01*
X183987500Y-79075000D01*
G75*
G02*
X183750000Y-78837500I0J237500D01*
G01*
X183750000Y-78362500D01*
G75*
G02*
X183987500Y-78125000I237500J0D01*
G01*
X184562500Y-78125000D01*
G75*
G02*
X184800000Y-78362500I0J-237500D01*
G01*
G37*
G36*
G01*
X183050000Y-78362500D02*
X183050000Y-78837500D01*
G75*
G02*
X182812500Y-79075000I-237500J0D01*
G01*
X182237500Y-79075000D01*
G75*
G02*
X182000000Y-78837500I0J237500D01*
G01*
X182000000Y-78362500D01*
G75*
G02*
X182237500Y-78125000I237500J0D01*
G01*
X182812500Y-78125000D01*
G75*
G02*
X183050000Y-78362500I0J-237500D01*
G01*
G37*
%TD*%
%TO.C,D14*%
G36*
G01*
X182045000Y-110787500D02*
X182045000Y-110312500D01*
G75*
G02*
X182282500Y-110075000I237500J0D01*
G01*
X182857500Y-110075000D01*
G75*
G02*
X183095000Y-110312500I0J-237500D01*
G01*
X183095000Y-110787500D01*
G75*
G02*
X182857500Y-111025000I-237500J0D01*
G01*
X182282500Y-111025000D01*
G75*
G02*
X182045000Y-110787500I0J237500D01*
G01*
G37*
G36*
G01*
X183795000Y-110787500D02*
X183795000Y-110312500D01*
G75*
G02*
X184032500Y-110075000I237500J0D01*
G01*
X184607500Y-110075000D01*
G75*
G02*
X184845000Y-110312500I0J-237500D01*
G01*
X184845000Y-110787500D01*
G75*
G02*
X184607500Y-111025000I-237500J0D01*
G01*
X184032500Y-111025000D01*
G75*
G02*
X183795000Y-110787500I0J237500D01*
G01*
G37*
%TD*%
%TO.C,D15*%
G36*
G01*
X172450000Y-113177500D02*
X172450000Y-112702500D01*
G75*
G02*
X172687500Y-112465000I237500J0D01*
G01*
X173262500Y-112465000D01*
G75*
G02*
X173500000Y-112702500I0J-237500D01*
G01*
X173500000Y-113177500D01*
G75*
G02*
X173262500Y-113415000I-237500J0D01*
G01*
X172687500Y-113415000D01*
G75*
G02*
X172450000Y-113177500I0J237500D01*
G01*
G37*
G36*
G01*
X170700000Y-113177500D02*
X170700000Y-112702500D01*
G75*
G02*
X170937500Y-112465000I237500J0D01*
G01*
X171512500Y-112465000D01*
G75*
G02*
X171750000Y-112702500I0J-237500D01*
G01*
X171750000Y-113177500D01*
G75*
G02*
X171512500Y-113415000I-237500J0D01*
G01*
X170937500Y-113415000D01*
G75*
G02*
X170700000Y-113177500I0J237500D01*
G01*
G37*
%TD*%
D16*
%TO.C,J1*%
X112800000Y-72600000D03*
D17*
X112800000Y-71330000D03*
%TD*%
%TO.C,J2*%
X108550000Y-71330000D03*
D16*
X108550000Y-72600000D03*
%TD*%
%TO.C,J3*%
X193600000Y-99300000D03*
D17*
X193600000Y-100570000D03*
%TD*%
%TO.C,J4*%
G36*
G01*
X109350001Y-76100000D02*
X108049999Y-76100000D01*
G75*
G02*
X107800000Y-75850001I0J249999D01*
G01*
X107800000Y-75149999D01*
G75*
G02*
X108049999Y-74900000I249999J0D01*
G01*
X109350001Y-74900000D01*
G75*
G02*
X109600000Y-75149999I0J-249999D01*
G01*
X109600000Y-75850001D01*
G75*
G02*
X109350001Y-76100000I-249999J0D01*
G01*
G37*
G36*
G01*
X109350001Y-81700000D02*
X108049999Y-81700000D01*
G75*
G02*
X107800000Y-81450001I0J249999D01*
G01*
X107800000Y-80749999D01*
G75*
G02*
X108049999Y-80500000I249999J0D01*
G01*
X109350001Y-80500000D01*
G75*
G02*
X109600000Y-80749999I0J-249999D01*
G01*
X109600000Y-81450001D01*
G75*
G02*
X109350001Y-81700000I-249999J0D01*
G01*
G37*
G36*
G01*
X111850000Y-77100000D02*
X110600000Y-77100000D01*
G75*
G02*
X110450000Y-76950000I0J150000D01*
G01*
X110450000Y-76650000D01*
G75*
G02*
X110600000Y-76500000I150000J0D01*
G01*
X111850000Y-76500000D01*
G75*
G02*
X112000000Y-76650000I0J-150000D01*
G01*
X112000000Y-76950000D01*
G75*
G02*
X111850000Y-77100000I-150000J0D01*
G01*
G37*
G36*
G01*
X111850000Y-78100000D02*
X110600000Y-78100000D01*
G75*
G02*
X110450000Y-77950000I0J150000D01*
G01*
X110450000Y-77650000D01*
G75*
G02*
X110600000Y-77500000I150000J0D01*
G01*
X111850000Y-77500000D01*
G75*
G02*
X112000000Y-77650000I0J-150000D01*
G01*
X112000000Y-77950000D01*
G75*
G02*
X111850000Y-78100000I-150000J0D01*
G01*
G37*
G36*
G01*
X111850000Y-79100000D02*
X110600000Y-79100000D01*
G75*
G02*
X110450000Y-78950000I0J150000D01*
G01*
X110450000Y-78650000D01*
G75*
G02*
X110600000Y-78500000I150000J0D01*
G01*
X111850000Y-78500000D01*
G75*
G02*
X112000000Y-78650000I0J-150000D01*
G01*
X112000000Y-78950000D01*
G75*
G02*
X111850000Y-79100000I-150000J0D01*
G01*
G37*
G36*
G01*
X111850000Y-80100000D02*
X110600000Y-80100000D01*
G75*
G02*
X110450000Y-79950000I0J150000D01*
G01*
X110450000Y-79650000D01*
G75*
G02*
X110600000Y-79500000I150000J0D01*
G01*
X111850000Y-79500000D01*
G75*
G02*
X112000000Y-79650000I0J-150000D01*
G01*
X112000000Y-79950000D01*
G75*
G02*
X111850000Y-80100000I-150000J0D01*
G01*
G37*
%TD*%
%TO.C,J5*%
G36*
G01*
X111850000Y-112400000D02*
X110600000Y-112400000D01*
G75*
G02*
X110450000Y-112250000I0J150000D01*
G01*
X110450000Y-111950000D01*
G75*
G02*
X110600000Y-111800000I150000J0D01*
G01*
X111850000Y-111800000D01*
G75*
G02*
X112000000Y-111950000I0J-150000D01*
G01*
X112000000Y-112250000D01*
G75*
G02*
X111850000Y-112400000I-150000J0D01*
G01*
G37*
G36*
G01*
X111850000Y-111400000D02*
X110600000Y-111400000D01*
G75*
G02*
X110450000Y-111250000I0J150000D01*
G01*
X110450000Y-110950000D01*
G75*
G02*
X110600000Y-110800000I150000J0D01*
G01*
X111850000Y-110800000D01*
G75*
G02*
X112000000Y-110950000I0J-150000D01*
G01*
X112000000Y-111250000D01*
G75*
G02*
X111850000Y-111400000I-150000J0D01*
G01*
G37*
G36*
G01*
X111850000Y-110400000D02*
X110600000Y-110400000D01*
G75*
G02*
X110450000Y-110250000I0J150000D01*
G01*
X110450000Y-109950000D01*
G75*
G02*
X110600000Y-109800000I150000J0D01*
G01*
X111850000Y-109800000D01*
G75*
G02*
X112000000Y-109950000I0J-150000D01*
G01*
X112000000Y-110250000D01*
G75*
G02*
X111850000Y-110400000I-150000J0D01*
G01*
G37*
G36*
G01*
X111850000Y-109400000D02*
X110600000Y-109400000D01*
G75*
G02*
X110450000Y-109250000I0J150000D01*
G01*
X110450000Y-108950000D01*
G75*
G02*
X110600000Y-108800000I150000J0D01*
G01*
X111850000Y-108800000D01*
G75*
G02*
X112000000Y-108950000I0J-150000D01*
G01*
X112000000Y-109250000D01*
G75*
G02*
X111850000Y-109400000I-150000J0D01*
G01*
G37*
G36*
G01*
X109350001Y-114000000D02*
X108049999Y-114000000D01*
G75*
G02*
X107800000Y-113750001I0J249999D01*
G01*
X107800000Y-113049999D01*
G75*
G02*
X108049999Y-112800000I249999J0D01*
G01*
X109350001Y-112800000D01*
G75*
G02*
X109600000Y-113049999I0J-249999D01*
G01*
X109600000Y-113750001D01*
G75*
G02*
X109350001Y-114000000I-249999J0D01*
G01*
G37*
G36*
G01*
X109350001Y-108400000D02*
X108049999Y-108400000D01*
G75*
G02*
X107800000Y-108150001I0J249999D01*
G01*
X107800000Y-107449999D01*
G75*
G02*
X108049999Y-107200000I249999J0D01*
G01*
X109350001Y-107200000D01*
G75*
G02*
X109600000Y-107449999I0J-249999D01*
G01*
X109600000Y-108150001D01*
G75*
G02*
X109350001Y-108400000I-249999J0D01*
G01*
G37*
%TD*%
D18*
%TO.C,J6*%
X109100000Y-85300000D03*
D19*
X111640000Y-85300000D03*
X109100000Y-87840000D03*
X111640000Y-87840000D03*
X109100000Y-90380000D03*
X111640000Y-90380000D03*
%TD*%
%TO.C,J7*%
X111640000Y-103280000D03*
X109100000Y-103280000D03*
X111640000Y-100740000D03*
X109100000Y-100740000D03*
X111640000Y-98200000D03*
D18*
X109100000Y-98200000D03*
%TD*%
%TO.C,L1*%
G36*
G01*
X158315000Y-111860000D02*
X156165000Y-111860000D01*
G75*
G02*
X155915000Y-111610000I0J250000D01*
G01*
X155915000Y-110685000D01*
G75*
G02*
X156165000Y-110435000I250000J0D01*
G01*
X158315000Y-110435000D01*
G75*
G02*
X158565000Y-110685000I0J-250000D01*
G01*
X158565000Y-111610000D01*
G75*
G02*
X158315000Y-111860000I-250000J0D01*
G01*
G37*
G36*
G01*
X158315000Y-108885000D02*
X156165000Y-108885000D01*
G75*
G02*
X155915000Y-108635000I0J250000D01*
G01*
X155915000Y-107710000D01*
G75*
G02*
X156165000Y-107460000I250000J0D01*
G01*
X158315000Y-107460000D01*
G75*
G02*
X158565000Y-107710000I0J-250000D01*
G01*
X158565000Y-108635000D01*
G75*
G02*
X158315000Y-108885000I-250000J0D01*
G01*
G37*
%TD*%
D20*
%TO.C,Q1*%
X116420000Y-78250000D03*
X118320000Y-78250000D03*
X117370000Y-76250000D03*
%TD*%
D21*
%TO.C,Q2*%
X193130000Y-89730000D03*
X195130000Y-88780000D03*
X195130000Y-90680000D03*
%TD*%
%TO.C,Q3*%
X159600000Y-83387500D03*
X157600000Y-84337500D03*
X157600000Y-82437500D03*
%TD*%
%TO.C,R1*%
G36*
G01*
X173730000Y-59989999D02*
X173730000Y-60890001D01*
G75*
G02*
X173480001Y-61140000I-249999J0D01*
G01*
X172779999Y-61140000D01*
G75*
G02*
X172530000Y-60890001I0J249999D01*
G01*
X172530000Y-59989999D01*
G75*
G02*
X172779999Y-59740000I249999J0D01*
G01*
X173480001Y-59740000D01*
G75*
G02*
X173730000Y-59989999I0J-249999D01*
G01*
G37*
G36*
G01*
X171730000Y-59989999D02*
X171730000Y-60890001D01*
G75*
G02*
X171480001Y-61140000I-249999J0D01*
G01*
X170779999Y-61140000D01*
G75*
G02*
X170530000Y-60890001I0J249999D01*
G01*
X170530000Y-59989999D01*
G75*
G02*
X170779999Y-59740000I249999J0D01*
G01*
X171480001Y-59740000D01*
G75*
G02*
X171730000Y-59989999I0J-249999D01*
G01*
G37*
%TD*%
%TO.C,R2*%
G36*
G01*
X173730000Y-62249999D02*
X173730000Y-63150001D01*
G75*
G02*
X173480001Y-63400000I-249999J0D01*
G01*
X172779999Y-63400000D01*
G75*
G02*
X172530000Y-63150001I0J249999D01*
G01*
X172530000Y-62249999D01*
G75*
G02*
X172779999Y-62000000I249999J0D01*
G01*
X173480001Y-62000000D01*
G75*
G02*
X173730000Y-62249999I0J-249999D01*
G01*
G37*
G36*
G01*
X171730000Y-62249999D02*
X171730000Y-63150001D01*
G75*
G02*
X171480001Y-63400000I-249999J0D01*
G01*
X170779999Y-63400000D01*
G75*
G02*
X170530000Y-63150001I0J249999D01*
G01*
X170530000Y-62249999D01*
G75*
G02*
X170779999Y-62000000I249999J0D01*
G01*
X171480001Y-62000000D01*
G75*
G02*
X171730000Y-62249999I0J-249999D01*
G01*
G37*
%TD*%
%TO.C,R3*%
G36*
G01*
X173770000Y-125659999D02*
X173770000Y-126560001D01*
G75*
G02*
X173520001Y-126810000I-249999J0D01*
G01*
X172819999Y-126810000D01*
G75*
G02*
X172570000Y-126560001I0J249999D01*
G01*
X172570000Y-125659999D01*
G75*
G02*
X172819999Y-125410000I249999J0D01*
G01*
X173520001Y-125410000D01*
G75*
G02*
X173770000Y-125659999I0J-249999D01*
G01*
G37*
G36*
G01*
X171770000Y-125659999D02*
X171770000Y-126560001D01*
G75*
G02*
X171520001Y-126810000I-249999J0D01*
G01*
X170819999Y-126810000D01*
G75*
G02*
X170570000Y-126560001I0J249999D01*
G01*
X170570000Y-125659999D01*
G75*
G02*
X170819999Y-125410000I249999J0D01*
G01*
X171520001Y-125410000D01*
G75*
G02*
X171770000Y-125659999I0J-249999D01*
G01*
G37*
%TD*%
%TO.C,R4*%
G36*
G01*
X171770000Y-128019999D02*
X171770000Y-128920001D01*
G75*
G02*
X171520001Y-129170000I-249999J0D01*
G01*
X170819999Y-129170000D01*
G75*
G02*
X170570000Y-128920001I0J249999D01*
G01*
X170570000Y-128019999D01*
G75*
G02*
X170819999Y-127770000I249999J0D01*
G01*
X171520001Y-127770000D01*
G75*
G02*
X171770000Y-128019999I0J-249999D01*
G01*
G37*
G36*
G01*
X173770000Y-128019999D02*
X173770000Y-128920001D01*
G75*
G02*
X173520001Y-129170000I-249999J0D01*
G01*
X172819999Y-129170000D01*
G75*
G02*
X172570000Y-128920001I0J249999D01*
G01*
X172570000Y-128019999D01*
G75*
G02*
X172819999Y-127770000I249999J0D01*
G01*
X173520001Y-127770000D01*
G75*
G02*
X173770000Y-128019999I0J-249999D01*
G01*
G37*
%TD*%
%TO.C,R5*%
G36*
G01*
X117070000Y-73689999D02*
X117070000Y-74590001D01*
G75*
G02*
X116820001Y-74840000I-249999J0D01*
G01*
X116119999Y-74840000D01*
G75*
G02*
X115870000Y-74590001I0J249999D01*
G01*
X115870000Y-73689999D01*
G75*
G02*
X116119999Y-73440000I249999J0D01*
G01*
X116820001Y-73440000D01*
G75*
G02*
X117070000Y-73689999I0J-249999D01*
G01*
G37*
G36*
G01*
X119070000Y-73689999D02*
X119070000Y-74590001D01*
G75*
G02*
X118820001Y-74840000I-249999J0D01*
G01*
X118119999Y-74840000D01*
G75*
G02*
X117870000Y-74590001I0J249999D01*
G01*
X117870000Y-73689999D01*
G75*
G02*
X118119999Y-73440000I249999J0D01*
G01*
X118820001Y-73440000D01*
G75*
G02*
X119070000Y-73689999I0J-249999D01*
G01*
G37*
%TD*%
%TO.C,R6*%
G36*
G01*
X203195000Y-89527500D02*
X203195000Y-89052500D01*
G75*
G02*
X203432500Y-88815000I237500J0D01*
G01*
X203932500Y-88815000D01*
G75*
G02*
X204170000Y-89052500I0J-237500D01*
G01*
X204170000Y-89527500D01*
G75*
G02*
X203932500Y-89765000I-237500J0D01*
G01*
X203432500Y-89765000D01*
G75*
G02*
X203195000Y-89527500I0J237500D01*
G01*
G37*
G36*
G01*
X201370000Y-89527500D02*
X201370000Y-89052500D01*
G75*
G02*
X201607500Y-88815000I237500J0D01*
G01*
X202107500Y-88815000D01*
G75*
G02*
X202345000Y-89052500I0J-237500D01*
G01*
X202345000Y-89527500D01*
G75*
G02*
X202107500Y-89765000I-237500J0D01*
G01*
X201607500Y-89765000D01*
G75*
G02*
X201370000Y-89527500I0J237500D01*
G01*
G37*
%TD*%
%TO.C,R7*%
G36*
G01*
X198555000Y-89052500D02*
X198555000Y-89527500D01*
G75*
G02*
X198317500Y-89765000I-237500J0D01*
G01*
X197817500Y-89765000D01*
G75*
G02*
X197580000Y-89527500I0J237500D01*
G01*
X197580000Y-89052500D01*
G75*
G02*
X197817500Y-88815000I237500J0D01*
G01*
X198317500Y-88815000D01*
G75*
G02*
X198555000Y-89052500I0J-237500D01*
G01*
G37*
G36*
G01*
X200380000Y-89052500D02*
X200380000Y-89527500D01*
G75*
G02*
X200142500Y-89765000I-237500J0D01*
G01*
X199642500Y-89765000D01*
G75*
G02*
X199405000Y-89527500I0J237500D01*
G01*
X199405000Y-89052500D01*
G75*
G02*
X199642500Y-88815000I237500J0D01*
G01*
X200142500Y-88815000D01*
G75*
G02*
X200380000Y-89052500I0J-237500D01*
G01*
G37*
%TD*%
%TO.C,R8*%
G36*
G01*
X198555000Y-99422500D02*
X198555000Y-99897500D01*
G75*
G02*
X198317500Y-100135000I-237500J0D01*
G01*
X197817500Y-100135000D01*
G75*
G02*
X197580000Y-99897500I0J237500D01*
G01*
X197580000Y-99422500D01*
G75*
G02*
X197817500Y-99185000I237500J0D01*
G01*
X198317500Y-99185000D01*
G75*
G02*
X198555000Y-99422500I0J-237500D01*
G01*
G37*
G36*
G01*
X200380000Y-99422500D02*
X200380000Y-99897500D01*
G75*
G02*
X200142500Y-100135000I-237500J0D01*
G01*
X199642500Y-100135000D01*
G75*
G02*
X199405000Y-99897500I0J237500D01*
G01*
X199405000Y-99422500D01*
G75*
G02*
X199642500Y-99185000I237500J0D01*
G01*
X200142500Y-99185000D01*
G75*
G02*
X200380000Y-99422500I0J-237500D01*
G01*
G37*
%TD*%
%TO.C,R9*%
G36*
G01*
X203195000Y-99897500D02*
X203195000Y-99422500D01*
G75*
G02*
X203432500Y-99185000I237500J0D01*
G01*
X203932500Y-99185000D01*
G75*
G02*
X204170000Y-99422500I0J-237500D01*
G01*
X204170000Y-99897500D01*
G75*
G02*
X203932500Y-100135000I-237500J0D01*
G01*
X203432500Y-100135000D01*
G75*
G02*
X203195000Y-99897500I0J237500D01*
G01*
G37*
G36*
G01*
X201370000Y-99897500D02*
X201370000Y-99422500D01*
G75*
G02*
X201607500Y-99185000I237500J0D01*
G01*
X202107500Y-99185000D01*
G75*
G02*
X202345000Y-99422500I0J-237500D01*
G01*
X202345000Y-99897500D01*
G75*
G02*
X202107500Y-100135000I-237500J0D01*
G01*
X201607500Y-100135000D01*
G75*
G02*
X201370000Y-99897500I0J237500D01*
G01*
G37*
%TD*%
%TO.C,R10*%
G36*
G01*
X122982500Y-80430000D02*
X123457500Y-80430000D01*
G75*
G02*
X123695000Y-80667500I0J-237500D01*
G01*
X123695000Y-81167500D01*
G75*
G02*
X123457500Y-81405000I-237500J0D01*
G01*
X122982500Y-81405000D01*
G75*
G02*
X122745000Y-81167500I0J237500D01*
G01*
X122745000Y-80667500D01*
G75*
G02*
X122982500Y-80430000I237500J0D01*
G01*
G37*
G36*
G01*
X122982500Y-82255000D02*
X123457500Y-82255000D01*
G75*
G02*
X123695000Y-82492500I0J-237500D01*
G01*
X123695000Y-82992500D01*
G75*
G02*
X123457500Y-83230000I-237500J0D01*
G01*
X122982500Y-83230000D01*
G75*
G02*
X122745000Y-82992500I0J237500D01*
G01*
X122745000Y-82492500D01*
G75*
G02*
X122982500Y-82255000I237500J0D01*
G01*
G37*
%TD*%
%TO.C,R11*%
G36*
G01*
X126110001Y-83630000D02*
X125209999Y-83630000D01*
G75*
G02*
X124960000Y-83380001I0J249999D01*
G01*
X124960000Y-82679999D01*
G75*
G02*
X125209999Y-82430000I249999J0D01*
G01*
X126110001Y-82430000D01*
G75*
G02*
X126360000Y-82679999I0J-249999D01*
G01*
X126360000Y-83380001D01*
G75*
G02*
X126110001Y-83630000I-249999J0D01*
G01*
G37*
G36*
G01*
X126110001Y-81630000D02*
X125209999Y-81630000D01*
G75*
G02*
X124960000Y-81380001I0J249999D01*
G01*
X124960000Y-80679999D01*
G75*
G02*
X125209999Y-80430000I249999J0D01*
G01*
X126110001Y-80430000D01*
G75*
G02*
X126360000Y-80679999I0J-249999D01*
G01*
X126360000Y-81380001D01*
G75*
G02*
X126110001Y-81630000I-249999J0D01*
G01*
G37*
%TD*%
%TO.C,R12*%
G36*
G01*
X190349999Y-74350000D02*
X191250001Y-74350000D01*
G75*
G02*
X191500000Y-74599999I0J-249999D01*
G01*
X191500000Y-75300001D01*
G75*
G02*
X191250001Y-75550000I-249999J0D01*
G01*
X190349999Y-75550000D01*
G75*
G02*
X190100000Y-75300001I0J249999D01*
G01*
X190100000Y-74599999D01*
G75*
G02*
X190349999Y-74350000I249999J0D01*
G01*
G37*
G36*
G01*
X190349999Y-72350000D02*
X191250001Y-72350000D01*
G75*
G02*
X191500000Y-72599999I0J-249999D01*
G01*
X191500000Y-73300001D01*
G75*
G02*
X191250001Y-73550000I-249999J0D01*
G01*
X190349999Y-73550000D01*
G75*
G02*
X190100000Y-73300001I0J249999D01*
G01*
X190100000Y-72599999D01*
G75*
G02*
X190349999Y-72350000I249999J0D01*
G01*
G37*
%TD*%
%TO.C,R13*%
G36*
G01*
X190449999Y-115450000D02*
X191350001Y-115450000D01*
G75*
G02*
X191600000Y-115699999I0J-249999D01*
G01*
X191600000Y-116400001D01*
G75*
G02*
X191350001Y-116650000I-249999J0D01*
G01*
X190449999Y-116650000D01*
G75*
G02*
X190200000Y-116400001I0J249999D01*
G01*
X190200000Y-115699999D01*
G75*
G02*
X190449999Y-115450000I249999J0D01*
G01*
G37*
G36*
G01*
X190449999Y-113450000D02*
X191350001Y-113450000D01*
G75*
G02*
X191600000Y-113699999I0J-249999D01*
G01*
X191600000Y-114400001D01*
G75*
G02*
X191350001Y-114650000I-249999J0D01*
G01*
X190449999Y-114650000D01*
G75*
G02*
X190200000Y-114400001I0J249999D01*
G01*
X190200000Y-113699999D01*
G75*
G02*
X190449999Y-113450000I249999J0D01*
G01*
G37*
%TD*%
%TO.C,R14*%
G36*
G01*
X153459999Y-108660000D02*
X154360001Y-108660000D01*
G75*
G02*
X154610000Y-108909999I0J-249999D01*
G01*
X154610000Y-109610001D01*
G75*
G02*
X154360001Y-109860000I-249999J0D01*
G01*
X153459999Y-109860000D01*
G75*
G02*
X153210000Y-109610001I0J249999D01*
G01*
X153210000Y-108909999D01*
G75*
G02*
X153459999Y-108660000I249999J0D01*
G01*
G37*
G36*
G01*
X153459999Y-110660000D02*
X154360001Y-110660000D01*
G75*
G02*
X154610000Y-110909999I0J-249999D01*
G01*
X154610000Y-111610001D01*
G75*
G02*
X154360001Y-111860000I-249999J0D01*
G01*
X153459999Y-111860000D01*
G75*
G02*
X153210000Y-111610001I0J249999D01*
G01*
X153210000Y-110909999D01*
G75*
G02*
X153459999Y-110660000I249999J0D01*
G01*
G37*
%TD*%
%TO.C,R15*%
G36*
G01*
X152074999Y-77223400D02*
X153325001Y-77223400D01*
G75*
G02*
X153575000Y-77473399I0J-249999D01*
G01*
X153575000Y-78273401D01*
G75*
G02*
X153325001Y-78523400I-249999J0D01*
G01*
X152074999Y-78523400D01*
G75*
G02*
X151825000Y-78273401I0J249999D01*
G01*
X151825000Y-77473399D01*
G75*
G02*
X152074999Y-77223400I249999J0D01*
G01*
G37*
G36*
G01*
X152074999Y-80323400D02*
X153325001Y-80323400D01*
G75*
G02*
X153575000Y-80573399I0J-249999D01*
G01*
X153575000Y-81373401D01*
G75*
G02*
X153325001Y-81623400I-249999J0D01*
G01*
X152074999Y-81623400D01*
G75*
G02*
X151825000Y-81373401I0J249999D01*
G01*
X151825000Y-80573399D01*
G75*
G02*
X152074999Y-80323400I249999J0D01*
G01*
G37*
%TD*%
%TO.C,R16*%
G36*
G01*
X166650001Y-114200000D02*
X165749999Y-114200000D01*
G75*
G02*
X165500000Y-113950001I0J249999D01*
G01*
X165500000Y-113249999D01*
G75*
G02*
X165749999Y-113000000I249999J0D01*
G01*
X166650001Y-113000000D01*
G75*
G02*
X166900000Y-113249999I0J-249999D01*
G01*
X166900000Y-113950001D01*
G75*
G02*
X166650001Y-114200000I-249999J0D01*
G01*
G37*
G36*
G01*
X166650001Y-116200000D02*
X165749999Y-116200000D01*
G75*
G02*
X165500000Y-115950001I0J249999D01*
G01*
X165500000Y-115249999D01*
G75*
G02*
X165749999Y-115000000I249999J0D01*
G01*
X166650001Y-115000000D01*
G75*
G02*
X166900000Y-115249999I0J-249999D01*
G01*
X166900000Y-115950001D01*
G75*
G02*
X166650001Y-116200000I-249999J0D01*
G01*
G37*
%TD*%
%TO.C,R17*%
G36*
G01*
X163640001Y-111860000D02*
X162739999Y-111860000D01*
G75*
G02*
X162490000Y-111610001I0J249999D01*
G01*
X162490000Y-110909999D01*
G75*
G02*
X162739999Y-110660000I249999J0D01*
G01*
X163640001Y-110660000D01*
G75*
G02*
X163890000Y-110909999I0J-249999D01*
G01*
X163890000Y-111610001D01*
G75*
G02*
X163640001Y-111860000I-249999J0D01*
G01*
G37*
G36*
G01*
X163640001Y-109860000D02*
X162739999Y-109860000D01*
G75*
G02*
X162490000Y-109610001I0J249999D01*
G01*
X162490000Y-108909999D01*
G75*
G02*
X162739999Y-108660000I249999J0D01*
G01*
X163640001Y-108660000D01*
G75*
G02*
X163890000Y-108909999I0J-249999D01*
G01*
X163890000Y-109610001D01*
G75*
G02*
X163640001Y-109860000I-249999J0D01*
G01*
G37*
%TD*%
%TO.C,R18*%
G36*
G01*
X121460000Y-77549999D02*
X121460000Y-78450001D01*
G75*
G02*
X121210001Y-78700000I-249999J0D01*
G01*
X120509999Y-78700000D01*
G75*
G02*
X120260000Y-78450001I0J249999D01*
G01*
X120260000Y-77549999D01*
G75*
G02*
X120509999Y-77300000I249999J0D01*
G01*
X121210001Y-77300000D01*
G75*
G02*
X121460000Y-77549999I0J-249999D01*
G01*
G37*
G36*
G01*
X123460000Y-77549999D02*
X123460000Y-78450001D01*
G75*
G02*
X123210001Y-78700000I-249999J0D01*
G01*
X122509999Y-78700000D01*
G75*
G02*
X122260000Y-78450001I0J249999D01*
G01*
X122260000Y-77549999D01*
G75*
G02*
X122509999Y-77300000I249999J0D01*
G01*
X123210001Y-77300000D01*
G75*
G02*
X123460000Y-77549999I0J-249999D01*
G01*
G37*
%TD*%
%TO.C,R19*%
G36*
G01*
X191002500Y-90255000D02*
X191477500Y-90255000D01*
G75*
G02*
X191715000Y-90492500I0J-237500D01*
G01*
X191715000Y-90992500D01*
G75*
G02*
X191477500Y-91230000I-237500J0D01*
G01*
X191002500Y-91230000D01*
G75*
G02*
X190765000Y-90992500I0J237500D01*
G01*
X190765000Y-90492500D01*
G75*
G02*
X191002500Y-90255000I237500J0D01*
G01*
G37*
G36*
G01*
X191002500Y-88430000D02*
X191477500Y-88430000D01*
G75*
G02*
X191715000Y-88667500I0J-237500D01*
G01*
X191715000Y-89167500D01*
G75*
G02*
X191477500Y-89405000I-237500J0D01*
G01*
X191002500Y-89405000D01*
G75*
G02*
X190765000Y-89167500I0J237500D01*
G01*
X190765000Y-88667500D01*
G75*
G02*
X191002500Y-88430000I237500J0D01*
G01*
G37*
%TD*%
%TO.C,R20*%
G36*
G01*
X200380000Y-84162500D02*
X200380000Y-84637500D01*
G75*
G02*
X200142500Y-84875000I-237500J0D01*
G01*
X199642500Y-84875000D01*
G75*
G02*
X199405000Y-84637500I0J237500D01*
G01*
X199405000Y-84162500D01*
G75*
G02*
X199642500Y-83925000I237500J0D01*
G01*
X200142500Y-83925000D01*
G75*
G02*
X200380000Y-84162500I0J-237500D01*
G01*
G37*
G36*
G01*
X198555000Y-84162500D02*
X198555000Y-84637500D01*
G75*
G02*
X198317500Y-84875000I-237500J0D01*
G01*
X197817500Y-84875000D01*
G75*
G02*
X197580000Y-84637500I0J237500D01*
G01*
X197580000Y-84162500D01*
G75*
G02*
X197817500Y-83925000I237500J0D01*
G01*
X198317500Y-83925000D01*
G75*
G02*
X198555000Y-84162500I0J-237500D01*
G01*
G37*
%TD*%
%TO.C,R21*%
G36*
G01*
X118400000Y-112650001D02*
X118400000Y-111749999D01*
G75*
G02*
X118649999Y-111500000I249999J0D01*
G01*
X119350001Y-111500000D01*
G75*
G02*
X119600000Y-111749999I0J-249999D01*
G01*
X119600000Y-112650001D01*
G75*
G02*
X119350001Y-112900000I-249999J0D01*
G01*
X118649999Y-112900000D01*
G75*
G02*
X118400000Y-112650001I0J249999D01*
G01*
G37*
G36*
G01*
X116400000Y-112650001D02*
X116400000Y-111749999D01*
G75*
G02*
X116649999Y-111500000I249999J0D01*
G01*
X117350001Y-111500000D01*
G75*
G02*
X117600000Y-111749999I0J-249999D01*
G01*
X117600000Y-112650001D01*
G75*
G02*
X117350001Y-112900000I-249999J0D01*
G01*
X116649999Y-112900000D01*
G75*
G02*
X116400000Y-112650001I0J249999D01*
G01*
G37*
%TD*%
%TO.C,R22*%
G36*
G01*
X118400000Y-115550001D02*
X118400000Y-114649999D01*
G75*
G02*
X118649999Y-114400000I249999J0D01*
G01*
X119350001Y-114400000D01*
G75*
G02*
X119600000Y-114649999I0J-249999D01*
G01*
X119600000Y-115550001D01*
G75*
G02*
X119350001Y-115800000I-249999J0D01*
G01*
X118649999Y-115800000D01*
G75*
G02*
X118400000Y-115550001I0J249999D01*
G01*
G37*
G36*
G01*
X116400000Y-115550001D02*
X116400000Y-114649999D01*
G75*
G02*
X116649999Y-114400000I249999J0D01*
G01*
X117350001Y-114400000D01*
G75*
G02*
X117600000Y-114649999I0J-249999D01*
G01*
X117600000Y-115550001D01*
G75*
G02*
X117350001Y-115800000I-249999J0D01*
G01*
X116649999Y-115800000D01*
G75*
G02*
X116400000Y-115550001I0J249999D01*
G01*
G37*
%TD*%
%TO.C,R23*%
G36*
G01*
X170300000Y-76050001D02*
X170300000Y-75149999D01*
G75*
G02*
X170549999Y-74900000I249999J0D01*
G01*
X171250001Y-74900000D01*
G75*
G02*
X171500000Y-75149999I0J-249999D01*
G01*
X171500000Y-76050001D01*
G75*
G02*
X171250001Y-76300000I-249999J0D01*
G01*
X170549999Y-76300000D01*
G75*
G02*
X170300000Y-76050001I0J249999D01*
G01*
G37*
G36*
G01*
X172300000Y-76050001D02*
X172300000Y-75149999D01*
G75*
G02*
X172549999Y-74900000I249999J0D01*
G01*
X173250001Y-74900000D01*
G75*
G02*
X173500000Y-75149999I0J-249999D01*
G01*
X173500000Y-76050001D01*
G75*
G02*
X173250001Y-76300000I-249999J0D01*
G01*
X172549999Y-76300000D01*
G75*
G02*
X172300000Y-76050001I0J249999D01*
G01*
G37*
%TD*%
%TO.C,R24*%
G36*
G01*
X183200000Y-80549999D02*
X183200000Y-81450001D01*
G75*
G02*
X182950001Y-81700000I-249999J0D01*
G01*
X182249999Y-81700000D01*
G75*
G02*
X182000000Y-81450001I0J249999D01*
G01*
X182000000Y-80549999D01*
G75*
G02*
X182249999Y-80300000I249999J0D01*
G01*
X182950001Y-80300000D01*
G75*
G02*
X183200000Y-80549999I0J-249999D01*
G01*
G37*
G36*
G01*
X185200000Y-80549999D02*
X185200000Y-81450001D01*
G75*
G02*
X184950001Y-81700000I-249999J0D01*
G01*
X184249999Y-81700000D01*
G75*
G02*
X184000000Y-81450001I0J249999D01*
G01*
X184000000Y-80549999D01*
G75*
G02*
X184249999Y-80300000I249999J0D01*
G01*
X184950001Y-80300000D01*
G75*
G02*
X185200000Y-80549999I0J-249999D01*
G01*
G37*
%TD*%
%TO.C,R25*%
G36*
G01*
X184000000Y-108630001D02*
X184000000Y-107729999D01*
G75*
G02*
X184249999Y-107480000I249999J0D01*
G01*
X184950001Y-107480000D01*
G75*
G02*
X185200000Y-107729999I0J-249999D01*
G01*
X185200000Y-108630001D01*
G75*
G02*
X184950001Y-108880000I-249999J0D01*
G01*
X184249999Y-108880000D01*
G75*
G02*
X184000000Y-108630001I0J249999D01*
G01*
G37*
G36*
G01*
X182000000Y-108630001D02*
X182000000Y-107729999D01*
G75*
G02*
X182249999Y-107480000I249999J0D01*
G01*
X182950001Y-107480000D01*
G75*
G02*
X183200000Y-107729999I0J-249999D01*
G01*
X183200000Y-108630001D01*
G75*
G02*
X182950001Y-108880000I-249999J0D01*
G01*
X182249999Y-108880000D01*
G75*
G02*
X182000000Y-108630001I0J249999D01*
G01*
G37*
%TD*%
%TO.C,R26*%
G36*
G01*
X172300000Y-115450001D02*
X172300000Y-114549999D01*
G75*
G02*
X172549999Y-114300000I249999J0D01*
G01*
X173250001Y-114300000D01*
G75*
G02*
X173500000Y-114549999I0J-249999D01*
G01*
X173500000Y-115450001D01*
G75*
G02*
X173250001Y-115700000I-249999J0D01*
G01*
X172549999Y-115700000D01*
G75*
G02*
X172300000Y-115450001I0J249999D01*
G01*
G37*
G36*
G01*
X170300000Y-115450001D02*
X170300000Y-114549999D01*
G75*
G02*
X170549999Y-114300000I249999J0D01*
G01*
X171250001Y-114300000D01*
G75*
G02*
X171500000Y-114549999I0J-249999D01*
G01*
X171500000Y-115450001D01*
G75*
G02*
X171250001Y-115700000I-249999J0D01*
G01*
X170549999Y-115700000D01*
G75*
G02*
X170300000Y-115450001I0J249999D01*
G01*
G37*
%TD*%
%TO.C,R27*%
G36*
G01*
X155362500Y-83712500D02*
X155837500Y-83712500D01*
G75*
G02*
X156075000Y-83950000I0J-237500D01*
G01*
X156075000Y-84450000D01*
G75*
G02*
X155837500Y-84687500I-237500J0D01*
G01*
X155362500Y-84687500D01*
G75*
G02*
X155125000Y-84450000I0J237500D01*
G01*
X155125000Y-83950000D01*
G75*
G02*
X155362500Y-83712500I237500J0D01*
G01*
G37*
G36*
G01*
X155362500Y-81887500D02*
X155837500Y-81887500D01*
G75*
G02*
X156075000Y-82125000I0J-237500D01*
G01*
X156075000Y-82625000D01*
G75*
G02*
X155837500Y-82862500I-237500J0D01*
G01*
X155362500Y-82862500D01*
G75*
G02*
X155125000Y-82625000I0J237500D01*
G01*
X155125000Y-82125000D01*
G75*
G02*
X155362500Y-81887500I237500J0D01*
G01*
G37*
%TD*%
%TO.C,R28*%
G36*
G01*
X166549999Y-75100000D02*
X167450001Y-75100000D01*
G75*
G02*
X167700000Y-75349999I0J-249999D01*
G01*
X167700000Y-76050001D01*
G75*
G02*
X167450001Y-76300000I-249999J0D01*
G01*
X166549999Y-76300000D01*
G75*
G02*
X166300000Y-76050001I0J249999D01*
G01*
X166300000Y-75349999D01*
G75*
G02*
X166549999Y-75100000I249999J0D01*
G01*
G37*
G36*
G01*
X166549999Y-73100000D02*
X167450001Y-73100000D01*
G75*
G02*
X167700000Y-73349999I0J-249999D01*
G01*
X167700000Y-74050001D01*
G75*
G02*
X167450001Y-74300000I-249999J0D01*
G01*
X166549999Y-74300000D01*
G75*
G02*
X166300000Y-74050001I0J249999D01*
G01*
X166300000Y-73349999D01*
G75*
G02*
X166549999Y-73100000I249999J0D01*
G01*
G37*
%TD*%
%TO.C,R29*%
G36*
G01*
X121549999Y-105520000D02*
X122450001Y-105520000D01*
G75*
G02*
X122700000Y-105769999I0J-249999D01*
G01*
X122700000Y-106470001D01*
G75*
G02*
X122450001Y-106720000I-249999J0D01*
G01*
X121549999Y-106720000D01*
G75*
G02*
X121300000Y-106470001I0J249999D01*
G01*
X121300000Y-105769999D01*
G75*
G02*
X121549999Y-105520000I249999J0D01*
G01*
G37*
G36*
G01*
X121549999Y-107520000D02*
X122450001Y-107520000D01*
G75*
G02*
X122700000Y-107769999I0J-249999D01*
G01*
X122700000Y-108470001D01*
G75*
G02*
X122450001Y-108720000I-249999J0D01*
G01*
X121549999Y-108720000D01*
G75*
G02*
X121300000Y-108470001I0J249999D01*
G01*
X121300000Y-107769999D01*
G75*
G02*
X121549999Y-107520000I249999J0D01*
G01*
G37*
%TD*%
D18*
%TO.C,SW1*%
X109150000Y-62765000D03*
D19*
X109150000Y-65305000D03*
X109150000Y-67845000D03*
%TD*%
D22*
%TO.C,SW2*%
X112225000Y-124675000D03*
X112225000Y-122525000D03*
X108075000Y-124675000D03*
X108100000Y-122525000D03*
%TD*%
%TO.C,U1*%
G36*
G01*
X201930000Y-91000000D02*
X202130000Y-91000000D01*
G75*
G02*
X202230000Y-91100000I0J-100000D01*
G01*
X202230000Y-92375000D01*
G75*
G02*
X202130000Y-92475000I-100000J0D01*
G01*
X201930000Y-92475000D01*
G75*
G02*
X201830000Y-92375000I0J100000D01*
G01*
X201830000Y-91100000D01*
G75*
G02*
X201930000Y-91000000I100000J0D01*
G01*
G37*
G36*
G01*
X201280000Y-91000000D02*
X201480000Y-91000000D01*
G75*
G02*
X201580000Y-91100000I0J-100000D01*
G01*
X201580000Y-92375000D01*
G75*
G02*
X201480000Y-92475000I-100000J0D01*
G01*
X201280000Y-92475000D01*
G75*
G02*
X201180000Y-92375000I0J100000D01*
G01*
X201180000Y-91100000D01*
G75*
G02*
X201280000Y-91000000I100000J0D01*
G01*
G37*
G36*
G01*
X200630000Y-91000000D02*
X200830000Y-91000000D01*
G75*
G02*
X200930000Y-91100000I0J-100000D01*
G01*
X200930000Y-92375000D01*
G75*
G02*
X200830000Y-92475000I-100000J0D01*
G01*
X200630000Y-92475000D01*
G75*
G02*
X200530000Y-92375000I0J100000D01*
G01*
X200530000Y-91100000D01*
G75*
G02*
X200630000Y-91000000I100000J0D01*
G01*
G37*
G36*
G01*
X199980000Y-91000000D02*
X200180000Y-91000000D01*
G75*
G02*
X200280000Y-91100000I0J-100000D01*
G01*
X200280000Y-92375000D01*
G75*
G02*
X200180000Y-92475000I-100000J0D01*
G01*
X199980000Y-92475000D01*
G75*
G02*
X199880000Y-92375000I0J100000D01*
G01*
X199880000Y-91100000D01*
G75*
G02*
X199980000Y-91000000I100000J0D01*
G01*
G37*
G36*
G01*
X199330000Y-91000000D02*
X199530000Y-91000000D01*
G75*
G02*
X199630000Y-91100000I0J-100000D01*
G01*
X199630000Y-92375000D01*
G75*
G02*
X199530000Y-92475000I-100000J0D01*
G01*
X199330000Y-92475000D01*
G75*
G02*
X199230000Y-92375000I0J100000D01*
G01*
X199230000Y-91100000D01*
G75*
G02*
X199330000Y-91000000I100000J0D01*
G01*
G37*
G36*
G01*
X198680000Y-91000000D02*
X198880000Y-91000000D01*
G75*
G02*
X198980000Y-91100000I0J-100000D01*
G01*
X198980000Y-92375000D01*
G75*
G02*
X198880000Y-92475000I-100000J0D01*
G01*
X198680000Y-92475000D01*
G75*
G02*
X198580000Y-92375000I0J100000D01*
G01*
X198580000Y-91100000D01*
G75*
G02*
X198680000Y-91000000I100000J0D01*
G01*
G37*
G36*
G01*
X198030000Y-91000000D02*
X198230000Y-91000000D01*
G75*
G02*
X198330000Y-91100000I0J-100000D01*
G01*
X198330000Y-92375000D01*
G75*
G02*
X198230000Y-92475000I-100000J0D01*
G01*
X198030000Y-92475000D01*
G75*
G02*
X197930000Y-92375000I0J100000D01*
G01*
X197930000Y-91100000D01*
G75*
G02*
X198030000Y-91000000I100000J0D01*
G01*
G37*
G36*
G01*
X198030000Y-96725000D02*
X198230000Y-96725000D01*
G75*
G02*
X198330000Y-96825000I0J-100000D01*
G01*
X198330000Y-98100000D01*
G75*
G02*
X198230000Y-98200000I-100000J0D01*
G01*
X198030000Y-98200000D01*
G75*
G02*
X197930000Y-98100000I0J100000D01*
G01*
X197930000Y-96825000D01*
G75*
G02*
X198030000Y-96725000I100000J0D01*
G01*
G37*
G36*
G01*
X198680000Y-96725000D02*
X198880000Y-96725000D01*
G75*
G02*
X198980000Y-96825000I0J-100000D01*
G01*
X198980000Y-98100000D01*
G75*
G02*
X198880000Y-98200000I-100000J0D01*
G01*
X198680000Y-98200000D01*
G75*
G02*
X198580000Y-98100000I0J100000D01*
G01*
X198580000Y-96825000D01*
G75*
G02*
X198680000Y-96725000I100000J0D01*
G01*
G37*
G36*
G01*
X199330000Y-96725000D02*
X199530000Y-96725000D01*
G75*
G02*
X199630000Y-96825000I0J-100000D01*
G01*
X199630000Y-98100000D01*
G75*
G02*
X199530000Y-98200000I-100000J0D01*
G01*
X199330000Y-98200000D01*
G75*
G02*
X199230000Y-98100000I0J100000D01*
G01*
X199230000Y-96825000D01*
G75*
G02*
X199330000Y-96725000I100000J0D01*
G01*
G37*
G36*
G01*
X199980000Y-96725000D02*
X200180000Y-96725000D01*
G75*
G02*
X200280000Y-96825000I0J-100000D01*
G01*
X200280000Y-98100000D01*
G75*
G02*
X200180000Y-98200000I-100000J0D01*
G01*
X199980000Y-98200000D01*
G75*
G02*
X199880000Y-98100000I0J100000D01*
G01*
X199880000Y-96825000D01*
G75*
G02*
X199980000Y-96725000I100000J0D01*
G01*
G37*
G36*
G01*
X200630000Y-96725000D02*
X200830000Y-96725000D01*
G75*
G02*
X200930000Y-96825000I0J-100000D01*
G01*
X200930000Y-98100000D01*
G75*
G02*
X200830000Y-98200000I-100000J0D01*
G01*
X200630000Y-98200000D01*
G75*
G02*
X200530000Y-98100000I0J100000D01*
G01*
X200530000Y-96825000D01*
G75*
G02*
X200630000Y-96725000I100000J0D01*
G01*
G37*
G36*
G01*
X201280000Y-96725000D02*
X201480000Y-96725000D01*
G75*
G02*
X201580000Y-96825000I0J-100000D01*
G01*
X201580000Y-98100000D01*
G75*
G02*
X201480000Y-98200000I-100000J0D01*
G01*
X201280000Y-98200000D01*
G75*
G02*
X201180000Y-98100000I0J100000D01*
G01*
X201180000Y-96825000D01*
G75*
G02*
X201280000Y-96725000I100000J0D01*
G01*
G37*
G36*
G01*
X201930000Y-96725000D02*
X202130000Y-96725000D01*
G75*
G02*
X202230000Y-96825000I0J-100000D01*
G01*
X202230000Y-98100000D01*
G75*
G02*
X202130000Y-98200000I-100000J0D01*
G01*
X201930000Y-98200000D01*
G75*
G02*
X201830000Y-98100000I0J100000D01*
G01*
X201830000Y-96825000D01*
G75*
G02*
X201930000Y-96725000I100000J0D01*
G01*
G37*
%TD*%
D23*
%TO.C,U2*%
X137750000Y-108600000D03*
D24*
X131450000Y-108600000D03*
X131450000Y-110900000D03*
X131450000Y-106300000D03*
%TD*%
D11*
%TO.C,U3*%
G36*
X184700000Y-75100000D02*
G01*
X182000000Y-75100000D01*
X182000000Y-74100000D01*
X184700000Y-74100000D01*
X185200000Y-73600000D01*
X186000000Y-73600000D01*
X186500000Y-74100000D01*
X189200000Y-74100000D01*
X189200000Y-75100000D01*
X186500000Y-75100000D01*
X186000000Y-75600000D01*
X185200000Y-75600000D01*
X184700000Y-75100000D01*
G37*
D25*
X187950000Y-73100000D03*
X187950000Y-76100000D03*
X183250000Y-73100000D03*
X183250000Y-76100000D03*
%TD*%
D11*
%TO.C,U4*%
G36*
X184700000Y-114900000D02*
G01*
X182000000Y-114900000D01*
X182000000Y-113900000D01*
X184700000Y-113900000D01*
X185200000Y-113400000D01*
X186000000Y-113400000D01*
X186500000Y-113900000D01*
X189200000Y-113900000D01*
X189200000Y-114900000D01*
X186500000Y-114900000D01*
X186000000Y-115400000D01*
X185200000Y-115400000D01*
X184700000Y-114900000D01*
G37*
D25*
X187950000Y-112900000D03*
X187950000Y-115900000D03*
X183250000Y-112900000D03*
X183250000Y-115900000D03*
%TD*%
%TO.C,U7*%
G36*
G01*
X129649860Y-100855572D02*
X128659910Y-101845522D01*
G75*
G02*
X128553844Y-101845522I-53033J53033D01*
G01*
X128447778Y-101739456D01*
G75*
G02*
X128447778Y-101633390I53033J53033D01*
G01*
X129437728Y-100643440D01*
G75*
G02*
X129543794Y-100643440I53033J-53033D01*
G01*
X129649860Y-100749506D01*
G75*
G02*
X129649860Y-100855572I-53033J-53033D01*
G01*
G37*
G36*
G01*
X129296307Y-100502019D02*
X128306357Y-101491969D01*
G75*
G02*
X128200291Y-101491969I-53033J53033D01*
G01*
X128094225Y-101385903D01*
G75*
G02*
X128094225Y-101279837I53033J53033D01*
G01*
X129084175Y-100289887D01*
G75*
G02*
X129190241Y-100289887I53033J-53033D01*
G01*
X129296307Y-100395953D01*
G75*
G02*
X129296307Y-100502019I-53033J-53033D01*
G01*
G37*
G36*
G01*
X128942754Y-100148466D02*
X127952804Y-101138416D01*
G75*
G02*
X127846738Y-101138416I-53033J53033D01*
G01*
X127740672Y-101032350D01*
G75*
G02*
X127740672Y-100926284I53033J53033D01*
G01*
X128730622Y-99936334D01*
G75*
G02*
X128836688Y-99936334I53033J-53033D01*
G01*
X128942754Y-100042400D01*
G75*
G02*
X128942754Y-100148466I-53033J-53033D01*
G01*
G37*
G36*
G01*
X128589200Y-99794912D02*
X127599250Y-100784862D01*
G75*
G02*
X127493184Y-100784862I-53033J53033D01*
G01*
X127387118Y-100678796D01*
G75*
G02*
X127387118Y-100572730I53033J53033D01*
G01*
X128377068Y-99582780D01*
G75*
G02*
X128483134Y-99582780I53033J-53033D01*
G01*
X128589200Y-99688846D01*
G75*
G02*
X128589200Y-99794912I-53033J-53033D01*
G01*
G37*
G36*
G01*
X128235647Y-99441359D02*
X127245697Y-100431309D01*
G75*
G02*
X127139631Y-100431309I-53033J53033D01*
G01*
X127033565Y-100325243D01*
G75*
G02*
X127033565Y-100219177I53033J53033D01*
G01*
X128023515Y-99229227D01*
G75*
G02*
X128129581Y-99229227I53033J-53033D01*
G01*
X128235647Y-99335293D01*
G75*
G02*
X128235647Y-99441359I-53033J-53033D01*
G01*
G37*
G36*
G01*
X127882093Y-99087805D02*
X126892143Y-100077755D01*
G75*
G02*
X126786077Y-100077755I-53033J53033D01*
G01*
X126680011Y-99971689D01*
G75*
G02*
X126680011Y-99865623I53033J53033D01*
G01*
X127669961Y-98875673D01*
G75*
G02*
X127776027Y-98875673I53033J-53033D01*
G01*
X127882093Y-98981739D01*
G75*
G02*
X127882093Y-99087805I-53033J-53033D01*
G01*
G37*
G36*
G01*
X127528540Y-98734252D02*
X126538590Y-99724202D01*
G75*
G02*
X126432524Y-99724202I-53033J53033D01*
G01*
X126326458Y-99618136D01*
G75*
G02*
X126326458Y-99512070I53033J53033D01*
G01*
X127316408Y-98522120D01*
G75*
G02*
X127422474Y-98522120I53033J-53033D01*
G01*
X127528540Y-98628186D01*
G75*
G02*
X127528540Y-98734252I-53033J-53033D01*
G01*
G37*
G36*
G01*
X127174987Y-98380699D02*
X126185037Y-99370649D01*
G75*
G02*
X126078971Y-99370649I-53033J53033D01*
G01*
X125972905Y-99264583D01*
G75*
G02*
X125972905Y-99158517I53033J53033D01*
G01*
X126962855Y-98168567D01*
G75*
G02*
X127068921Y-98168567I53033J-53033D01*
G01*
X127174987Y-98274633D01*
G75*
G02*
X127174987Y-98380699I-53033J-53033D01*
G01*
G37*
G36*
G01*
X126821433Y-98027145D02*
X125831483Y-99017095D01*
G75*
G02*
X125725417Y-99017095I-53033J53033D01*
G01*
X125619351Y-98911029D01*
G75*
G02*
X125619351Y-98804963I53033J53033D01*
G01*
X126609301Y-97815013D01*
G75*
G02*
X126715367Y-97815013I53033J-53033D01*
G01*
X126821433Y-97921079D01*
G75*
G02*
X126821433Y-98027145I-53033J-53033D01*
G01*
G37*
G36*
G01*
X126467880Y-97673592D02*
X125477930Y-98663542D01*
G75*
G02*
X125371864Y-98663542I-53033J53033D01*
G01*
X125265798Y-98557476D01*
G75*
G02*
X125265798Y-98451410I53033J53033D01*
G01*
X126255748Y-97461460D01*
G75*
G02*
X126361814Y-97461460I53033J-53033D01*
G01*
X126467880Y-97567526D01*
G75*
G02*
X126467880Y-97673592I-53033J-53033D01*
G01*
G37*
G36*
G01*
X126114327Y-97320039D02*
X125124377Y-98309989D01*
G75*
G02*
X125018311Y-98309989I-53033J53033D01*
G01*
X124912245Y-98203923D01*
G75*
G02*
X124912245Y-98097857I53033J53033D01*
G01*
X125902195Y-97107907D01*
G75*
G02*
X126008261Y-97107907I53033J-53033D01*
G01*
X126114327Y-97213973D01*
G75*
G02*
X126114327Y-97320039I-53033J-53033D01*
G01*
G37*
G36*
G01*
X125760773Y-96966485D02*
X124770823Y-97956435D01*
G75*
G02*
X124664757Y-97956435I-53033J53033D01*
G01*
X124558691Y-97850369D01*
G75*
G02*
X124558691Y-97744303I53033J53033D01*
G01*
X125548641Y-96754353D01*
G75*
G02*
X125654707Y-96754353I53033J-53033D01*
G01*
X125760773Y-96860419D01*
G75*
G02*
X125760773Y-96966485I-53033J-53033D01*
G01*
G37*
G36*
G01*
X125407220Y-96612932D02*
X124417270Y-97602882D01*
G75*
G02*
X124311204Y-97602882I-53033J53033D01*
G01*
X124205138Y-97496816D01*
G75*
G02*
X124205138Y-97390750I53033J53033D01*
G01*
X125195088Y-96400800D01*
G75*
G02*
X125301154Y-96400800I53033J-53033D01*
G01*
X125407220Y-96506866D01*
G75*
G02*
X125407220Y-96612932I-53033J-53033D01*
G01*
G37*
G36*
G01*
X125053666Y-96259378D02*
X124063716Y-97249328D01*
G75*
G02*
X123957650Y-97249328I-53033J53033D01*
G01*
X123851584Y-97143262D01*
G75*
G02*
X123851584Y-97037196I53033J53033D01*
G01*
X124841534Y-96047246D01*
G75*
G02*
X124947600Y-96047246I53033J-53033D01*
G01*
X125053666Y-96153312D01*
G75*
G02*
X125053666Y-96259378I-53033J-53033D01*
G01*
G37*
G36*
G01*
X124700113Y-95905825D02*
X123710163Y-96895775D01*
G75*
G02*
X123604097Y-96895775I-53033J53033D01*
G01*
X123498031Y-96789709D01*
G75*
G02*
X123498031Y-96683643I53033J53033D01*
G01*
X124487981Y-95693693D01*
G75*
G02*
X124594047Y-95693693I53033J-53033D01*
G01*
X124700113Y-95799759D01*
G75*
G02*
X124700113Y-95905825I-53033J-53033D01*
G01*
G37*
G36*
G01*
X124346560Y-95552272D02*
X123356610Y-96542222D01*
G75*
G02*
X123250544Y-96542222I-53033J53033D01*
G01*
X123144478Y-96436156D01*
G75*
G02*
X123144478Y-96330090I53033J53033D01*
G01*
X124134428Y-95340140D01*
G75*
G02*
X124240494Y-95340140I53033J-53033D01*
G01*
X124346560Y-95446206D01*
G75*
G02*
X124346560Y-95552272I-53033J-53033D01*
G01*
G37*
G36*
G01*
X124346560Y-93713794D02*
X124240494Y-93819860D01*
G75*
G02*
X124134428Y-93819860I-53033J53033D01*
G01*
X123144478Y-92829910D01*
G75*
G02*
X123144478Y-92723844I53033J53033D01*
G01*
X123250544Y-92617778D01*
G75*
G02*
X123356610Y-92617778I53033J-53033D01*
G01*
X124346560Y-93607728D01*
G75*
G02*
X124346560Y-93713794I-53033J-53033D01*
G01*
G37*
G36*
G01*
X124700113Y-93360241D02*
X124594047Y-93466307D01*
G75*
G02*
X124487981Y-93466307I-53033J53033D01*
G01*
X123498031Y-92476357D01*
G75*
G02*
X123498031Y-92370291I53033J53033D01*
G01*
X123604097Y-92264225D01*
G75*
G02*
X123710163Y-92264225I53033J-53033D01*
G01*
X124700113Y-93254175D01*
G75*
G02*
X124700113Y-93360241I-53033J-53033D01*
G01*
G37*
G36*
G01*
X125053666Y-93006688D02*
X124947600Y-93112754D01*
G75*
G02*
X124841534Y-93112754I-53033J53033D01*
G01*
X123851584Y-92122804D01*
G75*
G02*
X123851584Y-92016738I53033J53033D01*
G01*
X123957650Y-91910672D01*
G75*
G02*
X124063716Y-91910672I53033J-53033D01*
G01*
X125053666Y-92900622D01*
G75*
G02*
X125053666Y-93006688I-53033J-53033D01*
G01*
G37*
G36*
G01*
X125407220Y-92653134D02*
X125301154Y-92759200D01*
G75*
G02*
X125195088Y-92759200I-53033J53033D01*
G01*
X124205138Y-91769250D01*
G75*
G02*
X124205138Y-91663184I53033J53033D01*
G01*
X124311204Y-91557118D01*
G75*
G02*
X124417270Y-91557118I53033J-53033D01*
G01*
X125407220Y-92547068D01*
G75*
G02*
X125407220Y-92653134I-53033J-53033D01*
G01*
G37*
G36*
G01*
X125760773Y-92299581D02*
X125654707Y-92405647D01*
G75*
G02*
X125548641Y-92405647I-53033J53033D01*
G01*
X124558691Y-91415697D01*
G75*
G02*
X124558691Y-91309631I53033J53033D01*
G01*
X124664757Y-91203565D01*
G75*
G02*
X124770823Y-91203565I53033J-53033D01*
G01*
X125760773Y-92193515D01*
G75*
G02*
X125760773Y-92299581I-53033J-53033D01*
G01*
G37*
G36*
G01*
X126114327Y-91946027D02*
X126008261Y-92052093D01*
G75*
G02*
X125902195Y-92052093I-53033J53033D01*
G01*
X124912245Y-91062143D01*
G75*
G02*
X124912245Y-90956077I53033J53033D01*
G01*
X125018311Y-90850011D01*
G75*
G02*
X125124377Y-90850011I53033J-53033D01*
G01*
X126114327Y-91839961D01*
G75*
G02*
X126114327Y-91946027I-53033J-53033D01*
G01*
G37*
G36*
G01*
X126467880Y-91592474D02*
X126361814Y-91698540D01*
G75*
G02*
X126255748Y-91698540I-53033J53033D01*
G01*
X125265798Y-90708590D01*
G75*
G02*
X125265798Y-90602524I53033J53033D01*
G01*
X125371864Y-90496458D01*
G75*
G02*
X125477930Y-90496458I53033J-53033D01*
G01*
X126467880Y-91486408D01*
G75*
G02*
X126467880Y-91592474I-53033J-53033D01*
G01*
G37*
G36*
G01*
X126821433Y-91238921D02*
X126715367Y-91344987D01*
G75*
G02*
X126609301Y-91344987I-53033J53033D01*
G01*
X125619351Y-90355037D01*
G75*
G02*
X125619351Y-90248971I53033J53033D01*
G01*
X125725417Y-90142905D01*
G75*
G02*
X125831483Y-90142905I53033J-53033D01*
G01*
X126821433Y-91132855D01*
G75*
G02*
X126821433Y-91238921I-53033J-53033D01*
G01*
G37*
G36*
G01*
X127174987Y-90885367D02*
X127068921Y-90991433D01*
G75*
G02*
X126962855Y-90991433I-53033J53033D01*
G01*
X125972905Y-90001483D01*
G75*
G02*
X125972905Y-89895417I53033J53033D01*
G01*
X126078971Y-89789351D01*
G75*
G02*
X126185037Y-89789351I53033J-53033D01*
G01*
X127174987Y-90779301D01*
G75*
G02*
X127174987Y-90885367I-53033J-53033D01*
G01*
G37*
G36*
G01*
X127528540Y-90531814D02*
X127422474Y-90637880D01*
G75*
G02*
X127316408Y-90637880I-53033J53033D01*
G01*
X126326458Y-89647930D01*
G75*
G02*
X126326458Y-89541864I53033J53033D01*
G01*
X126432524Y-89435798D01*
G75*
G02*
X126538590Y-89435798I53033J-53033D01*
G01*
X127528540Y-90425748D01*
G75*
G02*
X127528540Y-90531814I-53033J-53033D01*
G01*
G37*
G36*
G01*
X127882093Y-90178261D02*
X127776027Y-90284327D01*
G75*
G02*
X127669961Y-90284327I-53033J53033D01*
G01*
X126680011Y-89294377D01*
G75*
G02*
X126680011Y-89188311I53033J53033D01*
G01*
X126786077Y-89082245D01*
G75*
G02*
X126892143Y-89082245I53033J-53033D01*
G01*
X127882093Y-90072195D01*
G75*
G02*
X127882093Y-90178261I-53033J-53033D01*
G01*
G37*
G36*
G01*
X128235647Y-89824707D02*
X128129581Y-89930773D01*
G75*
G02*
X128023515Y-89930773I-53033J53033D01*
G01*
X127033565Y-88940823D01*
G75*
G02*
X127033565Y-88834757I53033J53033D01*
G01*
X127139631Y-88728691D01*
G75*
G02*
X127245697Y-88728691I53033J-53033D01*
G01*
X128235647Y-89718641D01*
G75*
G02*
X128235647Y-89824707I-53033J-53033D01*
G01*
G37*
G36*
G01*
X128589200Y-89471154D02*
X128483134Y-89577220D01*
G75*
G02*
X128377068Y-89577220I-53033J53033D01*
G01*
X127387118Y-88587270D01*
G75*
G02*
X127387118Y-88481204I53033J53033D01*
G01*
X127493184Y-88375138D01*
G75*
G02*
X127599250Y-88375138I53033J-53033D01*
G01*
X128589200Y-89365088D01*
G75*
G02*
X128589200Y-89471154I-53033J-53033D01*
G01*
G37*
G36*
G01*
X128942754Y-89117600D02*
X128836688Y-89223666D01*
G75*
G02*
X128730622Y-89223666I-53033J53033D01*
G01*
X127740672Y-88233716D01*
G75*
G02*
X127740672Y-88127650I53033J53033D01*
G01*
X127846738Y-88021584D01*
G75*
G02*
X127952804Y-88021584I53033J-53033D01*
G01*
X128942754Y-89011534D01*
G75*
G02*
X128942754Y-89117600I-53033J-53033D01*
G01*
G37*
G36*
G01*
X129296307Y-88764047D02*
X129190241Y-88870113D01*
G75*
G02*
X129084175Y-88870113I-53033J53033D01*
G01*
X128094225Y-87880163D01*
G75*
G02*
X128094225Y-87774097I53033J53033D01*
G01*
X128200291Y-87668031D01*
G75*
G02*
X128306357Y-87668031I53033J-53033D01*
G01*
X129296307Y-88657981D01*
G75*
G02*
X129296307Y-88764047I-53033J-53033D01*
G01*
G37*
G36*
G01*
X129649860Y-88410494D02*
X129543794Y-88516560D01*
G75*
G02*
X129437728Y-88516560I-53033J53033D01*
G01*
X128447778Y-87526610D01*
G75*
G02*
X128447778Y-87420544I53033J53033D01*
G01*
X128553844Y-87314478D01*
G75*
G02*
X128659910Y-87314478I53033J-53033D01*
G01*
X129649860Y-88304428D01*
G75*
G02*
X129649860Y-88410494I-53033J-53033D01*
G01*
G37*
G36*
G01*
X132372222Y-87526610D02*
X131382272Y-88516560D01*
G75*
G02*
X131276206Y-88516560I-53033J53033D01*
G01*
X131170140Y-88410494D01*
G75*
G02*
X131170140Y-88304428I53033J53033D01*
G01*
X132160090Y-87314478D01*
G75*
G02*
X132266156Y-87314478I53033J-53033D01*
G01*
X132372222Y-87420544D01*
G75*
G02*
X132372222Y-87526610I-53033J-53033D01*
G01*
G37*
G36*
G01*
X132725775Y-87880163D02*
X131735825Y-88870113D01*
G75*
G02*
X131629759Y-88870113I-53033J53033D01*
G01*
X131523693Y-88764047D01*
G75*
G02*
X131523693Y-88657981I53033J53033D01*
G01*
X132513643Y-87668031D01*
G75*
G02*
X132619709Y-87668031I53033J-53033D01*
G01*
X132725775Y-87774097D01*
G75*
G02*
X132725775Y-87880163I-53033J-53033D01*
G01*
G37*
G36*
G01*
X133079328Y-88233716D02*
X132089378Y-89223666D01*
G75*
G02*
X131983312Y-89223666I-53033J53033D01*
G01*
X131877246Y-89117600D01*
G75*
G02*
X131877246Y-89011534I53033J53033D01*
G01*
X132867196Y-88021584D01*
G75*
G02*
X132973262Y-88021584I53033J-53033D01*
G01*
X133079328Y-88127650D01*
G75*
G02*
X133079328Y-88233716I-53033J-53033D01*
G01*
G37*
G36*
G01*
X133432882Y-88587270D02*
X132442932Y-89577220D01*
G75*
G02*
X132336866Y-89577220I-53033J53033D01*
G01*
X132230800Y-89471154D01*
G75*
G02*
X132230800Y-89365088I53033J53033D01*
G01*
X133220750Y-88375138D01*
G75*
G02*
X133326816Y-88375138I53033J-53033D01*
G01*
X133432882Y-88481204D01*
G75*
G02*
X133432882Y-88587270I-53033J-53033D01*
G01*
G37*
G36*
G01*
X133786435Y-88940823D02*
X132796485Y-89930773D01*
G75*
G02*
X132690419Y-89930773I-53033J53033D01*
G01*
X132584353Y-89824707D01*
G75*
G02*
X132584353Y-89718641I53033J53033D01*
G01*
X133574303Y-88728691D01*
G75*
G02*
X133680369Y-88728691I53033J-53033D01*
G01*
X133786435Y-88834757D01*
G75*
G02*
X133786435Y-88940823I-53033J-53033D01*
G01*
G37*
G36*
G01*
X134139989Y-89294377D02*
X133150039Y-90284327D01*
G75*
G02*
X133043973Y-90284327I-53033J53033D01*
G01*
X132937907Y-90178261D01*
G75*
G02*
X132937907Y-90072195I53033J53033D01*
G01*
X133927857Y-89082245D01*
G75*
G02*
X134033923Y-89082245I53033J-53033D01*
G01*
X134139989Y-89188311D01*
G75*
G02*
X134139989Y-89294377I-53033J-53033D01*
G01*
G37*
G36*
G01*
X134493542Y-89647930D02*
X133503592Y-90637880D01*
G75*
G02*
X133397526Y-90637880I-53033J53033D01*
G01*
X133291460Y-90531814D01*
G75*
G02*
X133291460Y-90425748I53033J53033D01*
G01*
X134281410Y-89435798D01*
G75*
G02*
X134387476Y-89435798I53033J-53033D01*
G01*
X134493542Y-89541864D01*
G75*
G02*
X134493542Y-89647930I-53033J-53033D01*
G01*
G37*
G36*
G01*
X134847095Y-90001483D02*
X133857145Y-90991433D01*
G75*
G02*
X133751079Y-90991433I-53033J53033D01*
G01*
X133645013Y-90885367D01*
G75*
G02*
X133645013Y-90779301I53033J53033D01*
G01*
X134634963Y-89789351D01*
G75*
G02*
X134741029Y-89789351I53033J-53033D01*
G01*
X134847095Y-89895417D01*
G75*
G02*
X134847095Y-90001483I-53033J-53033D01*
G01*
G37*
G36*
G01*
X135200649Y-90355037D02*
X134210699Y-91344987D01*
G75*
G02*
X134104633Y-91344987I-53033J53033D01*
G01*
X133998567Y-91238921D01*
G75*
G02*
X133998567Y-91132855I53033J53033D01*
G01*
X134988517Y-90142905D01*
G75*
G02*
X135094583Y-90142905I53033J-53033D01*
G01*
X135200649Y-90248971D01*
G75*
G02*
X135200649Y-90355037I-53033J-53033D01*
G01*
G37*
G36*
G01*
X135554202Y-90708590D02*
X134564252Y-91698540D01*
G75*
G02*
X134458186Y-91698540I-53033J53033D01*
G01*
X134352120Y-91592474D01*
G75*
G02*
X134352120Y-91486408I53033J53033D01*
G01*
X135342070Y-90496458D01*
G75*
G02*
X135448136Y-90496458I53033J-53033D01*
G01*
X135554202Y-90602524D01*
G75*
G02*
X135554202Y-90708590I-53033J-53033D01*
G01*
G37*
G36*
G01*
X135907755Y-91062143D02*
X134917805Y-92052093D01*
G75*
G02*
X134811739Y-92052093I-53033J53033D01*
G01*
X134705673Y-91946027D01*
G75*
G02*
X134705673Y-91839961I53033J53033D01*
G01*
X135695623Y-90850011D01*
G75*
G02*
X135801689Y-90850011I53033J-53033D01*
G01*
X135907755Y-90956077D01*
G75*
G02*
X135907755Y-91062143I-53033J-53033D01*
G01*
G37*
G36*
G01*
X136261309Y-91415697D02*
X135271359Y-92405647D01*
G75*
G02*
X135165293Y-92405647I-53033J53033D01*
G01*
X135059227Y-92299581D01*
G75*
G02*
X135059227Y-92193515I53033J53033D01*
G01*
X136049177Y-91203565D01*
G75*
G02*
X136155243Y-91203565I53033J-53033D01*
G01*
X136261309Y-91309631D01*
G75*
G02*
X136261309Y-91415697I-53033J-53033D01*
G01*
G37*
G36*
G01*
X136614862Y-91769250D02*
X135624912Y-92759200D01*
G75*
G02*
X135518846Y-92759200I-53033J53033D01*
G01*
X135412780Y-92653134D01*
G75*
G02*
X135412780Y-92547068I53033J53033D01*
G01*
X136402730Y-91557118D01*
G75*
G02*
X136508796Y-91557118I53033J-53033D01*
G01*
X136614862Y-91663184D01*
G75*
G02*
X136614862Y-91769250I-53033J-53033D01*
G01*
G37*
G36*
G01*
X136968416Y-92122804D02*
X135978466Y-93112754D01*
G75*
G02*
X135872400Y-93112754I-53033J53033D01*
G01*
X135766334Y-93006688D01*
G75*
G02*
X135766334Y-92900622I53033J53033D01*
G01*
X136756284Y-91910672D01*
G75*
G02*
X136862350Y-91910672I53033J-53033D01*
G01*
X136968416Y-92016738D01*
G75*
G02*
X136968416Y-92122804I-53033J-53033D01*
G01*
G37*
G36*
G01*
X137321969Y-92476357D02*
X136332019Y-93466307D01*
G75*
G02*
X136225953Y-93466307I-53033J53033D01*
G01*
X136119887Y-93360241D01*
G75*
G02*
X136119887Y-93254175I53033J53033D01*
G01*
X137109837Y-92264225D01*
G75*
G02*
X137215903Y-92264225I53033J-53033D01*
G01*
X137321969Y-92370291D01*
G75*
G02*
X137321969Y-92476357I-53033J-53033D01*
G01*
G37*
G36*
G01*
X137675522Y-92829910D02*
X136685572Y-93819860D01*
G75*
G02*
X136579506Y-93819860I-53033J53033D01*
G01*
X136473440Y-93713794D01*
G75*
G02*
X136473440Y-93607728I53033J53033D01*
G01*
X137463390Y-92617778D01*
G75*
G02*
X137569456Y-92617778I53033J-53033D01*
G01*
X137675522Y-92723844D01*
G75*
G02*
X137675522Y-92829910I-53033J-53033D01*
G01*
G37*
G36*
G01*
X137675522Y-96436156D02*
X137569456Y-96542222D01*
G75*
G02*
X137463390Y-96542222I-53033J53033D01*
G01*
X136473440Y-95552272D01*
G75*
G02*
X136473440Y-95446206I53033J53033D01*
G01*
X136579506Y-95340140D01*
G75*
G02*
X136685572Y-95340140I53033J-53033D01*
G01*
X137675522Y-96330090D01*
G75*
G02*
X137675522Y-96436156I-53033J-53033D01*
G01*
G37*
G36*
G01*
X137321969Y-96789709D02*
X137215903Y-96895775D01*
G75*
G02*
X137109837Y-96895775I-53033J53033D01*
G01*
X136119887Y-95905825D01*
G75*
G02*
X136119887Y-95799759I53033J53033D01*
G01*
X136225953Y-95693693D01*
G75*
G02*
X136332019Y-95693693I53033J-53033D01*
G01*
X137321969Y-96683643D01*
G75*
G02*
X137321969Y-96789709I-53033J-53033D01*
G01*
G37*
G36*
G01*
X136968416Y-97143262D02*
X136862350Y-97249328D01*
G75*
G02*
X136756284Y-97249328I-53033J53033D01*
G01*
X135766334Y-96259378D01*
G75*
G02*
X135766334Y-96153312I53033J53033D01*
G01*
X135872400Y-96047246D01*
G75*
G02*
X135978466Y-96047246I53033J-53033D01*
G01*
X136968416Y-97037196D01*
G75*
G02*
X136968416Y-97143262I-53033J-53033D01*
G01*
G37*
G36*
G01*
X136614862Y-97496816D02*
X136508796Y-97602882D01*
G75*
G02*
X136402730Y-97602882I-53033J53033D01*
G01*
X135412780Y-96612932D01*
G75*
G02*
X135412780Y-96506866I53033J53033D01*
G01*
X135518846Y-96400800D01*
G75*
G02*
X135624912Y-96400800I53033J-53033D01*
G01*
X136614862Y-97390750D01*
G75*
G02*
X136614862Y-97496816I-53033J-53033D01*
G01*
G37*
G36*
G01*
X136261309Y-97850369D02*
X136155243Y-97956435D01*
G75*
G02*
X136049177Y-97956435I-53033J53033D01*
G01*
X135059227Y-96966485D01*
G75*
G02*
X135059227Y-96860419I53033J53033D01*
G01*
X135165293Y-96754353D01*
G75*
G02*
X135271359Y-96754353I53033J-53033D01*
G01*
X136261309Y-97744303D01*
G75*
G02*
X136261309Y-97850369I-53033J-53033D01*
G01*
G37*
G36*
G01*
X135907755Y-98203923D02*
X135801689Y-98309989D01*
G75*
G02*
X135695623Y-98309989I-53033J53033D01*
G01*
X134705673Y-97320039D01*
G75*
G02*
X134705673Y-97213973I53033J53033D01*
G01*
X134811739Y-97107907D01*
G75*
G02*
X134917805Y-97107907I53033J-53033D01*
G01*
X135907755Y-98097857D01*
G75*
G02*
X135907755Y-98203923I-53033J-53033D01*
G01*
G37*
G36*
G01*
X135554202Y-98557476D02*
X135448136Y-98663542D01*
G75*
G02*
X135342070Y-98663542I-53033J53033D01*
G01*
X134352120Y-97673592D01*
G75*
G02*
X134352120Y-97567526I53033J53033D01*
G01*
X134458186Y-97461460D01*
G75*
G02*
X134564252Y-97461460I53033J-53033D01*
G01*
X135554202Y-98451410D01*
G75*
G02*
X135554202Y-98557476I-53033J-53033D01*
G01*
G37*
G36*
G01*
X135200649Y-98911029D02*
X135094583Y-99017095D01*
G75*
G02*
X134988517Y-99017095I-53033J53033D01*
G01*
X133998567Y-98027145D01*
G75*
G02*
X133998567Y-97921079I53033J53033D01*
G01*
X134104633Y-97815013D01*
G75*
G02*
X134210699Y-97815013I53033J-53033D01*
G01*
X135200649Y-98804963D01*
G75*
G02*
X135200649Y-98911029I-53033J-53033D01*
G01*
G37*
G36*
G01*
X134847095Y-99264583D02*
X134741029Y-99370649D01*
G75*
G02*
X134634963Y-99370649I-53033J53033D01*
G01*
X133645013Y-98380699D01*
G75*
G02*
X133645013Y-98274633I53033J53033D01*
G01*
X133751079Y-98168567D01*
G75*
G02*
X133857145Y-98168567I53033J-53033D01*
G01*
X134847095Y-99158517D01*
G75*
G02*
X134847095Y-99264583I-53033J-53033D01*
G01*
G37*
G36*
G01*
X134493542Y-99618136D02*
X134387476Y-99724202D01*
G75*
G02*
X134281410Y-99724202I-53033J53033D01*
G01*
X133291460Y-98734252D01*
G75*
G02*
X133291460Y-98628186I53033J53033D01*
G01*
X133397526Y-98522120D01*
G75*
G02*
X133503592Y-98522120I53033J-53033D01*
G01*
X134493542Y-99512070D01*
G75*
G02*
X134493542Y-99618136I-53033J-53033D01*
G01*
G37*
G36*
G01*
X134139989Y-99971689D02*
X134033923Y-100077755D01*
G75*
G02*
X133927857Y-100077755I-53033J53033D01*
G01*
X132937907Y-99087805D01*
G75*
G02*
X132937907Y-98981739I53033J53033D01*
G01*
X133043973Y-98875673D01*
G75*
G02*
X133150039Y-98875673I53033J-53033D01*
G01*
X134139989Y-99865623D01*
G75*
G02*
X134139989Y-99971689I-53033J-53033D01*
G01*
G37*
G36*
G01*
X133786435Y-100325243D02*
X133680369Y-100431309D01*
G75*
G02*
X133574303Y-100431309I-53033J53033D01*
G01*
X132584353Y-99441359D01*
G75*
G02*
X132584353Y-99335293I53033J53033D01*
G01*
X132690419Y-99229227D01*
G75*
G02*
X132796485Y-99229227I53033J-53033D01*
G01*
X133786435Y-100219177D01*
G75*
G02*
X133786435Y-100325243I-53033J-53033D01*
G01*
G37*
G36*
G01*
X133432882Y-100678796D02*
X133326816Y-100784862D01*
G75*
G02*
X133220750Y-100784862I-53033J53033D01*
G01*
X132230800Y-99794912D01*
G75*
G02*
X132230800Y-99688846I53033J53033D01*
G01*
X132336866Y-99582780D01*
G75*
G02*
X132442932Y-99582780I53033J-53033D01*
G01*
X133432882Y-100572730D01*
G75*
G02*
X133432882Y-100678796I-53033J-53033D01*
G01*
G37*
G36*
G01*
X133079328Y-101032350D02*
X132973262Y-101138416D01*
G75*
G02*
X132867196Y-101138416I-53033J53033D01*
G01*
X131877246Y-100148466D01*
G75*
G02*
X131877246Y-100042400I53033J53033D01*
G01*
X131983312Y-99936334D01*
G75*
G02*
X132089378Y-99936334I53033J-53033D01*
G01*
X133079328Y-100926284D01*
G75*
G02*
X133079328Y-101032350I-53033J-53033D01*
G01*
G37*
G36*
G01*
X132725775Y-101385903D02*
X132619709Y-101491969D01*
G75*
G02*
X132513643Y-101491969I-53033J53033D01*
G01*
X131523693Y-100502019D01*
G75*
G02*
X131523693Y-100395953I53033J53033D01*
G01*
X131629759Y-100289887D01*
G75*
G02*
X131735825Y-100289887I53033J-53033D01*
G01*
X132725775Y-101279837D01*
G75*
G02*
X132725775Y-101385903I-53033J-53033D01*
G01*
G37*
G36*
G01*
X132372222Y-101739456D02*
X132266156Y-101845522D01*
G75*
G02*
X132160090Y-101845522I-53033J53033D01*
G01*
X131170140Y-100855572D01*
G75*
G02*
X131170140Y-100749506I53033J53033D01*
G01*
X131276206Y-100643440D01*
G75*
G02*
X131382272Y-100643440I53033J-53033D01*
G01*
X132372222Y-101633390D01*
G75*
G02*
X132372222Y-101739456I-53033J-53033D01*
G01*
G37*
%TD*%
D26*
%TO.C,U8*%
X117250000Y-85975000D03*
D27*
X117250000Y-85975000D03*
D28*
X116050000Y-84725000D03*
D27*
X117250000Y-84975000D03*
X117250000Y-86975000D03*
D28*
X116050000Y-85225000D03*
X116050000Y-85725000D03*
X116050000Y-86225000D03*
X116050000Y-86725000D03*
X116050000Y-87225000D03*
X118450000Y-87225000D03*
X118450000Y-86725000D03*
X118450000Y-86225000D03*
X118450000Y-85725000D03*
X118450000Y-85225000D03*
X118450000Y-84725000D03*
%TD*%
%TO.C,U9*%
X118450000Y-101325000D03*
X118450000Y-101825000D03*
X118450000Y-102325000D03*
X118450000Y-102825000D03*
X118450000Y-103325000D03*
X118450000Y-103825000D03*
X116050000Y-103825000D03*
X116050000Y-103325000D03*
X116050000Y-102825000D03*
X116050000Y-102325000D03*
X116050000Y-101825000D03*
D27*
X117250000Y-103575000D03*
X117250000Y-101575000D03*
D28*
X116050000Y-101325000D03*
D27*
X117250000Y-102575000D03*
D26*
X117250000Y-102575000D03*
%TD*%
%TO.C,C24*%
G36*
G01*
X109675000Y-120362500D02*
X109675000Y-120837500D01*
G75*
G02*
X109437500Y-121075000I-237500J0D01*
G01*
X108837500Y-121075000D01*
G75*
G02*
X108600000Y-120837500I0J237500D01*
G01*
X108600000Y-120362500D01*
G75*
G02*
X108837500Y-120125000I237500J0D01*
G01*
X109437500Y-120125000D01*
G75*
G02*
X109675000Y-120362500I0J-237500D01*
G01*
G37*
G36*
G01*
X111400000Y-120362500D02*
X111400000Y-120837500D01*
G75*
G02*
X111162500Y-121075000I-237500J0D01*
G01*
X110562500Y-121075000D01*
G75*
G02*
X110325000Y-120837500I0J237500D01*
G01*
X110325000Y-120362500D01*
G75*
G02*
X110562500Y-120125000I237500J0D01*
G01*
X111162500Y-120125000D01*
G75*
G02*
X111400000Y-120362500I0J-237500D01*
G01*
G37*
%TD*%
D22*
%TO.C,SW3*%
X108100000Y-116425000D03*
X108075000Y-118575000D03*
X112225000Y-116425000D03*
X112225000Y-118575000D03*
%TD*%
M02*
