%TF.GenerationSoftware,KiCad,Pcbnew,(5.1.7)-1*%
%TF.CreationDate,2021-11-24T18:57:27+09:00*%
%TF.ProjectId,Quatro,51756174-726f-42e6-9b69-6361645f7063,0*%
%TF.SameCoordinates,Original*%
%TF.FileFunction,Legend,Top*%
%TF.FilePolarity,Positive*%
%FSLAX46Y46*%
G04 Gerber Fmt 4.6, Leading zero omitted, Abs format (unit mm)*
G04 Created by KiCad (PCBNEW (5.1.7)-1) date 2021-11-24 18:57:27*
%MOMM*%
%LPD*%
G01*
G04 APERTURE LIST*
%TA.AperFunction,Profile*%
%ADD10C,0.200000*%
%TD*%
%ADD11C,0.120000*%
%ADD12C,0.127000*%
%ADD13C,0.100000*%
%ADD14C,0.150000*%
G04 APERTURE END LIST*
D10*
X170788838Y-58175084D02*
G75*
G02*
X170788843Y-130946030I-1028246J-36385473D01*
G01*
X169760594Y-71360558D02*
X169760594Y-59174685D01*
X110760595Y-60360557D02*
X113160593Y-60360557D01*
X157360593Y-114760556D02*
G75*
G03*
X157360593Y-114760556I-1100001J0D01*
G01*
X169760593Y-129946429D02*
X169760593Y-117760555D01*
X106160594Y-128760556D02*
X106160593Y-60360557D01*
X169760595Y-71360555D02*
G75*
G02*
X168760594Y-72360558I-1000002J-1D01*
G01*
X197128428Y-79950000D02*
X198542640Y-78535786D01*
X106160593Y-60360557D02*
X110760595Y-60360557D01*
X130360596Y-114760557D02*
G75*
G03*
X130360596Y-114760557I-1100001J0D01*
G01*
X195714214Y-78535787D02*
X197128428Y-79950000D01*
X194300000Y-77121573D02*
X195714214Y-78535787D01*
X180760595Y-94560557D02*
G75*
G03*
X180760595Y-94560557I-8000001J0D01*
G01*
X157360594Y-74360558D02*
G75*
G03*
X157360594Y-74360558I-1100001J0D01*
G01*
X130360597Y-74360557D02*
G75*
G03*
X130360597Y-74360557I-1100000J0D01*
G01*
X169760595Y-59174687D02*
G75*
G02*
X170788841Y-58175085I999999J2D01*
G01*
X170788842Y-130946030D02*
G75*
G02*
X169760593Y-129946429I-28249J999601D01*
G01*
X115760595Y-72360558D02*
X168760594Y-72360558D01*
X113160593Y-60360557D02*
X115760595Y-72360558D01*
X168760592Y-116760556D02*
G75*
G02*
X169760593Y-117760555I1J-1000000D01*
G01*
X113160595Y-128760558D02*
X106160594Y-128760556D01*
X115760595Y-116760556D02*
X113160595Y-128760558D01*
X168760593Y-116760556D02*
X115760595Y-116760556D01*
X195714214Y-107756901D02*
X194299999Y-106342687D01*
X180764400Y-67643148D02*
X180938710Y-69635540D01*
X184923487Y-69286914D02*
X184574865Y-65302137D01*
X182756788Y-67468837D02*
X182931100Y-69461226D01*
X182582477Y-65476446D02*
X182756788Y-67468837D01*
X194626591Y-94560557D02*
G75*
G03*
X194626591Y-94560557I-1099998J0D01*
G01*
X192885787Y-78535787D02*
X194300000Y-79950000D01*
X195714214Y-75707359D02*
X194300000Y-77121573D01*
X184574865Y-123818979D02*
X182582477Y-123644667D01*
X178946321Y-69809849D02*
X178597697Y-65825070D01*
X194300001Y-111999541D02*
X195714214Y-110585328D01*
X180938710Y-69635540D02*
X178946321Y-69809849D01*
X195714214Y-110585328D02*
X197128427Y-109171114D01*
X182931100Y-69461226D02*
X184923487Y-69286914D01*
X182931100Y-119659889D02*
X184923489Y-119834198D01*
X178597697Y-65825070D02*
X180590087Y-65650759D01*
X194300000Y-82778427D02*
X191471573Y-79950000D01*
X191471573Y-109171112D02*
X192885787Y-110585327D01*
X178597699Y-123296044D02*
X180590088Y-123470356D01*
X180938709Y-119485577D02*
X178946320Y-119311265D01*
X191471573Y-79950000D02*
X192885787Y-78535787D01*
X184923489Y-119834198D02*
X184574865Y-123818979D01*
X195714214Y-81364214D02*
X194300000Y-82778427D01*
X198542642Y-110585327D02*
X195714215Y-113413756D01*
X194299999Y-106342687D02*
X191471573Y-109171112D01*
X184574865Y-65302137D02*
X182582477Y-65476446D01*
X180590088Y-123470356D02*
X180764398Y-121477967D01*
X178946320Y-119311265D02*
X178597699Y-123296044D01*
X198542640Y-78535786D02*
X195714214Y-75707359D01*
X182582477Y-123644667D02*
X182756788Y-121652278D01*
X180764398Y-121477967D02*
X180938709Y-119485577D01*
X182756788Y-121652278D02*
X182931100Y-119659889D01*
X195714215Y-113413756D02*
X194300001Y-111999541D01*
X197128427Y-109171114D02*
X198542642Y-110585327D01*
X194300000Y-109171114D02*
X195714214Y-107756901D01*
X192885787Y-110585327D02*
X194300000Y-109171114D01*
X180590087Y-65650759D02*
X180764400Y-67643148D01*
X194300000Y-79950000D02*
X195714214Y-81364214D01*
D11*
%TO.C,U6*%
X153430000Y-93240000D02*
X153430000Y-92990000D01*
X150210000Y-96210000D02*
X150460000Y-96210000D01*
X150210000Y-95960000D02*
X150210000Y-96210000D01*
X150210000Y-92990000D02*
X150460000Y-92990000D01*
X150210000Y-93240000D02*
X150210000Y-92990000D01*
X153430000Y-96210000D02*
X153180000Y-96210000D01*
X153430000Y-95960000D02*
X153430000Y-96210000D01*
D12*
%TO.C,U5*%
X130850000Y-77300000D02*
X136550000Y-77300000D01*
X136550000Y-77300000D02*
X136550000Y-82300000D01*
X136550000Y-82300000D02*
X130850000Y-82300000D01*
X130850000Y-82300000D02*
X130850000Y-77300000D01*
D13*
X136850000Y-77450000D02*
G75*
G03*
X136850000Y-77450000I-50000J0D01*
G01*
D11*
%TO.C,22p1*%
X202623733Y-87440000D02*
X202916267Y-87440000D01*
X202623733Y-86420000D02*
X202916267Y-86420000D01*
%TO.C,22p2*%
X199126267Y-86420000D02*
X198833733Y-86420000D01*
X199126267Y-87440000D02*
X198833733Y-87440000D01*
%TO.C,22p3*%
X199126267Y-101390000D02*
X198833733Y-101390000D01*
X199126267Y-102410000D02*
X198833733Y-102410000D01*
%TO.C,22p4*%
X202623733Y-101390000D02*
X202916267Y-101390000D01*
X202623733Y-102410000D02*
X202916267Y-102410000D01*
%TO.C,C1*%
X176346267Y-60730000D02*
X176053733Y-60730000D01*
X176346267Y-59710000D02*
X176053733Y-59710000D01*
%TO.C,C2*%
X176346267Y-62990000D02*
X176053733Y-62990000D01*
X176346267Y-61970000D02*
X176053733Y-61970000D01*
%TO.C,C3*%
X176366267Y-126840000D02*
X176073733Y-126840000D01*
X176366267Y-125820000D02*
X176073733Y-125820000D01*
%TO.C,C4*%
X176366267Y-129200000D02*
X176073733Y-129200000D01*
X176366267Y-128180000D02*
X176073733Y-128180000D01*
%TO.C,C5*%
X150530000Y-106563733D02*
X150530000Y-106856267D01*
X151550000Y-106563733D02*
X151550000Y-106856267D01*
%TO.C,C6*%
X151853733Y-100090000D02*
X152146267Y-100090000D01*
X151853733Y-101110000D02*
X152146267Y-101110000D01*
%TO.C,C7*%
X147560000Y-92496267D02*
X147560000Y-92203733D01*
X146540000Y-92496267D02*
X146540000Y-92203733D01*
%TO.C,C8*%
X128890000Y-78553733D02*
X128890000Y-78846267D01*
X129910000Y-78553733D02*
X129910000Y-78846267D01*
%TO.C,C9*%
X147560000Y-98403733D02*
X147560000Y-98696267D01*
X146540000Y-98403733D02*
X146540000Y-98696267D01*
%TO.C,C10*%
X151550000Y-110606267D02*
X151550000Y-110313733D01*
X150530000Y-110606267D02*
X150530000Y-110313733D01*
%TO.C,C11*%
X160540000Y-110606267D02*
X160540000Y-110313733D01*
X161560000Y-110606267D02*
X161560000Y-110313733D01*
%TO.C,C12*%
X148110000Y-78477133D02*
X148110000Y-78769667D01*
X147090000Y-78477133D02*
X147090000Y-78769667D01*
%TO.C,C13*%
X149200000Y-78477133D02*
X149200000Y-78769667D01*
X150220000Y-78477133D02*
X150220000Y-78769667D01*
%TO.C,C14*%
X166490000Y-110606267D02*
X166490000Y-110313733D01*
X165470000Y-110606267D02*
X165470000Y-110313733D01*
%TO.C,C15*%
X110046267Y-126420000D02*
X109753733Y-126420000D01*
X110046267Y-127440000D02*
X109753733Y-127440000D01*
%TO.C,C16*%
X128726267Y-81040000D02*
X128433733Y-81040000D01*
X128726267Y-82060000D02*
X128433733Y-82060000D01*
%TO.C,C17*%
X128046267Y-105190000D02*
X127753733Y-105190000D01*
X128046267Y-106210000D02*
X127753733Y-106210000D01*
%TO.C,C18*%
X138790000Y-86803733D02*
X138790000Y-87096267D01*
X139810000Y-86803733D02*
X139810000Y-87096267D01*
%TO.C,C19*%
X119510000Y-94353733D02*
X119510000Y-94646267D01*
X118490000Y-94353733D02*
X118490000Y-94646267D01*
%TO.C,C20*%
X123760000Y-107173733D02*
X123760000Y-107466267D01*
X124780000Y-107173733D02*
X124780000Y-107466267D01*
%TO.C,C21*%
X120130000Y-94646267D02*
X120130000Y-94353733D01*
X121150000Y-94646267D02*
X121150000Y-94353733D01*
%TO.C,C22*%
X128726267Y-83670000D02*
X128433733Y-83670000D01*
X128726267Y-82650000D02*
X128433733Y-82650000D01*
%TO.C,C23*%
X139760000Y-102003733D02*
X139760000Y-102296267D01*
X138740000Y-102003733D02*
X138740000Y-102296267D01*
%TO.C,D1*%
X172863579Y-68360047D02*
G75*
G02*
X170798280Y-68480991I-963579J-1239953D01*
G01*
%TO.C,D2*%
X188841118Y-85330764D02*
G75*
G02*
X187336748Y-86750962I58882J-1569236D01*
G01*
%TO.C,D3*%
X188869236Y-103641118D02*
G75*
G02*
X187449038Y-102136748I-1569236J-58882D01*
G01*
%TO.C,D4*%
X172864256Y-120746208D02*
G75*
G02*
X170809331Y-120506680I-1164256J-1053792D01*
G01*
%TO.C,D5*%
X191241118Y-83030764D02*
G75*
G02*
X189736748Y-84450962I58882J-1569236D01*
G01*
%TO.C,D6*%
X191269236Y-106041118D02*
G75*
G02*
X189849038Y-104536748I-1569236J-58882D01*
G01*
%TO.C,D7*%
X176163579Y-68060047D02*
G75*
G02*
X174098280Y-68180991I-963579J-1239953D01*
G01*
%TO.C,D8*%
X176164256Y-121046208D02*
G75*
G02*
X174109331Y-120806680I-1164256J-1053792D01*
G01*
%TO.C,D9*%
X123320000Y-73225000D02*
X120860000Y-73225000D01*
X123320000Y-74695000D02*
X123320000Y-73225000D01*
X120860000Y-74695000D02*
X123320000Y-74695000D01*
%TO.C,D10*%
X124360000Y-111645000D02*
X121900000Y-111645000D01*
X124360000Y-113115000D02*
X124360000Y-111645000D01*
X121900000Y-113115000D02*
X124360000Y-113115000D01*
%TO.C,D11*%
X121900000Y-116015000D02*
X124360000Y-116015000D01*
X124360000Y-116015000D02*
X124360000Y-114545000D01*
X124360000Y-114545000D02*
X121900000Y-114545000D01*
%TO.C,D12*%
X172900000Y-72665000D02*
X170440000Y-72665000D01*
X170440000Y-72665000D02*
X170440000Y-74135000D01*
X170440000Y-74135000D02*
X172900000Y-74135000D01*
%TO.C,D13*%
X185060000Y-77865000D02*
X182600000Y-77865000D01*
X185060000Y-79335000D02*
X185060000Y-77865000D01*
X182600000Y-79335000D02*
X185060000Y-79335000D01*
%TO.C,D14*%
X181785000Y-111285000D02*
X184245000Y-111285000D01*
X181785000Y-109815000D02*
X181785000Y-111285000D01*
X184245000Y-109815000D02*
X181785000Y-109815000D01*
%TO.C,D15*%
X172900000Y-112205000D02*
X170440000Y-112205000D01*
X170440000Y-112205000D02*
X170440000Y-113675000D01*
X170440000Y-113675000D02*
X172900000Y-113675000D01*
%TO.C,J1*%
X112800000Y-73360000D02*
X111470000Y-73360000D01*
X111470000Y-73360000D02*
X111470000Y-72600000D01*
X111470000Y-71965000D02*
X111470000Y-70635000D01*
X112492470Y-70635000D02*
X111470000Y-70635000D01*
X114130000Y-70635000D02*
X113107530Y-70635000D01*
X114130000Y-71965000D02*
X114130000Y-70635000D01*
X112040000Y-71965000D02*
X111470000Y-71965000D01*
X114130000Y-71965000D02*
X113560000Y-71965000D01*
%TO.C,J2*%
X109880000Y-71965000D02*
X109310000Y-71965000D01*
X107790000Y-71965000D02*
X107220000Y-71965000D01*
X109880000Y-71965000D02*
X109880000Y-70635000D01*
X109880000Y-70635000D02*
X108857530Y-70635000D01*
X108242470Y-70635000D02*
X107220000Y-70635000D01*
X107220000Y-71965000D02*
X107220000Y-70635000D01*
X107220000Y-73360000D02*
X107220000Y-72600000D01*
X108550000Y-73360000D02*
X107220000Y-73360000D01*
%TO.C,J3*%
X193600000Y-98540000D02*
X194930000Y-98540000D01*
X194930000Y-98540000D02*
X194930000Y-99300000D01*
X194930000Y-99935000D02*
X194930000Y-101265000D01*
X193907530Y-101265000D02*
X194930000Y-101265000D01*
X192270000Y-101265000D02*
X193292470Y-101265000D01*
X192270000Y-99935000D02*
X192270000Y-101265000D01*
X194360000Y-99935000D02*
X194930000Y-99935000D01*
X192270000Y-99935000D02*
X192840000Y-99935000D01*
%TO.C,J4*%
X109860000Y-81410000D02*
X111010000Y-81410000D01*
X111010000Y-81410000D02*
X111010000Y-80360000D01*
X111010000Y-80360000D02*
X112000000Y-80360000D01*
X109860000Y-75190000D02*
X111010000Y-75190000D01*
X111010000Y-75190000D02*
X111010000Y-76240000D01*
X107890000Y-80240000D02*
X107890000Y-76360000D01*
%TO.C,J5*%
X107890000Y-112540000D02*
X107890000Y-108660000D01*
X111010000Y-107490000D02*
X111010000Y-108540000D01*
X109860000Y-107490000D02*
X111010000Y-107490000D01*
X111010000Y-112660000D02*
X112000000Y-112660000D01*
X111010000Y-113710000D02*
X111010000Y-112660000D01*
X109860000Y-113710000D02*
X111010000Y-113710000D01*
%TO.C,J6*%
X107770000Y-83970000D02*
X109100000Y-83970000D01*
X107770000Y-85300000D02*
X107770000Y-83970000D01*
X110370000Y-83970000D02*
X112970000Y-83970000D01*
X110370000Y-86570000D02*
X110370000Y-83970000D01*
X107770000Y-86570000D02*
X110370000Y-86570000D01*
X112970000Y-83970000D02*
X112970000Y-91710000D01*
X107770000Y-86570000D02*
X107770000Y-91710000D01*
X107770000Y-91710000D02*
X112970000Y-91710000D01*
%TO.C,J7*%
X107770000Y-104610000D02*
X112970000Y-104610000D01*
X107770000Y-99470000D02*
X107770000Y-104610000D01*
X112970000Y-96870000D02*
X112970000Y-104610000D01*
X107770000Y-99470000D02*
X110370000Y-99470000D01*
X110370000Y-99470000D02*
X110370000Y-96870000D01*
X110370000Y-96870000D02*
X112970000Y-96870000D01*
X107770000Y-98200000D02*
X107770000Y-96870000D01*
X107770000Y-96870000D02*
X109100000Y-96870000D01*
%TO.C,L1*%
X158600000Y-110262064D02*
X158600000Y-109057936D01*
X155880000Y-110262064D02*
X155880000Y-109057936D01*
%TO.C,Q1*%
X118950000Y-76490000D02*
X118950000Y-77950000D01*
X115790000Y-76490000D02*
X115790000Y-78650000D01*
X115790000Y-76490000D02*
X116720000Y-76490000D01*
X118950000Y-76490000D02*
X118020000Y-76490000D01*
%TO.C,Q2*%
X193370000Y-88150000D02*
X193370000Y-89080000D01*
X193370000Y-91310000D02*
X193370000Y-90380000D01*
X193370000Y-91310000D02*
X195530000Y-91310000D01*
X193370000Y-88150000D02*
X194830000Y-88150000D01*
%TO.C,Q3*%
X159360000Y-84967500D02*
X159360000Y-84037500D01*
X159360000Y-81807500D02*
X159360000Y-82737500D01*
X159360000Y-81807500D02*
X157200000Y-81807500D01*
X159360000Y-84967500D02*
X157900000Y-84967500D01*
%TO.C,R1*%
X172357064Y-59705000D02*
X171902936Y-59705000D01*
X172357064Y-61175000D02*
X171902936Y-61175000D01*
%TO.C,R2*%
X172357064Y-61965000D02*
X171902936Y-61965000D01*
X172357064Y-63435000D02*
X171902936Y-63435000D01*
%TO.C,R3*%
X172397064Y-125375000D02*
X171942936Y-125375000D01*
X172397064Y-126845000D02*
X171942936Y-126845000D01*
%TO.C,R4*%
X172397064Y-129205000D02*
X171942936Y-129205000D01*
X172397064Y-127735000D02*
X171942936Y-127735000D01*
%TO.C,R5*%
X117697064Y-74875000D02*
X117242936Y-74875000D01*
X117697064Y-73405000D02*
X117242936Y-73405000D01*
%TO.C,R6*%
X202515276Y-88767500D02*
X203024724Y-88767500D01*
X202515276Y-89812500D02*
X203024724Y-89812500D01*
%TO.C,R7*%
X199234724Y-89812500D02*
X198725276Y-89812500D01*
X199234724Y-88767500D02*
X198725276Y-88767500D01*
%TO.C,R8*%
X199234724Y-100182500D02*
X198725276Y-100182500D01*
X199234724Y-99137500D02*
X198725276Y-99137500D01*
%TO.C,R9*%
X202515276Y-99137500D02*
X203024724Y-99137500D01*
X202515276Y-100182500D02*
X203024724Y-100182500D01*
%TO.C,R10*%
X122697500Y-81575276D02*
X122697500Y-82084724D01*
X123742500Y-81575276D02*
X123742500Y-82084724D01*
%TO.C,R11*%
X126395000Y-82257064D02*
X126395000Y-81802936D01*
X124925000Y-82257064D02*
X124925000Y-81802936D01*
%TO.C,R12*%
X191535000Y-73722936D02*
X191535000Y-74177064D01*
X190065000Y-73722936D02*
X190065000Y-74177064D01*
%TO.C,R13*%
X191635000Y-114822936D02*
X191635000Y-115277064D01*
X190165000Y-114822936D02*
X190165000Y-115277064D01*
%TO.C,R14*%
X153175000Y-110032936D02*
X153175000Y-110487064D01*
X154645000Y-110032936D02*
X154645000Y-110487064D01*
%TO.C,R15*%
X151790000Y-78696336D02*
X151790000Y-80150464D01*
X153610000Y-78696336D02*
X153610000Y-80150464D01*
%TO.C,R16*%
X165465000Y-114827064D02*
X165465000Y-114372936D01*
X166935000Y-114827064D02*
X166935000Y-114372936D01*
%TO.C,R17*%
X163925000Y-110487064D02*
X163925000Y-110032936D01*
X162455000Y-110487064D02*
X162455000Y-110032936D01*
%TO.C,R18*%
X122087064Y-78735000D02*
X121632936Y-78735000D01*
X122087064Y-77265000D02*
X121632936Y-77265000D01*
%TO.C,R19*%
X191762500Y-89575276D02*
X191762500Y-90084724D01*
X190717500Y-89575276D02*
X190717500Y-90084724D01*
%TO.C,R20*%
X199234724Y-83877500D02*
X198725276Y-83877500D01*
X199234724Y-84922500D02*
X198725276Y-84922500D01*
%TO.C,R21*%
X117772936Y-111465000D02*
X118227064Y-111465000D01*
X117772936Y-112935000D02*
X118227064Y-112935000D01*
%TO.C,R22*%
X117772936Y-114365000D02*
X118227064Y-114365000D01*
X117772936Y-115835000D02*
X118227064Y-115835000D01*
%TO.C,R23*%
X171672936Y-76335000D02*
X172127064Y-76335000D01*
X171672936Y-74865000D02*
X172127064Y-74865000D01*
%TO.C,R24*%
X183827064Y-81735000D02*
X183372936Y-81735000D01*
X183827064Y-80265000D02*
X183372936Y-80265000D01*
%TO.C,R25*%
X183372936Y-107445000D02*
X183827064Y-107445000D01*
X183372936Y-108915000D02*
X183827064Y-108915000D01*
%TO.C,R26*%
X171672936Y-114265000D02*
X172127064Y-114265000D01*
X171672936Y-115735000D02*
X172127064Y-115735000D01*
%TO.C,R27*%
X156122500Y-83032776D02*
X156122500Y-83542224D01*
X155077500Y-83032776D02*
X155077500Y-83542224D01*
%TO.C,R28*%
X167735000Y-74472936D02*
X167735000Y-74927064D01*
X166265000Y-74472936D02*
X166265000Y-74927064D01*
%TO.C,R29*%
X121265000Y-106892936D02*
X121265000Y-107347064D01*
X122735000Y-106892936D02*
X122735000Y-107347064D01*
%TO.C,SW1*%
X107820000Y-69175000D02*
X110480000Y-69175000D01*
X107820000Y-64035000D02*
X107820000Y-69175000D01*
X110480000Y-64035000D02*
X110480000Y-69175000D01*
X107820000Y-64035000D02*
X110480000Y-64035000D01*
X107820000Y-62765000D02*
X107820000Y-61435000D01*
X107820000Y-61435000D02*
X109150000Y-61435000D01*
%TO.C,SW2*%
X112350000Y-123550000D02*
X112350000Y-123650000D01*
X107950000Y-125350000D02*
X112350000Y-125350000D01*
X112350000Y-121850000D02*
X107950000Y-121850000D01*
X107950000Y-123550000D02*
X107950000Y-123650000D01*
%TO.C,U1*%
X202690000Y-94600000D02*
X202690000Y-91000000D01*
X202690000Y-94600000D02*
X202690000Y-96800000D01*
X197470000Y-94600000D02*
X197470000Y-92400000D01*
X197470000Y-94600000D02*
X197470000Y-96800000D01*
%TO.C,U2*%
X130500000Y-105190000D02*
X136510000Y-105190000D01*
X132750000Y-112010000D02*
X136510000Y-112010000D01*
X136510000Y-105190000D02*
X136510000Y-106450000D01*
X136510000Y-112010000D02*
X136510000Y-110750000D01*
%TO.C,U3*%
X184240000Y-72570000D02*
X184240000Y-72240000D01*
X184240000Y-72240000D02*
X186960000Y-72240000D01*
X189140000Y-76630000D02*
X186960000Y-76630000D01*
X184240000Y-76960000D02*
X184240000Y-76630000D01*
X186960000Y-76960000D02*
X184240000Y-76960000D01*
X186960000Y-76960000D02*
X186960000Y-76630000D01*
X186960000Y-72240000D02*
X186960000Y-72570000D01*
%TO.C,U4*%
X184240000Y-112370000D02*
X184240000Y-112040000D01*
X184240000Y-112040000D02*
X186960000Y-112040000D01*
X189140000Y-116430000D02*
X186960000Y-116430000D01*
X184240000Y-116760000D02*
X184240000Y-116430000D01*
X186960000Y-116760000D02*
X184240000Y-116760000D01*
X186960000Y-116760000D02*
X186960000Y-116430000D01*
X186960000Y-112040000D02*
X186960000Y-112370000D01*
%TO.C,U7*%
X131081751Y-88025120D02*
X130410000Y-87353369D01*
X130410000Y-87353369D02*
X129738249Y-88025120D01*
X136964880Y-93908249D02*
X137636631Y-94580000D01*
X137636631Y-94580000D02*
X136964880Y-95251751D01*
X123855120Y-95251751D02*
X123183369Y-94580000D01*
X123183369Y-94580000D02*
X123855120Y-93908249D01*
X129738249Y-101134880D02*
X130410000Y-101806631D01*
X130410000Y-101806631D02*
X131081751Y-101134880D01*
X131081751Y-101134880D02*
X132029275Y-102082403D01*
D14*
%TO.C,U8*%
X118250000Y-87475000D02*
X118250000Y-84475000D01*
X116250000Y-87475000D02*
X118250000Y-87475000D01*
X116250000Y-84475000D02*
X116250000Y-87475000D01*
X118250000Y-84475000D02*
X116250000Y-84475000D01*
X116750000Y-84475000D02*
X116250000Y-84975000D01*
%TO.C,U9*%
X116750000Y-101075000D02*
X116250000Y-101575000D01*
X118250000Y-101075000D02*
X116250000Y-101075000D01*
X116250000Y-101075000D02*
X116250000Y-104075000D01*
X116250000Y-104075000D02*
X118250000Y-104075000D01*
X118250000Y-104075000D02*
X118250000Y-101075000D01*
D11*
%TO.C,C24*%
X110146267Y-120090000D02*
X109853733Y-120090000D01*
X110146267Y-121110000D02*
X109853733Y-121110000D01*
%TO.C,SW3*%
X112350000Y-117450000D02*
X112350000Y-117550000D01*
X107950000Y-119250000D02*
X112350000Y-119250000D01*
X112350000Y-115750000D02*
X107950000Y-115750000D01*
X107950000Y-117450000D02*
X107950000Y-117550000D01*
%TD*%
%TO.C,D1*%
D14*
X171317529Y-64854612D02*
X171359031Y-65328991D01*
X171024601Y-64784638D02*
X172049848Y-65029547D01*
X171082705Y-65448768D01*
%TO.C,D2*%
X185403525Y-83639227D02*
X185740242Y-83975944D01*
X185134151Y-83773914D02*
X186076960Y-83302509D01*
X185605555Y-84245318D01*
%TO.C,D3*%
X190459757Y-100775944D02*
X190796474Y-100439227D01*
X190594444Y-101045318D02*
X190123039Y-100102509D01*
X191065848Y-100573914D01*
%TO.C,D4*%
X172240968Y-117528991D02*
X172282470Y-117054612D01*
X172517294Y-117648768D02*
X171550151Y-117229547D01*
X172575398Y-116984638D01*
%TO.C,D5*%
X187803525Y-81339227D02*
X188140242Y-81675944D01*
X187534151Y-81473914D02*
X188476960Y-81002509D01*
X188005555Y-81945318D01*
%TO.C,D6*%
X192859757Y-103175944D02*
X193196474Y-102839227D01*
X192994444Y-103445318D02*
X192523039Y-102502509D01*
X193465848Y-102973914D01*
%TO.C,D7*%
X174617529Y-64554612D02*
X174659031Y-65028991D01*
X174324601Y-64484638D02*
X175349848Y-64729547D01*
X174382705Y-65148768D01*
%TO.C,D8*%
X175540968Y-117828991D02*
X175582470Y-117354612D01*
X175817294Y-117948768D02*
X174850151Y-117529547D01*
X175875398Y-117284638D01*
%TD*%
M02*
