%TF.GenerationSoftware,KiCad,Pcbnew,(5.1.7)-1*%
%TF.CreationDate,2021-12-05T02:20:20+09:00*%
%TF.ProjectId,Quatro,51756174-726f-42e6-9b69-6361645f7063,0*%
%TF.SameCoordinates,Original*%
%TF.FileFunction,Copper,L2,Bot*%
%TF.FilePolarity,Positive*%
%FSLAX46Y46*%
G04 Gerber Fmt 4.6, Leading zero omitted, Abs format (unit mm)*
G04 Created by KiCad (PCBNEW (5.1.7)-1) date 2021-12-05 02:20:20*
%MOMM*%
%LPD*%
G01*
G04 APERTURE LIST*
%TA.AperFunction,Profile*%
%ADD10C,0.200000*%
%TD*%
%TA.AperFunction,ComponentPad*%
%ADD11R,0.800000X1.100000*%
%TD*%
%TA.AperFunction,ComponentPad*%
%ADD12R,0.700000X1.100000*%
%TD*%
%TA.AperFunction,ComponentPad*%
%ADD13C,0.100000*%
%TD*%
%TA.AperFunction,ComponentPad*%
%ADD14R,1.000000X1.000000*%
%TD*%
%TA.AperFunction,ComponentPad*%
%ADD15O,1.000000X1.000000*%
%TD*%
%TA.AperFunction,ComponentPad*%
%ADD16R,1.700000X1.700000*%
%TD*%
%TA.AperFunction,ComponentPad*%
%ADD17O,1.700000X1.700000*%
%TD*%
%TA.AperFunction,ComponentPad*%
%ADD18C,0.600000*%
%TD*%
%TA.AperFunction,ViaPad*%
%ADD19C,0.800000*%
%TD*%
%TA.AperFunction,Conductor*%
%ADD20C,0.200000*%
%TD*%
%TA.AperFunction,Conductor*%
%ADD21C,0.300000*%
%TD*%
%TA.AperFunction,Conductor*%
%ADD22C,0.254000*%
%TD*%
%TA.AperFunction,Conductor*%
%ADD23C,0.100000*%
%TD*%
G04 APERTURE END LIST*
D10*
X170788838Y-58175084D02*
G75*
G02*
X170788843Y-130946030I-1028246J-36385473D01*
G01*
X169760594Y-71360558D02*
X169760594Y-59174685D01*
X110760595Y-60360557D02*
X113160593Y-60360557D01*
X157360593Y-114760556D02*
G75*
G03*
X157360593Y-114760556I-1100001J0D01*
G01*
X169760593Y-129946429D02*
X169760593Y-117760555D01*
X106160594Y-128760556D02*
X106160593Y-60360557D01*
X169760595Y-71360555D02*
G75*
G02*
X168760594Y-72360558I-1000002J-1D01*
G01*
X197128428Y-79950000D02*
X198542640Y-78535786D01*
X106160593Y-60360557D02*
X110760595Y-60360557D01*
X130360596Y-114760557D02*
G75*
G03*
X130360596Y-114760557I-1100001J0D01*
G01*
X195714214Y-78535787D02*
X197128428Y-79950000D01*
X194300000Y-77121573D02*
X195714214Y-78535787D01*
X180760595Y-94560557D02*
G75*
G03*
X180760595Y-94560557I-8000001J0D01*
G01*
X157360594Y-74360558D02*
G75*
G03*
X157360594Y-74360558I-1100001J0D01*
G01*
X130360597Y-74360557D02*
G75*
G03*
X130360597Y-74360557I-1100000J0D01*
G01*
X169760595Y-59174687D02*
G75*
G02*
X170788841Y-58175085I999999J2D01*
G01*
X170788842Y-130946030D02*
G75*
G02*
X169760593Y-129946429I-28249J999601D01*
G01*
X115760595Y-72360558D02*
X168760594Y-72360558D01*
X113160593Y-60360557D02*
X115760595Y-72360558D01*
X168760592Y-116760556D02*
G75*
G02*
X169760593Y-117760555I1J-1000000D01*
G01*
X113160595Y-128760558D02*
X106160594Y-128760556D01*
X115760595Y-116760556D02*
X113160595Y-128760558D01*
X168760593Y-116760556D02*
X115760595Y-116760556D01*
X195714214Y-107756901D02*
X194299999Y-106342687D01*
X180764400Y-67643148D02*
X180938710Y-69635540D01*
X184923487Y-69286914D02*
X184574865Y-65302137D01*
X182756788Y-67468837D02*
X182931100Y-69461226D01*
X182582477Y-65476446D02*
X182756788Y-67468837D01*
X194626591Y-94560557D02*
G75*
G03*
X194626591Y-94560557I-1099998J0D01*
G01*
X192885787Y-78535787D02*
X194300000Y-79950000D01*
X195714214Y-75707359D02*
X194300000Y-77121573D01*
X184574865Y-123818979D02*
X182582477Y-123644667D01*
X178946321Y-69809849D02*
X178597697Y-65825070D01*
X194300001Y-111999541D02*
X195714214Y-110585328D01*
X180938710Y-69635540D02*
X178946321Y-69809849D01*
X195714214Y-110585328D02*
X197128427Y-109171114D01*
X182931100Y-69461226D02*
X184923487Y-69286914D01*
X182931100Y-119659889D02*
X184923489Y-119834198D01*
X178597697Y-65825070D02*
X180590087Y-65650759D01*
X194300000Y-82778427D02*
X191471573Y-79950000D01*
X191471573Y-109171112D02*
X192885787Y-110585327D01*
X178597699Y-123296044D02*
X180590088Y-123470356D01*
X180938709Y-119485577D02*
X178946320Y-119311265D01*
X191471573Y-79950000D02*
X192885787Y-78535787D01*
X184923489Y-119834198D02*
X184574865Y-123818979D01*
X195714214Y-81364214D02*
X194300000Y-82778427D01*
X198542642Y-110585327D02*
X195714215Y-113413756D01*
X194299999Y-106342687D02*
X191471573Y-109171112D01*
X184574865Y-65302137D02*
X182582477Y-65476446D01*
X180590088Y-123470356D02*
X180764398Y-121477967D01*
X178946320Y-119311265D02*
X178597699Y-123296044D01*
X198542640Y-78535786D02*
X195714214Y-75707359D01*
X182582477Y-123644667D02*
X182756788Y-121652278D01*
X180764398Y-121477967D02*
X180938709Y-119485577D01*
X182756788Y-121652278D02*
X182931100Y-119659889D01*
X195714215Y-113413756D02*
X194300001Y-111999541D01*
X197128427Y-109171114D02*
X198542642Y-110585327D01*
X194300000Y-109171114D02*
X195714214Y-107756901D01*
X192885787Y-110585327D02*
X194300000Y-109171114D01*
X180590087Y-65650759D02*
X180764400Y-67643148D01*
X194300000Y-79950000D02*
X195714214Y-81364214D01*
D11*
%TO.P,U5,9*%
%TO.N,+5V*%
X133700000Y-81500000D03*
%TO.P,U5,13*%
%TO.N,GND*%
X133700000Y-79800000D03*
%TO.P,U5,3*%
%TO.N,+BATT*%
X133700000Y-78100000D03*
D12*
%TO.P,U5,7*%
%TO.N,+5V*%
X131450000Y-81500000D03*
%TO.P,U5,8*%
X132550000Y-81500000D03*
%TO.P,U5,10*%
%TO.N,Net-(U5-Pad10)*%
X134850000Y-81500000D03*
%TO.P,U5,11*%
%TO.N,Net-(R15-Pad1)*%
X135950000Y-81500000D03*
%TO.P,U5,6*%
%TO.N,GND*%
X131450000Y-79800000D03*
%TO.P,U5,14*%
X132550000Y-79800000D03*
%TO.P,U5,12*%
X135950000Y-79800000D03*
%TO.P,U5,5*%
%TO.N,+BATT*%
X131450000Y-78100000D03*
%TO.P,U5,4*%
X132550000Y-78100000D03*
%TO.P,U5,2*%
%TO.N,Net-(U5-Pad2)*%
X134850000Y-78100000D03*
%TO.P,U5,1*%
%TO.N,+BATT*%
X135950000Y-78100000D03*
%TD*%
%TO.P,D1,2*%
%TO.N,Net-(C1-Pad2)*%
%TA.AperFunction,ComponentPad*%
G36*
G01*
X171765780Y-68065860D02*
X171765780Y-68065860D01*
G75*
G02*
X170682429Y-67156821I-87156J996195D01*
G01*
X170682429Y-67156821D01*
G75*
G02*
X171591468Y-66073470I996195J87156D01*
G01*
X171591468Y-66073470D01*
G75*
G02*
X172674819Y-66982509I87156J-996195D01*
G01*
X172674819Y-66982509D01*
G75*
G02*
X171765780Y-68065860I-996195J-87156D01*
G01*
G37*
%TD.AperFunction*%
%TA.AperFunction,ComponentPad*%
D13*
%TO.P,D1,1*%
%TO.N,+3.3VADC*%
G36*
X172983350Y-70509039D02*
G01*
X170990961Y-70683350D01*
X170816650Y-68690961D01*
X172809039Y-68516650D01*
X172983350Y-70509039D01*
G37*
%TD.AperFunction*%
%TD*%
%TA.AperFunction,ComponentPad*%
%TO.P,D2,1*%
%TO.N,+3.3VADC*%
G36*
X190314214Y-86900000D02*
G01*
X188900000Y-88314214D01*
X187485786Y-86900000D01*
X188900000Y-85485786D01*
X190314214Y-86900000D01*
G37*
%TD.AperFunction*%
%TO.P,D2,2*%
%TO.N,Net-(C2-Pad2)*%
%TA.AperFunction,ComponentPad*%
G36*
G01*
X187811056Y-85811056D02*
X187811056Y-85811056D01*
G75*
G02*
X186396842Y-85811056I-707107J707107D01*
G01*
X186396842Y-85811056D01*
G75*
G02*
X186396842Y-84396842I707107J707107D01*
G01*
X186396842Y-84396842D01*
G75*
G02*
X187811056Y-84396842I707107J-707107D01*
G01*
X187811056Y-84396842D01*
G75*
G02*
X187811056Y-85811056I-707107J-707107D01*
G01*
G37*
%TD.AperFunction*%
%TD*%
%TA.AperFunction,ComponentPad*%
%TO.P,D3,1*%
%TO.N,+3.3VADC*%
G36*
X187300000Y-105114214D02*
G01*
X185885786Y-103700000D01*
X187300000Y-102285786D01*
X188714214Y-103700000D01*
X187300000Y-105114214D01*
G37*
%TD.AperFunction*%
%TO.P,D3,2*%
%TO.N,Net-(C3-Pad2)*%
%TA.AperFunction,ComponentPad*%
G36*
G01*
X188388944Y-102611056D02*
X188388944Y-102611056D01*
G75*
G02*
X188388944Y-101196842I707107J707107D01*
G01*
X188388944Y-101196842D01*
G75*
G02*
X189803158Y-101196842I707107J-707107D01*
G01*
X189803158Y-101196842D01*
G75*
G02*
X189803158Y-102611056I-707107J-707107D01*
G01*
X189803158Y-102611056D01*
G75*
G02*
X188388944Y-102611056I-707107J707107D01*
G01*
G37*
%TD.AperFunction*%
%TD*%
%TO.P,D4,2*%
%TO.N,Net-(C4-Pad2)*%
%TA.AperFunction,ComponentPad*%
G36*
G01*
X171834220Y-120265860D02*
X171834220Y-120265860D01*
G75*
G02*
X170925181Y-119182509I87156J996195D01*
G01*
X170925181Y-119182509D01*
G75*
G02*
X172008532Y-118273470I996195J-87156D01*
G01*
X172008532Y-118273470D01*
G75*
G02*
X172917571Y-119356821I-87156J-996195D01*
G01*
X172917571Y-119356821D01*
G75*
G02*
X171834220Y-120265860I-996195J87156D01*
G01*
G37*
%TD.AperFunction*%
%TA.AperFunction,ComponentPad*%
%TO.P,D4,1*%
%TO.N,+3.3VADC*%
G36*
X172609039Y-122883350D02*
G01*
X170616650Y-122709039D01*
X170790961Y-120716650D01*
X172783350Y-120890961D01*
X172609039Y-122883350D01*
G37*
%TD.AperFunction*%
%TD*%
%TO.P,D5,2*%
%TO.N,+BATT*%
%TA.AperFunction,ComponentPad*%
G36*
G01*
X190211056Y-83511056D02*
X190211056Y-83511056D01*
G75*
G02*
X188796842Y-83511056I-707107J707107D01*
G01*
X188796842Y-83511056D01*
G75*
G02*
X188796842Y-82096842I707107J707107D01*
G01*
X188796842Y-82096842D01*
G75*
G02*
X190211056Y-82096842I707107J-707107D01*
G01*
X190211056Y-82096842D01*
G75*
G02*
X190211056Y-83511056I-707107J-707107D01*
G01*
G37*
%TD.AperFunction*%
%TA.AperFunction,ComponentPad*%
%TO.P,D5,1*%
%TO.N,Net-(D5-Pad1)*%
G36*
X192714214Y-84600000D02*
G01*
X191300000Y-86014214D01*
X189885786Y-84600000D01*
X191300000Y-83185786D01*
X192714214Y-84600000D01*
G37*
%TD.AperFunction*%
%TD*%
%TA.AperFunction,ComponentPad*%
%TO.P,D6,1*%
%TO.N,Net-(D6-Pad1)*%
G36*
X189700000Y-107514214D02*
G01*
X188285786Y-106100000D01*
X189700000Y-104685786D01*
X191114214Y-106100000D01*
X189700000Y-107514214D01*
G37*
%TD.AperFunction*%
%TO.P,D6,2*%
%TO.N,Net-(D5-Pad1)*%
%TA.AperFunction,ComponentPad*%
G36*
G01*
X190788944Y-105011056D02*
X190788944Y-105011056D01*
G75*
G02*
X190788944Y-103596842I707107J707107D01*
G01*
X190788944Y-103596842D01*
G75*
G02*
X192203158Y-103596842I707107J-707107D01*
G01*
X192203158Y-103596842D01*
G75*
G02*
X192203158Y-105011056I-707107J-707107D01*
G01*
X192203158Y-105011056D01*
G75*
G02*
X190788944Y-105011056I-707107J707107D01*
G01*
G37*
%TD.AperFunction*%
%TD*%
%TA.AperFunction,ComponentPad*%
%TO.P,D7,1*%
%TO.N,Net-(D7-Pad1)*%
G36*
X176283350Y-70209039D02*
G01*
X174290961Y-70383350D01*
X174116650Y-68390961D01*
X176109039Y-68216650D01*
X176283350Y-70209039D01*
G37*
%TD.AperFunction*%
%TO.P,D7,2*%
%TO.N,+BATT*%
%TA.AperFunction,ComponentPad*%
G36*
G01*
X175065780Y-67765860D02*
X175065780Y-67765860D01*
G75*
G02*
X173982429Y-66856821I-87156J996195D01*
G01*
X173982429Y-66856821D01*
G75*
G02*
X174891468Y-65773470I996195J87156D01*
G01*
X174891468Y-65773470D01*
G75*
G02*
X175974819Y-66682509I87156J-996195D01*
G01*
X175974819Y-66682509D01*
G75*
G02*
X175065780Y-67765860I-996195J-87156D01*
G01*
G37*
%TD.AperFunction*%
%TD*%
%TO.P,D8,2*%
%TO.N,Net-(D7-Pad1)*%
%TA.AperFunction,ComponentPad*%
G36*
G01*
X175134220Y-120565860D02*
X175134220Y-120565860D01*
G75*
G02*
X174225181Y-119482509I87156J996195D01*
G01*
X174225181Y-119482509D01*
G75*
G02*
X175308532Y-118573470I996195J-87156D01*
G01*
X175308532Y-118573470D01*
G75*
G02*
X176217571Y-119656821I-87156J-996195D01*
G01*
X176217571Y-119656821D01*
G75*
G02*
X175134220Y-120565860I-996195J87156D01*
G01*
G37*
%TD.AperFunction*%
%TA.AperFunction,ComponentPad*%
%TO.P,D8,1*%
%TO.N,Net-(D8-Pad1)*%
G36*
X175909039Y-123183350D02*
G01*
X173916650Y-123009039D01*
X174090961Y-121016650D01*
X176083350Y-121190961D01*
X175909039Y-123183350D01*
G37*
%TD.AperFunction*%
%TD*%
D14*
%TO.P,J1,1*%
%TO.N,Net-(J1-Pad1)*%
X112800000Y-72600000D03*
D15*
%TO.P,J1,2*%
%TO.N,Net-(J1-Pad2)*%
X112800000Y-71330000D03*
%TD*%
%TO.P,J2,2*%
%TO.N,GND*%
X108550000Y-71330000D03*
D14*
%TO.P,J2,1*%
%TO.N,Net-(J1-Pad2)*%
X108550000Y-72600000D03*
%TD*%
%TO.P,J3,1*%
%TO.N,+BATT*%
X193600000Y-99300000D03*
D15*
%TO.P,J3,2*%
%TO.N,Net-(J3-Pad2)*%
X193600000Y-100570000D03*
%TD*%
D16*
%TO.P,J6,1*%
%TO.N,MOTOR_L_OUT1*%
X109100000Y-85300000D03*
D17*
%TO.P,J6,2*%
%TO.N,MOTOR_L_OUT2*%
X111640000Y-85300000D03*
%TO.P,J6,3*%
%TO.N,GND*%
X109100000Y-87840000D03*
%TO.P,J6,4*%
%TO.N,+5V*%
X111640000Y-87840000D03*
%TO.P,J6,5*%
%TO.N,TIM3_CH2_ENC_L_B*%
X109100000Y-90380000D03*
%TO.P,J6,6*%
%TO.N,TIM3_CH1_ENC_L_A*%
X111640000Y-90380000D03*
%TD*%
%TO.P,J7,6*%
%TO.N,TIM4_CH1_ENC_R_A*%
X111640000Y-103280000D03*
%TO.P,J7,5*%
%TO.N,TIM4_CH2_ENC_R_B*%
X109100000Y-103280000D03*
%TO.P,J7,4*%
%TO.N,+5V*%
X111640000Y-100740000D03*
%TO.P,J7,3*%
%TO.N,GND*%
X109100000Y-100740000D03*
%TO.P,J7,2*%
%TO.N,MOTOR_R_OUT2*%
X111640000Y-98200000D03*
D16*
%TO.P,J7,1*%
%TO.N,MOTOR_R_OUT1*%
X109100000Y-98200000D03*
%TD*%
%TO.P,SW1,1*%
%TO.N,GND*%
X109150000Y-62765000D03*
D17*
%TO.P,SW1,2*%
%TO.N,Net-(Q1-Pad1)*%
X109150000Y-65305000D03*
%TO.P,SW1,3*%
%TO.N,Net-(SW1-Pad3)*%
X109150000Y-67845000D03*
%TD*%
D18*
%TO.P,U8,13*%
%TO.N,GND*%
X117250000Y-85975000D03*
X117250000Y-84975000D03*
X117250000Y-86975000D03*
%TD*%
%TO.P,U9,13*%
%TO.N,GND*%
X117250000Y-103575000D03*
X117250000Y-101575000D03*
X117250000Y-102575000D03*
%TD*%
D19*
%TO.N,NRST*%
X112567000Y-109001200D03*
X134412300Y-100953300D03*
X113000300Y-121644400D03*
%TO.N,GND*%
X159300000Y-74100000D03*
X173600000Y-78100000D03*
X139650000Y-114500000D03*
X145150000Y-96400000D03*
X173238100Y-64808100D03*
X178900000Y-78200000D03*
X193000000Y-69300000D03*
X203100000Y-105250000D03*
X204450000Y-94700000D03*
X183250000Y-91200000D03*
X186100000Y-95800000D03*
X184750000Y-101850000D03*
X199750000Y-107250000D03*
X196750000Y-105500000D03*
X179150000Y-60300000D03*
X179400000Y-127400000D03*
X174200000Y-129800000D03*
X111350000Y-95850000D03*
X113850000Y-92950000D03*
X115050000Y-113350000D03*
X127500000Y-84650000D03*
X189450000Y-94200000D03*
X114000000Y-89550000D03*
X117100000Y-96800000D03*
X187700000Y-109700000D03*
X161069250Y-94519250D03*
X163550000Y-86100000D03*
X141000000Y-74200000D03*
X112100000Y-64600000D03*
X107550000Y-105500000D03*
X142200000Y-108100000D03*
X194000000Y-119450000D03*
X187400000Y-118700000D03*
X187900000Y-69950000D03*
X143150000Y-83550000D03*
X174550000Y-109750000D03*
%TO.N,IR_BL*%
X146524900Y-105224400D03*
X157066500Y-103847600D03*
X199189100Y-103115000D03*
X202792200Y-91315000D03*
%TO.N,IR_FL*%
X142000700Y-89469600D03*
X135600900Y-99630500D03*
%TO.N,IR_FR*%
X156172500Y-103174500D03*
X148653400Y-104549000D03*
%TO.N,IR_BR*%
X200576500Y-100734800D03*
X196623000Y-103765300D03*
X155991600Y-104329300D03*
X137636400Y-99270000D03*
%TO.N,Net-(C2-Pad2)*%
X175659000Y-63527800D03*
%TO.N,+5V*%
X130483500Y-100903700D03*
X120330800Y-79251800D03*
%TO.N,+BATT*%
X114410100Y-83835400D03*
X185600000Y-116581400D03*
%TO.N,Net-(D6-Pad1)*%
X185380200Y-72839100D03*
%TO.N,Net-(D8-Pad1)*%
X181441400Y-112900000D03*
%TO.N,SWCLK*%
X112644800Y-112018700D03*
X122566300Y-95941200D03*
%TO.N,SWDIO*%
X113369900Y-111100000D03*
X120209500Y-92140200D03*
%TO.N,MOTOR_L_OUT2*%
X113065000Y-86725000D03*
%TO.N,TIM3_CH2_ENC_L_B*%
X118543000Y-91560000D03*
X124396900Y-99292400D03*
%TO.N,TIM3_CH1_ENC_L_A*%
X126695300Y-96987000D03*
%TO.N,MOTOR_R_OUT1*%
X114786700Y-102754300D03*
%TO.N,Net-(Q1-Pad1)*%
X116470000Y-78220000D03*
X116470000Y-74140000D03*
%TO.N,Net-(Q2-Pad1)*%
X195215100Y-91646300D03*
X199794900Y-83363300D03*
%TO.N,TIM2_CH1_BUZZER*%
X138035100Y-86886300D03*
X131289600Y-95327700D03*
%TO.N,ADC_BAT*%
X125561800Y-93292800D03*
X123616704Y-83560496D03*
%TO.N,TIM8_CH1_MOTOR_FAN*%
X154570300Y-101448900D03*
X131983600Y-91600100D03*
%TO.N,LED6*%
X117000000Y-110937600D03*
X125968600Y-89110700D03*
%TO.N,LED5*%
X118684600Y-110941000D03*
X127432400Y-91611100D03*
%TO.N,LED4*%
X131299200Y-92297400D03*
X158902300Y-77402800D03*
%TO.N,LED3*%
X164555800Y-81973300D03*
X121985900Y-82232000D03*
%TO.N,LED2*%
X160508800Y-108180000D03*
X131818700Y-90064600D03*
%TO.N,LED1*%
X165005700Y-114468700D03*
X127943500Y-87145500D03*
%TO.N,SPI_MISO*%
X140979200Y-89820000D03*
X147845300Y-94723100D03*
%TO.N,SPI_CS*%
X149095000Y-90602700D03*
X151783700Y-90854100D03*
%TO.N,SPI_MOSI*%
X150002200Y-92474400D03*
X146293400Y-88140700D03*
%TO.N,TIM5_CH1_MOTOR_L_IN1*%
X138255500Y-96290600D03*
X118906900Y-88883500D03*
%TO.N,TIM5_CH2_MOTOR_L_IN2*%
X133991300Y-95728600D03*
X118870500Y-87927300D03*
X121300000Y-85600000D03*
%TO.N,TIM5_CH3_MOTOR_R_IN1*%
X123232800Y-101896600D03*
X137074500Y-94937200D03*
%TO.N,TIM5_CH4_MOTOR_R_IN2*%
X136176900Y-94199200D03*
X119757100Y-102962000D03*
X119800000Y-104450000D03*
%TO.N,TIM10_CH1_IR_LED_INNER*%
X137357700Y-89008700D03*
X131350500Y-96689900D03*
%TO.N,TIM11_CH1_IR_LED_OUTER*%
X170505100Y-116777700D03*
X131881700Y-97502800D03*
%TO.N,/1.65VA*%
X168520300Y-111210000D03*
X181241100Y-98489200D03*
%TO.N,BUTTON*%
X128908100Y-90751900D03*
X123150400Y-109207400D03*
%TO.N,+3V3*%
X146605000Y-94451600D03*
X151330600Y-104321100D03*
X150820000Y-98191200D03*
X148088700Y-91409100D03*
X146434300Y-85791500D03*
%TD*%
D20*
%TO.N,NRST*%
X115891800Y-116199200D02*
X120984300Y-111106700D01*
X120984300Y-111106700D02*
X124258900Y-111106700D01*
X124258900Y-111106700D02*
X134412300Y-100953300D01*
X113000300Y-121644400D02*
X113000300Y-119090700D01*
X113000300Y-119090700D02*
X115891800Y-116199200D01*
X115891800Y-116199200D02*
X111994400Y-112301900D01*
X111994400Y-112301900D02*
X111994400Y-109573800D01*
X111994400Y-109573800D02*
X112567000Y-109001200D01*
%TO.N,GND*%
X109100000Y-87840000D02*
X109100000Y-86739700D01*
X108550000Y-71330000D02*
X109300300Y-71330000D01*
X109300300Y-71330000D02*
X110246100Y-72275800D01*
X110246100Y-72275800D02*
X110246100Y-86210700D01*
X110246100Y-86210700D02*
X109717100Y-86739700D01*
X109717100Y-86739700D02*
X109100000Y-86739700D01*
X109100000Y-100740000D02*
X109100000Y-99639700D01*
X109100000Y-87840000D02*
X109100000Y-88940300D01*
X109100000Y-88940300D02*
X108962500Y-88940300D01*
X108962500Y-88940300D02*
X107999600Y-89903200D01*
X107999600Y-89903200D02*
X107999600Y-99156400D01*
X107999600Y-99156400D02*
X108482900Y-99639700D01*
X108482900Y-99639700D02*
X109100000Y-99639700D01*
%TO.N,IR_BL*%
X202792200Y-91315000D02*
X202792200Y-99511900D01*
X202792200Y-99511900D02*
X199189100Y-103115000D01*
X146524900Y-105224400D02*
X147037800Y-105737300D01*
X147037800Y-105737300D02*
X155548400Y-105737300D01*
X155548400Y-105737300D02*
X157066500Y-104219200D01*
X157066500Y-104219200D02*
X157066500Y-103847600D01*
%TO.N,IR_FL*%
X135600900Y-99630500D02*
X135835300Y-99630500D01*
X135835300Y-99630500D02*
X142000700Y-93465100D01*
X142000700Y-93465100D02*
X142000700Y-89469600D01*
%TO.N,IR_FR*%
X156172500Y-103174500D02*
X154375600Y-104971400D01*
X154375600Y-104971400D02*
X149075800Y-104971400D01*
X149075800Y-104971400D02*
X148653400Y-104549000D01*
%TO.N,IR_BR*%
X196623000Y-103765300D02*
X199653500Y-100734800D01*
X199653500Y-100734800D02*
X200576500Y-100734800D01*
X137636400Y-99270000D02*
X141921900Y-99270000D01*
X141921900Y-99270000D02*
X147976900Y-105325000D01*
X147976900Y-105325000D02*
X154995900Y-105325000D01*
X154995900Y-105325000D02*
X155991600Y-104329300D01*
%TO.N,Net-(C2-Pad2)*%
X186219900Y-84219800D02*
X186219900Y-79030500D01*
X186219900Y-79030500D02*
X178173500Y-70984100D01*
X178173500Y-70984100D02*
X178173500Y-66042300D01*
X178173500Y-66042300D02*
X175659000Y-63527800D01*
X187103900Y-85103900D02*
X186219900Y-84219800D01*
%TO.N,+5V*%
X130628300Y-82882300D02*
X130628300Y-100758900D01*
X130628300Y-100758900D02*
X130483500Y-100903700D01*
X130628300Y-82882300D02*
X130868000Y-82882300D01*
X130868000Y-82882300D02*
X131450000Y-82300300D01*
X120330800Y-82882300D02*
X120330800Y-79251800D01*
X131450000Y-81500000D02*
X131450000Y-82300300D01*
X111640000Y-88390100D02*
X111640000Y-88940300D01*
X111640000Y-87840000D02*
X111640000Y-88390100D01*
X111640000Y-100740000D02*
X111640000Y-99639700D01*
X111640000Y-99639700D02*
X111502500Y-99639700D01*
X111502500Y-99639700D02*
X110528700Y-98665900D01*
X110528700Y-98665900D02*
X110528700Y-89823600D01*
X110528700Y-89823600D02*
X111412000Y-88940300D01*
X111412000Y-88940300D02*
X111640000Y-88940300D01*
X124218664Y-82210474D02*
X123014743Y-82210473D01*
X120330800Y-82882300D02*
X118897199Y-84315901D01*
X116619900Y-88390100D02*
X111640000Y-88390100D01*
X118897199Y-86112801D02*
X116619900Y-88390100D01*
X118897199Y-84315901D02*
X118897199Y-86112801D01*
X130628300Y-82882300D02*
X130140200Y-82394200D01*
X122342916Y-82882300D02*
X120330800Y-82882300D01*
X124402392Y-82394200D02*
X124218664Y-82210474D01*
X130140200Y-82394200D02*
X124402392Y-82394200D01*
X123014743Y-82210473D02*
X122342916Y-82882300D01*
%TO.N,+BATT*%
X174978600Y-66769700D02*
X175085400Y-66769700D01*
X175085400Y-66769700D02*
X176556900Y-68241200D01*
X176556900Y-68241200D02*
X176556900Y-70294200D01*
X176556900Y-70294200D02*
X170448900Y-76402200D01*
X170448900Y-76402200D02*
X136847500Y-76402200D01*
X136847500Y-76402200D02*
X135950000Y-77299700D01*
X131450000Y-78900300D02*
X130924800Y-78900300D01*
X130924800Y-78900300D02*
X130624700Y-78600200D01*
X130624700Y-78600200D02*
X119645300Y-78600200D01*
X119645300Y-78600200D02*
X114410100Y-83835400D01*
X131450000Y-78100000D02*
X131450000Y-78900300D01*
X188619800Y-83688000D02*
X188619800Y-84183300D01*
X188619800Y-84183300D02*
X191503300Y-87066800D01*
X191503300Y-87066800D02*
X191503300Y-96453000D01*
X191503300Y-96453000D02*
X193600000Y-98549700D01*
X135950000Y-78100000D02*
X135950000Y-77299700D01*
X133700000Y-78100000D02*
X133700000Y-78900300D01*
X135950000Y-78100000D02*
X135950000Y-78900300D01*
X135950000Y-78900300D02*
X133700000Y-78900300D01*
X193600000Y-98924800D02*
X193600000Y-99168300D01*
X193600000Y-99168300D02*
X185600000Y-107168300D01*
X185600000Y-107168300D02*
X185600000Y-116581400D01*
X193600000Y-98924800D02*
X193600000Y-98549700D01*
X193600000Y-99300000D02*
X193600000Y-98924800D01*
X189503900Y-82803900D02*
X188619800Y-83688000D01*
%TO.N,+3.3VADC*%
X173254700Y-69481400D02*
X173254700Y-66113700D01*
X173254700Y-66113700D02*
X174256100Y-65112300D01*
X174256100Y-65112300D02*
X175632300Y-65112300D01*
X175632300Y-65112300D02*
X176666200Y-66146200D01*
X176666200Y-66146200D02*
X176666200Y-66641600D01*
X176666200Y-66641600D02*
X177472900Y-67448300D01*
X177472900Y-67448300D02*
X177472900Y-69734800D01*
X177472900Y-69734800D02*
X177648200Y-69910100D01*
X177648200Y-69910100D02*
X177648200Y-70954200D01*
X177648200Y-70954200D02*
X184856300Y-78162300D01*
X184856300Y-78162300D02*
X184856300Y-81076300D01*
X184856300Y-81076300D02*
X185206600Y-81426600D01*
X185206600Y-81426600D02*
X185206600Y-84998500D01*
X185206600Y-84998500D02*
X188004100Y-87795900D01*
X171700000Y-121800000D02*
X173369300Y-120130700D01*
X173369300Y-120130700D02*
X173369300Y-117630700D01*
X173369300Y-117630700D02*
X187300000Y-103700000D01*
X188004100Y-87795900D02*
X188900000Y-86900000D01*
X188184100Y-102815900D02*
X187797300Y-102429100D01*
X187797300Y-102429100D02*
X187797300Y-88002700D01*
X187797300Y-88002700D02*
X188004100Y-87795900D01*
X171900000Y-69600000D02*
X173254700Y-69481400D01*
X187300000Y-103700000D02*
X188184100Y-102815900D01*
%TO.N,Net-(D5-Pad1)*%
X191300000Y-84600000D02*
X193467100Y-86767100D01*
X193467100Y-86767100D02*
X193467100Y-91540200D01*
X193467100Y-91540200D02*
X194883600Y-92956700D01*
X194883600Y-92956700D02*
X194883600Y-100916400D01*
X194883600Y-100916400D02*
X191496100Y-104303900D01*
%TO.N,Net-(D6-Pad1)*%
X189700000Y-106100000D02*
X190584100Y-105215900D01*
X190584100Y-105215900D02*
X190197300Y-104829100D01*
X190197300Y-104829100D02*
X190197300Y-103807800D01*
X190197300Y-103807800D02*
X191998900Y-102006200D01*
X191998900Y-102006200D02*
X193298300Y-102006200D01*
X193298300Y-102006200D02*
X194379300Y-100925200D01*
X194379300Y-100925200D02*
X194379300Y-97353400D01*
X194379300Y-97353400D02*
X192028700Y-95002800D01*
X192028700Y-95002800D02*
X192028700Y-87096900D01*
X192028700Y-87096900D02*
X189587000Y-84655200D01*
X189587000Y-84655200D02*
X189587000Y-84544600D01*
X189587000Y-84544600D02*
X190787300Y-83344300D01*
X190787300Y-83344300D02*
X190787300Y-78246200D01*
X190787300Y-78246200D02*
X185380200Y-72839100D01*
%TO.N,Net-(D7-Pad1)*%
X175200000Y-69300000D02*
X173615100Y-67715100D01*
X173615100Y-67715100D02*
X173615100Y-66248700D01*
X173615100Y-66248700D02*
X174401200Y-65462600D01*
X174401200Y-65462600D02*
X175487200Y-65462600D01*
X175487200Y-65462600D02*
X176315900Y-66291300D01*
X176315900Y-66291300D02*
X176315900Y-66970400D01*
X176315900Y-66970400D02*
X177058200Y-67712700D01*
X177058200Y-67712700D02*
X177058200Y-84300200D01*
X177058200Y-84300200D02*
X181963700Y-89205700D01*
X181963700Y-89205700D02*
X181963700Y-106296700D01*
X181963700Y-106296700D02*
X170317700Y-117942700D01*
X170317700Y-117942700D02*
X170317700Y-122765700D01*
X170317700Y-122765700D02*
X170693200Y-123141200D01*
X170693200Y-123141200D02*
X172718800Y-123141200D01*
X172718800Y-123141200D02*
X173226100Y-122633900D01*
X173226100Y-122633900D02*
X173226100Y-121488700D01*
X173226100Y-121488700D02*
X175145100Y-119569700D01*
X175145100Y-119569700D02*
X175221400Y-119569700D01*
%TO.N,Net-(D8-Pad1)*%
X175000000Y-122100000D02*
X181441400Y-115658600D01*
X181441400Y-115658600D02*
X181441400Y-112900000D01*
%TO.N,SWCLK*%
X122566300Y-95941200D02*
X122566300Y-102897100D01*
X122566300Y-102897100D02*
X113444700Y-112018700D01*
X113444700Y-112018700D02*
X112644800Y-112018700D01*
%TO.N,SWDIO*%
X113369900Y-111100000D02*
X113369900Y-98979800D01*
X113369900Y-98979800D02*
X120209500Y-92140200D01*
%TO.N,MOTOR_L_OUT2*%
X111640000Y-85300000D02*
X112740300Y-85300000D01*
X112740300Y-85300000D02*
X112740300Y-86400300D01*
X112740300Y-86400300D02*
X113065000Y-86725000D01*
%TO.N,TIM3_CH2_ENC_L_B*%
X118543000Y-91560000D02*
X118977100Y-91125900D01*
X118977100Y-91125900D02*
X120706700Y-91125900D01*
X120706700Y-91125900D02*
X124396900Y-94816100D01*
X124396900Y-94816100D02*
X124396900Y-99292400D01*
%TO.N,TIM3_CH1_ENC_L_A*%
X112740300Y-90380000D02*
X120471800Y-90380000D01*
X120471800Y-90380000D02*
X126695300Y-96603500D01*
X126695300Y-96603500D02*
X126695300Y-96987000D01*
X111640000Y-90380000D02*
X112740300Y-90380000D01*
%TO.N,MOTOR_R_OUT1*%
X109100000Y-98200000D02*
X110200400Y-99300400D01*
X110200400Y-99300400D02*
X110200400Y-100920200D01*
X110200400Y-100920200D02*
X111120600Y-101840400D01*
X111120600Y-101840400D02*
X112151800Y-101840400D01*
X112151800Y-101840400D02*
X112740400Y-101251800D01*
X112740400Y-101251800D02*
X112740400Y-98659100D01*
X112740400Y-98659100D02*
X119913100Y-91486400D01*
X119913100Y-91486400D02*
X120475500Y-91486400D01*
X120475500Y-91486400D02*
X120864000Y-91874900D01*
X120864000Y-91874900D02*
X120864000Y-96677000D01*
X120864000Y-96677000D02*
X114786700Y-102754300D01*
D21*
%TO.N,Net-(Q1-Pad1)*%
X116470000Y-74140000D02*
X116470000Y-78220000D01*
D20*
%TO.N,Net-(Q2-Pad1)*%
X199794900Y-83363300D02*
X199794900Y-87066500D01*
X199794900Y-87066500D02*
X195215100Y-91646300D01*
%TO.N,TIM2_CH1_BUZZER*%
X138035100Y-86886300D02*
X131289600Y-93631800D01*
X131289600Y-93631800D02*
X131289600Y-95327700D01*
%TO.N,ADC_BAT*%
X125561800Y-93292800D02*
X123616704Y-91347704D01*
X123616704Y-91347704D02*
X123616704Y-83560496D01*
%TO.N,TIM8_CH1_MOTOR_FAN*%
X154570300Y-101448900D02*
X154570300Y-99515400D01*
X154570300Y-99515400D02*
X148075300Y-93020400D01*
X148075300Y-93020400D02*
X147703700Y-93020400D01*
X147703700Y-93020400D02*
X145605000Y-90921700D01*
X145605000Y-90921700D02*
X145605000Y-90643000D01*
X145605000Y-90643000D02*
X141169900Y-86207900D01*
X141169900Y-86207900D02*
X137375800Y-86207900D01*
X137375800Y-86207900D02*
X131983600Y-91600100D01*
%TO.N,LED6*%
X125968600Y-89110700D02*
X125968600Y-92134800D01*
X125968600Y-92134800D02*
X127363600Y-93529800D01*
X127363600Y-93529800D02*
X127363600Y-100574000D01*
X127363600Y-100574000D02*
X117000000Y-110937600D01*
%TO.N,LED5*%
X118684600Y-110941000D02*
X127766400Y-101859200D01*
X127766400Y-101859200D02*
X127766400Y-91945100D01*
X127766400Y-91945100D02*
X127432400Y-91611100D01*
%TO.N,LED4*%
X158902300Y-77402800D02*
X143523200Y-77402800D01*
X143523200Y-77402800D02*
X131156300Y-89769700D01*
X131156300Y-89769700D02*
X131156300Y-92154500D01*
X131156300Y-92154500D02*
X131299200Y-92297400D01*
%TO.N,LED3*%
X121985900Y-82232000D02*
X123518300Y-80699600D01*
X123518300Y-80699600D02*
X139590400Y-80699600D01*
X139590400Y-80699600D02*
X143537500Y-76752500D01*
X143537500Y-76752500D02*
X159335000Y-76752500D01*
X159335000Y-76752500D02*
X164555800Y-81973300D01*
%TO.N,LED2*%
X131818700Y-90064600D02*
X136025700Y-85857600D01*
X136025700Y-85857600D02*
X141315000Y-85857600D01*
X141315000Y-85857600D02*
X145955300Y-90497900D01*
X145955300Y-90497900D02*
X145955300Y-90776600D01*
X145955300Y-90776600D02*
X147848800Y-92670100D01*
X147848800Y-92670100D02*
X148220400Y-92670100D01*
X148220400Y-92670100D02*
X160508800Y-104958500D01*
X160508800Y-104958500D02*
X160508800Y-108180000D01*
%TO.N,LED1*%
X165005700Y-114468700D02*
X157716800Y-107179800D01*
X157716800Y-107179800D02*
X157716800Y-103578300D01*
X157716800Y-103578300D02*
X156588000Y-102449500D01*
X156588000Y-102449500D02*
X154107900Y-102449500D01*
X154107900Y-102449500D02*
X151681000Y-100022600D01*
X151681000Y-100022600D02*
X151681000Y-97616900D01*
X151681000Y-97616900D02*
X147785100Y-93721000D01*
X147785100Y-93721000D02*
X147413500Y-93721000D01*
X147413500Y-93721000D02*
X144904400Y-91211900D01*
X144904400Y-91211900D02*
X144904400Y-90933200D01*
X144904400Y-90933200D02*
X142440200Y-88469000D01*
X142440200Y-88469000D02*
X140465800Y-88469000D01*
X140465800Y-88469000D02*
X134931300Y-94003500D01*
X134931300Y-94003500D02*
X134931300Y-96173300D01*
X134931300Y-96173300D02*
X132857100Y-98247500D01*
X132857100Y-98247500D02*
X132857100Y-99945300D01*
X132857100Y-99945300D02*
X130857400Y-101945000D01*
X130857400Y-101945000D02*
X130008800Y-101945000D01*
X130008800Y-101945000D02*
X129482900Y-101419100D01*
X129482900Y-101419100D02*
X129482900Y-91798200D01*
X129482900Y-91798200D02*
X129908800Y-91372300D01*
X129908800Y-91372300D02*
X129908800Y-89110800D01*
X129908800Y-89110800D02*
X127943500Y-87145500D01*
%TO.N,SPI_MISO*%
X140979200Y-89820000D02*
X140979200Y-89571400D01*
X140979200Y-89571400D02*
X141731300Y-88819300D01*
X141731300Y-88819300D02*
X142270100Y-88819300D01*
X142270100Y-88819300D02*
X144554100Y-91103300D01*
X144554100Y-91103300D02*
X144554100Y-91431900D01*
X144554100Y-91431900D02*
X147845300Y-94723100D01*
%TO.N,SPI_CS*%
X151783700Y-90854100D02*
X149346400Y-90854100D01*
X149346400Y-90854100D02*
X149095000Y-90602700D01*
%TO.N,SPI_MOSI*%
X146293400Y-88140700D02*
X146429300Y-88276600D01*
X146429300Y-88276600D02*
X146429300Y-90755200D01*
X146429300Y-90755200D02*
X147869900Y-92195800D01*
X147869900Y-92195800D02*
X149723600Y-92195800D01*
X149723600Y-92195800D02*
X150002200Y-92474400D01*
%TO.N,TIM5_CH1_MOTOR_L_IN1*%
X127219800Y-86622700D02*
X127219800Y-87691300D01*
X135931200Y-93499000D02*
X136586500Y-93499000D01*
X119472585Y-88883500D02*
X122791702Y-85564383D01*
X123304702Y-82910494D02*
X123928706Y-82910494D01*
X123928706Y-82910494D02*
X124266706Y-83248494D01*
X124266706Y-83248494D02*
X124266706Y-83669606D01*
X129558500Y-90030000D02*
X129558500Y-91077000D01*
X127219800Y-87691300D02*
X129558500Y-90030000D01*
X129132600Y-101599900D02*
X129858800Y-102326100D01*
X129858800Y-102326100D02*
X130971700Y-102326100D01*
X124266706Y-83669606D02*
X127219800Y-86622700D01*
X130971700Y-102326100D02*
X133557800Y-99740000D01*
X133557800Y-99740000D02*
X133557800Y-98758400D01*
X135302600Y-94127600D02*
X135931200Y-93499000D01*
X129132600Y-91502900D02*
X129132600Y-101599900D01*
X138255500Y-95168000D02*
X138255500Y-96290600D01*
X122791702Y-85564383D02*
X122791702Y-83423494D01*
X122791702Y-83423494D02*
X123304702Y-82910494D01*
X133557800Y-98758400D02*
X135302600Y-97013600D01*
X118906900Y-88883500D02*
X119472585Y-88883500D01*
X135302600Y-97013600D02*
X135302600Y-94127600D01*
X136586500Y-93499000D02*
X138255500Y-95168000D01*
X129558500Y-91077000D02*
X129132600Y-91502900D01*
%TO.N,TIM5_CH2_MOTOR_L_IN2*%
X130750100Y-101556900D02*
X131653500Y-100653500D01*
X124073686Y-82560484D02*
X124257702Y-82744500D01*
X130259100Y-88502300D02*
X130259100Y-91517400D01*
X130177000Y-101556900D02*
X130750100Y-101556900D01*
X131653500Y-100653500D02*
X131653500Y-98955600D01*
X118870500Y-87927300D02*
X118870500Y-86849706D01*
X124501300Y-82744500D02*
X130259100Y-88502300D01*
X131653500Y-98955600D02*
X133991300Y-96617800D01*
X124257702Y-82744500D02*
X124501300Y-82744500D01*
X123159723Y-82560483D02*
X124073686Y-82560484D01*
X129833200Y-91943300D02*
X129833200Y-101213100D01*
X129833200Y-101213100D02*
X130177000Y-101556900D01*
X130259100Y-91517400D02*
X129833200Y-91943300D01*
X133991300Y-96617800D02*
X133991300Y-95728600D01*
X120760103Y-85060103D02*
X120660103Y-85060103D01*
X121300000Y-85600000D02*
X120760103Y-85060103D01*
X120660103Y-85060103D02*
X123159723Y-82560483D01*
X118870500Y-86849706D02*
X120660103Y-85060103D01*
%TO.N,TIM5_CH3_MOTOR_R_IN1*%
X123232800Y-101896600D02*
X123232800Y-103173200D01*
X123232800Y-103173200D02*
X115999300Y-110406700D01*
X115999300Y-110406700D02*
X115999300Y-111421400D01*
X115999300Y-111421400D02*
X116520900Y-111943000D01*
X116520900Y-111943000D02*
X119097800Y-111943000D01*
X119097800Y-111943000D02*
X120284400Y-110756400D01*
X120284400Y-110756400D02*
X123555700Y-110756400D01*
X123555700Y-110756400D02*
X134865400Y-99446700D01*
X134865400Y-99446700D02*
X134865400Y-98807300D01*
X134865400Y-98807300D02*
X137074500Y-96598200D01*
X137074500Y-96598200D02*
X137074500Y-94937200D01*
%TO.N,TIM5_CH4_MOTOR_R_IN2*%
X119757100Y-102962000D02*
X121214400Y-101504700D01*
X121214400Y-101504700D02*
X121214400Y-96318400D01*
X121214400Y-96318400D02*
X122242000Y-95290800D01*
X122242000Y-95290800D02*
X122866100Y-95290800D01*
X122866100Y-95290800D02*
X123269500Y-95694200D01*
X123269500Y-95694200D02*
X123269500Y-100983100D01*
X123269500Y-100983100D02*
X123883200Y-101596800D01*
X123883200Y-101596800D02*
X123883200Y-103018200D01*
X123883200Y-103018200D02*
X116349600Y-110551800D01*
X116349600Y-110551800D02*
X116349600Y-111276300D01*
X116349600Y-111276300D02*
X116666000Y-111592700D01*
X116666000Y-111592700D02*
X118952700Y-111592700D01*
X118952700Y-111592700D02*
X120139300Y-110406100D01*
X120139300Y-110406100D02*
X123387100Y-110406100D01*
X123387100Y-110406100D02*
X134514800Y-99278400D01*
X134514800Y-99278400D02*
X134514800Y-98662400D01*
X134514800Y-98662400D02*
X136176900Y-97000300D01*
X136176900Y-97000300D02*
X136176900Y-94199200D01*
X121214400Y-103035600D02*
X121214400Y-101504700D01*
X119800000Y-104450000D02*
X121214400Y-103035600D01*
%TO.N,TIM10_CH1_IR_LED_INNER*%
X137357700Y-89008700D02*
X137357700Y-90586300D01*
X137357700Y-90586300D02*
X131350500Y-96593500D01*
X131350500Y-96593500D02*
X131350500Y-96689900D01*
%TO.N,TIM11_CH1_IR_LED_OUTER*%
X170505100Y-116777700D02*
X167116400Y-113389000D01*
X167116400Y-113389000D02*
X164735400Y-113389000D01*
X164735400Y-113389000D02*
X158067100Y-106720700D01*
X158067100Y-106720700D02*
X158067100Y-103433200D01*
X158067100Y-103433200D02*
X156733100Y-102099200D01*
X156733100Y-102099200D02*
X154252900Y-102099200D01*
X154252900Y-102099200D02*
X152041500Y-99887800D01*
X152041500Y-99887800D02*
X152041500Y-97482000D01*
X152041500Y-97482000D02*
X147930200Y-93370700D01*
X147930200Y-93370700D02*
X147558600Y-93370700D01*
X147558600Y-93370700D02*
X145254700Y-91066800D01*
X145254700Y-91066800D02*
X145254700Y-90788100D01*
X145254700Y-90788100D02*
X142585300Y-88118700D01*
X142585300Y-88118700D02*
X140320700Y-88118700D01*
X140320700Y-88118700D02*
X132825900Y-95613500D01*
X132825900Y-95613500D02*
X132825900Y-96558600D01*
X132825900Y-96558600D02*
X131881700Y-97502800D01*
%TO.N,/1.65VA*%
X181241100Y-98489200D02*
X168520300Y-111210000D01*
%TO.N,BUTTON*%
X128908100Y-90751900D02*
X128557800Y-91102200D01*
X128557800Y-91102200D02*
X128557800Y-103800000D01*
X128557800Y-103800000D02*
X123150400Y-109207400D01*
%TO.N,+3V3*%
X150820000Y-98191200D02*
X150344600Y-98191200D01*
X150344600Y-98191200D02*
X146605000Y-94451600D01*
X148088700Y-91409100D02*
X148088700Y-87445900D01*
X148088700Y-87445900D02*
X146434300Y-85791500D01*
X151330600Y-104321100D02*
X151330600Y-98701800D01*
X151330600Y-98701800D02*
X150820000Y-98191200D01*
%TD*%
D22*
%TO.N,GND*%
X173066566Y-59049497D02*
X175351301Y-59336860D01*
X177612695Y-59771057D01*
X179841373Y-60350286D01*
X182028041Y-61072133D01*
X184163552Y-61933581D01*
X186239027Y-62931046D01*
X188245804Y-64060364D01*
X190175515Y-65316827D01*
X192020124Y-66695201D01*
X193771945Y-68189745D01*
X195423668Y-69794222D01*
X196968408Y-71501944D01*
X198399715Y-73305781D01*
X199711649Y-75198249D01*
X200898702Y-77171396D01*
X201955968Y-79217071D01*
X202879013Y-81326698D01*
X203663991Y-83491486D01*
X204307635Y-85702422D01*
X204807266Y-87950301D01*
X205160789Y-90225710D01*
X205366738Y-92519190D01*
X205424255Y-94821206D01*
X205333099Y-97122126D01*
X205093650Y-99412343D01*
X204706901Y-101682375D01*
X204174478Y-103922676D01*
X203498582Y-106123984D01*
X202682046Y-108277068D01*
X201728264Y-110372983D01*
X200641228Y-112402954D01*
X199425445Y-114358569D01*
X198085995Y-116231652D01*
X196628467Y-118014388D01*
X195058938Y-119699341D01*
X193383945Y-121279502D01*
X191610465Y-122748283D01*
X189745911Y-124099546D01*
X187798034Y-125327674D01*
X185774960Y-126427543D01*
X183685139Y-127394561D01*
X181537250Y-128224710D01*
X179340267Y-128914518D01*
X177103365Y-129461109D01*
X174835851Y-129862208D01*
X172544512Y-130116440D01*
X170794821Y-130209669D01*
X170717074Y-130204258D01*
X170667821Y-130190893D01*
X170622103Y-130168217D01*
X170581665Y-130137097D01*
X170548037Y-130098708D01*
X170522506Y-130054522D01*
X170506047Y-130006224D01*
X170495593Y-129928072D01*
X170495593Y-123849329D01*
X170502208Y-123851336D01*
X170549114Y-123865565D01*
X170561187Y-123866754D01*
X170657095Y-123876200D01*
X170657102Y-123876200D01*
X170693199Y-123879755D01*
X170729296Y-123876200D01*
X172682695Y-123876200D01*
X172718800Y-123879756D01*
X172754905Y-123876200D01*
X172862885Y-123865565D01*
X173001433Y-123823537D01*
X173129120Y-123755287D01*
X173241038Y-123663438D01*
X173264058Y-123635388D01*
X173454346Y-123445100D01*
X173517266Y-123506662D01*
X173622021Y-123575016D01*
X173738099Y-123621620D01*
X173861039Y-123644683D01*
X175853428Y-123818994D01*
X175978504Y-123817630D01*
X176100911Y-123791890D01*
X176215945Y-123742765D01*
X176319184Y-123672141D01*
X176406662Y-123582734D01*
X176475016Y-123477979D01*
X176521620Y-123361901D01*
X176544683Y-123238961D01*
X176702323Y-121437123D01*
X178149102Y-119990345D01*
X177868644Y-123196015D01*
X177861954Y-123231675D01*
X177862350Y-123267953D01*
X177863533Y-123376448D01*
X177893326Y-123518132D01*
X177900412Y-123534725D01*
X177950187Y-123651281D01*
X178031933Y-123770778D01*
X178135420Y-123872032D01*
X178256672Y-123951151D01*
X178391030Y-124005094D01*
X178497672Y-124025100D01*
X178497676Y-124025100D01*
X178533330Y-124031789D01*
X178569605Y-124031393D01*
X180490061Y-124199412D01*
X180525720Y-124206101D01*
X180670492Y-124204522D01*
X180812176Y-124174729D01*
X180846652Y-124160006D01*
X180945325Y-124117868D01*
X181031749Y-124058747D01*
X181064823Y-124036122D01*
X181125966Y-123973630D01*
X181166076Y-123932636D01*
X181245195Y-123811383D01*
X181299139Y-123677025D01*
X181317283Y-123580298D01*
X181846732Y-123580298D01*
X181847128Y-123616576D01*
X181848311Y-123725071D01*
X181878104Y-123866755D01*
X181892038Y-123899382D01*
X181934965Y-123999904D01*
X182016711Y-124119401D01*
X182120198Y-124220655D01*
X182241450Y-124299774D01*
X182375808Y-124353717D01*
X182482450Y-124373723D01*
X182482453Y-124373723D01*
X182518108Y-124380412D01*
X182554383Y-124380016D01*
X184474836Y-124548034D01*
X184510496Y-124554724D01*
X184651836Y-124553182D01*
X184655269Y-124553145D01*
X184796953Y-124523352D01*
X184930102Y-124466491D01*
X185049599Y-124384745D01*
X185150853Y-124281259D01*
X185229972Y-124160006D01*
X185283916Y-124025648D01*
X185310610Y-123883348D01*
X185310214Y-123847073D01*
X185652545Y-119934224D01*
X185659234Y-119898566D01*
X185658051Y-119790152D01*
X185657655Y-119753795D01*
X185627862Y-119612111D01*
X185571001Y-119478962D01*
X185553392Y-119453220D01*
X185521318Y-119406335D01*
X185489255Y-119359464D01*
X185385768Y-119258210D01*
X185385767Y-119258209D01*
X185360271Y-119241572D01*
X185264516Y-119179091D01*
X185187535Y-119148184D01*
X185130157Y-119125147D01*
X185023514Y-119105142D01*
X185023515Y-119105142D01*
X184987858Y-119098453D01*
X184951580Y-119098849D01*
X183031132Y-118930834D01*
X182995469Y-118924144D01*
X182854329Y-118925683D01*
X182850695Y-118925723D01*
X182820903Y-118931988D01*
X182709013Y-118955515D01*
X182575863Y-119012377D01*
X182456366Y-119094122D01*
X182355112Y-119197609D01*
X182275993Y-119318862D01*
X182222050Y-119453220D01*
X182202044Y-119559862D01*
X182202044Y-119559867D01*
X182195355Y-119595521D01*
X182195751Y-119631795D01*
X182027733Y-121552246D01*
X182027732Y-121552251D01*
X181853422Y-123544638D01*
X181846732Y-123580298D01*
X181317283Y-123580298D01*
X181325833Y-123534725D01*
X181325437Y-123498448D01*
X181493989Y-121571874D01*
X181667764Y-119585608D01*
X181674454Y-119549946D01*
X181672875Y-119405173D01*
X181643083Y-119263490D01*
X181586221Y-119130340D01*
X181504476Y-119010843D01*
X181455792Y-118963209D01*
X181400988Y-118909588D01*
X181350863Y-118876881D01*
X181279736Y-118830470D01*
X181223936Y-118808067D01*
X181145378Y-118776526D01*
X181003078Y-118749831D01*
X180966795Y-118750227D01*
X179516136Y-118623311D01*
X181935598Y-116203849D01*
X181963637Y-116180838D01*
X181986650Y-116152797D01*
X181986653Y-116152794D01*
X182055486Y-116068921D01*
X182055487Y-116068920D01*
X182123737Y-115941233D01*
X182165765Y-115802685D01*
X182176400Y-115694705D01*
X182176400Y-115694696D01*
X182179955Y-115658601D01*
X182176400Y-115622506D01*
X182176400Y-113628711D01*
X182245337Y-113559774D01*
X182358605Y-113390256D01*
X182436626Y-113201898D01*
X182476400Y-113001939D01*
X182476400Y-112798061D01*
X182436626Y-112598102D01*
X182358605Y-112409744D01*
X182245337Y-112240226D01*
X182101174Y-112096063D01*
X181931656Y-111982795D01*
X181743298Y-111904774D01*
X181543339Y-111865000D01*
X181339461Y-111865000D01*
X181139502Y-111904774D01*
X180951144Y-111982795D01*
X180781626Y-112096063D01*
X180637463Y-112240226D01*
X180524195Y-112409744D01*
X180446174Y-112598102D01*
X180406400Y-112798061D01*
X180406400Y-113001939D01*
X180446174Y-113201898D01*
X180524195Y-113390256D01*
X180637463Y-113559774D01*
X180706401Y-113628712D01*
X180706400Y-115354153D01*
X176822455Y-119238099D01*
X176793544Y-119092753D01*
X176670294Y-118795202D01*
X176491363Y-118527413D01*
X176263628Y-118299678D01*
X175995839Y-118120747D01*
X175698288Y-117997497D01*
X175382409Y-117934665D01*
X175060343Y-117934665D01*
X174744464Y-117997497D01*
X174446913Y-118120747D01*
X174179124Y-118299678D01*
X174104300Y-118374502D01*
X174104300Y-117935146D01*
X184862314Y-107177133D01*
X184865000Y-107204405D01*
X184865001Y-115852688D01*
X184796063Y-115921626D01*
X184682795Y-116091144D01*
X184604774Y-116279502D01*
X184565000Y-116479461D01*
X184565000Y-116683339D01*
X184604774Y-116883298D01*
X184682795Y-117071656D01*
X184796063Y-117241174D01*
X184940226Y-117385337D01*
X185109744Y-117498605D01*
X185298102Y-117576626D01*
X185498061Y-117616400D01*
X185701939Y-117616400D01*
X185901898Y-117576626D01*
X186090256Y-117498605D01*
X186259774Y-117385337D01*
X186403937Y-117241174D01*
X186517205Y-117071656D01*
X186595226Y-116883298D01*
X186635000Y-116683339D01*
X186635000Y-116479461D01*
X186595226Y-116279502D01*
X186517205Y-116091144D01*
X186403937Y-115921626D01*
X186335000Y-115852689D01*
X186335000Y-111999541D01*
X193561445Y-111999541D01*
X193575636Y-112143626D01*
X193606388Y-112245000D01*
X193617665Y-112282174D01*
X193685914Y-112409860D01*
X193754748Y-112493734D01*
X193754753Y-112493739D01*
X193777764Y-112521778D01*
X193805803Y-112544789D01*
X195168966Y-113907954D01*
X195191978Y-113935994D01*
X195220017Y-113959005D01*
X195220021Y-113959009D01*
X195303894Y-114027842D01*
X195431581Y-114096092D01*
X195488519Y-114113364D01*
X195570131Y-114138121D01*
X195714215Y-114152312D01*
X195858300Y-114138121D01*
X195996848Y-114096092D01*
X196124535Y-114027842D01*
X196208408Y-113959009D01*
X196208413Y-113959004D01*
X196236452Y-113935993D01*
X196259464Y-113907953D01*
X199036841Y-111130575D01*
X199064880Y-111107564D01*
X199087894Y-111079522D01*
X199087895Y-111079521D01*
X199154747Y-110998061D01*
X199156729Y-110995646D01*
X199224979Y-110867960D01*
X199267006Y-110729414D01*
X199267007Y-110729412D01*
X199271593Y-110682844D01*
X199281198Y-110585326D01*
X199267007Y-110441241D01*
X199224978Y-110302693D01*
X199156728Y-110175006D01*
X199087895Y-110091133D01*
X199087886Y-110091124D01*
X199064879Y-110063090D01*
X199036845Y-110040083D01*
X197673678Y-108676919D01*
X197650664Y-108648876D01*
X197538746Y-108557027D01*
X197509766Y-108541537D01*
X197411059Y-108488777D01*
X197272511Y-108446749D01*
X197128427Y-108432558D01*
X197128426Y-108432558D01*
X196984341Y-108446749D01*
X196845793Y-108488778D01*
X196718106Y-108557028D01*
X196634233Y-108625861D01*
X196634228Y-108625866D01*
X196606189Y-108648877D01*
X196583177Y-108676917D01*
X195220025Y-110040071D01*
X195220020Y-110040075D01*
X193805809Y-111454287D01*
X193777764Y-111477303D01*
X193685915Y-111589221D01*
X193637630Y-111679556D01*
X193617665Y-111716908D01*
X193575636Y-111855456D01*
X193561445Y-111999541D01*
X186335000Y-111999541D01*
X186335000Y-109171112D01*
X190733017Y-109171112D01*
X190747208Y-109315196D01*
X190789237Y-109453745D01*
X190857486Y-109581431D01*
X190922766Y-109660974D01*
X190949335Y-109693349D01*
X190977380Y-109716365D01*
X192340543Y-111079530D01*
X192363550Y-111107564D01*
X192391584Y-111130571D01*
X192391593Y-111130580D01*
X192475466Y-111199413D01*
X192603153Y-111267663D01*
X192639333Y-111278638D01*
X192741702Y-111309692D01*
X192885787Y-111323883D01*
X193029872Y-111309692D01*
X193168420Y-111267663D01*
X193296106Y-111199413D01*
X193379980Y-111130580D01*
X193379985Y-111130575D01*
X193408024Y-111107564D01*
X193431038Y-111079522D01*
X194845253Y-109665308D01*
X194845257Y-109665303D01*
X196208417Y-108302145D01*
X196236451Y-108279138D01*
X196259458Y-108251104D01*
X196259467Y-108251095D01*
X196328300Y-108167222D01*
X196396550Y-108039535D01*
X196438579Y-107900987D01*
X196452770Y-107756902D01*
X196438579Y-107612817D01*
X196396550Y-107474268D01*
X196396550Y-107474267D01*
X196328300Y-107346580D01*
X196259467Y-107262707D01*
X196259463Y-107262703D01*
X196236452Y-107234664D01*
X196208412Y-107211652D01*
X194845257Y-105848499D01*
X194822237Y-105820449D01*
X194710319Y-105728600D01*
X194582632Y-105660351D01*
X194444084Y-105618322D01*
X194299999Y-105604131D01*
X194155914Y-105618322D01*
X194017365Y-105660350D01*
X193889679Y-105728600D01*
X193805805Y-105797434D01*
X193805800Y-105797439D01*
X193777761Y-105820450D01*
X193754750Y-105848489D01*
X190977381Y-108625858D01*
X190949336Y-108648874D01*
X190857487Y-108760792D01*
X190789237Y-108888479D01*
X190747208Y-109027027D01*
X190733017Y-109171112D01*
X186335000Y-109171112D01*
X186335000Y-107472746D01*
X187653096Y-106154650D01*
X187659974Y-106224482D01*
X187696284Y-106344180D01*
X187755249Y-106454494D01*
X187834601Y-106551185D01*
X189248815Y-107965399D01*
X189345506Y-108044751D01*
X189455820Y-108103716D01*
X189575518Y-108140026D01*
X189700000Y-108152286D01*
X189824482Y-108140026D01*
X189944180Y-108103716D01*
X190054494Y-108044751D01*
X190151185Y-107965399D01*
X191565399Y-106551185D01*
X191644751Y-106454494D01*
X191703716Y-106344180D01*
X191740026Y-106224482D01*
X191752286Y-106100000D01*
X191740026Y-105975518D01*
X191724844Y-105925471D01*
X191972963Y-105876117D01*
X192270514Y-105752867D01*
X192538303Y-105573936D01*
X192766038Y-105346201D01*
X192944969Y-105078412D01*
X193068219Y-104780861D01*
X193131051Y-104464982D01*
X193131051Y-104142916D01*
X193068219Y-103827037D01*
X193051873Y-103787574D01*
X193176086Y-103663361D01*
X195588000Y-103663361D01*
X195588000Y-103867239D01*
X195627774Y-104067198D01*
X195705795Y-104255556D01*
X195819063Y-104425074D01*
X195963226Y-104569237D01*
X196132744Y-104682505D01*
X196321102Y-104760526D01*
X196521061Y-104800300D01*
X196724939Y-104800300D01*
X196924898Y-104760526D01*
X197113256Y-104682505D01*
X197282774Y-104569237D01*
X197426937Y-104425074D01*
X197540205Y-104255556D01*
X197618226Y-104067198D01*
X197658000Y-103867239D01*
X197658000Y-103769746D01*
X198163508Y-103264238D01*
X198193874Y-103416898D01*
X198271895Y-103605256D01*
X198385163Y-103774774D01*
X198529326Y-103918937D01*
X198698844Y-104032205D01*
X198887202Y-104110226D01*
X199087161Y-104150000D01*
X199291039Y-104150000D01*
X199490998Y-104110226D01*
X199679356Y-104032205D01*
X199848874Y-103918937D01*
X199993037Y-103774774D01*
X200106305Y-103605256D01*
X200184326Y-103416898D01*
X200224100Y-103216939D01*
X200224100Y-103119446D01*
X203286393Y-100057154D01*
X203314438Y-100034138D01*
X203406287Y-99922220D01*
X203474537Y-99794533D01*
X203516565Y-99655985D01*
X203527200Y-99548005D01*
X203530756Y-99511900D01*
X203527200Y-99475795D01*
X203527200Y-92043711D01*
X203596137Y-91974774D01*
X203709405Y-91805256D01*
X203787426Y-91616898D01*
X203827200Y-91416939D01*
X203827200Y-91213061D01*
X203787426Y-91013102D01*
X203709405Y-90824744D01*
X203596137Y-90655226D01*
X203451974Y-90511063D01*
X203282456Y-90397795D01*
X203094098Y-90319774D01*
X202894139Y-90280000D01*
X202690261Y-90280000D01*
X202490302Y-90319774D01*
X202301944Y-90397795D01*
X202132426Y-90511063D01*
X201988263Y-90655226D01*
X201874995Y-90824744D01*
X201796974Y-91013102D01*
X201757200Y-91213061D01*
X201757200Y-91416939D01*
X201796974Y-91616898D01*
X201874995Y-91805256D01*
X201988263Y-91974774D01*
X202057200Y-92043711D01*
X202057201Y-99207452D01*
X201285032Y-99979621D01*
X201236274Y-99930863D01*
X201066756Y-99817595D01*
X200878398Y-99739574D01*
X200678439Y-99699800D01*
X200474561Y-99699800D01*
X200274602Y-99739574D01*
X200086244Y-99817595D01*
X199916726Y-99930863D01*
X199847789Y-99999800D01*
X199689594Y-99999800D01*
X199653499Y-99996245D01*
X199617404Y-99999800D01*
X199617395Y-99999800D01*
X199509415Y-100010435D01*
X199370867Y-100052463D01*
X199243180Y-100120713D01*
X199131262Y-100212562D01*
X199108246Y-100240607D01*
X196618554Y-102730300D01*
X196521061Y-102730300D01*
X196321102Y-102770074D01*
X196132744Y-102848095D01*
X195963226Y-102961363D01*
X195819063Y-103105526D01*
X195705795Y-103275044D01*
X195627774Y-103463402D01*
X195588000Y-103663361D01*
X193176086Y-103663361D01*
X195377793Y-101461654D01*
X195405838Y-101438638D01*
X195497687Y-101326720D01*
X195565937Y-101199033D01*
X195607965Y-101060485D01*
X195618600Y-100952505D01*
X195618600Y-100952496D01*
X195622155Y-100916401D01*
X195618600Y-100880306D01*
X195618600Y-92992805D01*
X195622156Y-92956700D01*
X195607965Y-92812615D01*
X195565937Y-92674066D01*
X195542826Y-92630828D01*
X195705356Y-92563505D01*
X195874874Y-92450237D01*
X196019037Y-92306074D01*
X196132305Y-92136556D01*
X196210326Y-91948198D01*
X196250100Y-91748239D01*
X196250100Y-91650746D01*
X200289093Y-87611754D01*
X200317138Y-87588738D01*
X200408987Y-87476820D01*
X200477237Y-87349133D01*
X200519265Y-87210585D01*
X200529900Y-87102605D01*
X200529900Y-87102596D01*
X200533455Y-87066501D01*
X200529900Y-87030406D01*
X200529900Y-84092011D01*
X200598837Y-84023074D01*
X200712105Y-83853556D01*
X200790126Y-83665198D01*
X200829900Y-83465239D01*
X200829900Y-83261361D01*
X200790126Y-83061402D01*
X200712105Y-82873044D01*
X200598837Y-82703526D01*
X200454674Y-82559363D01*
X200285156Y-82446095D01*
X200096798Y-82368074D01*
X199896839Y-82328300D01*
X199692961Y-82328300D01*
X199493002Y-82368074D01*
X199304644Y-82446095D01*
X199135126Y-82559363D01*
X198990963Y-82703526D01*
X198877695Y-82873044D01*
X198799674Y-83061402D01*
X198759900Y-83261361D01*
X198759900Y-83465239D01*
X198799674Y-83665198D01*
X198877695Y-83853556D01*
X198990963Y-84023074D01*
X199059900Y-84092011D01*
X199059901Y-86762052D01*
X195210654Y-90611300D01*
X195113161Y-90611300D01*
X194913202Y-90651074D01*
X194724844Y-90729095D01*
X194555326Y-90842363D01*
X194411163Y-90986526D01*
X194297895Y-91156044D01*
X194246491Y-91280144D01*
X194202100Y-91235754D01*
X194202100Y-86803194D01*
X194205655Y-86767099D01*
X194202100Y-86731004D01*
X194202100Y-86730995D01*
X194191465Y-86623015D01*
X194149437Y-86484467D01*
X194081187Y-86356780D01*
X194046636Y-86314680D01*
X194012353Y-86272906D01*
X194012350Y-86272903D01*
X193989337Y-86244862D01*
X193961297Y-86221850D01*
X192978015Y-85238569D01*
X193165399Y-85051185D01*
X193244751Y-84954494D01*
X193303716Y-84844180D01*
X193340026Y-84724482D01*
X193352286Y-84600000D01*
X193340026Y-84475518D01*
X193303716Y-84355820D01*
X193244751Y-84245506D01*
X193165399Y-84148815D01*
X191751185Y-82734601D01*
X191654494Y-82655249D01*
X191544180Y-82596284D01*
X191522300Y-82589647D01*
X191522300Y-81040173D01*
X193754750Y-83272624D01*
X193777762Y-83300664D01*
X193805801Y-83323675D01*
X193805806Y-83323680D01*
X193889680Y-83392514D01*
X194017366Y-83460763D01*
X194155915Y-83502792D01*
X194300000Y-83516983D01*
X194444085Y-83502792D01*
X194582633Y-83460763D01*
X194710320Y-83392514D01*
X194822238Y-83300665D01*
X194845258Y-83272615D01*
X196208408Y-81909467D01*
X196236452Y-81886452D01*
X196328301Y-81774534D01*
X196396551Y-81646847D01*
X196438579Y-81508299D01*
X196440714Y-81486619D01*
X196452770Y-81364215D01*
X196451953Y-81355915D01*
X196438579Y-81220129D01*
X196396551Y-81081580D01*
X196328301Y-80953894D01*
X196259467Y-80870020D01*
X196259463Y-80870016D01*
X196236452Y-80841977D01*
X196208412Y-80818965D01*
X194845257Y-79455811D01*
X194845253Y-79455806D01*
X193431039Y-78041593D01*
X193408025Y-78013550D01*
X193296107Y-77921701D01*
X193168420Y-77853451D01*
X193029872Y-77811422D01*
X192885787Y-77797231D01*
X192741702Y-77811422D01*
X192603153Y-77853451D01*
X192475467Y-77921700D01*
X192391593Y-77990534D01*
X192391584Y-77990543D01*
X192363550Y-78013550D01*
X192340543Y-78041584D01*
X191522300Y-78859827D01*
X191522300Y-78282296D01*
X191525855Y-78246199D01*
X191522300Y-78210102D01*
X191522300Y-78210095D01*
X191511665Y-78102115D01*
X191469637Y-77963567D01*
X191401387Y-77835880D01*
X191309538Y-77723962D01*
X191281493Y-77700946D01*
X190702120Y-77121573D01*
X193561444Y-77121573D01*
X193575635Y-77265658D01*
X193617664Y-77404206D01*
X193685914Y-77531892D01*
X193754747Y-77615766D01*
X193754752Y-77615771D01*
X193777763Y-77643810D01*
X193805802Y-77666821D01*
X195220020Y-79081040D01*
X195220026Y-79081045D01*
X196583180Y-80444199D01*
X196606191Y-80472238D01*
X196634230Y-80495249D01*
X196634234Y-80495253D01*
X196718108Y-80564087D01*
X196833300Y-80625658D01*
X196845796Y-80632337D01*
X196924014Y-80656064D01*
X196984343Y-80674365D01*
X197128428Y-80688556D01*
X197272513Y-80674365D01*
X197411061Y-80632336D01*
X197538748Y-80564086D01*
X197650666Y-80472237D01*
X197673682Y-80444192D01*
X199036843Y-79081030D01*
X199064877Y-79058023D01*
X199087885Y-79029988D01*
X199087893Y-79029980D01*
X199156727Y-78946106D01*
X199224976Y-78818420D01*
X199267005Y-78679871D01*
X199281195Y-78535786D01*
X199279827Y-78521898D01*
X199267005Y-78391701D01*
X199224976Y-78253152D01*
X199156726Y-78125466D01*
X199087893Y-78041592D01*
X199087888Y-78041587D01*
X199064877Y-78013548D01*
X199036838Y-77990537D01*
X196259473Y-75213172D01*
X196236452Y-75185121D01*
X196124534Y-75093272D01*
X195996847Y-75025022D01*
X195858299Y-74982994D01*
X195714214Y-74968803D01*
X195570129Y-74982994D01*
X195431580Y-75025022D01*
X195303894Y-75093272D01*
X195220020Y-75162106D01*
X195220015Y-75162111D01*
X195191977Y-75185121D01*
X195168965Y-75213161D01*
X193805802Y-76576325D01*
X193777763Y-76599336D01*
X193754752Y-76627375D01*
X193754747Y-76627380D01*
X193712848Y-76678435D01*
X193685914Y-76711254D01*
X193617664Y-76838940D01*
X193575635Y-76977488D01*
X193561444Y-77121573D01*
X190702120Y-77121573D01*
X186415200Y-72834654D01*
X186415200Y-72737161D01*
X186375426Y-72537202D01*
X186297405Y-72348844D01*
X186184137Y-72179326D01*
X186039974Y-72035163D01*
X185870456Y-71921895D01*
X185682098Y-71843874D01*
X185482139Y-71804100D01*
X185278261Y-71804100D01*
X185078302Y-71843874D01*
X184889944Y-71921895D01*
X184720426Y-72035163D01*
X184576263Y-72179326D01*
X184462995Y-72348844D01*
X184384974Y-72537202D01*
X184345200Y-72737161D01*
X184345200Y-72941039D01*
X184384974Y-73140998D01*
X184462995Y-73329356D01*
X184576263Y-73498874D01*
X184720426Y-73643037D01*
X184889944Y-73756305D01*
X185078302Y-73834326D01*
X185278261Y-73874100D01*
X185375754Y-73874100D01*
X190052301Y-78550648D01*
X190052300Y-81261372D01*
X189980861Y-81231781D01*
X189664982Y-81168949D01*
X189342916Y-81168949D01*
X189027037Y-81231781D01*
X188729486Y-81355031D01*
X188461697Y-81533962D01*
X188233962Y-81761697D01*
X188055031Y-82029486D01*
X187931781Y-82327037D01*
X187868949Y-82642916D01*
X187868949Y-82964982D01*
X187931781Y-83280861D01*
X187963318Y-83356997D01*
X187937463Y-83405368D01*
X187912280Y-83488385D01*
X187895435Y-83543915D01*
X187884116Y-83658842D01*
X187878412Y-83655031D01*
X187580861Y-83531781D01*
X187264982Y-83468949D01*
X186954900Y-83468949D01*
X186954900Y-79066604D01*
X186958456Y-79030499D01*
X186944265Y-78886414D01*
X186923639Y-78818420D01*
X186902237Y-78747867D01*
X186833987Y-78620180D01*
X186742138Y-78508262D01*
X186714093Y-78485246D01*
X178908500Y-70679654D01*
X178908500Y-70544479D01*
X179010690Y-70545594D01*
X179046350Y-70538904D01*
X180966803Y-70370889D01*
X181003078Y-70371285D01*
X181038734Y-70364596D01*
X181038735Y-70364596D01*
X181145378Y-70344591D01*
X181252046Y-70301764D01*
X181279736Y-70290647D01*
X181388073Y-70219956D01*
X181400988Y-70211529D01*
X181504475Y-70110275D01*
X181505527Y-70108738D01*
X181561447Y-70026993D01*
X181586221Y-69990778D01*
X181606440Y-69943431D01*
X181643083Y-69857628D01*
X181672876Y-69715944D01*
X181674059Y-69607448D01*
X181674455Y-69571172D01*
X181667766Y-69535514D01*
X181493456Y-67543122D01*
X181493455Y-67543118D01*
X181325437Y-65622673D01*
X181325833Y-65586390D01*
X181317284Y-65540814D01*
X181846732Y-65540814D01*
X181853422Y-65576473D01*
X182027711Y-67568616D01*
X182195751Y-69489320D01*
X182195355Y-69525595D01*
X182202044Y-69561250D01*
X182202044Y-69561253D01*
X182222050Y-69667895D01*
X182275993Y-69802253D01*
X182355112Y-69923506D01*
X182456366Y-70026993D01*
X182575863Y-70108738D01*
X182709013Y-70165600D01*
X182850696Y-70195392D01*
X182995469Y-70196971D01*
X183031131Y-70190281D01*
X184951581Y-70022263D01*
X184987856Y-70022659D01*
X185023511Y-70015970D01*
X185023514Y-70015970D01*
X185130156Y-69995964D01*
X185264514Y-69942021D01*
X185385767Y-69862902D01*
X185489254Y-69761648D01*
X185570999Y-69642151D01*
X185627861Y-69509001D01*
X185657653Y-69367318D01*
X185659232Y-69222545D01*
X185652542Y-69186883D01*
X185310214Y-65274042D01*
X185310610Y-65237769D01*
X185301364Y-65188479D01*
X185283915Y-65095468D01*
X185229972Y-64961111D01*
X185150853Y-64839858D01*
X185049599Y-64736371D01*
X184930102Y-64654626D01*
X184796953Y-64597764D01*
X184655269Y-64567971D01*
X184510496Y-64566392D01*
X184474837Y-64573081D01*
X182554385Y-64741097D01*
X182518108Y-64740701D01*
X182482452Y-64747390D01*
X182482451Y-64747390D01*
X182474589Y-64748865D01*
X182375808Y-64767396D01*
X182242754Y-64820816D01*
X182241451Y-64821339D01*
X182120198Y-64900457D01*
X182016711Y-65001711D01*
X181934966Y-65121208D01*
X181878104Y-65254358D01*
X181848311Y-65396041D01*
X181846732Y-65540814D01*
X181317284Y-65540814D01*
X181299138Y-65444090D01*
X181253244Y-65329783D01*
X181245194Y-65309732D01*
X181174970Y-65202111D01*
X181166076Y-65188480D01*
X181064822Y-65084993D01*
X181049880Y-65074771D01*
X181007855Y-65046023D01*
X180945325Y-65003248D01*
X180941729Y-65001712D01*
X180890905Y-64980008D01*
X180812175Y-64946386D01*
X180670491Y-64916593D01*
X180667058Y-64916556D01*
X180525718Y-64915014D01*
X180490059Y-64921704D01*
X178569605Y-65089721D01*
X178533328Y-65089325D01*
X178497672Y-65096014D01*
X178497671Y-65096014D01*
X178439488Y-65106929D01*
X178391028Y-65116020D01*
X178316563Y-65145917D01*
X176694000Y-63523354D01*
X176694000Y-63425861D01*
X176654226Y-63225902D01*
X176576205Y-63037544D01*
X176462937Y-62868026D01*
X176318774Y-62723863D01*
X176149256Y-62610595D01*
X175960898Y-62532574D01*
X175760939Y-62492800D01*
X175557061Y-62492800D01*
X175357102Y-62532574D01*
X175168744Y-62610595D01*
X174999226Y-62723863D01*
X174855063Y-62868026D01*
X174741795Y-63037544D01*
X174663774Y-63225902D01*
X174624000Y-63425861D01*
X174624000Y-63629739D01*
X174663774Y-63829698D01*
X174741795Y-64018056D01*
X174855063Y-64187574D01*
X174999226Y-64331737D01*
X175067416Y-64377300D01*
X174292194Y-64377300D01*
X174256099Y-64373745D01*
X174220004Y-64377300D01*
X174219995Y-64377300D01*
X174112015Y-64387935D01*
X173973467Y-64429963D01*
X173845780Y-64498213D01*
X173733862Y-64590062D01*
X173710846Y-64618107D01*
X172760508Y-65568446D01*
X172732463Y-65591462D01*
X172640614Y-65703380D01*
X172623809Y-65734820D01*
X172453087Y-65620747D01*
X172155536Y-65497497D01*
X171839657Y-65434665D01*
X171517591Y-65434665D01*
X171201712Y-65497497D01*
X170904161Y-65620747D01*
X170636372Y-65799678D01*
X170495594Y-65940456D01*
X170495594Y-59210639D01*
X170504098Y-59123900D01*
X170518848Y-59075047D01*
X170542805Y-59029989D01*
X170575059Y-58990443D01*
X170614382Y-58957911D01*
X170659266Y-58933642D01*
X170708021Y-58918550D01*
X170780530Y-58910929D01*
X173066566Y-59049497D01*
%TA.AperFunction,Conductor*%
D23*
G36*
X173066566Y-59049497D02*
G01*
X175351301Y-59336860D01*
X177612695Y-59771057D01*
X179841373Y-60350286D01*
X182028041Y-61072133D01*
X184163552Y-61933581D01*
X186239027Y-62931046D01*
X188245804Y-64060364D01*
X190175515Y-65316827D01*
X192020124Y-66695201D01*
X193771945Y-68189745D01*
X195423668Y-69794222D01*
X196968408Y-71501944D01*
X198399715Y-73305781D01*
X199711649Y-75198249D01*
X200898702Y-77171396D01*
X201955968Y-79217071D01*
X202879013Y-81326698D01*
X203663991Y-83491486D01*
X204307635Y-85702422D01*
X204807266Y-87950301D01*
X205160789Y-90225710D01*
X205366738Y-92519190D01*
X205424255Y-94821206D01*
X205333099Y-97122126D01*
X205093650Y-99412343D01*
X204706901Y-101682375D01*
X204174478Y-103922676D01*
X203498582Y-106123984D01*
X202682046Y-108277068D01*
X201728264Y-110372983D01*
X200641228Y-112402954D01*
X199425445Y-114358569D01*
X198085995Y-116231652D01*
X196628467Y-118014388D01*
X195058938Y-119699341D01*
X193383945Y-121279502D01*
X191610465Y-122748283D01*
X189745911Y-124099546D01*
X187798034Y-125327674D01*
X185774960Y-126427543D01*
X183685139Y-127394561D01*
X181537250Y-128224710D01*
X179340267Y-128914518D01*
X177103365Y-129461109D01*
X174835851Y-129862208D01*
X172544512Y-130116440D01*
X170794821Y-130209669D01*
X170717074Y-130204258D01*
X170667821Y-130190893D01*
X170622103Y-130168217D01*
X170581665Y-130137097D01*
X170548037Y-130098708D01*
X170522506Y-130054522D01*
X170506047Y-130006224D01*
X170495593Y-129928072D01*
X170495593Y-123849329D01*
X170502208Y-123851336D01*
X170549114Y-123865565D01*
X170561187Y-123866754D01*
X170657095Y-123876200D01*
X170657102Y-123876200D01*
X170693199Y-123879755D01*
X170729296Y-123876200D01*
X172682695Y-123876200D01*
X172718800Y-123879756D01*
X172754905Y-123876200D01*
X172862885Y-123865565D01*
X173001433Y-123823537D01*
X173129120Y-123755287D01*
X173241038Y-123663438D01*
X173264058Y-123635388D01*
X173454346Y-123445100D01*
X173517266Y-123506662D01*
X173622021Y-123575016D01*
X173738099Y-123621620D01*
X173861039Y-123644683D01*
X175853428Y-123818994D01*
X175978504Y-123817630D01*
X176100911Y-123791890D01*
X176215945Y-123742765D01*
X176319184Y-123672141D01*
X176406662Y-123582734D01*
X176475016Y-123477979D01*
X176521620Y-123361901D01*
X176544683Y-123238961D01*
X176702323Y-121437123D01*
X178149102Y-119990345D01*
X177868644Y-123196015D01*
X177861954Y-123231675D01*
X177862350Y-123267953D01*
X177863533Y-123376448D01*
X177893326Y-123518132D01*
X177900412Y-123534725D01*
X177950187Y-123651281D01*
X178031933Y-123770778D01*
X178135420Y-123872032D01*
X178256672Y-123951151D01*
X178391030Y-124005094D01*
X178497672Y-124025100D01*
X178497676Y-124025100D01*
X178533330Y-124031789D01*
X178569605Y-124031393D01*
X180490061Y-124199412D01*
X180525720Y-124206101D01*
X180670492Y-124204522D01*
X180812176Y-124174729D01*
X180846652Y-124160006D01*
X180945325Y-124117868D01*
X181031749Y-124058747D01*
X181064823Y-124036122D01*
X181125966Y-123973630D01*
X181166076Y-123932636D01*
X181245195Y-123811383D01*
X181299139Y-123677025D01*
X181317283Y-123580298D01*
X181846732Y-123580298D01*
X181847128Y-123616576D01*
X181848311Y-123725071D01*
X181878104Y-123866755D01*
X181892038Y-123899382D01*
X181934965Y-123999904D01*
X182016711Y-124119401D01*
X182120198Y-124220655D01*
X182241450Y-124299774D01*
X182375808Y-124353717D01*
X182482450Y-124373723D01*
X182482453Y-124373723D01*
X182518108Y-124380412D01*
X182554383Y-124380016D01*
X184474836Y-124548034D01*
X184510496Y-124554724D01*
X184651836Y-124553182D01*
X184655269Y-124553145D01*
X184796953Y-124523352D01*
X184930102Y-124466491D01*
X185049599Y-124384745D01*
X185150853Y-124281259D01*
X185229972Y-124160006D01*
X185283916Y-124025648D01*
X185310610Y-123883348D01*
X185310214Y-123847073D01*
X185652545Y-119934224D01*
X185659234Y-119898566D01*
X185658051Y-119790152D01*
X185657655Y-119753795D01*
X185627862Y-119612111D01*
X185571001Y-119478962D01*
X185553392Y-119453220D01*
X185521318Y-119406335D01*
X185489255Y-119359464D01*
X185385768Y-119258210D01*
X185385767Y-119258209D01*
X185360271Y-119241572D01*
X185264516Y-119179091D01*
X185187535Y-119148184D01*
X185130157Y-119125147D01*
X185023514Y-119105142D01*
X185023515Y-119105142D01*
X184987858Y-119098453D01*
X184951580Y-119098849D01*
X183031132Y-118930834D01*
X182995469Y-118924144D01*
X182854329Y-118925683D01*
X182850695Y-118925723D01*
X182820903Y-118931988D01*
X182709013Y-118955515D01*
X182575863Y-119012377D01*
X182456366Y-119094122D01*
X182355112Y-119197609D01*
X182275993Y-119318862D01*
X182222050Y-119453220D01*
X182202044Y-119559862D01*
X182202044Y-119559867D01*
X182195355Y-119595521D01*
X182195751Y-119631795D01*
X182027733Y-121552246D01*
X182027732Y-121552251D01*
X181853422Y-123544638D01*
X181846732Y-123580298D01*
X181317283Y-123580298D01*
X181325833Y-123534725D01*
X181325437Y-123498448D01*
X181493989Y-121571874D01*
X181667764Y-119585608D01*
X181674454Y-119549946D01*
X181672875Y-119405173D01*
X181643083Y-119263490D01*
X181586221Y-119130340D01*
X181504476Y-119010843D01*
X181455792Y-118963209D01*
X181400988Y-118909588D01*
X181350863Y-118876881D01*
X181279736Y-118830470D01*
X181223936Y-118808067D01*
X181145378Y-118776526D01*
X181003078Y-118749831D01*
X180966795Y-118750227D01*
X179516136Y-118623311D01*
X181935598Y-116203849D01*
X181963637Y-116180838D01*
X181986650Y-116152797D01*
X181986653Y-116152794D01*
X182055486Y-116068921D01*
X182055487Y-116068920D01*
X182123737Y-115941233D01*
X182165765Y-115802685D01*
X182176400Y-115694705D01*
X182176400Y-115694696D01*
X182179955Y-115658601D01*
X182176400Y-115622506D01*
X182176400Y-113628711D01*
X182245337Y-113559774D01*
X182358605Y-113390256D01*
X182436626Y-113201898D01*
X182476400Y-113001939D01*
X182476400Y-112798061D01*
X182436626Y-112598102D01*
X182358605Y-112409744D01*
X182245337Y-112240226D01*
X182101174Y-112096063D01*
X181931656Y-111982795D01*
X181743298Y-111904774D01*
X181543339Y-111865000D01*
X181339461Y-111865000D01*
X181139502Y-111904774D01*
X180951144Y-111982795D01*
X180781626Y-112096063D01*
X180637463Y-112240226D01*
X180524195Y-112409744D01*
X180446174Y-112598102D01*
X180406400Y-112798061D01*
X180406400Y-113001939D01*
X180446174Y-113201898D01*
X180524195Y-113390256D01*
X180637463Y-113559774D01*
X180706401Y-113628712D01*
X180706400Y-115354153D01*
X176822455Y-119238099D01*
X176793544Y-119092753D01*
X176670294Y-118795202D01*
X176491363Y-118527413D01*
X176263628Y-118299678D01*
X175995839Y-118120747D01*
X175698288Y-117997497D01*
X175382409Y-117934665D01*
X175060343Y-117934665D01*
X174744464Y-117997497D01*
X174446913Y-118120747D01*
X174179124Y-118299678D01*
X174104300Y-118374502D01*
X174104300Y-117935146D01*
X184862314Y-107177133D01*
X184865000Y-107204405D01*
X184865001Y-115852688D01*
X184796063Y-115921626D01*
X184682795Y-116091144D01*
X184604774Y-116279502D01*
X184565000Y-116479461D01*
X184565000Y-116683339D01*
X184604774Y-116883298D01*
X184682795Y-117071656D01*
X184796063Y-117241174D01*
X184940226Y-117385337D01*
X185109744Y-117498605D01*
X185298102Y-117576626D01*
X185498061Y-117616400D01*
X185701939Y-117616400D01*
X185901898Y-117576626D01*
X186090256Y-117498605D01*
X186259774Y-117385337D01*
X186403937Y-117241174D01*
X186517205Y-117071656D01*
X186595226Y-116883298D01*
X186635000Y-116683339D01*
X186635000Y-116479461D01*
X186595226Y-116279502D01*
X186517205Y-116091144D01*
X186403937Y-115921626D01*
X186335000Y-115852689D01*
X186335000Y-111999541D01*
X193561445Y-111999541D01*
X193575636Y-112143626D01*
X193606388Y-112245000D01*
X193617665Y-112282174D01*
X193685914Y-112409860D01*
X193754748Y-112493734D01*
X193754753Y-112493739D01*
X193777764Y-112521778D01*
X193805803Y-112544789D01*
X195168966Y-113907954D01*
X195191978Y-113935994D01*
X195220017Y-113959005D01*
X195220021Y-113959009D01*
X195303894Y-114027842D01*
X195431581Y-114096092D01*
X195488519Y-114113364D01*
X195570131Y-114138121D01*
X195714215Y-114152312D01*
X195858300Y-114138121D01*
X195996848Y-114096092D01*
X196124535Y-114027842D01*
X196208408Y-113959009D01*
X196208413Y-113959004D01*
X196236452Y-113935993D01*
X196259464Y-113907953D01*
X199036841Y-111130575D01*
X199064880Y-111107564D01*
X199087894Y-111079522D01*
X199087895Y-111079521D01*
X199154747Y-110998061D01*
X199156729Y-110995646D01*
X199224979Y-110867960D01*
X199267006Y-110729414D01*
X199267007Y-110729412D01*
X199271593Y-110682844D01*
X199281198Y-110585326D01*
X199267007Y-110441241D01*
X199224978Y-110302693D01*
X199156728Y-110175006D01*
X199087895Y-110091133D01*
X199087886Y-110091124D01*
X199064879Y-110063090D01*
X199036845Y-110040083D01*
X197673678Y-108676919D01*
X197650664Y-108648876D01*
X197538746Y-108557027D01*
X197509766Y-108541537D01*
X197411059Y-108488777D01*
X197272511Y-108446749D01*
X197128427Y-108432558D01*
X197128426Y-108432558D01*
X196984341Y-108446749D01*
X196845793Y-108488778D01*
X196718106Y-108557028D01*
X196634233Y-108625861D01*
X196634228Y-108625866D01*
X196606189Y-108648877D01*
X196583177Y-108676917D01*
X195220025Y-110040071D01*
X195220020Y-110040075D01*
X193805809Y-111454287D01*
X193777764Y-111477303D01*
X193685915Y-111589221D01*
X193637630Y-111679556D01*
X193617665Y-111716908D01*
X193575636Y-111855456D01*
X193561445Y-111999541D01*
X186335000Y-111999541D01*
X186335000Y-109171112D01*
X190733017Y-109171112D01*
X190747208Y-109315196D01*
X190789237Y-109453745D01*
X190857486Y-109581431D01*
X190922766Y-109660974D01*
X190949335Y-109693349D01*
X190977380Y-109716365D01*
X192340543Y-111079530D01*
X192363550Y-111107564D01*
X192391584Y-111130571D01*
X192391593Y-111130580D01*
X192475466Y-111199413D01*
X192603153Y-111267663D01*
X192639333Y-111278638D01*
X192741702Y-111309692D01*
X192885787Y-111323883D01*
X193029872Y-111309692D01*
X193168420Y-111267663D01*
X193296106Y-111199413D01*
X193379980Y-111130580D01*
X193379985Y-111130575D01*
X193408024Y-111107564D01*
X193431038Y-111079522D01*
X194845253Y-109665308D01*
X194845257Y-109665303D01*
X196208417Y-108302145D01*
X196236451Y-108279138D01*
X196259458Y-108251104D01*
X196259467Y-108251095D01*
X196328300Y-108167222D01*
X196396550Y-108039535D01*
X196438579Y-107900987D01*
X196452770Y-107756902D01*
X196438579Y-107612817D01*
X196396550Y-107474268D01*
X196396550Y-107474267D01*
X196328300Y-107346580D01*
X196259467Y-107262707D01*
X196259463Y-107262703D01*
X196236452Y-107234664D01*
X196208412Y-107211652D01*
X194845257Y-105848499D01*
X194822237Y-105820449D01*
X194710319Y-105728600D01*
X194582632Y-105660351D01*
X194444084Y-105618322D01*
X194299999Y-105604131D01*
X194155914Y-105618322D01*
X194017365Y-105660350D01*
X193889679Y-105728600D01*
X193805805Y-105797434D01*
X193805800Y-105797439D01*
X193777761Y-105820450D01*
X193754750Y-105848489D01*
X190977381Y-108625858D01*
X190949336Y-108648874D01*
X190857487Y-108760792D01*
X190789237Y-108888479D01*
X190747208Y-109027027D01*
X190733017Y-109171112D01*
X186335000Y-109171112D01*
X186335000Y-107472746D01*
X187653096Y-106154650D01*
X187659974Y-106224482D01*
X187696284Y-106344180D01*
X187755249Y-106454494D01*
X187834601Y-106551185D01*
X189248815Y-107965399D01*
X189345506Y-108044751D01*
X189455820Y-108103716D01*
X189575518Y-108140026D01*
X189700000Y-108152286D01*
X189824482Y-108140026D01*
X189944180Y-108103716D01*
X190054494Y-108044751D01*
X190151185Y-107965399D01*
X191565399Y-106551185D01*
X191644751Y-106454494D01*
X191703716Y-106344180D01*
X191740026Y-106224482D01*
X191752286Y-106100000D01*
X191740026Y-105975518D01*
X191724844Y-105925471D01*
X191972963Y-105876117D01*
X192270514Y-105752867D01*
X192538303Y-105573936D01*
X192766038Y-105346201D01*
X192944969Y-105078412D01*
X193068219Y-104780861D01*
X193131051Y-104464982D01*
X193131051Y-104142916D01*
X193068219Y-103827037D01*
X193051873Y-103787574D01*
X193176086Y-103663361D01*
X195588000Y-103663361D01*
X195588000Y-103867239D01*
X195627774Y-104067198D01*
X195705795Y-104255556D01*
X195819063Y-104425074D01*
X195963226Y-104569237D01*
X196132744Y-104682505D01*
X196321102Y-104760526D01*
X196521061Y-104800300D01*
X196724939Y-104800300D01*
X196924898Y-104760526D01*
X197113256Y-104682505D01*
X197282774Y-104569237D01*
X197426937Y-104425074D01*
X197540205Y-104255556D01*
X197618226Y-104067198D01*
X197658000Y-103867239D01*
X197658000Y-103769746D01*
X198163508Y-103264238D01*
X198193874Y-103416898D01*
X198271895Y-103605256D01*
X198385163Y-103774774D01*
X198529326Y-103918937D01*
X198698844Y-104032205D01*
X198887202Y-104110226D01*
X199087161Y-104150000D01*
X199291039Y-104150000D01*
X199490998Y-104110226D01*
X199679356Y-104032205D01*
X199848874Y-103918937D01*
X199993037Y-103774774D01*
X200106305Y-103605256D01*
X200184326Y-103416898D01*
X200224100Y-103216939D01*
X200224100Y-103119446D01*
X203286393Y-100057154D01*
X203314438Y-100034138D01*
X203406287Y-99922220D01*
X203474537Y-99794533D01*
X203516565Y-99655985D01*
X203527200Y-99548005D01*
X203530756Y-99511900D01*
X203527200Y-99475795D01*
X203527200Y-92043711D01*
X203596137Y-91974774D01*
X203709405Y-91805256D01*
X203787426Y-91616898D01*
X203827200Y-91416939D01*
X203827200Y-91213061D01*
X203787426Y-91013102D01*
X203709405Y-90824744D01*
X203596137Y-90655226D01*
X203451974Y-90511063D01*
X203282456Y-90397795D01*
X203094098Y-90319774D01*
X202894139Y-90280000D01*
X202690261Y-90280000D01*
X202490302Y-90319774D01*
X202301944Y-90397795D01*
X202132426Y-90511063D01*
X201988263Y-90655226D01*
X201874995Y-90824744D01*
X201796974Y-91013102D01*
X201757200Y-91213061D01*
X201757200Y-91416939D01*
X201796974Y-91616898D01*
X201874995Y-91805256D01*
X201988263Y-91974774D01*
X202057200Y-92043711D01*
X202057201Y-99207452D01*
X201285032Y-99979621D01*
X201236274Y-99930863D01*
X201066756Y-99817595D01*
X200878398Y-99739574D01*
X200678439Y-99699800D01*
X200474561Y-99699800D01*
X200274602Y-99739574D01*
X200086244Y-99817595D01*
X199916726Y-99930863D01*
X199847789Y-99999800D01*
X199689594Y-99999800D01*
X199653499Y-99996245D01*
X199617404Y-99999800D01*
X199617395Y-99999800D01*
X199509415Y-100010435D01*
X199370867Y-100052463D01*
X199243180Y-100120713D01*
X199131262Y-100212562D01*
X199108246Y-100240607D01*
X196618554Y-102730300D01*
X196521061Y-102730300D01*
X196321102Y-102770074D01*
X196132744Y-102848095D01*
X195963226Y-102961363D01*
X195819063Y-103105526D01*
X195705795Y-103275044D01*
X195627774Y-103463402D01*
X195588000Y-103663361D01*
X193176086Y-103663361D01*
X195377793Y-101461654D01*
X195405838Y-101438638D01*
X195497687Y-101326720D01*
X195565937Y-101199033D01*
X195607965Y-101060485D01*
X195618600Y-100952505D01*
X195618600Y-100952496D01*
X195622155Y-100916401D01*
X195618600Y-100880306D01*
X195618600Y-92992805D01*
X195622156Y-92956700D01*
X195607965Y-92812615D01*
X195565937Y-92674066D01*
X195542826Y-92630828D01*
X195705356Y-92563505D01*
X195874874Y-92450237D01*
X196019037Y-92306074D01*
X196132305Y-92136556D01*
X196210326Y-91948198D01*
X196250100Y-91748239D01*
X196250100Y-91650746D01*
X200289093Y-87611754D01*
X200317138Y-87588738D01*
X200408987Y-87476820D01*
X200477237Y-87349133D01*
X200519265Y-87210585D01*
X200529900Y-87102605D01*
X200529900Y-87102596D01*
X200533455Y-87066501D01*
X200529900Y-87030406D01*
X200529900Y-84092011D01*
X200598837Y-84023074D01*
X200712105Y-83853556D01*
X200790126Y-83665198D01*
X200829900Y-83465239D01*
X200829900Y-83261361D01*
X200790126Y-83061402D01*
X200712105Y-82873044D01*
X200598837Y-82703526D01*
X200454674Y-82559363D01*
X200285156Y-82446095D01*
X200096798Y-82368074D01*
X199896839Y-82328300D01*
X199692961Y-82328300D01*
X199493002Y-82368074D01*
X199304644Y-82446095D01*
X199135126Y-82559363D01*
X198990963Y-82703526D01*
X198877695Y-82873044D01*
X198799674Y-83061402D01*
X198759900Y-83261361D01*
X198759900Y-83465239D01*
X198799674Y-83665198D01*
X198877695Y-83853556D01*
X198990963Y-84023074D01*
X199059900Y-84092011D01*
X199059901Y-86762052D01*
X195210654Y-90611300D01*
X195113161Y-90611300D01*
X194913202Y-90651074D01*
X194724844Y-90729095D01*
X194555326Y-90842363D01*
X194411163Y-90986526D01*
X194297895Y-91156044D01*
X194246491Y-91280144D01*
X194202100Y-91235754D01*
X194202100Y-86803194D01*
X194205655Y-86767099D01*
X194202100Y-86731004D01*
X194202100Y-86730995D01*
X194191465Y-86623015D01*
X194149437Y-86484467D01*
X194081187Y-86356780D01*
X194046636Y-86314680D01*
X194012353Y-86272906D01*
X194012350Y-86272903D01*
X193989337Y-86244862D01*
X193961297Y-86221850D01*
X192978015Y-85238569D01*
X193165399Y-85051185D01*
X193244751Y-84954494D01*
X193303716Y-84844180D01*
X193340026Y-84724482D01*
X193352286Y-84600000D01*
X193340026Y-84475518D01*
X193303716Y-84355820D01*
X193244751Y-84245506D01*
X193165399Y-84148815D01*
X191751185Y-82734601D01*
X191654494Y-82655249D01*
X191544180Y-82596284D01*
X191522300Y-82589647D01*
X191522300Y-81040173D01*
X193754750Y-83272624D01*
X193777762Y-83300664D01*
X193805801Y-83323675D01*
X193805806Y-83323680D01*
X193889680Y-83392514D01*
X194017366Y-83460763D01*
X194155915Y-83502792D01*
X194300000Y-83516983D01*
X194444085Y-83502792D01*
X194582633Y-83460763D01*
X194710320Y-83392514D01*
X194822238Y-83300665D01*
X194845258Y-83272615D01*
X196208408Y-81909467D01*
X196236452Y-81886452D01*
X196328301Y-81774534D01*
X196396551Y-81646847D01*
X196438579Y-81508299D01*
X196440714Y-81486619D01*
X196452770Y-81364215D01*
X196451953Y-81355915D01*
X196438579Y-81220129D01*
X196396551Y-81081580D01*
X196328301Y-80953894D01*
X196259467Y-80870020D01*
X196259463Y-80870016D01*
X196236452Y-80841977D01*
X196208412Y-80818965D01*
X194845257Y-79455811D01*
X194845253Y-79455806D01*
X193431039Y-78041593D01*
X193408025Y-78013550D01*
X193296107Y-77921701D01*
X193168420Y-77853451D01*
X193029872Y-77811422D01*
X192885787Y-77797231D01*
X192741702Y-77811422D01*
X192603153Y-77853451D01*
X192475467Y-77921700D01*
X192391593Y-77990534D01*
X192391584Y-77990543D01*
X192363550Y-78013550D01*
X192340543Y-78041584D01*
X191522300Y-78859827D01*
X191522300Y-78282296D01*
X191525855Y-78246199D01*
X191522300Y-78210102D01*
X191522300Y-78210095D01*
X191511665Y-78102115D01*
X191469637Y-77963567D01*
X191401387Y-77835880D01*
X191309538Y-77723962D01*
X191281493Y-77700946D01*
X190702120Y-77121573D01*
X193561444Y-77121573D01*
X193575635Y-77265658D01*
X193617664Y-77404206D01*
X193685914Y-77531892D01*
X193754747Y-77615766D01*
X193754752Y-77615771D01*
X193777763Y-77643810D01*
X193805802Y-77666821D01*
X195220020Y-79081040D01*
X195220026Y-79081045D01*
X196583180Y-80444199D01*
X196606191Y-80472238D01*
X196634230Y-80495249D01*
X196634234Y-80495253D01*
X196718108Y-80564087D01*
X196833300Y-80625658D01*
X196845796Y-80632337D01*
X196924014Y-80656064D01*
X196984343Y-80674365D01*
X197128428Y-80688556D01*
X197272513Y-80674365D01*
X197411061Y-80632336D01*
X197538748Y-80564086D01*
X197650666Y-80472237D01*
X197673682Y-80444192D01*
X199036843Y-79081030D01*
X199064877Y-79058023D01*
X199087885Y-79029988D01*
X199087893Y-79029980D01*
X199156727Y-78946106D01*
X199224976Y-78818420D01*
X199267005Y-78679871D01*
X199281195Y-78535786D01*
X199279827Y-78521898D01*
X199267005Y-78391701D01*
X199224976Y-78253152D01*
X199156726Y-78125466D01*
X199087893Y-78041592D01*
X199087888Y-78041587D01*
X199064877Y-78013548D01*
X199036838Y-77990537D01*
X196259473Y-75213172D01*
X196236452Y-75185121D01*
X196124534Y-75093272D01*
X195996847Y-75025022D01*
X195858299Y-74982994D01*
X195714214Y-74968803D01*
X195570129Y-74982994D01*
X195431580Y-75025022D01*
X195303894Y-75093272D01*
X195220020Y-75162106D01*
X195220015Y-75162111D01*
X195191977Y-75185121D01*
X195168965Y-75213161D01*
X193805802Y-76576325D01*
X193777763Y-76599336D01*
X193754752Y-76627375D01*
X193754747Y-76627380D01*
X193712848Y-76678435D01*
X193685914Y-76711254D01*
X193617664Y-76838940D01*
X193575635Y-76977488D01*
X193561444Y-77121573D01*
X190702120Y-77121573D01*
X186415200Y-72834654D01*
X186415200Y-72737161D01*
X186375426Y-72537202D01*
X186297405Y-72348844D01*
X186184137Y-72179326D01*
X186039974Y-72035163D01*
X185870456Y-71921895D01*
X185682098Y-71843874D01*
X185482139Y-71804100D01*
X185278261Y-71804100D01*
X185078302Y-71843874D01*
X184889944Y-71921895D01*
X184720426Y-72035163D01*
X184576263Y-72179326D01*
X184462995Y-72348844D01*
X184384974Y-72537202D01*
X184345200Y-72737161D01*
X184345200Y-72941039D01*
X184384974Y-73140998D01*
X184462995Y-73329356D01*
X184576263Y-73498874D01*
X184720426Y-73643037D01*
X184889944Y-73756305D01*
X185078302Y-73834326D01*
X185278261Y-73874100D01*
X185375754Y-73874100D01*
X190052301Y-78550648D01*
X190052300Y-81261372D01*
X189980861Y-81231781D01*
X189664982Y-81168949D01*
X189342916Y-81168949D01*
X189027037Y-81231781D01*
X188729486Y-81355031D01*
X188461697Y-81533962D01*
X188233962Y-81761697D01*
X188055031Y-82029486D01*
X187931781Y-82327037D01*
X187868949Y-82642916D01*
X187868949Y-82964982D01*
X187931781Y-83280861D01*
X187963318Y-83356997D01*
X187937463Y-83405368D01*
X187912280Y-83488385D01*
X187895435Y-83543915D01*
X187884116Y-83658842D01*
X187878412Y-83655031D01*
X187580861Y-83531781D01*
X187264982Y-83468949D01*
X186954900Y-83468949D01*
X186954900Y-79066604D01*
X186958456Y-79030499D01*
X186944265Y-78886414D01*
X186923639Y-78818420D01*
X186902237Y-78747867D01*
X186833987Y-78620180D01*
X186742138Y-78508262D01*
X186714093Y-78485246D01*
X178908500Y-70679654D01*
X178908500Y-70544479D01*
X179010690Y-70545594D01*
X179046350Y-70538904D01*
X180966803Y-70370889D01*
X181003078Y-70371285D01*
X181038734Y-70364596D01*
X181038735Y-70364596D01*
X181145378Y-70344591D01*
X181252046Y-70301764D01*
X181279736Y-70290647D01*
X181388073Y-70219956D01*
X181400988Y-70211529D01*
X181504475Y-70110275D01*
X181505527Y-70108738D01*
X181561447Y-70026993D01*
X181586221Y-69990778D01*
X181606440Y-69943431D01*
X181643083Y-69857628D01*
X181672876Y-69715944D01*
X181674059Y-69607448D01*
X181674455Y-69571172D01*
X181667766Y-69535514D01*
X181493456Y-67543122D01*
X181493455Y-67543118D01*
X181325437Y-65622673D01*
X181325833Y-65586390D01*
X181317284Y-65540814D01*
X181846732Y-65540814D01*
X181853422Y-65576473D01*
X182027711Y-67568616D01*
X182195751Y-69489320D01*
X182195355Y-69525595D01*
X182202044Y-69561250D01*
X182202044Y-69561253D01*
X182222050Y-69667895D01*
X182275993Y-69802253D01*
X182355112Y-69923506D01*
X182456366Y-70026993D01*
X182575863Y-70108738D01*
X182709013Y-70165600D01*
X182850696Y-70195392D01*
X182995469Y-70196971D01*
X183031131Y-70190281D01*
X184951581Y-70022263D01*
X184987856Y-70022659D01*
X185023511Y-70015970D01*
X185023514Y-70015970D01*
X185130156Y-69995964D01*
X185264514Y-69942021D01*
X185385767Y-69862902D01*
X185489254Y-69761648D01*
X185570999Y-69642151D01*
X185627861Y-69509001D01*
X185657653Y-69367318D01*
X185659232Y-69222545D01*
X185652542Y-69186883D01*
X185310214Y-65274042D01*
X185310610Y-65237769D01*
X185301364Y-65188479D01*
X185283915Y-65095468D01*
X185229972Y-64961111D01*
X185150853Y-64839858D01*
X185049599Y-64736371D01*
X184930102Y-64654626D01*
X184796953Y-64597764D01*
X184655269Y-64567971D01*
X184510496Y-64566392D01*
X184474837Y-64573081D01*
X182554385Y-64741097D01*
X182518108Y-64740701D01*
X182482452Y-64747390D01*
X182482451Y-64747390D01*
X182474589Y-64748865D01*
X182375808Y-64767396D01*
X182242754Y-64820816D01*
X182241451Y-64821339D01*
X182120198Y-64900457D01*
X182016711Y-65001711D01*
X181934966Y-65121208D01*
X181878104Y-65254358D01*
X181848311Y-65396041D01*
X181846732Y-65540814D01*
X181317284Y-65540814D01*
X181299138Y-65444090D01*
X181253244Y-65329783D01*
X181245194Y-65309732D01*
X181174970Y-65202111D01*
X181166076Y-65188480D01*
X181064822Y-65084993D01*
X181049880Y-65074771D01*
X181007855Y-65046023D01*
X180945325Y-65003248D01*
X180941729Y-65001712D01*
X180890905Y-64980008D01*
X180812175Y-64946386D01*
X180670491Y-64916593D01*
X180667058Y-64916556D01*
X180525718Y-64915014D01*
X180490059Y-64921704D01*
X178569605Y-65089721D01*
X178533328Y-65089325D01*
X178497672Y-65096014D01*
X178497671Y-65096014D01*
X178439488Y-65106929D01*
X178391028Y-65116020D01*
X178316563Y-65145917D01*
X176694000Y-63523354D01*
X176694000Y-63425861D01*
X176654226Y-63225902D01*
X176576205Y-63037544D01*
X176462937Y-62868026D01*
X176318774Y-62723863D01*
X176149256Y-62610595D01*
X175960898Y-62532574D01*
X175760939Y-62492800D01*
X175557061Y-62492800D01*
X175357102Y-62532574D01*
X175168744Y-62610595D01*
X174999226Y-62723863D01*
X174855063Y-62868026D01*
X174741795Y-63037544D01*
X174663774Y-63225902D01*
X174624000Y-63425861D01*
X174624000Y-63629739D01*
X174663774Y-63829698D01*
X174741795Y-64018056D01*
X174855063Y-64187574D01*
X174999226Y-64331737D01*
X175067416Y-64377300D01*
X174292194Y-64377300D01*
X174256099Y-64373745D01*
X174220004Y-64377300D01*
X174219995Y-64377300D01*
X174112015Y-64387935D01*
X173973467Y-64429963D01*
X173845780Y-64498213D01*
X173733862Y-64590062D01*
X173710846Y-64618107D01*
X172760508Y-65568446D01*
X172732463Y-65591462D01*
X172640614Y-65703380D01*
X172623809Y-65734820D01*
X172453087Y-65620747D01*
X172155536Y-65497497D01*
X171839657Y-65434665D01*
X171517591Y-65434665D01*
X171201712Y-65497497D01*
X170904161Y-65620747D01*
X170636372Y-65799678D01*
X170495594Y-65940456D01*
X170495594Y-59210639D01*
X170504098Y-59123900D01*
X170518848Y-59075047D01*
X170542805Y-59029989D01*
X170575059Y-58990443D01*
X170614382Y-58957911D01*
X170659266Y-58933642D01*
X170708021Y-58918550D01*
X170780530Y-58910929D01*
X173066566Y-59049497D01*
G37*
%TD.AperFunction*%
D22*
X115033289Y-72474786D02*
X115036230Y-72504643D01*
X115048578Y-72545349D01*
X115049907Y-72551483D01*
X115059072Y-72579942D01*
X115078258Y-72643191D01*
X115081231Y-72648753D01*
X115083166Y-72654762D01*
X115115347Y-72712580D01*
X115146508Y-72770878D01*
X115150509Y-72775753D01*
X115153579Y-72781269D01*
X115196414Y-72831689D01*
X115238357Y-72882796D01*
X115243234Y-72886798D01*
X115247320Y-72891608D01*
X115299156Y-72932692D01*
X115350275Y-72974645D01*
X115355840Y-72977619D01*
X115360785Y-72981539D01*
X115419646Y-73011725D01*
X115477962Y-73042895D01*
X115483998Y-73044726D01*
X115489614Y-73047606D01*
X115553226Y-73065726D01*
X115616510Y-73084923D01*
X115622790Y-73085542D01*
X115628858Y-73087270D01*
X115694772Y-73092631D01*
X115724490Y-73095558D01*
X115730759Y-73095558D01*
X115773164Y-73099007D01*
X115802972Y-73095558D01*
X127914862Y-73095558D01*
X127826663Y-73183757D01*
X127624633Y-73486116D01*
X127485473Y-73822079D01*
X127414529Y-74178735D01*
X127414529Y-74542379D01*
X127485473Y-74899035D01*
X127624633Y-75234998D01*
X127826663Y-75537357D01*
X128083797Y-75794491D01*
X128386156Y-75996521D01*
X128722119Y-76135681D01*
X129078775Y-76206625D01*
X129442419Y-76206625D01*
X129799075Y-76135681D01*
X130135038Y-75996521D01*
X130437397Y-75794491D01*
X130694531Y-75537357D01*
X130896561Y-75234998D01*
X131035721Y-74899035D01*
X131106665Y-74542379D01*
X131106665Y-74178735D01*
X131035721Y-73822079D01*
X130896561Y-73486116D01*
X130694531Y-73183757D01*
X130606332Y-73095558D01*
X154914858Y-73095558D01*
X154826658Y-73183758D01*
X154624628Y-73486117D01*
X154485468Y-73822080D01*
X154414524Y-74178736D01*
X154414524Y-74542380D01*
X154485468Y-74899036D01*
X154624628Y-75234999D01*
X154826658Y-75537358D01*
X154956500Y-75667200D01*
X136883605Y-75667200D01*
X136847500Y-75663644D01*
X136703415Y-75677835D01*
X136564866Y-75719863D01*
X136437180Y-75788113D01*
X136325262Y-75879962D01*
X136302246Y-75908007D01*
X135455808Y-76754446D01*
X135427763Y-76777462D01*
X135335914Y-76889380D01*
X135317668Y-76923517D01*
X135200000Y-76911928D01*
X134500000Y-76911928D01*
X134375518Y-76924188D01*
X134300000Y-76947096D01*
X134224482Y-76924188D01*
X134100000Y-76911928D01*
X133300000Y-76911928D01*
X133175518Y-76924188D01*
X133100000Y-76947096D01*
X133024482Y-76924188D01*
X132900000Y-76911928D01*
X132200000Y-76911928D01*
X132075518Y-76924188D01*
X132000000Y-76947096D01*
X131924482Y-76924188D01*
X131800000Y-76911928D01*
X131100000Y-76911928D01*
X130975518Y-76924188D01*
X130855820Y-76960498D01*
X130745506Y-77019463D01*
X130648815Y-77098815D01*
X130569463Y-77195506D01*
X130510498Y-77305820D01*
X130474188Y-77425518D01*
X130461928Y-77550000D01*
X130461928Y-77865200D01*
X119681405Y-77865200D01*
X119645300Y-77861644D01*
X119609195Y-77865200D01*
X119501215Y-77875835D01*
X119362667Y-77917863D01*
X119234980Y-77986113D01*
X119123062Y-78077962D01*
X119100046Y-78106007D01*
X114405654Y-82800400D01*
X114308161Y-82800400D01*
X114108202Y-82840174D01*
X113919844Y-82918195D01*
X113750326Y-83031463D01*
X113606163Y-83175626D01*
X113492895Y-83345144D01*
X113414874Y-83533502D01*
X113375100Y-83733461D01*
X113375100Y-83937339D01*
X113414874Y-84137298D01*
X113492895Y-84325656D01*
X113606163Y-84495174D01*
X113750326Y-84639337D01*
X113919844Y-84752605D01*
X114108202Y-84830626D01*
X114308161Y-84870400D01*
X114512039Y-84870400D01*
X114711998Y-84830626D01*
X114900356Y-84752605D01*
X115069874Y-84639337D01*
X115214037Y-84495174D01*
X115317413Y-84340459D01*
X116795064Y-84340459D01*
X117250000Y-84795395D01*
X117704936Y-84340459D01*
X117694425Y-84147237D01*
X117524397Y-84076438D01*
X117343824Y-84040172D01*
X117159645Y-84039829D01*
X116978939Y-84075426D01*
X116808649Y-84145592D01*
X116805575Y-84147237D01*
X116795064Y-84340459D01*
X115317413Y-84340459D01*
X115327305Y-84325656D01*
X115405326Y-84137298D01*
X115445100Y-83937339D01*
X115445100Y-83839846D01*
X119465384Y-79819563D01*
X119526863Y-79911574D01*
X119595801Y-79980512D01*
X119595800Y-82577853D01*
X118403007Y-83770647D01*
X118374961Y-83793664D01*
X118283112Y-83905582D01*
X118214862Y-84033269D01*
X118192851Y-84105830D01*
X118172834Y-84171816D01*
X118158643Y-84315901D01*
X118162199Y-84352006D01*
X118162199Y-84768030D01*
X118149574Y-84703939D01*
X118079408Y-84533649D01*
X118077763Y-84530575D01*
X117884541Y-84520064D01*
X117429605Y-84975000D01*
X117443748Y-84989143D01*
X117384541Y-85048349D01*
X117343824Y-85040172D01*
X117159645Y-85039829D01*
X117115613Y-85048503D01*
X117056253Y-84989143D01*
X117070395Y-84975000D01*
X116615459Y-84520064D01*
X116422237Y-84530575D01*
X116351438Y-84700603D01*
X116315172Y-84881176D01*
X116314829Y-85065355D01*
X116350426Y-85246061D01*
X116420592Y-85416351D01*
X116422237Y-85419425D01*
X116520143Y-85424751D01*
X116570392Y-85475000D01*
X116520143Y-85525249D01*
X116422237Y-85530575D01*
X116351438Y-85700603D01*
X116315172Y-85881176D01*
X116314829Y-86065355D01*
X116350426Y-86246061D01*
X116420592Y-86416351D01*
X116422237Y-86419425D01*
X116520143Y-86424751D01*
X116570392Y-86475000D01*
X116520143Y-86525249D01*
X116422237Y-86530575D01*
X116351438Y-86700603D01*
X116315172Y-86881176D01*
X116314829Y-87065355D01*
X116350426Y-87246061D01*
X116420592Y-87416351D01*
X116422237Y-87419425D01*
X116544479Y-87426075D01*
X116315454Y-87655100D01*
X113524125Y-87655100D01*
X113555256Y-87642205D01*
X113724774Y-87528937D01*
X113868937Y-87384774D01*
X113982205Y-87215256D01*
X114060226Y-87026898D01*
X114100000Y-86826939D01*
X114100000Y-86623061D01*
X114060226Y-86423102D01*
X113982205Y-86234744D01*
X113868937Y-86065226D01*
X113724774Y-85921063D01*
X113555256Y-85807795D01*
X113475300Y-85774676D01*
X113475300Y-85336105D01*
X113478856Y-85300000D01*
X113464665Y-85155915D01*
X113422637Y-85017367D01*
X113354387Y-84889680D01*
X113262538Y-84777762D01*
X113150620Y-84685913D01*
X113022933Y-84617663D01*
X112956353Y-84597466D01*
X112955990Y-84596589D01*
X112793475Y-84353368D01*
X112586632Y-84146525D01*
X112343411Y-83984010D01*
X112073158Y-83872068D01*
X111786260Y-83815000D01*
X111493740Y-83815000D01*
X111206842Y-83872068D01*
X110936589Y-83984010D01*
X110693368Y-84146525D01*
X110561513Y-84278380D01*
X110539502Y-84205820D01*
X110480537Y-84095506D01*
X110401185Y-83998815D01*
X110304494Y-83919463D01*
X110194180Y-83860498D01*
X110074482Y-83824188D01*
X109950000Y-83811928D01*
X108250000Y-83811928D01*
X108125518Y-83824188D01*
X108005820Y-83860498D01*
X107895506Y-83919463D01*
X107798815Y-83998815D01*
X107719463Y-84095506D01*
X107660498Y-84205820D01*
X107624188Y-84325518D01*
X107611928Y-84450000D01*
X107611928Y-86150000D01*
X107624188Y-86274482D01*
X107660498Y-86394180D01*
X107719463Y-86504494D01*
X107798815Y-86601185D01*
X107895506Y-86680537D01*
X108005820Y-86739502D01*
X108086466Y-86763966D01*
X108002412Y-86839731D01*
X107828359Y-87073080D01*
X107703175Y-87335901D01*
X107658524Y-87483110D01*
X107779845Y-87713000D01*
X108973000Y-87713000D01*
X108973000Y-87693000D01*
X109227000Y-87693000D01*
X109227000Y-87713000D01*
X109247000Y-87713000D01*
X109247000Y-87967000D01*
X109227000Y-87967000D01*
X109227000Y-87987000D01*
X108973000Y-87987000D01*
X108973000Y-87967000D01*
X107779845Y-87967000D01*
X107658524Y-88196890D01*
X107703175Y-88344099D01*
X107828359Y-88606920D01*
X108002412Y-88840269D01*
X108218645Y-89035178D01*
X108335534Y-89104805D01*
X108153368Y-89226525D01*
X107946525Y-89433368D01*
X107784010Y-89676589D01*
X107672068Y-89946842D01*
X107615000Y-90233740D01*
X107615000Y-90526260D01*
X107672068Y-90813158D01*
X107784010Y-91083411D01*
X107946525Y-91326632D01*
X108153368Y-91533475D01*
X108396589Y-91695990D01*
X108666842Y-91807932D01*
X108953740Y-91865000D01*
X109246260Y-91865000D01*
X109533158Y-91807932D01*
X109793701Y-91700012D01*
X109793700Y-96711928D01*
X108250000Y-96711928D01*
X108125518Y-96724188D01*
X108005820Y-96760498D01*
X107895506Y-96819463D01*
X107798815Y-96898815D01*
X107719463Y-96995506D01*
X107660498Y-97105820D01*
X107624188Y-97225518D01*
X107611928Y-97350000D01*
X107611928Y-99050000D01*
X107624188Y-99174482D01*
X107660498Y-99294180D01*
X107719463Y-99404494D01*
X107798815Y-99501185D01*
X107895506Y-99580537D01*
X108005820Y-99639502D01*
X108086466Y-99663966D01*
X108002412Y-99739731D01*
X107828359Y-99973080D01*
X107703175Y-100235901D01*
X107658524Y-100383110D01*
X107779845Y-100613000D01*
X108973000Y-100613000D01*
X108973000Y-100593000D01*
X109227000Y-100593000D01*
X109227000Y-100613000D01*
X109247000Y-100613000D01*
X109247000Y-100867000D01*
X109227000Y-100867000D01*
X109227000Y-100887000D01*
X108973000Y-100887000D01*
X108973000Y-100867000D01*
X107779845Y-100867000D01*
X107658524Y-101096890D01*
X107703175Y-101244099D01*
X107828359Y-101506920D01*
X108002412Y-101740269D01*
X108218645Y-101935178D01*
X108335534Y-102004805D01*
X108153368Y-102126525D01*
X107946525Y-102333368D01*
X107784010Y-102576589D01*
X107672068Y-102846842D01*
X107615000Y-103133740D01*
X107615000Y-103426260D01*
X107672068Y-103713158D01*
X107784010Y-103983411D01*
X107946525Y-104226632D01*
X108153368Y-104433475D01*
X108396589Y-104595990D01*
X108666842Y-104707932D01*
X108953740Y-104765000D01*
X109246260Y-104765000D01*
X109533158Y-104707932D01*
X109803411Y-104595990D01*
X110046632Y-104433475D01*
X110253475Y-104226632D01*
X110370000Y-104052240D01*
X110486525Y-104226632D01*
X110693368Y-104433475D01*
X110936589Y-104595990D01*
X111206842Y-104707932D01*
X111493740Y-104765000D01*
X111786260Y-104765000D01*
X112073158Y-104707932D01*
X112343411Y-104595990D01*
X112586632Y-104433475D01*
X112634901Y-104385206D01*
X112634900Y-107966200D01*
X112465061Y-107966200D01*
X112265102Y-108005974D01*
X112076744Y-108083995D01*
X111907226Y-108197263D01*
X111763063Y-108341426D01*
X111649795Y-108510944D01*
X111571774Y-108699302D01*
X111532000Y-108899261D01*
X111532000Y-108996754D01*
X111500208Y-109028546D01*
X111472163Y-109051562D01*
X111380314Y-109163480D01*
X111317729Y-109280568D01*
X111312064Y-109291167D01*
X111270035Y-109429715D01*
X111255844Y-109573800D01*
X111259401Y-109609915D01*
X111259400Y-112265801D01*
X111255844Y-112301909D01*
X111260908Y-112353319D01*
X111270035Y-112445984D01*
X111270037Y-112445989D01*
X111270037Y-112445994D01*
X111291755Y-112517586D01*
X111312063Y-112584532D01*
X111312064Y-112584533D01*
X111312067Y-112584542D01*
X111337855Y-112632786D01*
X111380313Y-112712219D01*
X111380318Y-112712225D01*
X111380319Y-112712227D01*
X111404563Y-112741768D01*
X111472162Y-112824137D01*
X111500210Y-112847156D01*
X114852347Y-116199207D01*
X112506108Y-118545446D01*
X112478063Y-118568462D01*
X112386214Y-118680380D01*
X112320983Y-118802419D01*
X112317964Y-118808067D01*
X112275935Y-118946615D01*
X112261744Y-119090700D01*
X112265301Y-119126815D01*
X112265300Y-120915689D01*
X112196363Y-120984626D01*
X112083095Y-121154144D01*
X112005074Y-121342502D01*
X111965300Y-121542461D01*
X111965300Y-121746339D01*
X112005074Y-121946298D01*
X112083095Y-122134656D01*
X112196363Y-122304174D01*
X112340526Y-122448337D01*
X112510044Y-122561605D01*
X112698402Y-122639626D01*
X112898361Y-122679400D01*
X113102239Y-122679400D01*
X113302198Y-122639626D01*
X113490556Y-122561605D01*
X113660074Y-122448337D01*
X113804237Y-122304174D01*
X113808953Y-122297116D01*
X112567791Y-128025559D01*
X106895594Y-128025556D01*
X106895594Y-74038061D01*
X115435000Y-74038061D01*
X115435000Y-74241939D01*
X115474774Y-74441898D01*
X115552795Y-74630256D01*
X115666063Y-74799774D01*
X115685000Y-74818711D01*
X115685001Y-77541288D01*
X115666063Y-77560226D01*
X115552795Y-77729744D01*
X115474774Y-77918102D01*
X115435000Y-78118061D01*
X115435000Y-78321939D01*
X115474774Y-78521898D01*
X115552795Y-78710256D01*
X115666063Y-78879774D01*
X115810226Y-79023937D01*
X115979744Y-79137205D01*
X116168102Y-79215226D01*
X116368061Y-79255000D01*
X116571939Y-79255000D01*
X116771898Y-79215226D01*
X116960256Y-79137205D01*
X117129774Y-79023937D01*
X117273937Y-78879774D01*
X117387205Y-78710256D01*
X117465226Y-78521898D01*
X117505000Y-78321939D01*
X117505000Y-78118061D01*
X117465226Y-77918102D01*
X117387205Y-77729744D01*
X117273937Y-77560226D01*
X117255000Y-77541289D01*
X117255000Y-74818711D01*
X117273937Y-74799774D01*
X117387205Y-74630256D01*
X117465226Y-74441898D01*
X117505000Y-74241939D01*
X117505000Y-74038061D01*
X117465226Y-73838102D01*
X117387205Y-73649744D01*
X117273937Y-73480226D01*
X117129774Y-73336063D01*
X116960256Y-73222795D01*
X116771898Y-73144774D01*
X116571939Y-73105000D01*
X116368061Y-73105000D01*
X116168102Y-73144774D01*
X115979744Y-73222795D01*
X115810226Y-73336063D01*
X115666063Y-73480226D01*
X115552795Y-73649744D01*
X115474774Y-73838102D01*
X115435000Y-74038061D01*
X106895594Y-74038061D01*
X106895593Y-72100000D01*
X107411928Y-72100000D01*
X107411928Y-73100000D01*
X107424188Y-73224482D01*
X107460498Y-73344180D01*
X107519463Y-73454494D01*
X107598815Y-73551185D01*
X107695506Y-73630537D01*
X107805820Y-73689502D01*
X107925518Y-73725812D01*
X108050000Y-73738072D01*
X109050000Y-73738072D01*
X109174482Y-73725812D01*
X109294180Y-73689502D01*
X109404494Y-73630537D01*
X109501185Y-73551185D01*
X109580537Y-73454494D01*
X109639502Y-73344180D01*
X109675812Y-73224482D01*
X109688072Y-73100000D01*
X109688072Y-72100000D01*
X111661928Y-72100000D01*
X111661928Y-73100000D01*
X111674188Y-73224482D01*
X111710498Y-73344180D01*
X111769463Y-73454494D01*
X111848815Y-73551185D01*
X111945506Y-73630537D01*
X112055820Y-73689502D01*
X112175518Y-73725812D01*
X112300000Y-73738072D01*
X113300000Y-73738072D01*
X113424482Y-73725812D01*
X113544180Y-73689502D01*
X113654494Y-73630537D01*
X113751185Y-73551185D01*
X113830537Y-73454494D01*
X113889502Y-73344180D01*
X113925812Y-73224482D01*
X113938072Y-73100000D01*
X113938072Y-72100000D01*
X113925812Y-71975518D01*
X113889502Y-71855820D01*
X113845112Y-71772774D01*
X113891383Y-71661067D01*
X113935000Y-71441788D01*
X113935000Y-71218212D01*
X113891383Y-70998933D01*
X113805824Y-70792376D01*
X113681612Y-70606480D01*
X113523520Y-70448388D01*
X113337624Y-70324176D01*
X113131067Y-70238617D01*
X112911788Y-70195000D01*
X112688212Y-70195000D01*
X112468933Y-70238617D01*
X112262376Y-70324176D01*
X112076480Y-70448388D01*
X111918388Y-70606480D01*
X111794176Y-70792376D01*
X111708617Y-70998933D01*
X111665000Y-71218212D01*
X111665000Y-71441788D01*
X111708617Y-71661067D01*
X111754888Y-71772774D01*
X111710498Y-71855820D01*
X111674188Y-71975518D01*
X111661928Y-72100000D01*
X109688072Y-72100000D01*
X109675812Y-71975518D01*
X109639502Y-71855820D01*
X109591930Y-71766820D01*
X109627446Y-71686864D01*
X109644119Y-71631874D01*
X109517954Y-71457000D01*
X108677000Y-71457000D01*
X108677000Y-71461928D01*
X108423000Y-71461928D01*
X108423000Y-71457000D01*
X107582046Y-71457000D01*
X107455881Y-71631874D01*
X107472554Y-71686864D01*
X107508070Y-71766820D01*
X107460498Y-71855820D01*
X107424188Y-71975518D01*
X107411928Y-72100000D01*
X106895593Y-72100000D01*
X106895593Y-71028126D01*
X107455881Y-71028126D01*
X107582046Y-71203000D01*
X108423000Y-71203000D01*
X108423000Y-70360871D01*
X108677000Y-70360871D01*
X108677000Y-71203000D01*
X109517954Y-71203000D01*
X109644119Y-71028126D01*
X109627446Y-70973136D01*
X109537123Y-70769794D01*
X109408865Y-70587980D01*
X109247601Y-70434682D01*
X109059529Y-70315790D01*
X108851876Y-70235874D01*
X108677000Y-70360871D01*
X108423000Y-70360871D01*
X108248124Y-70235874D01*
X108040471Y-70315790D01*
X107852399Y-70434682D01*
X107691135Y-70587980D01*
X107562877Y-70769794D01*
X107472554Y-70973136D01*
X107455881Y-71028126D01*
X106895593Y-71028126D01*
X106895593Y-63615000D01*
X107661928Y-63615000D01*
X107674188Y-63739482D01*
X107710498Y-63859180D01*
X107769463Y-63969494D01*
X107848815Y-64066185D01*
X107945506Y-64145537D01*
X108055820Y-64204502D01*
X108128380Y-64226513D01*
X107996525Y-64358368D01*
X107834010Y-64601589D01*
X107722068Y-64871842D01*
X107665000Y-65158740D01*
X107665000Y-65451260D01*
X107722068Y-65738158D01*
X107834010Y-66008411D01*
X107996525Y-66251632D01*
X108203368Y-66458475D01*
X108377760Y-66575000D01*
X108203368Y-66691525D01*
X107996525Y-66898368D01*
X107834010Y-67141589D01*
X107722068Y-67411842D01*
X107665000Y-67698740D01*
X107665000Y-67991260D01*
X107722068Y-68278158D01*
X107834010Y-68548411D01*
X107996525Y-68791632D01*
X108203368Y-68998475D01*
X108446589Y-69160990D01*
X108716842Y-69272932D01*
X109003740Y-69330000D01*
X109296260Y-69330000D01*
X109583158Y-69272932D01*
X109853411Y-69160990D01*
X110096632Y-68998475D01*
X110303475Y-68791632D01*
X110465990Y-68548411D01*
X110577932Y-68278158D01*
X110635000Y-67991260D01*
X110635000Y-67698740D01*
X110577932Y-67411842D01*
X110465990Y-67141589D01*
X110303475Y-66898368D01*
X110096632Y-66691525D01*
X109922240Y-66575000D01*
X110096632Y-66458475D01*
X110303475Y-66251632D01*
X110465990Y-66008411D01*
X110577932Y-65738158D01*
X110635000Y-65451260D01*
X110635000Y-65158740D01*
X110577932Y-64871842D01*
X110465990Y-64601589D01*
X110303475Y-64358368D01*
X110171620Y-64226513D01*
X110244180Y-64204502D01*
X110354494Y-64145537D01*
X110451185Y-64066185D01*
X110530537Y-63969494D01*
X110589502Y-63859180D01*
X110625812Y-63739482D01*
X110638072Y-63615000D01*
X110635000Y-63050750D01*
X110476250Y-62892000D01*
X109277000Y-62892000D01*
X109277000Y-62912000D01*
X109023000Y-62912000D01*
X109023000Y-62892000D01*
X107823750Y-62892000D01*
X107665000Y-63050750D01*
X107661928Y-63615000D01*
X106895593Y-63615000D01*
X106895593Y-61915000D01*
X107661928Y-61915000D01*
X107665000Y-62479250D01*
X107823750Y-62638000D01*
X109023000Y-62638000D01*
X109023000Y-61438750D01*
X109277000Y-61438750D01*
X109277000Y-62638000D01*
X110476250Y-62638000D01*
X110635000Y-62479250D01*
X110638072Y-61915000D01*
X110625812Y-61790518D01*
X110589502Y-61670820D01*
X110530537Y-61560506D01*
X110451185Y-61463815D01*
X110354494Y-61384463D01*
X110244180Y-61325498D01*
X110124482Y-61289188D01*
X110000000Y-61276928D01*
X109435750Y-61280000D01*
X109277000Y-61438750D01*
X109023000Y-61438750D01*
X108864250Y-61280000D01*
X108300000Y-61276928D01*
X108175518Y-61289188D01*
X108055820Y-61325498D01*
X107945506Y-61384463D01*
X107848815Y-61463815D01*
X107769463Y-61560506D01*
X107710498Y-61670820D01*
X107674188Y-61790518D01*
X107661928Y-61915000D01*
X106895593Y-61915000D01*
X106895592Y-61095557D01*
X112567790Y-61095557D01*
X115033289Y-72474786D01*
%TA.AperFunction,Conductor*%
D23*
G36*
X115033289Y-72474786D02*
G01*
X115036230Y-72504643D01*
X115048578Y-72545349D01*
X115049907Y-72551483D01*
X115059072Y-72579942D01*
X115078258Y-72643191D01*
X115081231Y-72648753D01*
X115083166Y-72654762D01*
X115115347Y-72712580D01*
X115146508Y-72770878D01*
X115150509Y-72775753D01*
X115153579Y-72781269D01*
X115196414Y-72831689D01*
X115238357Y-72882796D01*
X115243234Y-72886798D01*
X115247320Y-72891608D01*
X115299156Y-72932692D01*
X115350275Y-72974645D01*
X115355840Y-72977619D01*
X115360785Y-72981539D01*
X115419646Y-73011725D01*
X115477962Y-73042895D01*
X115483998Y-73044726D01*
X115489614Y-73047606D01*
X115553226Y-73065726D01*
X115616510Y-73084923D01*
X115622790Y-73085542D01*
X115628858Y-73087270D01*
X115694772Y-73092631D01*
X115724490Y-73095558D01*
X115730759Y-73095558D01*
X115773164Y-73099007D01*
X115802972Y-73095558D01*
X127914862Y-73095558D01*
X127826663Y-73183757D01*
X127624633Y-73486116D01*
X127485473Y-73822079D01*
X127414529Y-74178735D01*
X127414529Y-74542379D01*
X127485473Y-74899035D01*
X127624633Y-75234998D01*
X127826663Y-75537357D01*
X128083797Y-75794491D01*
X128386156Y-75996521D01*
X128722119Y-76135681D01*
X129078775Y-76206625D01*
X129442419Y-76206625D01*
X129799075Y-76135681D01*
X130135038Y-75996521D01*
X130437397Y-75794491D01*
X130694531Y-75537357D01*
X130896561Y-75234998D01*
X131035721Y-74899035D01*
X131106665Y-74542379D01*
X131106665Y-74178735D01*
X131035721Y-73822079D01*
X130896561Y-73486116D01*
X130694531Y-73183757D01*
X130606332Y-73095558D01*
X154914858Y-73095558D01*
X154826658Y-73183758D01*
X154624628Y-73486117D01*
X154485468Y-73822080D01*
X154414524Y-74178736D01*
X154414524Y-74542380D01*
X154485468Y-74899036D01*
X154624628Y-75234999D01*
X154826658Y-75537358D01*
X154956500Y-75667200D01*
X136883605Y-75667200D01*
X136847500Y-75663644D01*
X136703415Y-75677835D01*
X136564866Y-75719863D01*
X136437180Y-75788113D01*
X136325262Y-75879962D01*
X136302246Y-75908007D01*
X135455808Y-76754446D01*
X135427763Y-76777462D01*
X135335914Y-76889380D01*
X135317668Y-76923517D01*
X135200000Y-76911928D01*
X134500000Y-76911928D01*
X134375518Y-76924188D01*
X134300000Y-76947096D01*
X134224482Y-76924188D01*
X134100000Y-76911928D01*
X133300000Y-76911928D01*
X133175518Y-76924188D01*
X133100000Y-76947096D01*
X133024482Y-76924188D01*
X132900000Y-76911928D01*
X132200000Y-76911928D01*
X132075518Y-76924188D01*
X132000000Y-76947096D01*
X131924482Y-76924188D01*
X131800000Y-76911928D01*
X131100000Y-76911928D01*
X130975518Y-76924188D01*
X130855820Y-76960498D01*
X130745506Y-77019463D01*
X130648815Y-77098815D01*
X130569463Y-77195506D01*
X130510498Y-77305820D01*
X130474188Y-77425518D01*
X130461928Y-77550000D01*
X130461928Y-77865200D01*
X119681405Y-77865200D01*
X119645300Y-77861644D01*
X119609195Y-77865200D01*
X119501215Y-77875835D01*
X119362667Y-77917863D01*
X119234980Y-77986113D01*
X119123062Y-78077962D01*
X119100046Y-78106007D01*
X114405654Y-82800400D01*
X114308161Y-82800400D01*
X114108202Y-82840174D01*
X113919844Y-82918195D01*
X113750326Y-83031463D01*
X113606163Y-83175626D01*
X113492895Y-83345144D01*
X113414874Y-83533502D01*
X113375100Y-83733461D01*
X113375100Y-83937339D01*
X113414874Y-84137298D01*
X113492895Y-84325656D01*
X113606163Y-84495174D01*
X113750326Y-84639337D01*
X113919844Y-84752605D01*
X114108202Y-84830626D01*
X114308161Y-84870400D01*
X114512039Y-84870400D01*
X114711998Y-84830626D01*
X114900356Y-84752605D01*
X115069874Y-84639337D01*
X115214037Y-84495174D01*
X115317413Y-84340459D01*
X116795064Y-84340459D01*
X117250000Y-84795395D01*
X117704936Y-84340459D01*
X117694425Y-84147237D01*
X117524397Y-84076438D01*
X117343824Y-84040172D01*
X117159645Y-84039829D01*
X116978939Y-84075426D01*
X116808649Y-84145592D01*
X116805575Y-84147237D01*
X116795064Y-84340459D01*
X115317413Y-84340459D01*
X115327305Y-84325656D01*
X115405326Y-84137298D01*
X115445100Y-83937339D01*
X115445100Y-83839846D01*
X119465384Y-79819563D01*
X119526863Y-79911574D01*
X119595801Y-79980512D01*
X119595800Y-82577853D01*
X118403007Y-83770647D01*
X118374961Y-83793664D01*
X118283112Y-83905582D01*
X118214862Y-84033269D01*
X118192851Y-84105830D01*
X118172834Y-84171816D01*
X118158643Y-84315901D01*
X118162199Y-84352006D01*
X118162199Y-84768030D01*
X118149574Y-84703939D01*
X118079408Y-84533649D01*
X118077763Y-84530575D01*
X117884541Y-84520064D01*
X117429605Y-84975000D01*
X117443748Y-84989143D01*
X117384541Y-85048349D01*
X117343824Y-85040172D01*
X117159645Y-85039829D01*
X117115613Y-85048503D01*
X117056253Y-84989143D01*
X117070395Y-84975000D01*
X116615459Y-84520064D01*
X116422237Y-84530575D01*
X116351438Y-84700603D01*
X116315172Y-84881176D01*
X116314829Y-85065355D01*
X116350426Y-85246061D01*
X116420592Y-85416351D01*
X116422237Y-85419425D01*
X116520143Y-85424751D01*
X116570392Y-85475000D01*
X116520143Y-85525249D01*
X116422237Y-85530575D01*
X116351438Y-85700603D01*
X116315172Y-85881176D01*
X116314829Y-86065355D01*
X116350426Y-86246061D01*
X116420592Y-86416351D01*
X116422237Y-86419425D01*
X116520143Y-86424751D01*
X116570392Y-86475000D01*
X116520143Y-86525249D01*
X116422237Y-86530575D01*
X116351438Y-86700603D01*
X116315172Y-86881176D01*
X116314829Y-87065355D01*
X116350426Y-87246061D01*
X116420592Y-87416351D01*
X116422237Y-87419425D01*
X116544479Y-87426075D01*
X116315454Y-87655100D01*
X113524125Y-87655100D01*
X113555256Y-87642205D01*
X113724774Y-87528937D01*
X113868937Y-87384774D01*
X113982205Y-87215256D01*
X114060226Y-87026898D01*
X114100000Y-86826939D01*
X114100000Y-86623061D01*
X114060226Y-86423102D01*
X113982205Y-86234744D01*
X113868937Y-86065226D01*
X113724774Y-85921063D01*
X113555256Y-85807795D01*
X113475300Y-85774676D01*
X113475300Y-85336105D01*
X113478856Y-85300000D01*
X113464665Y-85155915D01*
X113422637Y-85017367D01*
X113354387Y-84889680D01*
X113262538Y-84777762D01*
X113150620Y-84685913D01*
X113022933Y-84617663D01*
X112956353Y-84597466D01*
X112955990Y-84596589D01*
X112793475Y-84353368D01*
X112586632Y-84146525D01*
X112343411Y-83984010D01*
X112073158Y-83872068D01*
X111786260Y-83815000D01*
X111493740Y-83815000D01*
X111206842Y-83872068D01*
X110936589Y-83984010D01*
X110693368Y-84146525D01*
X110561513Y-84278380D01*
X110539502Y-84205820D01*
X110480537Y-84095506D01*
X110401185Y-83998815D01*
X110304494Y-83919463D01*
X110194180Y-83860498D01*
X110074482Y-83824188D01*
X109950000Y-83811928D01*
X108250000Y-83811928D01*
X108125518Y-83824188D01*
X108005820Y-83860498D01*
X107895506Y-83919463D01*
X107798815Y-83998815D01*
X107719463Y-84095506D01*
X107660498Y-84205820D01*
X107624188Y-84325518D01*
X107611928Y-84450000D01*
X107611928Y-86150000D01*
X107624188Y-86274482D01*
X107660498Y-86394180D01*
X107719463Y-86504494D01*
X107798815Y-86601185D01*
X107895506Y-86680537D01*
X108005820Y-86739502D01*
X108086466Y-86763966D01*
X108002412Y-86839731D01*
X107828359Y-87073080D01*
X107703175Y-87335901D01*
X107658524Y-87483110D01*
X107779845Y-87713000D01*
X108973000Y-87713000D01*
X108973000Y-87693000D01*
X109227000Y-87693000D01*
X109227000Y-87713000D01*
X109247000Y-87713000D01*
X109247000Y-87967000D01*
X109227000Y-87967000D01*
X109227000Y-87987000D01*
X108973000Y-87987000D01*
X108973000Y-87967000D01*
X107779845Y-87967000D01*
X107658524Y-88196890D01*
X107703175Y-88344099D01*
X107828359Y-88606920D01*
X108002412Y-88840269D01*
X108218645Y-89035178D01*
X108335534Y-89104805D01*
X108153368Y-89226525D01*
X107946525Y-89433368D01*
X107784010Y-89676589D01*
X107672068Y-89946842D01*
X107615000Y-90233740D01*
X107615000Y-90526260D01*
X107672068Y-90813158D01*
X107784010Y-91083411D01*
X107946525Y-91326632D01*
X108153368Y-91533475D01*
X108396589Y-91695990D01*
X108666842Y-91807932D01*
X108953740Y-91865000D01*
X109246260Y-91865000D01*
X109533158Y-91807932D01*
X109793701Y-91700012D01*
X109793700Y-96711928D01*
X108250000Y-96711928D01*
X108125518Y-96724188D01*
X108005820Y-96760498D01*
X107895506Y-96819463D01*
X107798815Y-96898815D01*
X107719463Y-96995506D01*
X107660498Y-97105820D01*
X107624188Y-97225518D01*
X107611928Y-97350000D01*
X107611928Y-99050000D01*
X107624188Y-99174482D01*
X107660498Y-99294180D01*
X107719463Y-99404494D01*
X107798815Y-99501185D01*
X107895506Y-99580537D01*
X108005820Y-99639502D01*
X108086466Y-99663966D01*
X108002412Y-99739731D01*
X107828359Y-99973080D01*
X107703175Y-100235901D01*
X107658524Y-100383110D01*
X107779845Y-100613000D01*
X108973000Y-100613000D01*
X108973000Y-100593000D01*
X109227000Y-100593000D01*
X109227000Y-100613000D01*
X109247000Y-100613000D01*
X109247000Y-100867000D01*
X109227000Y-100867000D01*
X109227000Y-100887000D01*
X108973000Y-100887000D01*
X108973000Y-100867000D01*
X107779845Y-100867000D01*
X107658524Y-101096890D01*
X107703175Y-101244099D01*
X107828359Y-101506920D01*
X108002412Y-101740269D01*
X108218645Y-101935178D01*
X108335534Y-102004805D01*
X108153368Y-102126525D01*
X107946525Y-102333368D01*
X107784010Y-102576589D01*
X107672068Y-102846842D01*
X107615000Y-103133740D01*
X107615000Y-103426260D01*
X107672068Y-103713158D01*
X107784010Y-103983411D01*
X107946525Y-104226632D01*
X108153368Y-104433475D01*
X108396589Y-104595990D01*
X108666842Y-104707932D01*
X108953740Y-104765000D01*
X109246260Y-104765000D01*
X109533158Y-104707932D01*
X109803411Y-104595990D01*
X110046632Y-104433475D01*
X110253475Y-104226632D01*
X110370000Y-104052240D01*
X110486525Y-104226632D01*
X110693368Y-104433475D01*
X110936589Y-104595990D01*
X111206842Y-104707932D01*
X111493740Y-104765000D01*
X111786260Y-104765000D01*
X112073158Y-104707932D01*
X112343411Y-104595990D01*
X112586632Y-104433475D01*
X112634901Y-104385206D01*
X112634900Y-107966200D01*
X112465061Y-107966200D01*
X112265102Y-108005974D01*
X112076744Y-108083995D01*
X111907226Y-108197263D01*
X111763063Y-108341426D01*
X111649795Y-108510944D01*
X111571774Y-108699302D01*
X111532000Y-108899261D01*
X111532000Y-108996754D01*
X111500208Y-109028546D01*
X111472163Y-109051562D01*
X111380314Y-109163480D01*
X111317729Y-109280568D01*
X111312064Y-109291167D01*
X111270035Y-109429715D01*
X111255844Y-109573800D01*
X111259401Y-109609915D01*
X111259400Y-112265801D01*
X111255844Y-112301909D01*
X111260908Y-112353319D01*
X111270035Y-112445984D01*
X111270037Y-112445989D01*
X111270037Y-112445994D01*
X111291755Y-112517586D01*
X111312063Y-112584532D01*
X111312064Y-112584533D01*
X111312067Y-112584542D01*
X111337855Y-112632786D01*
X111380313Y-112712219D01*
X111380318Y-112712225D01*
X111380319Y-112712227D01*
X111404563Y-112741768D01*
X111472162Y-112824137D01*
X111500210Y-112847156D01*
X114852347Y-116199207D01*
X112506108Y-118545446D01*
X112478063Y-118568462D01*
X112386214Y-118680380D01*
X112320983Y-118802419D01*
X112317964Y-118808067D01*
X112275935Y-118946615D01*
X112261744Y-119090700D01*
X112265301Y-119126815D01*
X112265300Y-120915689D01*
X112196363Y-120984626D01*
X112083095Y-121154144D01*
X112005074Y-121342502D01*
X111965300Y-121542461D01*
X111965300Y-121746339D01*
X112005074Y-121946298D01*
X112083095Y-122134656D01*
X112196363Y-122304174D01*
X112340526Y-122448337D01*
X112510044Y-122561605D01*
X112698402Y-122639626D01*
X112898361Y-122679400D01*
X113102239Y-122679400D01*
X113302198Y-122639626D01*
X113490556Y-122561605D01*
X113660074Y-122448337D01*
X113804237Y-122304174D01*
X113808953Y-122297116D01*
X112567791Y-128025559D01*
X106895594Y-128025556D01*
X106895594Y-74038061D01*
X115435000Y-74038061D01*
X115435000Y-74241939D01*
X115474774Y-74441898D01*
X115552795Y-74630256D01*
X115666063Y-74799774D01*
X115685000Y-74818711D01*
X115685001Y-77541288D01*
X115666063Y-77560226D01*
X115552795Y-77729744D01*
X115474774Y-77918102D01*
X115435000Y-78118061D01*
X115435000Y-78321939D01*
X115474774Y-78521898D01*
X115552795Y-78710256D01*
X115666063Y-78879774D01*
X115810226Y-79023937D01*
X115979744Y-79137205D01*
X116168102Y-79215226D01*
X116368061Y-79255000D01*
X116571939Y-79255000D01*
X116771898Y-79215226D01*
X116960256Y-79137205D01*
X117129774Y-79023937D01*
X117273937Y-78879774D01*
X117387205Y-78710256D01*
X117465226Y-78521898D01*
X117505000Y-78321939D01*
X117505000Y-78118061D01*
X117465226Y-77918102D01*
X117387205Y-77729744D01*
X117273937Y-77560226D01*
X117255000Y-77541289D01*
X117255000Y-74818711D01*
X117273937Y-74799774D01*
X117387205Y-74630256D01*
X117465226Y-74441898D01*
X117505000Y-74241939D01*
X117505000Y-74038061D01*
X117465226Y-73838102D01*
X117387205Y-73649744D01*
X117273937Y-73480226D01*
X117129774Y-73336063D01*
X116960256Y-73222795D01*
X116771898Y-73144774D01*
X116571939Y-73105000D01*
X116368061Y-73105000D01*
X116168102Y-73144774D01*
X115979744Y-73222795D01*
X115810226Y-73336063D01*
X115666063Y-73480226D01*
X115552795Y-73649744D01*
X115474774Y-73838102D01*
X115435000Y-74038061D01*
X106895594Y-74038061D01*
X106895593Y-72100000D01*
X107411928Y-72100000D01*
X107411928Y-73100000D01*
X107424188Y-73224482D01*
X107460498Y-73344180D01*
X107519463Y-73454494D01*
X107598815Y-73551185D01*
X107695506Y-73630537D01*
X107805820Y-73689502D01*
X107925518Y-73725812D01*
X108050000Y-73738072D01*
X109050000Y-73738072D01*
X109174482Y-73725812D01*
X109294180Y-73689502D01*
X109404494Y-73630537D01*
X109501185Y-73551185D01*
X109580537Y-73454494D01*
X109639502Y-73344180D01*
X109675812Y-73224482D01*
X109688072Y-73100000D01*
X109688072Y-72100000D01*
X111661928Y-72100000D01*
X111661928Y-73100000D01*
X111674188Y-73224482D01*
X111710498Y-73344180D01*
X111769463Y-73454494D01*
X111848815Y-73551185D01*
X111945506Y-73630537D01*
X112055820Y-73689502D01*
X112175518Y-73725812D01*
X112300000Y-73738072D01*
X113300000Y-73738072D01*
X113424482Y-73725812D01*
X113544180Y-73689502D01*
X113654494Y-73630537D01*
X113751185Y-73551185D01*
X113830537Y-73454494D01*
X113889502Y-73344180D01*
X113925812Y-73224482D01*
X113938072Y-73100000D01*
X113938072Y-72100000D01*
X113925812Y-71975518D01*
X113889502Y-71855820D01*
X113845112Y-71772774D01*
X113891383Y-71661067D01*
X113935000Y-71441788D01*
X113935000Y-71218212D01*
X113891383Y-70998933D01*
X113805824Y-70792376D01*
X113681612Y-70606480D01*
X113523520Y-70448388D01*
X113337624Y-70324176D01*
X113131067Y-70238617D01*
X112911788Y-70195000D01*
X112688212Y-70195000D01*
X112468933Y-70238617D01*
X112262376Y-70324176D01*
X112076480Y-70448388D01*
X111918388Y-70606480D01*
X111794176Y-70792376D01*
X111708617Y-70998933D01*
X111665000Y-71218212D01*
X111665000Y-71441788D01*
X111708617Y-71661067D01*
X111754888Y-71772774D01*
X111710498Y-71855820D01*
X111674188Y-71975518D01*
X111661928Y-72100000D01*
X109688072Y-72100000D01*
X109675812Y-71975518D01*
X109639502Y-71855820D01*
X109591930Y-71766820D01*
X109627446Y-71686864D01*
X109644119Y-71631874D01*
X109517954Y-71457000D01*
X108677000Y-71457000D01*
X108677000Y-71461928D01*
X108423000Y-71461928D01*
X108423000Y-71457000D01*
X107582046Y-71457000D01*
X107455881Y-71631874D01*
X107472554Y-71686864D01*
X107508070Y-71766820D01*
X107460498Y-71855820D01*
X107424188Y-71975518D01*
X107411928Y-72100000D01*
X106895593Y-72100000D01*
X106895593Y-71028126D01*
X107455881Y-71028126D01*
X107582046Y-71203000D01*
X108423000Y-71203000D01*
X108423000Y-70360871D01*
X108677000Y-70360871D01*
X108677000Y-71203000D01*
X109517954Y-71203000D01*
X109644119Y-71028126D01*
X109627446Y-70973136D01*
X109537123Y-70769794D01*
X109408865Y-70587980D01*
X109247601Y-70434682D01*
X109059529Y-70315790D01*
X108851876Y-70235874D01*
X108677000Y-70360871D01*
X108423000Y-70360871D01*
X108248124Y-70235874D01*
X108040471Y-70315790D01*
X107852399Y-70434682D01*
X107691135Y-70587980D01*
X107562877Y-70769794D01*
X107472554Y-70973136D01*
X107455881Y-71028126D01*
X106895593Y-71028126D01*
X106895593Y-63615000D01*
X107661928Y-63615000D01*
X107674188Y-63739482D01*
X107710498Y-63859180D01*
X107769463Y-63969494D01*
X107848815Y-64066185D01*
X107945506Y-64145537D01*
X108055820Y-64204502D01*
X108128380Y-64226513D01*
X107996525Y-64358368D01*
X107834010Y-64601589D01*
X107722068Y-64871842D01*
X107665000Y-65158740D01*
X107665000Y-65451260D01*
X107722068Y-65738158D01*
X107834010Y-66008411D01*
X107996525Y-66251632D01*
X108203368Y-66458475D01*
X108377760Y-66575000D01*
X108203368Y-66691525D01*
X107996525Y-66898368D01*
X107834010Y-67141589D01*
X107722068Y-67411842D01*
X107665000Y-67698740D01*
X107665000Y-67991260D01*
X107722068Y-68278158D01*
X107834010Y-68548411D01*
X107996525Y-68791632D01*
X108203368Y-68998475D01*
X108446589Y-69160990D01*
X108716842Y-69272932D01*
X109003740Y-69330000D01*
X109296260Y-69330000D01*
X109583158Y-69272932D01*
X109853411Y-69160990D01*
X110096632Y-68998475D01*
X110303475Y-68791632D01*
X110465990Y-68548411D01*
X110577932Y-68278158D01*
X110635000Y-67991260D01*
X110635000Y-67698740D01*
X110577932Y-67411842D01*
X110465990Y-67141589D01*
X110303475Y-66898368D01*
X110096632Y-66691525D01*
X109922240Y-66575000D01*
X110096632Y-66458475D01*
X110303475Y-66251632D01*
X110465990Y-66008411D01*
X110577932Y-65738158D01*
X110635000Y-65451260D01*
X110635000Y-65158740D01*
X110577932Y-64871842D01*
X110465990Y-64601589D01*
X110303475Y-64358368D01*
X110171620Y-64226513D01*
X110244180Y-64204502D01*
X110354494Y-64145537D01*
X110451185Y-64066185D01*
X110530537Y-63969494D01*
X110589502Y-63859180D01*
X110625812Y-63739482D01*
X110638072Y-63615000D01*
X110635000Y-63050750D01*
X110476250Y-62892000D01*
X109277000Y-62892000D01*
X109277000Y-62912000D01*
X109023000Y-62912000D01*
X109023000Y-62892000D01*
X107823750Y-62892000D01*
X107665000Y-63050750D01*
X107661928Y-63615000D01*
X106895593Y-63615000D01*
X106895593Y-61915000D01*
X107661928Y-61915000D01*
X107665000Y-62479250D01*
X107823750Y-62638000D01*
X109023000Y-62638000D01*
X109023000Y-61438750D01*
X109277000Y-61438750D01*
X109277000Y-62638000D01*
X110476250Y-62638000D01*
X110635000Y-62479250D01*
X110638072Y-61915000D01*
X110625812Y-61790518D01*
X110589502Y-61670820D01*
X110530537Y-61560506D01*
X110451185Y-61463815D01*
X110354494Y-61384463D01*
X110244180Y-61325498D01*
X110124482Y-61289188D01*
X110000000Y-61276928D01*
X109435750Y-61280000D01*
X109277000Y-61438750D01*
X109023000Y-61438750D01*
X108864250Y-61280000D01*
X108300000Y-61276928D01*
X108175518Y-61289188D01*
X108055820Y-61325498D01*
X107945506Y-61384463D01*
X107848815Y-61463815D01*
X107769463Y-61560506D01*
X107710498Y-61670820D01*
X107674188Y-61790518D01*
X107661928Y-61915000D01*
X106895593Y-61915000D01*
X106895592Y-61095557D01*
X112567790Y-61095557D01*
X115033289Y-72474786D01*
G37*
%TD.AperFunction*%
D22*
X184121300Y-78466747D02*
X184121301Y-81040185D01*
X184117744Y-81076300D01*
X184131935Y-81220385D01*
X184173049Y-81355916D01*
X184173964Y-81358933D01*
X184242214Y-81486620D01*
X184334063Y-81598538D01*
X184362108Y-81621554D01*
X184471600Y-81731046D01*
X184471601Y-84962393D01*
X184468044Y-84998513D01*
X184475621Y-85075426D01*
X184482236Y-85142585D01*
X184482237Y-85142589D01*
X184482238Y-85142597D01*
X184500923Y-85204188D01*
X184524264Y-85281133D01*
X184524267Y-85281139D01*
X184524269Y-85281145D01*
X184555718Y-85339979D01*
X184592514Y-85408820D01*
X184592519Y-85408826D01*
X184592521Y-85408830D01*
X184621455Y-85444085D01*
X184684363Y-85520738D01*
X184712413Y-85543758D01*
X187068848Y-87900110D01*
X187058744Y-88002700D01*
X187062301Y-88038815D01*
X187062300Y-101694318D01*
X187055820Y-101696284D01*
X186945506Y-101755249D01*
X186848815Y-101834601D01*
X185434601Y-103248815D01*
X185355249Y-103345506D01*
X185296284Y-103455820D01*
X185259974Y-103575518D01*
X185247714Y-103700000D01*
X185259974Y-103824482D01*
X185296284Y-103944180D01*
X185355249Y-104054494D01*
X185434601Y-104151185D01*
X185621985Y-104338569D01*
X172875108Y-117085446D01*
X172847063Y-117108462D01*
X172755214Y-117220380D01*
X172709575Y-117305765D01*
X172686964Y-117348067D01*
X172644935Y-117486615D01*
X172630744Y-117630700D01*
X172634301Y-117666815D01*
X172634301Y-117795257D01*
X172398288Y-117697497D01*
X172082409Y-117634665D01*
X171760343Y-117634665D01*
X171641552Y-117658294D01*
X182457893Y-106841954D01*
X182485938Y-106818938D01*
X182577787Y-106707020D01*
X182646037Y-106579333D01*
X182683621Y-106455435D01*
X182688065Y-106440786D01*
X182693976Y-106380770D01*
X182698700Y-106332805D01*
X182698700Y-106332798D01*
X182702255Y-106296701D01*
X182698700Y-106260604D01*
X182698700Y-89241805D01*
X182702256Y-89205700D01*
X182688065Y-89061615D01*
X182646037Y-88923066D01*
X182577787Y-88795380D01*
X182508953Y-88711506D01*
X182508950Y-88711503D01*
X182485937Y-88683462D01*
X182457897Y-88660451D01*
X177793200Y-83995754D01*
X177793200Y-72138646D01*
X184121300Y-78466747D01*
%TA.AperFunction,Conductor*%
D23*
G36*
X184121300Y-78466747D02*
G01*
X184121301Y-81040185D01*
X184117744Y-81076300D01*
X184131935Y-81220385D01*
X184173049Y-81355916D01*
X184173964Y-81358933D01*
X184242214Y-81486620D01*
X184334063Y-81598538D01*
X184362108Y-81621554D01*
X184471600Y-81731046D01*
X184471601Y-84962393D01*
X184468044Y-84998513D01*
X184475621Y-85075426D01*
X184482236Y-85142585D01*
X184482237Y-85142589D01*
X184482238Y-85142597D01*
X184500923Y-85204188D01*
X184524264Y-85281133D01*
X184524267Y-85281139D01*
X184524269Y-85281145D01*
X184555718Y-85339979D01*
X184592514Y-85408820D01*
X184592519Y-85408826D01*
X184592521Y-85408830D01*
X184621455Y-85444085D01*
X184684363Y-85520738D01*
X184712413Y-85543758D01*
X187068848Y-87900110D01*
X187058744Y-88002700D01*
X187062301Y-88038815D01*
X187062300Y-101694318D01*
X187055820Y-101696284D01*
X186945506Y-101755249D01*
X186848815Y-101834601D01*
X185434601Y-103248815D01*
X185355249Y-103345506D01*
X185296284Y-103455820D01*
X185259974Y-103575518D01*
X185247714Y-103700000D01*
X185259974Y-103824482D01*
X185296284Y-103944180D01*
X185355249Y-104054494D01*
X185434601Y-104151185D01*
X185621985Y-104338569D01*
X172875108Y-117085446D01*
X172847063Y-117108462D01*
X172755214Y-117220380D01*
X172709575Y-117305765D01*
X172686964Y-117348067D01*
X172644935Y-117486615D01*
X172630744Y-117630700D01*
X172634301Y-117666815D01*
X172634301Y-117795257D01*
X172398288Y-117697497D01*
X172082409Y-117634665D01*
X171760343Y-117634665D01*
X171641552Y-117658294D01*
X182457893Y-106841954D01*
X182485938Y-106818938D01*
X182577787Y-106707020D01*
X182646037Y-106579333D01*
X182683621Y-106455435D01*
X182688065Y-106440786D01*
X182693976Y-106380770D01*
X182698700Y-106332805D01*
X182698700Y-106332798D01*
X182702255Y-106296701D01*
X182698700Y-106260604D01*
X182698700Y-89241805D01*
X182702256Y-89205700D01*
X182688065Y-89061615D01*
X182646037Y-88923066D01*
X182577787Y-88795380D01*
X182508953Y-88711506D01*
X182508950Y-88711503D01*
X182485937Y-88683462D01*
X182457897Y-88660451D01*
X177793200Y-83995754D01*
X177793200Y-72138646D01*
X184121300Y-78466747D01*
G37*
%TD.AperFunction*%
D22*
X136832463Y-99929774D02*
X136976626Y-100073937D01*
X137146144Y-100187205D01*
X137334502Y-100265226D01*
X137534461Y-100305000D01*
X137738339Y-100305000D01*
X137938298Y-100265226D01*
X138126656Y-100187205D01*
X138296174Y-100073937D01*
X138365111Y-100005000D01*
X141617454Y-100005000D01*
X145965709Y-104353256D01*
X145865126Y-104420463D01*
X145720963Y-104564626D01*
X145607695Y-104734144D01*
X145529674Y-104922502D01*
X145489900Y-105122461D01*
X145489900Y-105326339D01*
X145529674Y-105526298D01*
X145607695Y-105714656D01*
X145720963Y-105884174D01*
X145865126Y-106028337D01*
X146034644Y-106141605D01*
X146223002Y-106219626D01*
X146422961Y-106259400D01*
X146515449Y-106259400D01*
X146515562Y-106259538D01*
X146627480Y-106351387D01*
X146755167Y-106419637D01*
X146826396Y-106441244D01*
X146893714Y-106461665D01*
X146907932Y-106463065D01*
X147001695Y-106472300D01*
X147001702Y-106472300D01*
X147037799Y-106475855D01*
X147073896Y-106472300D01*
X155512295Y-106472300D01*
X155548400Y-106475856D01*
X155584505Y-106472300D01*
X155692485Y-106461665D01*
X155831033Y-106419637D01*
X155958720Y-106351387D01*
X156070638Y-106259538D01*
X156093658Y-106231488D01*
X156981801Y-105343346D01*
X156981800Y-107143695D01*
X156978244Y-107179800D01*
X156986410Y-107262707D01*
X156992435Y-107323884D01*
X157034463Y-107462432D01*
X157102713Y-107590119D01*
X157194562Y-107702037D01*
X157222608Y-107725054D01*
X163970700Y-114473147D01*
X163970700Y-114570639D01*
X164010474Y-114770598D01*
X164088495Y-114958956D01*
X164201763Y-115128474D01*
X164345926Y-115272637D01*
X164515444Y-115385905D01*
X164703802Y-115463926D01*
X164903761Y-115503700D01*
X165107639Y-115503700D01*
X165307598Y-115463926D01*
X165495956Y-115385905D01*
X165665474Y-115272637D01*
X165809637Y-115128474D01*
X165922905Y-114958956D01*
X166000926Y-114770598D01*
X166040700Y-114570639D01*
X166040700Y-114366761D01*
X166000926Y-114166802D01*
X165983197Y-114124000D01*
X166811954Y-114124000D01*
X168713509Y-116025556D01*
X157606327Y-116025556D01*
X157694527Y-115937356D01*
X157896557Y-115634997D01*
X158035717Y-115299034D01*
X158106661Y-114942378D01*
X158106661Y-114578734D01*
X158035717Y-114222078D01*
X157896557Y-113886115D01*
X157694527Y-113583756D01*
X157437392Y-113326621D01*
X157135033Y-113124591D01*
X156799070Y-112985431D01*
X156442414Y-112914487D01*
X156078770Y-112914487D01*
X155722114Y-112985431D01*
X155386151Y-113124591D01*
X155083792Y-113326621D01*
X154826657Y-113583756D01*
X154624627Y-113886115D01*
X154485467Y-114222078D01*
X154414523Y-114578734D01*
X154414523Y-114942378D01*
X154485467Y-115299034D01*
X154624627Y-115634997D01*
X154826657Y-115937356D01*
X154914857Y-116025556D01*
X130606331Y-116025556D01*
X130694530Y-115937357D01*
X130896560Y-115634998D01*
X131035720Y-115299035D01*
X131106664Y-114942379D01*
X131106664Y-114578735D01*
X131035720Y-114222079D01*
X130896560Y-113886116D01*
X130694530Y-113583757D01*
X130437395Y-113326622D01*
X130135036Y-113124592D01*
X129799073Y-112985432D01*
X129442417Y-112914488D01*
X129078773Y-112914488D01*
X128722117Y-112985432D01*
X128386154Y-113124592D01*
X128083795Y-113326622D01*
X127826660Y-113583757D01*
X127624630Y-113886116D01*
X127485470Y-114222079D01*
X127414526Y-114578735D01*
X127414526Y-114942379D01*
X127485470Y-115299035D01*
X127624630Y-115634998D01*
X127826660Y-115937357D01*
X127914859Y-116025556D01*
X117104890Y-116025556D01*
X121288747Y-111841700D01*
X124222795Y-111841700D01*
X124258900Y-111845256D01*
X124295005Y-111841700D01*
X124402985Y-111831065D01*
X124541533Y-111789037D01*
X124669220Y-111720787D01*
X124781138Y-111628938D01*
X124804159Y-111600887D01*
X134416747Y-101988300D01*
X134514239Y-101988300D01*
X134714198Y-101948526D01*
X134902556Y-101870505D01*
X135072074Y-101757237D01*
X135216237Y-101613074D01*
X135329505Y-101443556D01*
X135407526Y-101255198D01*
X135447300Y-101055239D01*
X135447300Y-100851361D01*
X135407526Y-100651402D01*
X135405680Y-100646945D01*
X135498961Y-100665500D01*
X135702839Y-100665500D01*
X135902798Y-100625726D01*
X136091156Y-100547705D01*
X136260674Y-100434437D01*
X136404837Y-100290274D01*
X136518105Y-100120756D01*
X136596126Y-99932398D01*
X136601906Y-99903340D01*
X136729527Y-99775719D01*
X136832463Y-99929774D01*
%TA.AperFunction,Conductor*%
D23*
G36*
X136832463Y-99929774D02*
G01*
X136976626Y-100073937D01*
X137146144Y-100187205D01*
X137334502Y-100265226D01*
X137534461Y-100305000D01*
X137738339Y-100305000D01*
X137938298Y-100265226D01*
X138126656Y-100187205D01*
X138296174Y-100073937D01*
X138365111Y-100005000D01*
X141617454Y-100005000D01*
X145965709Y-104353256D01*
X145865126Y-104420463D01*
X145720963Y-104564626D01*
X145607695Y-104734144D01*
X145529674Y-104922502D01*
X145489900Y-105122461D01*
X145489900Y-105326339D01*
X145529674Y-105526298D01*
X145607695Y-105714656D01*
X145720963Y-105884174D01*
X145865126Y-106028337D01*
X146034644Y-106141605D01*
X146223002Y-106219626D01*
X146422961Y-106259400D01*
X146515449Y-106259400D01*
X146515562Y-106259538D01*
X146627480Y-106351387D01*
X146755167Y-106419637D01*
X146826396Y-106441244D01*
X146893714Y-106461665D01*
X146907932Y-106463065D01*
X147001695Y-106472300D01*
X147001702Y-106472300D01*
X147037799Y-106475855D01*
X147073896Y-106472300D01*
X155512295Y-106472300D01*
X155548400Y-106475856D01*
X155584505Y-106472300D01*
X155692485Y-106461665D01*
X155831033Y-106419637D01*
X155958720Y-106351387D01*
X156070638Y-106259538D01*
X156093658Y-106231488D01*
X156981801Y-105343346D01*
X156981800Y-107143695D01*
X156978244Y-107179800D01*
X156986410Y-107262707D01*
X156992435Y-107323884D01*
X157034463Y-107462432D01*
X157102713Y-107590119D01*
X157194562Y-107702037D01*
X157222608Y-107725054D01*
X163970700Y-114473147D01*
X163970700Y-114570639D01*
X164010474Y-114770598D01*
X164088495Y-114958956D01*
X164201763Y-115128474D01*
X164345926Y-115272637D01*
X164515444Y-115385905D01*
X164703802Y-115463926D01*
X164903761Y-115503700D01*
X165107639Y-115503700D01*
X165307598Y-115463926D01*
X165495956Y-115385905D01*
X165665474Y-115272637D01*
X165809637Y-115128474D01*
X165922905Y-114958956D01*
X166000926Y-114770598D01*
X166040700Y-114570639D01*
X166040700Y-114366761D01*
X166000926Y-114166802D01*
X165983197Y-114124000D01*
X166811954Y-114124000D01*
X168713509Y-116025556D01*
X157606327Y-116025556D01*
X157694527Y-115937356D01*
X157896557Y-115634997D01*
X158035717Y-115299034D01*
X158106661Y-114942378D01*
X158106661Y-114578734D01*
X158035717Y-114222078D01*
X157896557Y-113886115D01*
X157694527Y-113583756D01*
X157437392Y-113326621D01*
X157135033Y-113124591D01*
X156799070Y-112985431D01*
X156442414Y-112914487D01*
X156078770Y-112914487D01*
X155722114Y-112985431D01*
X155386151Y-113124591D01*
X155083792Y-113326621D01*
X154826657Y-113583756D01*
X154624627Y-113886115D01*
X154485467Y-114222078D01*
X154414523Y-114578734D01*
X154414523Y-114942378D01*
X154485467Y-115299034D01*
X154624627Y-115634997D01*
X154826657Y-115937356D01*
X154914857Y-116025556D01*
X130606331Y-116025556D01*
X130694530Y-115937357D01*
X130896560Y-115634998D01*
X131035720Y-115299035D01*
X131106664Y-114942379D01*
X131106664Y-114578735D01*
X131035720Y-114222079D01*
X130896560Y-113886116D01*
X130694530Y-113583757D01*
X130437395Y-113326622D01*
X130135036Y-113124592D01*
X129799073Y-112985432D01*
X129442417Y-112914488D01*
X129078773Y-112914488D01*
X128722117Y-112985432D01*
X128386154Y-113124592D01*
X128083795Y-113326622D01*
X127826660Y-113583757D01*
X127624630Y-113886116D01*
X127485470Y-114222079D01*
X127414526Y-114578735D01*
X127414526Y-114942379D01*
X127485470Y-115299035D01*
X127624630Y-115634998D01*
X127826660Y-115937357D01*
X127914859Y-116025556D01*
X117104890Y-116025556D01*
X121288747Y-111841700D01*
X124222795Y-111841700D01*
X124258900Y-111845256D01*
X124295005Y-111841700D01*
X124402985Y-111831065D01*
X124541533Y-111789037D01*
X124669220Y-111720787D01*
X124781138Y-111628938D01*
X124804159Y-111600887D01*
X134416747Y-101988300D01*
X134514239Y-101988300D01*
X134714198Y-101948526D01*
X134902556Y-101870505D01*
X135072074Y-101757237D01*
X135216237Y-101613074D01*
X135329505Y-101443556D01*
X135407526Y-101255198D01*
X135447300Y-101055239D01*
X135447300Y-100851361D01*
X135407526Y-100651402D01*
X135405680Y-100646945D01*
X135498961Y-100665500D01*
X135702839Y-100665500D01*
X135902798Y-100625726D01*
X136091156Y-100547705D01*
X136260674Y-100434437D01*
X136404837Y-100290274D01*
X136518105Y-100120756D01*
X136596126Y-99932398D01*
X136601906Y-99903340D01*
X136729527Y-99775719D01*
X136832463Y-99929774D01*
G37*
%TD.AperFunction*%
D22*
X176323201Y-84264085D02*
X176319644Y-84300200D01*
X176333835Y-84444285D01*
X176375864Y-84582833D01*
X176444114Y-84710520D01*
X176535963Y-84822438D01*
X176564008Y-84845454D01*
X181228700Y-89510147D01*
X181228700Y-92403880D01*
X180963590Y-91500998D01*
X180444674Y-90364732D01*
X179769333Y-89313880D01*
X178951315Y-88369836D01*
X178007271Y-87551818D01*
X176956419Y-86876477D01*
X175820153Y-86357561D01*
X174621603Y-86005635D01*
X173385169Y-85827863D01*
X172136019Y-85827863D01*
X170899585Y-86005635D01*
X169701035Y-86357561D01*
X168564769Y-86876477D01*
X167513917Y-87551818D01*
X166569873Y-88369836D01*
X165751855Y-89313880D01*
X165076514Y-90364732D01*
X164557598Y-91500998D01*
X164205672Y-92699548D01*
X164027900Y-93935982D01*
X164027900Y-95185132D01*
X164205672Y-96421566D01*
X164557598Y-97620116D01*
X165076514Y-98756382D01*
X165751855Y-99807234D01*
X166569873Y-100751278D01*
X167513917Y-101569296D01*
X168564769Y-102244637D01*
X169701035Y-102763553D01*
X170899585Y-103115479D01*
X172136019Y-103293251D01*
X173385169Y-103293251D01*
X174621603Y-103115479D01*
X175820153Y-102763553D01*
X176017364Y-102673490D01*
X168515854Y-110175000D01*
X168418361Y-110175000D01*
X168218402Y-110214774D01*
X168030044Y-110292795D01*
X167860526Y-110406063D01*
X167716363Y-110550226D01*
X167603095Y-110719744D01*
X167525074Y-110908102D01*
X167485300Y-111108061D01*
X167485300Y-111311939D01*
X167525074Y-111511898D01*
X167603095Y-111700256D01*
X167716363Y-111869774D01*
X167860526Y-112013937D01*
X168030044Y-112127205D01*
X168218402Y-112205226D01*
X168418361Y-112245000D01*
X168622239Y-112245000D01*
X168822198Y-112205226D01*
X169010556Y-112127205D01*
X169180074Y-112013937D01*
X169324237Y-111869774D01*
X169437505Y-111700256D01*
X169515526Y-111511898D01*
X169555300Y-111311939D01*
X169555300Y-111214446D01*
X181228701Y-99541046D01*
X181228701Y-105992252D01*
X171206032Y-116014921D01*
X171164874Y-115973763D01*
X170995356Y-115860495D01*
X170806998Y-115782474D01*
X170607039Y-115742700D01*
X170509547Y-115742700D01*
X167661659Y-112894813D01*
X167638638Y-112866762D01*
X167526720Y-112774913D01*
X167399033Y-112706663D01*
X167260485Y-112664635D01*
X167152505Y-112654000D01*
X167116400Y-112650444D01*
X167080295Y-112654000D01*
X165039847Y-112654000D01*
X161269179Y-108883332D01*
X161312737Y-108839774D01*
X161426005Y-108670256D01*
X161504026Y-108481898D01*
X161543800Y-108281939D01*
X161543800Y-108078061D01*
X161504026Y-107878102D01*
X161426005Y-107689744D01*
X161312737Y-107520226D01*
X161243800Y-107451289D01*
X161243800Y-104994605D01*
X161247356Y-104958500D01*
X161233165Y-104814415D01*
X161227311Y-104795117D01*
X161191137Y-104675867D01*
X161122887Y-104548180D01*
X161074753Y-104489529D01*
X161054053Y-104464306D01*
X161054050Y-104464303D01*
X161031037Y-104436262D01*
X161002998Y-104413251D01*
X150099146Y-93509400D01*
X150104139Y-93509400D01*
X150304098Y-93469626D01*
X150492456Y-93391605D01*
X150661974Y-93278337D01*
X150806137Y-93134174D01*
X150919405Y-92964656D01*
X150997426Y-92776298D01*
X151037200Y-92576339D01*
X151037200Y-92372461D01*
X150997426Y-92172502D01*
X150919405Y-91984144D01*
X150806137Y-91814626D01*
X150661974Y-91670463D01*
X150540205Y-91589100D01*
X151054989Y-91589100D01*
X151123926Y-91658037D01*
X151293444Y-91771305D01*
X151481802Y-91849326D01*
X151681761Y-91889100D01*
X151885639Y-91889100D01*
X152085598Y-91849326D01*
X152273956Y-91771305D01*
X152443474Y-91658037D01*
X152587637Y-91513874D01*
X152700905Y-91344356D01*
X152778926Y-91155998D01*
X152818700Y-90956039D01*
X152818700Y-90752161D01*
X152778926Y-90552202D01*
X152700905Y-90363844D01*
X152587637Y-90194326D01*
X152443474Y-90050163D01*
X152273956Y-89936895D01*
X152085598Y-89858874D01*
X151885639Y-89819100D01*
X151681761Y-89819100D01*
X151481802Y-89858874D01*
X151293444Y-89936895D01*
X151123926Y-90050163D01*
X151054989Y-90119100D01*
X150014962Y-90119100D01*
X150012205Y-90112444D01*
X149898937Y-89942926D01*
X149754774Y-89798763D01*
X149585256Y-89685495D01*
X149396898Y-89607474D01*
X149196939Y-89567700D01*
X148993061Y-89567700D01*
X148823700Y-89601388D01*
X148823700Y-87482005D01*
X148827256Y-87445900D01*
X148813065Y-87301815D01*
X148803491Y-87270253D01*
X148771037Y-87163267D01*
X148702787Y-87035580D01*
X148610938Y-86923662D01*
X148582893Y-86900646D01*
X147469300Y-85787054D01*
X147469300Y-85689561D01*
X147429526Y-85489602D01*
X147351505Y-85301244D01*
X147238237Y-85131726D01*
X147094074Y-84987563D01*
X146924556Y-84874295D01*
X146736198Y-84796274D01*
X146536239Y-84756500D01*
X146332361Y-84756500D01*
X146132402Y-84796274D01*
X145944044Y-84874295D01*
X145774526Y-84987563D01*
X145630363Y-85131726D01*
X145517095Y-85301244D01*
X145439074Y-85489602D01*
X145399300Y-85689561D01*
X145399300Y-85893439D01*
X145439074Y-86093398D01*
X145517095Y-86281756D01*
X145630363Y-86451274D01*
X145774526Y-86595437D01*
X145944044Y-86708705D01*
X146132402Y-86786726D01*
X146332361Y-86826500D01*
X146429854Y-86826500D01*
X146913823Y-87310470D01*
X146783656Y-87223495D01*
X146595298Y-87145474D01*
X146395339Y-87105700D01*
X146191461Y-87105700D01*
X145991502Y-87145474D01*
X145803144Y-87223495D01*
X145633626Y-87336763D01*
X145489463Y-87480926D01*
X145376195Y-87650444D01*
X145298174Y-87838802D01*
X145258400Y-88038761D01*
X145258400Y-88242639D01*
X145298174Y-88442598D01*
X145376195Y-88630956D01*
X145489463Y-88800474D01*
X145633626Y-88944637D01*
X145694300Y-88985178D01*
X145694300Y-89197454D01*
X141860259Y-85363413D01*
X141837238Y-85335362D01*
X141725320Y-85243513D01*
X141597633Y-85175263D01*
X141459085Y-85133235D01*
X141351105Y-85122600D01*
X141315000Y-85119044D01*
X141278895Y-85122600D01*
X136842846Y-85122600D01*
X143827647Y-78137800D01*
X158173589Y-78137800D01*
X158242526Y-78206737D01*
X158412044Y-78320005D01*
X158600402Y-78398026D01*
X158800361Y-78437800D01*
X159004239Y-78437800D01*
X159204198Y-78398026D01*
X159392556Y-78320005D01*
X159562074Y-78206737D01*
X159655932Y-78112879D01*
X163520800Y-81977747D01*
X163520800Y-82075239D01*
X163560574Y-82275198D01*
X163638595Y-82463556D01*
X163751863Y-82633074D01*
X163896026Y-82777237D01*
X164065544Y-82890505D01*
X164253902Y-82968526D01*
X164453861Y-83008300D01*
X164657739Y-83008300D01*
X164857698Y-82968526D01*
X165046056Y-82890505D01*
X165215574Y-82777237D01*
X165359737Y-82633074D01*
X165473005Y-82463556D01*
X165551026Y-82275198D01*
X165590800Y-82075239D01*
X165590800Y-81871361D01*
X165551026Y-81671402D01*
X165473005Y-81483044D01*
X165359737Y-81313526D01*
X165215574Y-81169363D01*
X165046056Y-81056095D01*
X164857698Y-80978074D01*
X164657739Y-80938300D01*
X164560247Y-80938300D01*
X160759146Y-77137200D01*
X170412795Y-77137200D01*
X170448900Y-77140756D01*
X170485005Y-77137200D01*
X170592985Y-77126565D01*
X170731533Y-77084537D01*
X170859220Y-77016287D01*
X170971138Y-76924438D01*
X170994159Y-76896387D01*
X176323200Y-71567347D01*
X176323201Y-84264085D01*
%TA.AperFunction,Conductor*%
D23*
G36*
X176323201Y-84264085D02*
G01*
X176319644Y-84300200D01*
X176333835Y-84444285D01*
X176375864Y-84582833D01*
X176444114Y-84710520D01*
X176535963Y-84822438D01*
X176564008Y-84845454D01*
X181228700Y-89510147D01*
X181228700Y-92403880D01*
X180963590Y-91500998D01*
X180444674Y-90364732D01*
X179769333Y-89313880D01*
X178951315Y-88369836D01*
X178007271Y-87551818D01*
X176956419Y-86876477D01*
X175820153Y-86357561D01*
X174621603Y-86005635D01*
X173385169Y-85827863D01*
X172136019Y-85827863D01*
X170899585Y-86005635D01*
X169701035Y-86357561D01*
X168564769Y-86876477D01*
X167513917Y-87551818D01*
X166569873Y-88369836D01*
X165751855Y-89313880D01*
X165076514Y-90364732D01*
X164557598Y-91500998D01*
X164205672Y-92699548D01*
X164027900Y-93935982D01*
X164027900Y-95185132D01*
X164205672Y-96421566D01*
X164557598Y-97620116D01*
X165076514Y-98756382D01*
X165751855Y-99807234D01*
X166569873Y-100751278D01*
X167513917Y-101569296D01*
X168564769Y-102244637D01*
X169701035Y-102763553D01*
X170899585Y-103115479D01*
X172136019Y-103293251D01*
X173385169Y-103293251D01*
X174621603Y-103115479D01*
X175820153Y-102763553D01*
X176017364Y-102673490D01*
X168515854Y-110175000D01*
X168418361Y-110175000D01*
X168218402Y-110214774D01*
X168030044Y-110292795D01*
X167860526Y-110406063D01*
X167716363Y-110550226D01*
X167603095Y-110719744D01*
X167525074Y-110908102D01*
X167485300Y-111108061D01*
X167485300Y-111311939D01*
X167525074Y-111511898D01*
X167603095Y-111700256D01*
X167716363Y-111869774D01*
X167860526Y-112013937D01*
X168030044Y-112127205D01*
X168218402Y-112205226D01*
X168418361Y-112245000D01*
X168622239Y-112245000D01*
X168822198Y-112205226D01*
X169010556Y-112127205D01*
X169180074Y-112013937D01*
X169324237Y-111869774D01*
X169437505Y-111700256D01*
X169515526Y-111511898D01*
X169555300Y-111311939D01*
X169555300Y-111214446D01*
X181228701Y-99541046D01*
X181228701Y-105992252D01*
X171206032Y-116014921D01*
X171164874Y-115973763D01*
X170995356Y-115860495D01*
X170806998Y-115782474D01*
X170607039Y-115742700D01*
X170509547Y-115742700D01*
X167661659Y-112894813D01*
X167638638Y-112866762D01*
X167526720Y-112774913D01*
X167399033Y-112706663D01*
X167260485Y-112664635D01*
X167152505Y-112654000D01*
X167116400Y-112650444D01*
X167080295Y-112654000D01*
X165039847Y-112654000D01*
X161269179Y-108883332D01*
X161312737Y-108839774D01*
X161426005Y-108670256D01*
X161504026Y-108481898D01*
X161543800Y-108281939D01*
X161543800Y-108078061D01*
X161504026Y-107878102D01*
X161426005Y-107689744D01*
X161312737Y-107520226D01*
X161243800Y-107451289D01*
X161243800Y-104994605D01*
X161247356Y-104958500D01*
X161233165Y-104814415D01*
X161227311Y-104795117D01*
X161191137Y-104675867D01*
X161122887Y-104548180D01*
X161074753Y-104489529D01*
X161054053Y-104464306D01*
X161054050Y-104464303D01*
X161031037Y-104436262D01*
X161002998Y-104413251D01*
X150099146Y-93509400D01*
X150104139Y-93509400D01*
X150304098Y-93469626D01*
X150492456Y-93391605D01*
X150661974Y-93278337D01*
X150806137Y-93134174D01*
X150919405Y-92964656D01*
X150997426Y-92776298D01*
X151037200Y-92576339D01*
X151037200Y-92372461D01*
X150997426Y-92172502D01*
X150919405Y-91984144D01*
X150806137Y-91814626D01*
X150661974Y-91670463D01*
X150540205Y-91589100D01*
X151054989Y-91589100D01*
X151123926Y-91658037D01*
X151293444Y-91771305D01*
X151481802Y-91849326D01*
X151681761Y-91889100D01*
X151885639Y-91889100D01*
X152085598Y-91849326D01*
X152273956Y-91771305D01*
X152443474Y-91658037D01*
X152587637Y-91513874D01*
X152700905Y-91344356D01*
X152778926Y-91155998D01*
X152818700Y-90956039D01*
X152818700Y-90752161D01*
X152778926Y-90552202D01*
X152700905Y-90363844D01*
X152587637Y-90194326D01*
X152443474Y-90050163D01*
X152273956Y-89936895D01*
X152085598Y-89858874D01*
X151885639Y-89819100D01*
X151681761Y-89819100D01*
X151481802Y-89858874D01*
X151293444Y-89936895D01*
X151123926Y-90050163D01*
X151054989Y-90119100D01*
X150014962Y-90119100D01*
X150012205Y-90112444D01*
X149898937Y-89942926D01*
X149754774Y-89798763D01*
X149585256Y-89685495D01*
X149396898Y-89607474D01*
X149196939Y-89567700D01*
X148993061Y-89567700D01*
X148823700Y-89601388D01*
X148823700Y-87482005D01*
X148827256Y-87445900D01*
X148813065Y-87301815D01*
X148803491Y-87270253D01*
X148771037Y-87163267D01*
X148702787Y-87035580D01*
X148610938Y-86923662D01*
X148582893Y-86900646D01*
X147469300Y-85787054D01*
X147469300Y-85689561D01*
X147429526Y-85489602D01*
X147351505Y-85301244D01*
X147238237Y-85131726D01*
X147094074Y-84987563D01*
X146924556Y-84874295D01*
X146736198Y-84796274D01*
X146536239Y-84756500D01*
X146332361Y-84756500D01*
X146132402Y-84796274D01*
X145944044Y-84874295D01*
X145774526Y-84987563D01*
X145630363Y-85131726D01*
X145517095Y-85301244D01*
X145439074Y-85489602D01*
X145399300Y-85689561D01*
X145399300Y-85893439D01*
X145439074Y-86093398D01*
X145517095Y-86281756D01*
X145630363Y-86451274D01*
X145774526Y-86595437D01*
X145944044Y-86708705D01*
X146132402Y-86786726D01*
X146332361Y-86826500D01*
X146429854Y-86826500D01*
X146913823Y-87310470D01*
X146783656Y-87223495D01*
X146595298Y-87145474D01*
X146395339Y-87105700D01*
X146191461Y-87105700D01*
X145991502Y-87145474D01*
X145803144Y-87223495D01*
X145633626Y-87336763D01*
X145489463Y-87480926D01*
X145376195Y-87650444D01*
X145298174Y-87838802D01*
X145258400Y-88038761D01*
X145258400Y-88242639D01*
X145298174Y-88442598D01*
X145376195Y-88630956D01*
X145489463Y-88800474D01*
X145633626Y-88944637D01*
X145694300Y-88985178D01*
X145694300Y-89197454D01*
X141860259Y-85363413D01*
X141837238Y-85335362D01*
X141725320Y-85243513D01*
X141597633Y-85175263D01*
X141459085Y-85133235D01*
X141351105Y-85122600D01*
X141315000Y-85119044D01*
X141278895Y-85122600D01*
X136842846Y-85122600D01*
X143827647Y-78137800D01*
X158173589Y-78137800D01*
X158242526Y-78206737D01*
X158412044Y-78320005D01*
X158600402Y-78398026D01*
X158800361Y-78437800D01*
X159004239Y-78437800D01*
X159204198Y-78398026D01*
X159392556Y-78320005D01*
X159562074Y-78206737D01*
X159655932Y-78112879D01*
X163520800Y-81977747D01*
X163520800Y-82075239D01*
X163560574Y-82275198D01*
X163638595Y-82463556D01*
X163751863Y-82633074D01*
X163896026Y-82777237D01*
X164065544Y-82890505D01*
X164253902Y-82968526D01*
X164453861Y-83008300D01*
X164657739Y-83008300D01*
X164857698Y-82968526D01*
X165046056Y-82890505D01*
X165215574Y-82777237D01*
X165359737Y-82633074D01*
X165473005Y-82463556D01*
X165551026Y-82275198D01*
X165590800Y-82075239D01*
X165590800Y-81871361D01*
X165551026Y-81671402D01*
X165473005Y-81483044D01*
X165359737Y-81313526D01*
X165215574Y-81169363D01*
X165046056Y-81056095D01*
X164857698Y-80978074D01*
X164657739Y-80938300D01*
X164560247Y-80938300D01*
X160759146Y-77137200D01*
X170412795Y-77137200D01*
X170448900Y-77140756D01*
X170485005Y-77137200D01*
X170592985Y-77126565D01*
X170731533Y-77084537D01*
X170859220Y-77016287D01*
X170971138Y-76924438D01*
X170994159Y-76896387D01*
X176323200Y-71567347D01*
X176323201Y-84264085D01*
G37*
%TD.AperFunction*%
D22*
X115264301Y-111385286D02*
X115260744Y-111421400D01*
X115274935Y-111565485D01*
X115315818Y-111700256D01*
X115316964Y-111704033D01*
X115385214Y-111831720D01*
X115477063Y-111943638D01*
X115505108Y-111966654D01*
X115975646Y-112437192D01*
X115998662Y-112465238D01*
X116110580Y-112557087D01*
X116238267Y-112625337D01*
X116376815Y-112667365D01*
X116520900Y-112681556D01*
X116557005Y-112678000D01*
X118373553Y-112678000D01*
X115891794Y-115159760D01*
X113485235Y-112753264D01*
X113588785Y-112743065D01*
X113727333Y-112701037D01*
X113855020Y-112632787D01*
X113966938Y-112540938D01*
X113989959Y-112512887D01*
X115264301Y-111238545D01*
X115264301Y-111385286D01*
%TA.AperFunction,Conductor*%
D23*
G36*
X115264301Y-111385286D02*
G01*
X115260744Y-111421400D01*
X115274935Y-111565485D01*
X115315818Y-111700256D01*
X115316964Y-111704033D01*
X115385214Y-111831720D01*
X115477063Y-111943638D01*
X115505108Y-111966654D01*
X115975646Y-112437192D01*
X115998662Y-112465238D01*
X116110580Y-112557087D01*
X116238267Y-112625337D01*
X116376815Y-112667365D01*
X116520900Y-112681556D01*
X116557005Y-112678000D01*
X118373553Y-112678000D01*
X115891794Y-115159760D01*
X113485235Y-112753264D01*
X113588785Y-112743065D01*
X113727333Y-112701037D01*
X113855020Y-112632787D01*
X113966938Y-112540938D01*
X113989959Y-112512887D01*
X115264301Y-111238545D01*
X115264301Y-111385286D01*
G37*
%TD.AperFunction*%
D22*
X120479400Y-101200253D02*
X119752654Y-101927000D01*
X119655161Y-101927000D01*
X119455202Y-101966774D01*
X119266844Y-102044795D01*
X119097326Y-102158063D01*
X118953163Y-102302226D01*
X118839895Y-102471744D01*
X118761874Y-102660102D01*
X118722100Y-102860061D01*
X118722100Y-103063939D01*
X118761874Y-103263898D01*
X118839895Y-103452256D01*
X118953163Y-103621774D01*
X119058839Y-103727450D01*
X118996063Y-103790226D01*
X118882795Y-103959744D01*
X118804774Y-104148102D01*
X118765000Y-104348061D01*
X118765000Y-104551939D01*
X118804774Y-104751898D01*
X118882795Y-104940256D01*
X118996063Y-105109774D01*
X119140226Y-105253937D01*
X119158084Y-105265869D01*
X114104900Y-110319054D01*
X114104900Y-104209541D01*
X116795064Y-104209541D01*
X116805575Y-104402763D01*
X116975603Y-104473562D01*
X117156176Y-104509828D01*
X117340355Y-104510171D01*
X117521061Y-104474574D01*
X117691351Y-104404408D01*
X117694425Y-104402763D01*
X117704936Y-104209541D01*
X117250000Y-103754605D01*
X116795064Y-104209541D01*
X114104900Y-104209541D01*
X114104900Y-103536211D01*
X114126926Y-103558237D01*
X114296444Y-103671505D01*
X114484802Y-103749526D01*
X114684761Y-103789300D01*
X114888639Y-103789300D01*
X115088598Y-103749526D01*
X115276956Y-103671505D01*
X115446474Y-103558237D01*
X115590637Y-103414074D01*
X115703905Y-103244556D01*
X115781926Y-103056198D01*
X115821700Y-102856239D01*
X115821700Y-102758746D01*
X116402520Y-102177926D01*
X116351438Y-102300603D01*
X116315172Y-102481176D01*
X116314829Y-102665355D01*
X116350426Y-102846061D01*
X116420592Y-103016351D01*
X116422237Y-103019425D01*
X116520143Y-103024751D01*
X116570392Y-103075000D01*
X116520143Y-103125249D01*
X116422237Y-103130575D01*
X116351438Y-103300603D01*
X116315172Y-103481176D01*
X116314829Y-103665355D01*
X116350426Y-103846061D01*
X116420592Y-104016351D01*
X116422237Y-104019425D01*
X116615459Y-104029936D01*
X117070395Y-103575000D01*
X117056253Y-103560858D01*
X117115459Y-103501651D01*
X117156176Y-103509828D01*
X117340355Y-103510171D01*
X117384387Y-103501497D01*
X117443748Y-103560858D01*
X117429605Y-103575000D01*
X117884541Y-104029936D01*
X118077763Y-104019425D01*
X118148562Y-103849397D01*
X118184828Y-103668824D01*
X118185171Y-103484645D01*
X118149574Y-103303939D01*
X118079408Y-103133649D01*
X118077763Y-103130575D01*
X117979857Y-103125249D01*
X117929608Y-103075000D01*
X117979857Y-103024751D01*
X118077763Y-103019425D01*
X118148562Y-102849397D01*
X118184828Y-102668824D01*
X118185171Y-102484645D01*
X118149574Y-102303939D01*
X118079408Y-102133649D01*
X118077763Y-102130575D01*
X117979857Y-102125249D01*
X117929608Y-102075000D01*
X117979857Y-102024751D01*
X118077763Y-102019425D01*
X118148562Y-101849397D01*
X118184828Y-101668824D01*
X118185171Y-101484645D01*
X118149574Y-101303939D01*
X118079408Y-101133649D01*
X118077763Y-101130575D01*
X117884541Y-101120064D01*
X117429605Y-101575000D01*
X117443748Y-101589143D01*
X117384541Y-101648349D01*
X117343824Y-101640172D01*
X117159645Y-101639829D01*
X117115613Y-101648503D01*
X117056253Y-101589143D01*
X117070395Y-101575000D01*
X117056253Y-101560858D01*
X117235858Y-101381253D01*
X117250000Y-101395395D01*
X117704936Y-100940459D01*
X117701585Y-100878861D01*
X120479401Y-98101046D01*
X120479400Y-101200253D01*
%TA.AperFunction,Conductor*%
D23*
G36*
X120479400Y-101200253D02*
G01*
X119752654Y-101927000D01*
X119655161Y-101927000D01*
X119455202Y-101966774D01*
X119266844Y-102044795D01*
X119097326Y-102158063D01*
X118953163Y-102302226D01*
X118839895Y-102471744D01*
X118761874Y-102660102D01*
X118722100Y-102860061D01*
X118722100Y-103063939D01*
X118761874Y-103263898D01*
X118839895Y-103452256D01*
X118953163Y-103621774D01*
X119058839Y-103727450D01*
X118996063Y-103790226D01*
X118882795Y-103959744D01*
X118804774Y-104148102D01*
X118765000Y-104348061D01*
X118765000Y-104551939D01*
X118804774Y-104751898D01*
X118882795Y-104940256D01*
X118996063Y-105109774D01*
X119140226Y-105253937D01*
X119158084Y-105265869D01*
X114104900Y-110319054D01*
X114104900Y-104209541D01*
X116795064Y-104209541D01*
X116805575Y-104402763D01*
X116975603Y-104473562D01*
X117156176Y-104509828D01*
X117340355Y-104510171D01*
X117521061Y-104474574D01*
X117691351Y-104404408D01*
X117694425Y-104402763D01*
X117704936Y-104209541D01*
X117250000Y-103754605D01*
X116795064Y-104209541D01*
X114104900Y-104209541D01*
X114104900Y-103536211D01*
X114126926Y-103558237D01*
X114296444Y-103671505D01*
X114484802Y-103749526D01*
X114684761Y-103789300D01*
X114888639Y-103789300D01*
X115088598Y-103749526D01*
X115276956Y-103671505D01*
X115446474Y-103558237D01*
X115590637Y-103414074D01*
X115703905Y-103244556D01*
X115781926Y-103056198D01*
X115821700Y-102856239D01*
X115821700Y-102758746D01*
X116402520Y-102177926D01*
X116351438Y-102300603D01*
X116315172Y-102481176D01*
X116314829Y-102665355D01*
X116350426Y-102846061D01*
X116420592Y-103016351D01*
X116422237Y-103019425D01*
X116520143Y-103024751D01*
X116570392Y-103075000D01*
X116520143Y-103125249D01*
X116422237Y-103130575D01*
X116351438Y-103300603D01*
X116315172Y-103481176D01*
X116314829Y-103665355D01*
X116350426Y-103846061D01*
X116420592Y-104016351D01*
X116422237Y-104019425D01*
X116615459Y-104029936D01*
X117070395Y-103575000D01*
X117056253Y-103560858D01*
X117115459Y-103501651D01*
X117156176Y-103509828D01*
X117340355Y-103510171D01*
X117384387Y-103501497D01*
X117443748Y-103560858D01*
X117429605Y-103575000D01*
X117884541Y-104029936D01*
X118077763Y-104019425D01*
X118148562Y-103849397D01*
X118184828Y-103668824D01*
X118185171Y-103484645D01*
X118149574Y-103303939D01*
X118079408Y-103133649D01*
X118077763Y-103130575D01*
X117979857Y-103125249D01*
X117929608Y-103075000D01*
X117979857Y-103024751D01*
X118077763Y-103019425D01*
X118148562Y-102849397D01*
X118184828Y-102668824D01*
X118185171Y-102484645D01*
X118149574Y-102303939D01*
X118079408Y-102133649D01*
X118077763Y-102130575D01*
X117979857Y-102125249D01*
X117929608Y-102075000D01*
X117979857Y-102024751D01*
X118077763Y-102019425D01*
X118148562Y-101849397D01*
X118184828Y-101668824D01*
X118185171Y-101484645D01*
X118149574Y-101303939D01*
X118079408Y-101133649D01*
X118077763Y-101130575D01*
X117884541Y-101120064D01*
X117429605Y-101575000D01*
X117443748Y-101589143D01*
X117384541Y-101648349D01*
X117343824Y-101640172D01*
X117159645Y-101639829D01*
X117115613Y-101648503D01*
X117056253Y-101589143D01*
X117070395Y-101575000D01*
X117056253Y-101560858D01*
X117235858Y-101381253D01*
X117250000Y-101395395D01*
X117704936Y-100940459D01*
X117701585Y-100878861D01*
X120479401Y-98101046D01*
X120479400Y-101200253D01*
G37*
%TD.AperFunction*%
D22*
X143818028Y-91406675D02*
X143815544Y-91431900D01*
X143819100Y-91468004D01*
X143819100Y-91468005D01*
X143829735Y-91575985D01*
X143871763Y-91714533D01*
X143940013Y-91842220D01*
X144031863Y-91954138D01*
X144059908Y-91977154D01*
X145837821Y-93755068D01*
X145801063Y-93791826D01*
X145687795Y-93961344D01*
X145609774Y-94149702D01*
X145570000Y-94349661D01*
X145570000Y-94553539D01*
X145609774Y-94753498D01*
X145687795Y-94941856D01*
X145801063Y-95111374D01*
X145945226Y-95255537D01*
X146114744Y-95368805D01*
X146303102Y-95446826D01*
X146503061Y-95486600D01*
X146600554Y-95486600D01*
X149799346Y-98685393D01*
X149822362Y-98713438D01*
X149934280Y-98805287D01*
X150014012Y-98847905D01*
X150016063Y-98850974D01*
X150160226Y-98995137D01*
X150329744Y-99108405D01*
X150518102Y-99186426D01*
X150595601Y-99201841D01*
X150595600Y-103592389D01*
X150526663Y-103661326D01*
X150413395Y-103830844D01*
X150335374Y-104019202D01*
X150295600Y-104219161D01*
X150295600Y-104236400D01*
X149644193Y-104236400D01*
X149570605Y-104058744D01*
X149457337Y-103889226D01*
X149313174Y-103745063D01*
X149143656Y-103631795D01*
X148955298Y-103553774D01*
X148755339Y-103514000D01*
X148551461Y-103514000D01*
X148351502Y-103553774D01*
X148163144Y-103631795D01*
X147993626Y-103745063D01*
X147849463Y-103889226D01*
X147741761Y-104050414D01*
X142467159Y-98775813D01*
X142444138Y-98747762D01*
X142332220Y-98655913D01*
X142204533Y-98587663D01*
X142065985Y-98545635D01*
X141958005Y-98535000D01*
X141921900Y-98531444D01*
X141885795Y-98535000D01*
X138365111Y-98535000D01*
X138296174Y-98466063D01*
X138142119Y-98363127D01*
X142494898Y-94010349D01*
X142522937Y-93987338D01*
X142545950Y-93959297D01*
X142545953Y-93959294D01*
X142614786Y-93875421D01*
X142614787Y-93875420D01*
X142683037Y-93747733D01*
X142725065Y-93609185D01*
X142735700Y-93501205D01*
X142735700Y-93501196D01*
X142739255Y-93465101D01*
X142735700Y-93429006D01*
X142735700Y-90324346D01*
X143818028Y-91406675D01*
%TA.AperFunction,Conductor*%
D23*
G36*
X143818028Y-91406675D02*
G01*
X143815544Y-91431900D01*
X143819100Y-91468004D01*
X143819100Y-91468005D01*
X143829735Y-91575985D01*
X143871763Y-91714533D01*
X143940013Y-91842220D01*
X144031863Y-91954138D01*
X144059908Y-91977154D01*
X145837821Y-93755068D01*
X145801063Y-93791826D01*
X145687795Y-93961344D01*
X145609774Y-94149702D01*
X145570000Y-94349661D01*
X145570000Y-94553539D01*
X145609774Y-94753498D01*
X145687795Y-94941856D01*
X145801063Y-95111374D01*
X145945226Y-95255537D01*
X146114744Y-95368805D01*
X146303102Y-95446826D01*
X146503061Y-95486600D01*
X146600554Y-95486600D01*
X149799346Y-98685393D01*
X149822362Y-98713438D01*
X149934280Y-98805287D01*
X150014012Y-98847905D01*
X150016063Y-98850974D01*
X150160226Y-98995137D01*
X150329744Y-99108405D01*
X150518102Y-99186426D01*
X150595601Y-99201841D01*
X150595600Y-103592389D01*
X150526663Y-103661326D01*
X150413395Y-103830844D01*
X150335374Y-104019202D01*
X150295600Y-104219161D01*
X150295600Y-104236400D01*
X149644193Y-104236400D01*
X149570605Y-104058744D01*
X149457337Y-103889226D01*
X149313174Y-103745063D01*
X149143656Y-103631795D01*
X148955298Y-103553774D01*
X148755339Y-103514000D01*
X148551461Y-103514000D01*
X148351502Y-103553774D01*
X148163144Y-103631795D01*
X147993626Y-103745063D01*
X147849463Y-103889226D01*
X147741761Y-104050414D01*
X142467159Y-98775813D01*
X142444138Y-98747762D01*
X142332220Y-98655913D01*
X142204533Y-98587663D01*
X142065985Y-98545635D01*
X141958005Y-98535000D01*
X141921900Y-98531444D01*
X141885795Y-98535000D01*
X138365111Y-98535000D01*
X138296174Y-98466063D01*
X138142119Y-98363127D01*
X142494898Y-94010349D01*
X142522937Y-93987338D01*
X142545950Y-93959297D01*
X142545953Y-93959294D01*
X142614786Y-93875421D01*
X142614787Y-93875420D01*
X142683037Y-93747733D01*
X142725065Y-93609185D01*
X142735700Y-93501205D01*
X142735700Y-93501196D01*
X142739255Y-93465101D01*
X142735700Y-93429006D01*
X142735700Y-90324346D01*
X143818028Y-91406675D01*
G37*
%TD.AperFunction*%
D22*
X117443748Y-102560858D02*
X117429605Y-102575000D01*
X117443748Y-102589143D01*
X117384541Y-102648349D01*
X117343824Y-102640172D01*
X117159645Y-102639829D01*
X117115613Y-102648503D01*
X117056253Y-102589143D01*
X117070395Y-102575000D01*
X117056253Y-102560858D01*
X117115459Y-102501651D01*
X117156176Y-102509828D01*
X117340355Y-102510171D01*
X117384387Y-102501497D01*
X117443748Y-102560858D01*
%TA.AperFunction,Conductor*%
D23*
G36*
X117443748Y-102560858D02*
G01*
X117429605Y-102575000D01*
X117443748Y-102589143D01*
X117384541Y-102648349D01*
X117343824Y-102640172D01*
X117159645Y-102639829D01*
X117115613Y-102648503D01*
X117056253Y-102589143D01*
X117070395Y-102575000D01*
X117056253Y-102560858D01*
X117115459Y-102501651D01*
X117156176Y-102509828D01*
X117340355Y-102510171D01*
X117384387Y-102501497D01*
X117443748Y-102560858D01*
G37*
%TD.AperFunction*%
D22*
X120129001Y-96372552D02*
X114782254Y-101719300D01*
X114684761Y-101719300D01*
X114484802Y-101759074D01*
X114296444Y-101837095D01*
X114126926Y-101950363D01*
X114104900Y-101972389D01*
X114104900Y-99284246D01*
X120129000Y-93260147D01*
X120129001Y-96372552D01*
%TA.AperFunction,Conductor*%
D23*
G36*
X120129001Y-96372552D02*
G01*
X114782254Y-101719300D01*
X114684761Y-101719300D01*
X114484802Y-101759074D01*
X114296444Y-101837095D01*
X114126926Y-101950363D01*
X114104900Y-101972389D01*
X114104900Y-99284246D01*
X120129000Y-93260147D01*
X120129001Y-96372552D01*
G37*
%TD.AperFunction*%
D22*
X190768300Y-87371247D02*
X190768301Y-96416885D01*
X190764744Y-96453000D01*
X190778935Y-96597085D01*
X190813773Y-96711928D01*
X190820964Y-96735633D01*
X190889214Y-96863320D01*
X190981063Y-96975238D01*
X191009108Y-96998254D01*
X192530066Y-98519212D01*
X192510498Y-98555820D01*
X192474188Y-98675518D01*
X192461928Y-98800000D01*
X192461928Y-99266925D01*
X190560902Y-101167951D01*
X190544969Y-101129486D01*
X190366038Y-100861697D01*
X190138303Y-100633962D01*
X189870514Y-100455031D01*
X189572963Y-100331781D01*
X189257084Y-100268949D01*
X188935018Y-100268949D01*
X188619139Y-100331781D01*
X188532300Y-100367751D01*
X188532300Y-88833913D01*
X188545506Y-88844751D01*
X188655820Y-88903716D01*
X188775518Y-88940026D01*
X188900000Y-88952286D01*
X189024482Y-88940026D01*
X189144180Y-88903716D01*
X189254494Y-88844751D01*
X189351185Y-88765399D01*
X190756819Y-87359765D01*
X190768300Y-87371247D01*
%TA.AperFunction,Conductor*%
D23*
G36*
X190768300Y-87371247D02*
G01*
X190768301Y-96416885D01*
X190764744Y-96453000D01*
X190778935Y-96597085D01*
X190813773Y-96711928D01*
X190820964Y-96735633D01*
X190889214Y-96863320D01*
X190981063Y-96975238D01*
X191009108Y-96998254D01*
X192530066Y-98519212D01*
X192510498Y-98555820D01*
X192474188Y-98675518D01*
X192461928Y-98800000D01*
X192461928Y-99266925D01*
X190560902Y-101167951D01*
X190544969Y-101129486D01*
X190366038Y-100861697D01*
X190138303Y-100633962D01*
X189870514Y-100455031D01*
X189572963Y-100331781D01*
X189257084Y-100268949D01*
X188935018Y-100268949D01*
X188619139Y-100331781D01*
X188532300Y-100367751D01*
X188532300Y-88833913D01*
X188545506Y-88844751D01*
X188655820Y-88903716D01*
X188775518Y-88940026D01*
X188900000Y-88952286D01*
X189024482Y-88940026D01*
X189144180Y-88903716D01*
X189254494Y-88844751D01*
X189351185Y-88765399D01*
X190756819Y-87359765D01*
X190768300Y-87371247D01*
G37*
%TD.AperFunction*%
D22*
X117547774Y-91258102D02*
X117508000Y-91458061D01*
X117508000Y-91661939D01*
X117547774Y-91861898D01*
X117625795Y-92050256D01*
X117739063Y-92219774D01*
X117883226Y-92363937D01*
X117950899Y-92409154D01*
X112918930Y-97441124D01*
X112793475Y-97253368D01*
X112586632Y-97046525D01*
X112343411Y-96884010D01*
X112073158Y-96772068D01*
X111786260Y-96715000D01*
X111493740Y-96715000D01*
X111263700Y-96760758D01*
X111263700Y-91819242D01*
X111493740Y-91865000D01*
X111786260Y-91865000D01*
X112073158Y-91807932D01*
X112343411Y-91695990D01*
X112586632Y-91533475D01*
X112793475Y-91326632D01*
X112934883Y-91115000D01*
X117607049Y-91115000D01*
X117547774Y-91258102D01*
%TA.AperFunction,Conductor*%
D23*
G36*
X117547774Y-91258102D02*
G01*
X117508000Y-91458061D01*
X117508000Y-91661939D01*
X117547774Y-91861898D01*
X117625795Y-92050256D01*
X117739063Y-92219774D01*
X117883226Y-92363937D01*
X117950899Y-92409154D01*
X112918930Y-97441124D01*
X112793475Y-97253368D01*
X112586632Y-97046525D01*
X112343411Y-96884010D01*
X112073158Y-96772068D01*
X111786260Y-96715000D01*
X111493740Y-96715000D01*
X111263700Y-96760758D01*
X111263700Y-91819242D01*
X111493740Y-91865000D01*
X111786260Y-91865000D01*
X112073158Y-91807932D01*
X112343411Y-91695990D01*
X112586632Y-91533475D01*
X112793475Y-91326632D01*
X112934883Y-91115000D01*
X117607049Y-91115000D01*
X117547774Y-91258102D01*
G37*
%TD.AperFunction*%
D22*
X117875274Y-88229198D02*
X117953295Y-88417556D01*
X117969549Y-88441881D01*
X117911674Y-88581602D01*
X117871900Y-88781561D01*
X117871900Y-88985439D01*
X117911674Y-89185398D01*
X117989695Y-89373756D01*
X118102963Y-89543274D01*
X118204689Y-89645000D01*
X112934883Y-89645000D01*
X112793475Y-89433368D01*
X112586632Y-89226525D01*
X112434839Y-89125100D01*
X116583795Y-89125100D01*
X116619900Y-89128656D01*
X116656005Y-89125100D01*
X116763985Y-89114465D01*
X116902533Y-89072437D01*
X117030220Y-89004187D01*
X117142138Y-88912338D01*
X117165159Y-88884288D01*
X117866145Y-88183302D01*
X117875274Y-88229198D01*
%TA.AperFunction,Conductor*%
D23*
G36*
X117875274Y-88229198D02*
G01*
X117953295Y-88417556D01*
X117969549Y-88441881D01*
X117911674Y-88581602D01*
X117871900Y-88781561D01*
X117871900Y-88985439D01*
X117911674Y-89185398D01*
X117989695Y-89373756D01*
X118102963Y-89543274D01*
X118204689Y-89645000D01*
X112934883Y-89645000D01*
X112793475Y-89433368D01*
X112586632Y-89226525D01*
X112434839Y-89125100D01*
X116583795Y-89125100D01*
X116619900Y-89128656D01*
X116656005Y-89125100D01*
X116763985Y-89114465D01*
X116902533Y-89072437D01*
X117030220Y-89004187D01*
X117142138Y-88912338D01*
X117165159Y-88884288D01*
X117866145Y-88183302D01*
X117875274Y-88229198D01*
G37*
%TD.AperFunction*%
D22*
X129893300Y-83186746D02*
X129893300Y-87097053D01*
X125925446Y-83129200D01*
X129835754Y-83129200D01*
X129893300Y-83186746D01*
%TA.AperFunction,Conductor*%
D23*
G36*
X129893300Y-83186746D02*
G01*
X129893300Y-87097053D01*
X125925446Y-83129200D01*
X129835754Y-83129200D01*
X129893300Y-83186746D01*
G37*
%TD.AperFunction*%
D22*
X117443748Y-85960858D02*
X117429605Y-85975000D01*
X117443748Y-85989143D01*
X117384541Y-86048349D01*
X117343824Y-86040172D01*
X117159645Y-86039829D01*
X117115613Y-86048503D01*
X117056253Y-85989143D01*
X117070395Y-85975000D01*
X117056253Y-85960858D01*
X117115459Y-85901651D01*
X117156176Y-85909828D01*
X117340355Y-85910171D01*
X117384387Y-85901497D01*
X117443748Y-85960858D01*
%TA.AperFunction,Conductor*%
D23*
G36*
X117443748Y-85960858D02*
G01*
X117429605Y-85975000D01*
X117443748Y-85989143D01*
X117384541Y-86048349D01*
X117343824Y-86040172D01*
X117159645Y-86039829D01*
X117115613Y-86048503D01*
X117056253Y-85989143D01*
X117070395Y-85975000D01*
X117056253Y-85960858D01*
X117115459Y-85901651D01*
X117156176Y-85909828D01*
X117340355Y-85910171D01*
X117384387Y-85901497D01*
X117443748Y-85960858D01*
G37*
%TD.AperFunction*%
D22*
X139285954Y-79964600D02*
X136813850Y-79964600D01*
X136776250Y-79927000D01*
X136077000Y-79927000D01*
X136077000Y-79947000D01*
X135823000Y-79947000D01*
X135823000Y-79927000D01*
X135123750Y-79927000D01*
X135086150Y-79964600D01*
X134613850Y-79964600D01*
X134576250Y-79927000D01*
X133827000Y-79927000D01*
X133827000Y-79947000D01*
X133573000Y-79947000D01*
X133573000Y-79927000D01*
X132677000Y-79927000D01*
X132677000Y-79947000D01*
X132423000Y-79947000D01*
X132423000Y-79927000D01*
X131577000Y-79927000D01*
X131577000Y-79947000D01*
X131323000Y-79947000D01*
X131323000Y-79927000D01*
X130623750Y-79927000D01*
X130586150Y-79964600D01*
X123554405Y-79964600D01*
X123518300Y-79961044D01*
X123482195Y-79964600D01*
X123374215Y-79975235D01*
X123235667Y-80017263D01*
X123107980Y-80085513D01*
X122996062Y-80177362D01*
X122973046Y-80205407D01*
X121981454Y-81197000D01*
X121883961Y-81197000D01*
X121684002Y-81236774D01*
X121495644Y-81314795D01*
X121326126Y-81428063D01*
X121181963Y-81572226D01*
X121068695Y-81741744D01*
X121065800Y-81748733D01*
X121065800Y-79980511D01*
X121134737Y-79911574D01*
X121248005Y-79742056D01*
X121326026Y-79553698D01*
X121365800Y-79353739D01*
X121365800Y-79335200D01*
X130320254Y-79335200D01*
X130379541Y-79394487D01*
X130402562Y-79422538D01*
X130464525Y-79473390D01*
X130465000Y-79514250D01*
X130623750Y-79673000D01*
X131323000Y-79673000D01*
X131323000Y-79653000D01*
X131577000Y-79653000D01*
X131577000Y-79673000D01*
X132423000Y-79673000D01*
X132423000Y-79653000D01*
X132677000Y-79653000D01*
X132677000Y-79673000D01*
X133573000Y-79673000D01*
X133573000Y-79653000D01*
X133827000Y-79653000D01*
X133827000Y-79673000D01*
X134576250Y-79673000D01*
X134613950Y-79635300D01*
X135086050Y-79635300D01*
X135123750Y-79673000D01*
X135823000Y-79673000D01*
X135823000Y-79653000D01*
X136077000Y-79653000D01*
X136077000Y-79673000D01*
X136776250Y-79673000D01*
X136935000Y-79514250D01*
X136938072Y-79250000D01*
X136925812Y-79125518D01*
X136889502Y-79005820D01*
X136859665Y-78950000D01*
X136889502Y-78894180D01*
X136925812Y-78774482D01*
X136938072Y-78650000D01*
X136938072Y-77550000D01*
X136925812Y-77425518D01*
X136911339Y-77377807D01*
X137151947Y-77137200D01*
X142113353Y-77137200D01*
X139285954Y-79964600D01*
%TA.AperFunction,Conductor*%
D23*
G36*
X139285954Y-79964600D02*
G01*
X136813850Y-79964600D01*
X136776250Y-79927000D01*
X136077000Y-79927000D01*
X136077000Y-79947000D01*
X135823000Y-79947000D01*
X135823000Y-79927000D01*
X135123750Y-79927000D01*
X135086150Y-79964600D01*
X134613850Y-79964600D01*
X134576250Y-79927000D01*
X133827000Y-79927000D01*
X133827000Y-79947000D01*
X133573000Y-79947000D01*
X133573000Y-79927000D01*
X132677000Y-79927000D01*
X132677000Y-79947000D01*
X132423000Y-79947000D01*
X132423000Y-79927000D01*
X131577000Y-79927000D01*
X131577000Y-79947000D01*
X131323000Y-79947000D01*
X131323000Y-79927000D01*
X130623750Y-79927000D01*
X130586150Y-79964600D01*
X123554405Y-79964600D01*
X123518300Y-79961044D01*
X123482195Y-79964600D01*
X123374215Y-79975235D01*
X123235667Y-80017263D01*
X123107980Y-80085513D01*
X122996062Y-80177362D01*
X122973046Y-80205407D01*
X121981454Y-81197000D01*
X121883961Y-81197000D01*
X121684002Y-81236774D01*
X121495644Y-81314795D01*
X121326126Y-81428063D01*
X121181963Y-81572226D01*
X121068695Y-81741744D01*
X121065800Y-81748733D01*
X121065800Y-79980511D01*
X121134737Y-79911574D01*
X121248005Y-79742056D01*
X121326026Y-79553698D01*
X121365800Y-79353739D01*
X121365800Y-79335200D01*
X130320254Y-79335200D01*
X130379541Y-79394487D01*
X130402562Y-79422538D01*
X130464525Y-79473390D01*
X130465000Y-79514250D01*
X130623750Y-79673000D01*
X131323000Y-79673000D01*
X131323000Y-79653000D01*
X131577000Y-79653000D01*
X131577000Y-79673000D01*
X132423000Y-79673000D01*
X132423000Y-79653000D01*
X132677000Y-79653000D01*
X132677000Y-79673000D01*
X133573000Y-79673000D01*
X133573000Y-79653000D01*
X133827000Y-79653000D01*
X133827000Y-79673000D01*
X134576250Y-79673000D01*
X134613950Y-79635300D01*
X135086050Y-79635300D01*
X135123750Y-79673000D01*
X135823000Y-79673000D01*
X135823000Y-79653000D01*
X136077000Y-79653000D01*
X136077000Y-79673000D01*
X136776250Y-79673000D01*
X136935000Y-79514250D01*
X136938072Y-79250000D01*
X136925812Y-79125518D01*
X136889502Y-79005820D01*
X136859665Y-78950000D01*
X136889502Y-78894180D01*
X136925812Y-78774482D01*
X136938072Y-78650000D01*
X136938072Y-77550000D01*
X136925812Y-77425518D01*
X136911339Y-77377807D01*
X137151947Y-77137200D01*
X142113353Y-77137200D01*
X139285954Y-79964600D01*
G37*
%TD.AperFunction*%
D22*
X173655317Y-70438961D02*
X173678380Y-70561901D01*
X173724984Y-70677979D01*
X173793338Y-70782734D01*
X173880816Y-70872141D01*
X173984055Y-70942765D01*
X174099089Y-70991890D01*
X174221496Y-71017630D01*
X174346572Y-71018994D01*
X174835428Y-70976225D01*
X170144454Y-75667200D01*
X157564686Y-75667200D01*
X157694528Y-75537358D01*
X157896558Y-75234999D01*
X158035718Y-74899036D01*
X158106662Y-74542380D01*
X158106662Y-74178736D01*
X158035718Y-73822080D01*
X157896558Y-73486117D01*
X157694528Y-73183758D01*
X157606328Y-73095558D01*
X168796699Y-73095558D01*
X168828098Y-73092465D01*
X168834192Y-73092508D01*
X168844406Y-73091507D01*
X169038502Y-73071106D01*
X169103743Y-73057714D01*
X169169192Y-73045229D01*
X169179017Y-73042263D01*
X169365455Y-72984551D01*
X169426910Y-72958718D01*
X169488633Y-72933780D01*
X169497694Y-72928963D01*
X169669372Y-72836136D01*
X169724595Y-72798888D01*
X169780343Y-72762407D01*
X169788296Y-72755921D01*
X169938673Y-72631518D01*
X169985635Y-72584227D01*
X170033210Y-72537638D01*
X170039752Y-72529731D01*
X170163102Y-72378488D01*
X170199992Y-72322964D01*
X170237602Y-72268036D01*
X170242483Y-72259009D01*
X170334108Y-72086687D01*
X170359514Y-72025048D01*
X170385736Y-71963867D01*
X170388771Y-71954064D01*
X170445180Y-71767228D01*
X170458122Y-71701868D01*
X170471969Y-71636720D01*
X170473042Y-71626514D01*
X170492087Y-71432279D01*
X170492087Y-71432271D01*
X170495594Y-71396663D01*
X170495594Y-71085040D01*
X170580816Y-71172141D01*
X170684055Y-71242765D01*
X170799089Y-71291890D01*
X170921496Y-71317630D01*
X171046572Y-71318994D01*
X173038961Y-71144683D01*
X173161901Y-71121620D01*
X173277979Y-71075016D01*
X173382734Y-71006662D01*
X173472141Y-70919184D01*
X173542765Y-70815945D01*
X173591890Y-70700911D01*
X173617630Y-70578504D01*
X173618994Y-70453428D01*
X173591418Y-70138233D01*
X173595765Y-70136487D01*
X173627067Y-70116060D01*
X173655317Y-70438961D01*
%TA.AperFunction,Conductor*%
D23*
G36*
X173655317Y-70438961D02*
G01*
X173678380Y-70561901D01*
X173724984Y-70677979D01*
X173793338Y-70782734D01*
X173880816Y-70872141D01*
X173984055Y-70942765D01*
X174099089Y-70991890D01*
X174221496Y-71017630D01*
X174346572Y-71018994D01*
X174835428Y-70976225D01*
X170144454Y-75667200D01*
X157564686Y-75667200D01*
X157694528Y-75537358D01*
X157896558Y-75234999D01*
X158035718Y-74899036D01*
X158106662Y-74542380D01*
X158106662Y-74178736D01*
X158035718Y-73822080D01*
X157896558Y-73486117D01*
X157694528Y-73183758D01*
X157606328Y-73095558D01*
X168796699Y-73095558D01*
X168828098Y-73092465D01*
X168834192Y-73092508D01*
X168844406Y-73091507D01*
X169038502Y-73071106D01*
X169103743Y-73057714D01*
X169169192Y-73045229D01*
X169179017Y-73042263D01*
X169365455Y-72984551D01*
X169426910Y-72958718D01*
X169488633Y-72933780D01*
X169497694Y-72928963D01*
X169669372Y-72836136D01*
X169724595Y-72798888D01*
X169780343Y-72762407D01*
X169788296Y-72755921D01*
X169938673Y-72631518D01*
X169985635Y-72584227D01*
X170033210Y-72537638D01*
X170039752Y-72529731D01*
X170163102Y-72378488D01*
X170199992Y-72322964D01*
X170237602Y-72268036D01*
X170242483Y-72259009D01*
X170334108Y-72086687D01*
X170359514Y-72025048D01*
X170385736Y-71963867D01*
X170388771Y-71954064D01*
X170445180Y-71767228D01*
X170458122Y-71701868D01*
X170471969Y-71636720D01*
X170473042Y-71626514D01*
X170492087Y-71432279D01*
X170492087Y-71432271D01*
X170495594Y-71396663D01*
X170495594Y-71085040D01*
X170580816Y-71172141D01*
X170684055Y-71242765D01*
X170799089Y-71291890D01*
X170921496Y-71317630D01*
X171046572Y-71318994D01*
X173038961Y-71144683D01*
X173161901Y-71121620D01*
X173277979Y-71075016D01*
X173382734Y-71006662D01*
X173472141Y-70919184D01*
X173542765Y-70815945D01*
X173591890Y-70700911D01*
X173617630Y-70578504D01*
X173618994Y-70453428D01*
X173591418Y-70138233D01*
X173595765Y-70136487D01*
X173627067Y-70116060D01*
X173655317Y-70438961D01*
G37*
%TD.AperFunction*%
%TD*%
M02*
