M48
; DRILL file {KiCad (5.1.7)-1} date 12/05/21 02:21:25
; FORMAT={-:-/ absolute / metric / decimal}
; #@! TF.CreationDate,2021-12-05T02:21:25+09:00
; #@! TF.GenerationSoftware,Kicad,Pcbnew,(5.1.7)-1
; #@! TF.FileFunction,Plated,1,2,PTH
FMAT,2
METRIC
T1C0.400
T2C0.500
T3C0.600
T4C0.700
T5C1.000
%
G90
G05
T1
X107.55Y-105.5
X111.35Y-95.85
X112.1Y-64.6
X112.567Y-109.001
X112.645Y-112.019
X113.0Y-121.644
X113.065Y-86.725
X113.37Y-111.1
X113.85Y-92.95
X114.0Y-89.55
X114.41Y-83.835
X114.787Y-102.754
X115.05Y-113.35
X116.47Y-74.14
X116.47Y-78.22
X117.0Y-110.938
X117.1Y-96.8
X118.543Y-91.56
X118.685Y-110.941
X118.87Y-87.927
X118.907Y-88.883
X119.757Y-102.962
X119.8Y-104.45
X120.209Y-92.14
X120.331Y-79.252
X121.3Y-85.6
X121.986Y-82.232
X122.566Y-95.941
X123.15Y-109.207
X123.233Y-101.897
X123.617Y-83.56
X124.397Y-99.292
X125.562Y-93.293
X125.969Y-89.111
X126.695Y-96.987
X127.432Y-91.611
X127.5Y-84.65
X127.944Y-87.145
X128.908Y-90.752
X130.483Y-100.904
X131.29Y-95.328
X131.299Y-92.297
X131.35Y-96.69
X131.819Y-90.065
X131.882Y-97.503
X131.984Y-91.6
X133.991Y-95.729
X134.412Y-100.953
X135.601Y-99.63
X136.177Y-94.199
X137.075Y-94.937
X137.358Y-89.009
X137.636Y-99.27
X138.035Y-86.886
X138.255Y-96.291
X139.65Y-114.5
X140.979Y-89.82
X141.0Y-74.2
X142.001Y-89.47
X142.2Y-108.1
X143.15Y-83.55
X145.15Y-96.4
X146.293Y-88.141
X146.434Y-85.791
X146.525Y-105.224
X146.605Y-94.452
X147.845Y-94.723
X148.089Y-91.409
X148.653Y-104.549
X149.095Y-90.603
X150.002Y-92.474
X150.82Y-98.191
X151.331Y-104.321
X151.784Y-90.854
X154.57Y-101.449
X155.992Y-104.329
X156.172Y-103.174
X157.066Y-103.848
X158.902Y-77.403
X159.3Y-74.1
X160.509Y-108.18
X161.069Y-94.519
X163.55Y-86.1
X164.556Y-81.973
X165.006Y-114.469
X168.52Y-111.21
X170.505Y-116.778
X173.238Y-64.808
X173.6Y-78.1
X174.2Y-129.8
X174.55Y-109.75
X175.659Y-63.528
X178.9Y-78.2
X179.15Y-60.3
X179.4Y-127.4
X181.241Y-98.489
X181.441Y-112.9
X183.25Y-91.2
X184.75Y-101.85
X185.38Y-72.839
X185.6Y-116.581
X186.1Y-95.8
X187.4Y-118.7
X187.7Y-109.7
X187.9Y-69.95
X189.45Y-94.2
X193.0Y-69.3
X194.0Y-119.45
X195.215Y-91.646
X196.623Y-103.765
X196.75Y-105.5
X199.189Y-103.115
X199.75Y-107.25
X199.795Y-83.363
X200.576Y-100.735
X202.792Y-91.315
X203.1Y-105.25
X204.45Y-94.7
T2
X131.45Y-78.1
X131.45Y-79.8
X131.45Y-81.5
X132.55Y-78.1
X132.55Y-79.8
X132.55Y-81.5
X133.7Y-78.1
X133.7Y-79.8
X133.7Y-81.5
X134.85Y-78.1
X134.85Y-81.5
X135.95Y-78.1
X135.95Y-79.8
X135.95Y-81.5
T3
X117.25Y-84.975
X117.25Y-85.975
X117.25Y-86.975
X117.25Y-101.575
X117.25Y-102.575
X117.25Y-103.575
T4
X108.55Y-71.33
X108.55Y-72.6
X193.6Y-99.3
X193.6Y-100.57
X112.8Y-71.33
X112.8Y-72.6
T5
X187.3Y-103.7
X189.096Y-101.904
X109.15Y-62.765
X109.15Y-65.305
X109.15Y-67.845
X175.0Y-122.1
X175.221Y-119.57
X189.7Y-106.1
X191.496Y-104.304
X171.7Y-121.8
X171.921Y-119.27
X174.979Y-66.77
X175.2Y-69.3
X109.1Y-85.3
X109.1Y-87.84
X109.1Y-90.38
X111.64Y-85.3
X111.64Y-87.84
X111.64Y-90.38
X187.104Y-85.104
X188.9Y-86.9
X189.504Y-82.804
X191.3Y-84.6
X109.1Y-98.2
X109.1Y-100.74
X109.1Y-103.28
X111.64Y-98.2
X111.64Y-100.74
X111.64Y-103.28
X171.679Y-67.07
X171.9Y-69.6
T0
M30
