%TF.GenerationSoftware,KiCad,Pcbnew,(5.1.7)-1*%
%TF.CreationDate,2021-12-05T02:20:20+09:00*%
%TF.ProjectId,Quatro,51756174-726f-42e6-9b69-6361645f7063,0*%
%TF.SameCoordinates,Original*%
%TF.FileFunction,Legend,Bot*%
%TF.FilePolarity,Positive*%
%FSLAX46Y46*%
G04 Gerber Fmt 4.6, Leading zero omitted, Abs format (unit mm)*
G04 Created by KiCad (PCBNEW (5.1.7)-1) date 2021-12-05 02:20:20*
%MOMM*%
%LPD*%
G01*
G04 APERTURE LIST*
%ADD10C,0.300000*%
%TA.AperFunction,Profile*%
%ADD11C,0.200000*%
%TD*%
%ADD12C,0.010000*%
G04 APERTURE END LIST*
D10*
X116871428Y-102185714D02*
X116871428Y-101328571D01*
X115371428Y-101757142D02*
X116871428Y-101757142D01*
X115514285Y-100828571D02*
X115442857Y-100757142D01*
X115371428Y-100828571D01*
X115442857Y-100900000D01*
X115514285Y-100828571D01*
X115371428Y-100828571D01*
X115371428Y-99257142D02*
X116085714Y-99757142D01*
X115371428Y-100114285D02*
X116871428Y-100114285D01*
X116871428Y-99542857D01*
X116800000Y-99400000D01*
X116728571Y-99328571D01*
X116585714Y-99257142D01*
X116371428Y-99257142D01*
X116228571Y-99328571D01*
X116157142Y-99400000D01*
X116085714Y-99542857D01*
X116085714Y-100114285D01*
X115442857Y-98042857D02*
X115371428Y-98185714D01*
X115371428Y-98471428D01*
X115442857Y-98614285D01*
X115585714Y-98685714D01*
X116157142Y-98685714D01*
X116300000Y-98614285D01*
X116371428Y-98471428D01*
X116371428Y-98185714D01*
X116300000Y-98042857D01*
X116157142Y-97971428D01*
X116014285Y-97971428D01*
X115871428Y-98685714D01*
X115371428Y-97328571D02*
X116371428Y-97328571D01*
X116871428Y-97328571D02*
X116800000Y-97400000D01*
X116728571Y-97328571D01*
X116800000Y-97257142D01*
X116871428Y-97328571D01*
X116728571Y-97328571D01*
X116371428Y-96614285D02*
X115085714Y-96614285D01*
X114942857Y-96685714D01*
X114871428Y-96828571D01*
X114871428Y-96900000D01*
X116871428Y-96614285D02*
X116800000Y-96685714D01*
X116728571Y-96614285D01*
X116800000Y-96542857D01*
X116871428Y-96614285D01*
X116728571Y-96614285D01*
X115371428Y-95900000D02*
X116371428Y-95900000D01*
X116871428Y-95900000D02*
X116800000Y-95971428D01*
X116728571Y-95900000D01*
X116800000Y-95828571D01*
X116871428Y-95900000D01*
X116728571Y-95900000D01*
X115228571Y-93042857D02*
X115300000Y-93185714D01*
X115442857Y-93328571D01*
X115657142Y-93542857D01*
X115728571Y-93685714D01*
X115728571Y-93828571D01*
X115371428Y-93757142D02*
X115442857Y-93900000D01*
X115585714Y-94042857D01*
X115871428Y-94114285D01*
X116371428Y-94114285D01*
X116657142Y-94042857D01*
X116800000Y-93900000D01*
X116871428Y-93757142D01*
X116871428Y-93471428D01*
X116800000Y-93328571D01*
X116657142Y-93185714D01*
X116371428Y-93114285D01*
X115871428Y-93114285D01*
X115585714Y-93185714D01*
X115442857Y-93328571D01*
X115371428Y-93471428D01*
X115371428Y-93757142D01*
X116371428Y-91828571D02*
X115371428Y-91828571D01*
X116371428Y-92471428D02*
X115585714Y-92471428D01*
X115442857Y-92400000D01*
X115371428Y-92257142D01*
X115371428Y-92042857D01*
X115442857Y-91900000D01*
X115514285Y-91828571D01*
X115371428Y-90471428D02*
X116157142Y-90471428D01*
X116300000Y-90542857D01*
X116371428Y-90685714D01*
X116371428Y-90971428D01*
X116300000Y-91114285D01*
X115442857Y-90471428D02*
X115371428Y-90614285D01*
X115371428Y-90971428D01*
X115442857Y-91114285D01*
X115585714Y-91185714D01*
X115728571Y-91185714D01*
X115871428Y-91114285D01*
X115942857Y-90971428D01*
X115942857Y-90614285D01*
X116014285Y-90471428D01*
X116371428Y-89971428D02*
X116371428Y-89400000D01*
X116871428Y-89757142D02*
X115585714Y-89757142D01*
X115442857Y-89685714D01*
X115371428Y-89542857D01*
X115371428Y-89400000D01*
X115371428Y-88900000D02*
X116371428Y-88900000D01*
X116085714Y-88900000D02*
X116228571Y-88828571D01*
X116300000Y-88757142D01*
X116371428Y-88614285D01*
X116371428Y-88471428D01*
X115371428Y-87757142D02*
X115442857Y-87900000D01*
X115514285Y-87971428D01*
X115657142Y-88042857D01*
X116085714Y-88042857D01*
X116228571Y-87971428D01*
X116300000Y-87900000D01*
X116371428Y-87757142D01*
X116371428Y-87542857D01*
X116300000Y-87400000D01*
X116228571Y-87328571D01*
X116085714Y-87257142D01*
X115657142Y-87257142D01*
X115514285Y-87328571D01*
X115442857Y-87400000D01*
X115371428Y-87542857D01*
X115371428Y-87757142D01*
X120328571Y-101935714D02*
X120400000Y-101864285D01*
X120471428Y-101721428D01*
X120471428Y-101364285D01*
X120400000Y-101221428D01*
X120328571Y-101150000D01*
X120185714Y-101078571D01*
X120042857Y-101078571D01*
X119828571Y-101150000D01*
X118971428Y-102007142D01*
X118971428Y-101078571D01*
X120471428Y-100150000D02*
X120471428Y-100007142D01*
X120400000Y-99864285D01*
X120328571Y-99792857D01*
X120185714Y-99721428D01*
X119900000Y-99650000D01*
X119542857Y-99650000D01*
X119257142Y-99721428D01*
X119114285Y-99792857D01*
X119042857Y-99864285D01*
X118971428Y-100007142D01*
X118971428Y-100150000D01*
X119042857Y-100292857D01*
X119114285Y-100364285D01*
X119257142Y-100435714D01*
X119542857Y-100507142D01*
X119900000Y-100507142D01*
X120185714Y-100435714D01*
X120328571Y-100364285D01*
X120400000Y-100292857D01*
X120471428Y-100150000D01*
X120328571Y-99078571D02*
X120400000Y-99007142D01*
X120471428Y-98864285D01*
X120471428Y-98507142D01*
X120400000Y-98364285D01*
X120328571Y-98292857D01*
X120185714Y-98221428D01*
X120042857Y-98221428D01*
X119828571Y-98292857D01*
X118971428Y-99150000D01*
X118971428Y-98221428D01*
X118971428Y-96792857D02*
X118971428Y-97650000D01*
X118971428Y-97221428D02*
X120471428Y-97221428D01*
X120257142Y-97364285D01*
X120114285Y-97507142D01*
X120042857Y-97650000D01*
X119542857Y-96150000D02*
X119542857Y-95007142D01*
X118971428Y-93507142D02*
X118971428Y-94364285D01*
X118971428Y-93935714D02*
X120471428Y-93935714D01*
X120257142Y-94078571D01*
X120114285Y-94221428D01*
X120042857Y-94364285D01*
X120328571Y-92935714D02*
X120400000Y-92864285D01*
X120471428Y-92721428D01*
X120471428Y-92364285D01*
X120400000Y-92221428D01*
X120328571Y-92150000D01*
X120185714Y-92078571D01*
X120042857Y-92078571D01*
X119828571Y-92150000D01*
X118971428Y-93007142D01*
X118971428Y-92078571D01*
X119542857Y-91435714D02*
X119542857Y-90292857D01*
X120471428Y-89292857D02*
X120471428Y-89150000D01*
X120400000Y-89007142D01*
X120328571Y-88935714D01*
X120185714Y-88864285D01*
X119900000Y-88792857D01*
X119542857Y-88792857D01*
X119257142Y-88864285D01*
X119114285Y-88935714D01*
X119042857Y-89007142D01*
X118971428Y-89150000D01*
X118971428Y-89292857D01*
X119042857Y-89435714D01*
X119114285Y-89507142D01*
X119257142Y-89578571D01*
X119542857Y-89650000D01*
X119900000Y-89650000D01*
X120185714Y-89578571D01*
X120328571Y-89507142D01*
X120400000Y-89435714D01*
X120471428Y-89292857D01*
X120471428Y-87435714D02*
X120471428Y-88150000D01*
X119757142Y-88221428D01*
X119828571Y-88150000D01*
X119900000Y-88007142D01*
X119900000Y-87650000D01*
X119828571Y-87507142D01*
X119757142Y-87435714D01*
X119614285Y-87364285D01*
X119257142Y-87364285D01*
X119114285Y-87435714D01*
X119042857Y-87507142D01*
X118971428Y-87650000D01*
X118971428Y-88007142D01*
X119042857Y-88150000D01*
X119114285Y-88221428D01*
D11*
X170788838Y-58175084D02*
G75*
G02*
X170788843Y-130946030I-1028246J-36385473D01*
G01*
X169760594Y-71360558D02*
X169760594Y-59174685D01*
X110760595Y-60360557D02*
X113160593Y-60360557D01*
X157360593Y-114760556D02*
G75*
G03*
X157360593Y-114760556I-1100001J0D01*
G01*
X169760593Y-129946429D02*
X169760593Y-117760555D01*
X106160594Y-128760556D02*
X106160593Y-60360557D01*
X169760595Y-71360555D02*
G75*
G02*
X168760594Y-72360558I-1000002J-1D01*
G01*
X197128428Y-79950000D02*
X198542640Y-78535786D01*
X106160593Y-60360557D02*
X110760595Y-60360557D01*
X130360596Y-114760557D02*
G75*
G03*
X130360596Y-114760557I-1100001J0D01*
G01*
X195714214Y-78535787D02*
X197128428Y-79950000D01*
X194300000Y-77121573D02*
X195714214Y-78535787D01*
X180760595Y-94560557D02*
G75*
G03*
X180760595Y-94560557I-8000001J0D01*
G01*
X157360594Y-74360558D02*
G75*
G03*
X157360594Y-74360558I-1100001J0D01*
G01*
X130360597Y-74360557D02*
G75*
G03*
X130360597Y-74360557I-1100000J0D01*
G01*
X169760595Y-59174687D02*
G75*
G02*
X170788841Y-58175085I999999J2D01*
G01*
X170788842Y-130946030D02*
G75*
G02*
X169760593Y-129946429I-28249J999601D01*
G01*
X115760595Y-72360558D02*
X168760594Y-72360558D01*
X113160593Y-60360557D02*
X115760595Y-72360558D01*
X168760592Y-116760556D02*
G75*
G02*
X169760593Y-117760555I1J-1000000D01*
G01*
X113160595Y-128760558D02*
X106160594Y-128760556D01*
X115760595Y-116760556D02*
X113160595Y-128760558D01*
X168760593Y-116760556D02*
X115760595Y-116760556D01*
X195714214Y-107756901D02*
X194299999Y-106342687D01*
X180764400Y-67643148D02*
X180938710Y-69635540D01*
X184923487Y-69286914D02*
X184574865Y-65302137D01*
X182756788Y-67468837D02*
X182931100Y-69461226D01*
X182582477Y-65476446D02*
X182756788Y-67468837D01*
X194626591Y-94560557D02*
G75*
G03*
X194626591Y-94560557I-1099998J0D01*
G01*
X192885787Y-78535787D02*
X194300000Y-79950000D01*
X195714214Y-75707359D02*
X194300000Y-77121573D01*
X184574865Y-123818979D02*
X182582477Y-123644667D01*
X178946321Y-69809849D02*
X178597697Y-65825070D01*
X194300001Y-111999541D02*
X195714214Y-110585328D01*
X180938710Y-69635540D02*
X178946321Y-69809849D01*
X195714214Y-110585328D02*
X197128427Y-109171114D01*
X182931100Y-69461226D02*
X184923487Y-69286914D01*
X182931100Y-119659889D02*
X184923489Y-119834198D01*
X178597697Y-65825070D02*
X180590087Y-65650759D01*
X194300000Y-82778427D02*
X191471573Y-79950000D01*
X191471573Y-109171112D02*
X192885787Y-110585327D01*
X178597699Y-123296044D02*
X180590088Y-123470356D01*
X180938709Y-119485577D02*
X178946320Y-119311265D01*
X191471573Y-79950000D02*
X192885787Y-78535787D01*
X184923489Y-119834198D02*
X184574865Y-123818979D01*
X195714214Y-81364214D02*
X194300000Y-82778427D01*
X198542642Y-110585327D02*
X195714215Y-113413756D01*
X194299999Y-106342687D02*
X191471573Y-109171112D01*
X184574865Y-65302137D02*
X182582477Y-65476446D01*
X180590088Y-123470356D02*
X180764398Y-121477967D01*
X178946320Y-119311265D02*
X178597699Y-123296044D01*
X198542640Y-78535786D02*
X195714214Y-75707359D01*
X182582477Y-123644667D02*
X182756788Y-121652278D01*
X180764398Y-121477967D02*
X180938709Y-119485577D01*
X182756788Y-121652278D02*
X182931100Y-119659889D01*
X195714215Y-113413756D02*
X194300001Y-111999541D01*
X197128427Y-109171114D02*
X198542642Y-110585327D01*
X194300000Y-109171114D02*
X195714214Y-107756901D01*
X192885787Y-110585327D02*
X194300000Y-109171114D01*
X180590087Y-65650759D02*
X180764400Y-67643148D01*
X194300000Y-79950000D02*
X195714214Y-81364214D01*
D12*
%TO.C,G\u002A\u002A\u002A*%
G36*
X157051107Y-96916137D02*
G01*
X157040510Y-96520075D01*
X157021920Y-96000897D01*
X156996165Y-95373828D01*
X156964077Y-94654091D01*
X156926485Y-93856911D01*
X156884221Y-92997512D01*
X156838114Y-92091118D01*
X156788994Y-91152953D01*
X156737692Y-90198241D01*
X156685039Y-89242205D01*
X156631864Y-88300072D01*
X156578998Y-87387063D01*
X156527271Y-86518404D01*
X156477513Y-85709318D01*
X156430555Y-84975029D01*
X156387226Y-84330762D01*
X156348358Y-83791741D01*
X156314780Y-83373190D01*
X156287323Y-83090332D01*
X156266817Y-82958392D01*
X156263663Y-82951501D01*
X156211603Y-82918683D01*
X156104952Y-82892198D01*
X155927894Y-82871423D01*
X155664609Y-82855735D01*
X155299282Y-82844511D01*
X154816093Y-82837128D01*
X154199227Y-82832964D01*
X153432864Y-82831394D01*
X153212919Y-82831334D01*
X150261904Y-82831334D01*
X150132886Y-83028240D01*
X150070149Y-83145661D01*
X150057827Y-83267552D01*
X150102328Y-83441237D01*
X150210059Y-83714046D01*
X150233178Y-83769074D01*
X150345028Y-84059639D01*
X150414338Y-84323505D01*
X150450984Y-84619641D01*
X150464843Y-85007015D01*
X150466077Y-85159667D01*
X150462862Y-85568995D01*
X150442927Y-85862146D01*
X150397010Y-86092116D01*
X150315847Y-86311895D01*
X150234312Y-86485593D01*
X149867786Y-87042235D01*
X149365107Y-87502129D01*
X148828828Y-87815223D01*
X148601283Y-87914122D01*
X148392854Y-87978776D01*
X148157386Y-88016291D01*
X147848724Y-88033769D01*
X147420711Y-88038316D01*
X147379334Y-88038334D01*
X146939610Y-88034525D01*
X146622982Y-88018361D01*
X146383295Y-87982737D01*
X146174393Y-87920551D01*
X145950120Y-87824696D01*
X145929840Y-87815223D01*
X145313532Y-87449060D01*
X144841035Y-86994046D01*
X144509527Y-86445986D01*
X144316185Y-85800683D01*
X144263832Y-85338165D01*
X144254468Y-84930012D01*
X144284166Y-84599022D01*
X144364976Y-84257686D01*
X144448973Y-83993718D01*
X144581684Y-83573593D01*
X144650262Y-83282241D01*
X144657639Y-83092950D01*
X144606748Y-82979007D01*
X144564167Y-82944282D01*
X144451615Y-82926011D01*
X144195793Y-82912004D01*
X143822722Y-82902798D01*
X143358424Y-82898930D01*
X142828922Y-82900938D01*
X142595667Y-82903630D01*
X141975399Y-82913656D01*
X141502736Y-82925574D01*
X141155948Y-82941204D01*
X140913308Y-82962364D01*
X140753087Y-82990875D01*
X140653555Y-83028557D01*
X140598821Y-83070846D01*
X140551691Y-83160334D01*
X140440086Y-83393786D01*
X140268657Y-83760891D01*
X140042055Y-84251338D01*
X139764933Y-84854816D01*
X139441941Y-85561013D01*
X139077731Y-86359619D01*
X138676955Y-87240322D01*
X138244263Y-88192811D01*
X137784307Y-89206775D01*
X137301739Y-90271903D01*
X136801209Y-91377883D01*
X136287370Y-92514405D01*
X135764872Y-93671158D01*
X135238368Y-94837830D01*
X134712508Y-96004110D01*
X134191944Y-97159687D01*
X133681327Y-98294249D01*
X133185309Y-99397487D01*
X132708541Y-100459088D01*
X132255674Y-101468741D01*
X131831361Y-102416136D01*
X131440251Y-103290961D01*
X131086998Y-104082905D01*
X130776251Y-104781657D01*
X130512663Y-105376905D01*
X130300884Y-105858339D01*
X130145567Y-106215648D01*
X130051363Y-106438519D01*
X130022667Y-106515882D01*
X130079408Y-106629429D01*
X130177501Y-106736545D01*
X130213482Y-106759901D01*
X130273332Y-106780522D01*
X130367054Y-106798571D01*
X130504648Y-106814215D01*
X130696116Y-106827618D01*
X130951462Y-106838946D01*
X131280687Y-106848363D01*
X131693792Y-106856036D01*
X132200781Y-106862129D01*
X132811654Y-106866807D01*
X133536414Y-106870235D01*
X134385063Y-106872579D01*
X135367603Y-106874004D01*
X136494036Y-106874675D01*
X137774363Y-106874757D01*
X138538334Y-106874613D01*
X146331224Y-106872664D01*
X146331224Y-106114667D01*
X138684946Y-106114667D01*
X137563279Y-106113981D01*
X136491269Y-106111987D01*
X135480832Y-106108786D01*
X134543887Y-106104475D01*
X133692349Y-106099155D01*
X132938135Y-106092924D01*
X132293163Y-106085881D01*
X131769349Y-106078125D01*
X131378610Y-106069755D01*
X131132864Y-106060871D01*
X131044027Y-106051571D01*
X131043907Y-106051167D01*
X131078692Y-105967921D01*
X131179215Y-105738986D01*
X131341589Y-105373032D01*
X131561926Y-104878727D01*
X131836336Y-104264738D01*
X132160934Y-103539735D01*
X132531830Y-102712385D01*
X132945137Y-101791357D01*
X133396966Y-100785321D01*
X133883430Y-99702943D01*
X134400642Y-98552892D01*
X134944712Y-97343837D01*
X135511753Y-96084446D01*
X136066057Y-94854000D01*
X141082968Y-83720334D01*
X142294317Y-83696778D01*
X143505666Y-83673223D01*
X143452309Y-83866112D01*
X143291856Y-84712754D01*
X143278240Y-85530916D01*
X143403011Y-86304892D01*
X143657718Y-87018977D01*
X144033909Y-87657465D01*
X144523134Y-88204652D01*
X145116941Y-88644831D01*
X145806879Y-88962299D01*
X146261668Y-89086965D01*
X146732093Y-89151753D01*
X147289752Y-89177257D01*
X147858678Y-89163521D01*
X148362905Y-89110592D01*
X148497000Y-89085638D01*
X149237104Y-88848709D01*
X149900465Y-88479111D01*
X150468496Y-87994465D01*
X150922605Y-87412395D01*
X151244203Y-86750522D01*
X151353596Y-86377626D01*
X151406272Y-86026936D01*
X151433861Y-85579645D01*
X151437038Y-85091313D01*
X151416476Y-84617501D01*
X151372849Y-84213770D01*
X151324620Y-83987790D01*
X151205906Y-83593334D01*
X155396223Y-83593334D01*
X153940952Y-87212834D01*
X153689068Y-87839172D01*
X153381388Y-88604020D01*
X153025382Y-89488817D01*
X152628522Y-90475001D01*
X152198279Y-91544013D01*
X151742123Y-92677291D01*
X151267525Y-93856274D01*
X150781956Y-95062403D01*
X150292887Y-96277115D01*
X149807788Y-97481851D01*
X149408453Y-98473500D01*
X146331224Y-106114667D01*
X146331224Y-106872664D01*
X146744334Y-106872560D01*
X151866667Y-102123374D01*
X152654164Y-101392718D01*
X153406037Y-100694095D01*
X154112987Y-100036206D01*
X154765715Y-99427750D01*
X155354922Y-98877429D01*
X155871311Y-98393943D01*
X156305582Y-97985993D01*
X156648436Y-97662280D01*
X156890576Y-97431504D01*
X157022703Y-97302366D01*
X157044997Y-97278019D01*
X157052880Y-97173860D01*
X157051107Y-96916137D01*
G37*
X157051107Y-96916137D02*
X157040510Y-96520075D01*
X157021920Y-96000897D01*
X156996165Y-95373828D01*
X156964077Y-94654091D01*
X156926485Y-93856911D01*
X156884221Y-92997512D01*
X156838114Y-92091118D01*
X156788994Y-91152953D01*
X156737692Y-90198241D01*
X156685039Y-89242205D01*
X156631864Y-88300072D01*
X156578998Y-87387063D01*
X156527271Y-86518404D01*
X156477513Y-85709318D01*
X156430555Y-84975029D01*
X156387226Y-84330762D01*
X156348358Y-83791741D01*
X156314780Y-83373190D01*
X156287323Y-83090332D01*
X156266817Y-82958392D01*
X156263663Y-82951501D01*
X156211603Y-82918683D01*
X156104952Y-82892198D01*
X155927894Y-82871423D01*
X155664609Y-82855735D01*
X155299282Y-82844511D01*
X154816093Y-82837128D01*
X154199227Y-82832964D01*
X153432864Y-82831394D01*
X153212919Y-82831334D01*
X150261904Y-82831334D01*
X150132886Y-83028240D01*
X150070149Y-83145661D01*
X150057827Y-83267552D01*
X150102328Y-83441237D01*
X150210059Y-83714046D01*
X150233178Y-83769074D01*
X150345028Y-84059639D01*
X150414338Y-84323505D01*
X150450984Y-84619641D01*
X150464843Y-85007015D01*
X150466077Y-85159667D01*
X150462862Y-85568995D01*
X150442927Y-85862146D01*
X150397010Y-86092116D01*
X150315847Y-86311895D01*
X150234312Y-86485593D01*
X149867786Y-87042235D01*
X149365107Y-87502129D01*
X148828828Y-87815223D01*
X148601283Y-87914122D01*
X148392854Y-87978776D01*
X148157386Y-88016291D01*
X147848724Y-88033769D01*
X147420711Y-88038316D01*
X147379334Y-88038334D01*
X146939610Y-88034525D01*
X146622982Y-88018361D01*
X146383295Y-87982737D01*
X146174393Y-87920551D01*
X145950120Y-87824696D01*
X145929840Y-87815223D01*
X145313532Y-87449060D01*
X144841035Y-86994046D01*
X144509527Y-86445986D01*
X144316185Y-85800683D01*
X144263832Y-85338165D01*
X144254468Y-84930012D01*
X144284166Y-84599022D01*
X144364976Y-84257686D01*
X144448973Y-83993718D01*
X144581684Y-83573593D01*
X144650262Y-83282241D01*
X144657639Y-83092950D01*
X144606748Y-82979007D01*
X144564167Y-82944282D01*
X144451615Y-82926011D01*
X144195793Y-82912004D01*
X143822722Y-82902798D01*
X143358424Y-82898930D01*
X142828922Y-82900938D01*
X142595667Y-82903630D01*
X141975399Y-82913656D01*
X141502736Y-82925574D01*
X141155948Y-82941204D01*
X140913308Y-82962364D01*
X140753087Y-82990875D01*
X140653555Y-83028557D01*
X140598821Y-83070846D01*
X140551691Y-83160334D01*
X140440086Y-83393786D01*
X140268657Y-83760891D01*
X140042055Y-84251338D01*
X139764933Y-84854816D01*
X139441941Y-85561013D01*
X139077731Y-86359619D01*
X138676955Y-87240322D01*
X138244263Y-88192811D01*
X137784307Y-89206775D01*
X137301739Y-90271903D01*
X136801209Y-91377883D01*
X136287370Y-92514405D01*
X135764872Y-93671158D01*
X135238368Y-94837830D01*
X134712508Y-96004110D01*
X134191944Y-97159687D01*
X133681327Y-98294249D01*
X133185309Y-99397487D01*
X132708541Y-100459088D01*
X132255674Y-101468741D01*
X131831361Y-102416136D01*
X131440251Y-103290961D01*
X131086998Y-104082905D01*
X130776251Y-104781657D01*
X130512663Y-105376905D01*
X130300884Y-105858339D01*
X130145567Y-106215648D01*
X130051363Y-106438519D01*
X130022667Y-106515882D01*
X130079408Y-106629429D01*
X130177501Y-106736545D01*
X130213482Y-106759901D01*
X130273332Y-106780522D01*
X130367054Y-106798571D01*
X130504648Y-106814215D01*
X130696116Y-106827618D01*
X130951462Y-106838946D01*
X131280687Y-106848363D01*
X131693792Y-106856036D01*
X132200781Y-106862129D01*
X132811654Y-106866807D01*
X133536414Y-106870235D01*
X134385063Y-106872579D01*
X135367603Y-106874004D01*
X136494036Y-106874675D01*
X137774363Y-106874757D01*
X138538334Y-106874613D01*
X146331224Y-106872664D01*
X146331224Y-106114667D01*
X138684946Y-106114667D01*
X137563279Y-106113981D01*
X136491269Y-106111987D01*
X135480832Y-106108786D01*
X134543887Y-106104475D01*
X133692349Y-106099155D01*
X132938135Y-106092924D01*
X132293163Y-106085881D01*
X131769349Y-106078125D01*
X131378610Y-106069755D01*
X131132864Y-106060871D01*
X131044027Y-106051571D01*
X131043907Y-106051167D01*
X131078692Y-105967921D01*
X131179215Y-105738986D01*
X131341589Y-105373032D01*
X131561926Y-104878727D01*
X131836336Y-104264738D01*
X132160934Y-103539735D01*
X132531830Y-102712385D01*
X132945137Y-101791357D01*
X133396966Y-100785321D01*
X133883430Y-99702943D01*
X134400642Y-98552892D01*
X134944712Y-97343837D01*
X135511753Y-96084446D01*
X136066057Y-94854000D01*
X141082968Y-83720334D01*
X142294317Y-83696778D01*
X143505666Y-83673223D01*
X143452309Y-83866112D01*
X143291856Y-84712754D01*
X143278240Y-85530916D01*
X143403011Y-86304892D01*
X143657718Y-87018977D01*
X144033909Y-87657465D01*
X144523134Y-88204652D01*
X145116941Y-88644831D01*
X145806879Y-88962299D01*
X146261668Y-89086965D01*
X146732093Y-89151753D01*
X147289752Y-89177257D01*
X147858678Y-89163521D01*
X148362905Y-89110592D01*
X148497000Y-89085638D01*
X149237104Y-88848709D01*
X149900465Y-88479111D01*
X150468496Y-87994465D01*
X150922605Y-87412395D01*
X151244203Y-86750522D01*
X151353596Y-86377626D01*
X151406272Y-86026936D01*
X151433861Y-85579645D01*
X151437038Y-85091313D01*
X151416476Y-84617501D01*
X151372849Y-84213770D01*
X151324620Y-83987790D01*
X151205906Y-83593334D01*
X155396223Y-83593334D01*
X153940952Y-87212834D01*
X153689068Y-87839172D01*
X153381388Y-88604020D01*
X153025382Y-89488817D01*
X152628522Y-90475001D01*
X152198279Y-91544013D01*
X151742123Y-92677291D01*
X151267525Y-93856274D01*
X150781956Y-95062403D01*
X150292887Y-96277115D01*
X149807788Y-97481851D01*
X149408453Y-98473500D01*
X146331224Y-106114667D01*
X146331224Y-106872664D01*
X146744334Y-106872560D01*
X151866667Y-102123374D01*
X152654164Y-101392718D01*
X153406037Y-100694095D01*
X154112987Y-100036206D01*
X154765715Y-99427750D01*
X155354922Y-98877429D01*
X155871311Y-98393943D01*
X156305582Y-97985993D01*
X156648436Y-97662280D01*
X156890576Y-97431504D01*
X157022703Y-97302366D01*
X157044997Y-97278019D01*
X157052880Y-97173860D01*
X157051107Y-96916137D01*
G36*
X134062642Y-95666946D02*
G01*
X134005652Y-95339438D01*
X133904398Y-95068492D01*
X133768645Y-94895212D01*
X133654846Y-94854000D01*
X133534987Y-94874210D01*
X133505362Y-94967489D01*
X133532304Y-95129167D01*
X133612692Y-95544948D01*
X133642560Y-95846083D01*
X133621863Y-96079563D01*
X133550556Y-96292376D01*
X133531157Y-96334618D01*
X133298891Y-96644031D01*
X132970409Y-96848528D01*
X132583990Y-96946073D01*
X132177916Y-96934628D01*
X131790470Y-96812158D01*
X131459931Y-96576623D01*
X131352416Y-96450557D01*
X131245210Y-96201818D01*
X131191131Y-95867055D01*
X131195227Y-95522610D01*
X131262549Y-95244823D01*
X131271457Y-95226522D01*
X131323708Y-95018163D01*
X131247089Y-94884829D01*
X131122844Y-94854000D01*
X130989156Y-94931547D01*
X130877640Y-95136618D01*
X130798026Y-95427864D01*
X130760044Y-95763934D01*
X130773424Y-96103477D01*
X130797029Y-96238643D01*
X130978816Y-96701427D01*
X131284897Y-97055019D01*
X131703098Y-97290476D01*
X132221246Y-97398854D01*
X132385157Y-97405223D01*
X132945794Y-97341463D01*
X133402553Y-97145842D01*
X133752031Y-96820626D01*
X133990825Y-96368079D01*
X134004783Y-96327237D01*
X134065607Y-96009913D01*
X134062642Y-95666946D01*
G37*
X134062642Y-95666946D02*
X134005652Y-95339438D01*
X133904398Y-95068492D01*
X133768645Y-94895212D01*
X133654846Y-94854000D01*
X133534987Y-94874210D01*
X133505362Y-94967489D01*
X133532304Y-95129167D01*
X133612692Y-95544948D01*
X133642560Y-95846083D01*
X133621863Y-96079563D01*
X133550556Y-96292376D01*
X133531157Y-96334618D01*
X133298891Y-96644031D01*
X132970409Y-96848528D01*
X132583990Y-96946073D01*
X132177916Y-96934628D01*
X131790470Y-96812158D01*
X131459931Y-96576623D01*
X131352416Y-96450557D01*
X131245210Y-96201818D01*
X131191131Y-95867055D01*
X131195227Y-95522610D01*
X131262549Y-95244823D01*
X131271457Y-95226522D01*
X131323708Y-95018163D01*
X131247089Y-94884829D01*
X131122844Y-94854000D01*
X130989156Y-94931547D01*
X130877640Y-95136618D01*
X130798026Y-95427864D01*
X130760044Y-95763934D01*
X130773424Y-96103477D01*
X130797029Y-96238643D01*
X130978816Y-96701427D01*
X131284897Y-97055019D01*
X131703098Y-97290476D01*
X132221246Y-97398854D01*
X132385157Y-97405223D01*
X132945794Y-97341463D01*
X133402553Y-97145842D01*
X133752031Y-96820626D01*
X133990825Y-96368079D01*
X134004783Y-96327237D01*
X134065607Y-96009913D01*
X134062642Y-95666946D01*
G36*
X133086119Y-90596348D02*
G01*
X132891310Y-90269651D01*
X132587193Y-90056169D01*
X132494535Y-90022951D01*
X132224733Y-89967414D01*
X132029835Y-89998801D01*
X131982486Y-90021318D01*
X131895287Y-90083034D01*
X131841377Y-90178874D01*
X131812906Y-90345805D01*
X131802025Y-90620791D01*
X131800667Y-90877646D01*
X131795863Y-91212506D01*
X131782999Y-91471886D01*
X131764395Y-91617934D01*
X131754129Y-91636667D01*
X131653977Y-91601507D01*
X131474898Y-91516312D01*
X131463796Y-91510596D01*
X131260914Y-91359827D01*
X131158021Y-91148472D01*
X131142503Y-90839132D01*
X131165088Y-90624875D01*
X131177928Y-90337353D01*
X131130608Y-90161772D01*
X131033366Y-90118013D01*
X130936500Y-90180968D01*
X130848473Y-90353013D01*
X130788962Y-90626285D01*
X130767572Y-90933737D01*
X130791145Y-91195635D01*
X130937196Y-91555443D01*
X131183674Y-91816691D01*
X131500005Y-91981760D01*
X131855613Y-92053035D01*
X132185872Y-92034780D01*
X132185872Y-91636667D01*
X132163766Y-91558860D01*
X132147348Y-91352831D01*
X132139586Y-91059672D01*
X132139334Y-90992609D01*
X132143908Y-90665429D01*
X132162171Y-90477301D01*
X132200934Y-90398085D01*
X132267008Y-90397639D01*
X132273259Y-90399942D01*
X132433283Y-90445588D01*
X132482973Y-90451334D01*
X132612436Y-90525840D01*
X132720374Y-90708853D01*
X132780535Y-90939608D01*
X132774766Y-91126698D01*
X132665665Y-91333886D01*
X132469680Y-91520063D01*
X132252927Y-91627978D01*
X132185872Y-91636667D01*
X132185872Y-92034780D01*
X132219921Y-92032897D01*
X132562353Y-91923730D01*
X132852334Y-91727917D01*
X133059288Y-91447839D01*
X133152639Y-91085881D01*
X133155017Y-91011416D01*
X133086119Y-90596348D01*
G37*
X133086119Y-90596348D02*
X132891310Y-90269651D01*
X132587193Y-90056169D01*
X132494535Y-90022951D01*
X132224733Y-89967414D01*
X132029835Y-89998801D01*
X131982486Y-90021318D01*
X131895287Y-90083034D01*
X131841377Y-90178874D01*
X131812906Y-90345805D01*
X131802025Y-90620791D01*
X131800667Y-90877646D01*
X131795863Y-91212506D01*
X131782999Y-91471886D01*
X131764395Y-91617934D01*
X131754129Y-91636667D01*
X131653977Y-91601507D01*
X131474898Y-91516312D01*
X131463796Y-91510596D01*
X131260914Y-91359827D01*
X131158021Y-91148472D01*
X131142503Y-90839132D01*
X131165088Y-90624875D01*
X131177928Y-90337353D01*
X131130608Y-90161772D01*
X131033366Y-90118013D01*
X130936500Y-90180968D01*
X130848473Y-90353013D01*
X130788962Y-90626285D01*
X130767572Y-90933737D01*
X130791145Y-91195635D01*
X130937196Y-91555443D01*
X131183674Y-91816691D01*
X131500005Y-91981760D01*
X131855613Y-92053035D01*
X132185872Y-92034780D01*
X132185872Y-91636667D01*
X132163766Y-91558860D01*
X132147348Y-91352831D01*
X132139586Y-91059672D01*
X132139334Y-90992609D01*
X132143908Y-90665429D01*
X132162171Y-90477301D01*
X132200934Y-90398085D01*
X132267008Y-90397639D01*
X132273259Y-90399942D01*
X132433283Y-90445588D01*
X132482973Y-90451334D01*
X132612436Y-90525840D01*
X132720374Y-90708853D01*
X132780535Y-90939608D01*
X132774766Y-91126698D01*
X132665665Y-91333886D01*
X132469680Y-91520063D01*
X132252927Y-91627978D01*
X132185872Y-91636667D01*
X132185872Y-92034780D01*
X132219921Y-92032897D01*
X132562353Y-91923730D01*
X132852334Y-91727917D01*
X133059288Y-91447839D01*
X133152639Y-91085881D01*
X133155017Y-91011416D01*
X133086119Y-90596348D01*
G36*
X133138683Y-88300189D02*
G01*
X133071030Y-88102536D01*
X132925829Y-87922885D01*
X132914073Y-87911047D01*
X132664410Y-87729018D01*
X132378081Y-87618055D01*
X132110606Y-87592384D01*
X131926739Y-87658104D01*
X131860291Y-87764118D01*
X131820339Y-87966815D01*
X131802576Y-88295178D01*
X131800667Y-88506441D01*
X131798283Y-88861401D01*
X131786115Y-89077725D01*
X131756641Y-89186094D01*
X131702335Y-89217191D01*
X131629291Y-89205332D01*
X131367586Y-89055198D01*
X131199716Y-88777784D01*
X131136113Y-88393181D01*
X131138861Y-88260971D01*
X131137973Y-87949004D01*
X131091755Y-87786072D01*
X131065566Y-87766414D01*
X130947844Y-87801020D01*
X130850114Y-87963454D01*
X130782945Y-88212474D01*
X130756906Y-88506837D01*
X130782567Y-88805301D01*
X130790072Y-88841449D01*
X130946187Y-89191599D01*
X131215406Y-89452575D01*
X131562235Y-89616395D01*
X131951178Y-89675077D01*
X132139334Y-89649183D01*
X132139334Y-89257192D01*
X132139334Y-88626596D01*
X132145690Y-88294903D01*
X132169133Y-88100591D01*
X132216225Y-88012038D01*
X132270182Y-87996000D01*
X132429884Y-88059769D01*
X132613380Y-88212098D01*
X132761775Y-88394519D01*
X132816667Y-88538502D01*
X132745064Y-88823662D01*
X132562274Y-89064080D01*
X132381664Y-89172715D01*
X132139334Y-89257192D01*
X132139334Y-89649183D01*
X132346740Y-89620638D01*
X132713427Y-89445096D01*
X132874145Y-89310123D01*
X133046975Y-89113535D01*
X133130128Y-88926796D01*
X133154699Y-88670345D01*
X133155334Y-88590621D01*
X133138683Y-88300189D01*
G37*
X133138683Y-88300189D02*
X133071030Y-88102536D01*
X132925829Y-87922885D01*
X132914073Y-87911047D01*
X132664410Y-87729018D01*
X132378081Y-87618055D01*
X132110606Y-87592384D01*
X131926739Y-87658104D01*
X131860291Y-87764118D01*
X131820339Y-87966815D01*
X131802576Y-88295178D01*
X131800667Y-88506441D01*
X131798283Y-88861401D01*
X131786115Y-89077725D01*
X131756641Y-89186094D01*
X131702335Y-89217191D01*
X131629291Y-89205332D01*
X131367586Y-89055198D01*
X131199716Y-88777784D01*
X131136113Y-88393181D01*
X131138861Y-88260971D01*
X131137973Y-87949004D01*
X131091755Y-87786072D01*
X131065566Y-87766414D01*
X130947844Y-87801020D01*
X130850114Y-87963454D01*
X130782945Y-88212474D01*
X130756906Y-88506837D01*
X130782567Y-88805301D01*
X130790072Y-88841449D01*
X130946187Y-89191599D01*
X131215406Y-89452575D01*
X131562235Y-89616395D01*
X131951178Y-89675077D01*
X132139334Y-89649183D01*
X132139334Y-89257192D01*
X132139334Y-88626596D01*
X132145690Y-88294903D01*
X132169133Y-88100591D01*
X132216225Y-88012038D01*
X132270182Y-87996000D01*
X132429884Y-88059769D01*
X132613380Y-88212098D01*
X132761775Y-88394519D01*
X132816667Y-88538502D01*
X132745064Y-88823662D01*
X132562274Y-89064080D01*
X132381664Y-89172715D01*
X132139334Y-89257192D01*
X132139334Y-89649183D01*
X132346740Y-89620638D01*
X132713427Y-89445096D01*
X132874145Y-89310123D01*
X133046975Y-89113535D01*
X133130128Y-88926796D01*
X133154699Y-88670345D01*
X133155334Y-88590621D01*
X133138683Y-88300189D01*
G36*
X133123839Y-85991670D02*
G01*
X133034732Y-85740295D01*
X132896076Y-85629013D01*
X132861018Y-85625334D01*
X132728418Y-85666399D01*
X132689032Y-85805915D01*
X132736642Y-86068361D01*
X132742781Y-86090913D01*
X132789143Y-86404745D01*
X132741422Y-86612134D01*
X132612577Y-86762140D01*
X132449856Y-86805677D01*
X132314180Y-86736137D01*
X132277079Y-86662500D01*
X132228906Y-86487579D01*
X132162690Y-86237226D01*
X132144730Y-86167946D01*
X131992679Y-85804203D01*
X131762059Y-85590292D01*
X131451492Y-85525330D01*
X131202363Y-85563537D01*
X130974865Y-85705449D01*
X130821678Y-85972230D01*
X130754197Y-86331539D01*
X130783812Y-86751034D01*
X130783894Y-86751472D01*
X130874247Y-87058274D01*
X131003465Y-87205352D01*
X131168761Y-87202196D01*
X131266726Y-87100701D01*
X131249765Y-87000453D01*
X131167602Y-86710376D01*
X131141445Y-86415279D01*
X131172073Y-86173892D01*
X131237266Y-86059513D01*
X131435683Y-85966420D01*
X131602456Y-86036915D01*
X131731607Y-86267212D01*
X131769889Y-86397092D01*
X131880002Y-86770447D01*
X132002032Y-87011161D01*
X132158952Y-87155562D01*
X132286152Y-87213465D01*
X132600882Y-87251042D01*
X132860575Y-87140530D01*
X133047854Y-86898934D01*
X133145343Y-86543256D01*
X133155334Y-86362929D01*
X133123839Y-85991670D01*
G37*
X133123839Y-85991670D02*
X133034732Y-85740295D01*
X132896076Y-85629013D01*
X132861018Y-85625334D01*
X132728418Y-85666399D01*
X132689032Y-85805915D01*
X132736642Y-86068361D01*
X132742781Y-86090913D01*
X132789143Y-86404745D01*
X132741422Y-86612134D01*
X132612577Y-86762140D01*
X132449856Y-86805677D01*
X132314180Y-86736137D01*
X132277079Y-86662500D01*
X132228906Y-86487579D01*
X132162690Y-86237226D01*
X132144730Y-86167946D01*
X131992679Y-85804203D01*
X131762059Y-85590292D01*
X131451492Y-85525330D01*
X131202363Y-85563537D01*
X130974865Y-85705449D01*
X130821678Y-85972230D01*
X130754197Y-86331539D01*
X130783812Y-86751034D01*
X130783894Y-86751472D01*
X130874247Y-87058274D01*
X131003465Y-87205352D01*
X131168761Y-87202196D01*
X131266726Y-87100701D01*
X131249765Y-87000453D01*
X131167602Y-86710376D01*
X131141445Y-86415279D01*
X131172073Y-86173892D01*
X131237266Y-86059513D01*
X131435683Y-85966420D01*
X131602456Y-86036915D01*
X131731607Y-86267212D01*
X131769889Y-86397092D01*
X131880002Y-86770447D01*
X132002032Y-87011161D01*
X132158952Y-87155562D01*
X132286152Y-87213465D01*
X132600882Y-87251042D01*
X132860575Y-87140530D01*
X133047854Y-86898934D01*
X133145343Y-86543256D01*
X133155334Y-86362929D01*
X133123839Y-85991670D01*
G36*
X133616823Y-83969229D02*
G01*
X133541366Y-83851511D01*
X133460042Y-83709839D01*
X133465831Y-83629288D01*
X133490971Y-83372049D01*
X133388954Y-83154598D01*
X133199972Y-83010013D01*
X132964215Y-82971371D01*
X132757447Y-83046279D01*
X132467419Y-83141412D01*
X132313683Y-83128769D01*
X132096432Y-83114264D01*
X131946923Y-83195229D01*
X131854818Y-83390646D01*
X131809779Y-83719495D01*
X131800667Y-84070754D01*
X131798758Y-84418434D01*
X131787125Y-84627654D01*
X131756911Y-84729285D01*
X131699258Y-84754199D01*
X131610167Y-84734682D01*
X131339365Y-84595768D01*
X131187962Y-84361242D01*
X131147192Y-84013556D01*
X131160404Y-83834353D01*
X131178491Y-83566436D01*
X131168718Y-83373569D01*
X131143859Y-83309686D01*
X131013709Y-83305928D01*
X130898021Y-83433788D01*
X130810228Y-83655555D01*
X130763766Y-83933517D01*
X130772069Y-84229962D01*
X130786427Y-84313000D01*
X130905913Y-84678507D01*
X131100643Y-84925448D01*
X131323702Y-85063964D01*
X131736479Y-85185675D01*
X132171687Y-85190940D01*
X132217229Y-85179081D01*
X132217229Y-84772346D01*
X132154168Y-84689134D01*
X132147773Y-84545834D01*
X132156213Y-84313000D01*
X132224000Y-84524667D01*
X132272210Y-84662857D01*
X132294368Y-84650372D01*
X132308667Y-84482334D01*
X132323125Y-84313957D01*
X132344251Y-84305509D01*
X132386517Y-84440000D01*
X132402230Y-84629605D01*
X132356910Y-84713871D01*
X132217229Y-84772346D01*
X132217229Y-85179081D01*
X132575106Y-85085889D01*
X132618872Y-85057577D01*
X132618872Y-84564995D01*
X132567536Y-84489440D01*
X132531640Y-84348364D01*
X132472932Y-84165377D01*
X132376685Y-84114700D01*
X132308802Y-84125831D01*
X132187510Y-84129143D01*
X132143076Y-84023519D01*
X132139334Y-83924074D01*
X132149917Y-83749027D01*
X132174742Y-83678000D01*
X132274088Y-83651613D01*
X132348377Y-83624958D01*
X132440014Y-83613732D01*
X132449184Y-83708938D01*
X132427492Y-83807429D01*
X132400964Y-83970618D01*
X132453725Y-84014511D01*
X132529025Y-84000873D01*
X132637981Y-83998521D01*
X132679205Y-84096921D01*
X132681149Y-84243198D01*
X132659512Y-84480966D01*
X132618872Y-84564995D01*
X132618872Y-85057577D01*
X132881186Y-84887882D01*
X133082851Y-84759090D01*
X133124251Y-84746925D01*
X133124251Y-84416459D01*
X133073357Y-84399329D01*
X133002979Y-84275611D01*
X133035631Y-84122666D01*
X133118857Y-84050962D01*
X133118857Y-83573367D01*
X133033995Y-83564032D01*
X132982693Y-83506215D01*
X132906882Y-83331297D01*
X132961476Y-83256917D01*
X132988658Y-83254667D01*
X133090265Y-83323070D01*
X133144783Y-83463546D01*
X133118857Y-83573367D01*
X133118857Y-84050962D01*
X133134123Y-84037809D01*
X133243758Y-84067694D01*
X133303950Y-84190717D01*
X133286701Y-84332050D01*
X133258620Y-84370581D01*
X133124251Y-84416459D01*
X133124251Y-84746925D01*
X133237587Y-84713622D01*
X133444787Y-84657226D01*
X133550687Y-84597422D01*
X133637286Y-84434088D01*
X133658988Y-84197213D01*
X133616823Y-83969229D01*
G37*
X133616823Y-83969229D02*
X133541366Y-83851511D01*
X133460042Y-83709839D01*
X133465831Y-83629288D01*
X133490971Y-83372049D01*
X133388954Y-83154598D01*
X133199972Y-83010013D01*
X132964215Y-82971371D01*
X132757447Y-83046279D01*
X132467419Y-83141412D01*
X132313683Y-83128769D01*
X132096432Y-83114264D01*
X131946923Y-83195229D01*
X131854818Y-83390646D01*
X131809779Y-83719495D01*
X131800667Y-84070754D01*
X131798758Y-84418434D01*
X131787125Y-84627654D01*
X131756911Y-84729285D01*
X131699258Y-84754199D01*
X131610167Y-84734682D01*
X131339365Y-84595768D01*
X131187962Y-84361242D01*
X131147192Y-84013556D01*
X131160404Y-83834353D01*
X131178491Y-83566436D01*
X131168718Y-83373569D01*
X131143859Y-83309686D01*
X131013709Y-83305928D01*
X130898021Y-83433788D01*
X130810228Y-83655555D01*
X130763766Y-83933517D01*
X130772069Y-84229962D01*
X130786427Y-84313000D01*
X130905913Y-84678507D01*
X131100643Y-84925448D01*
X131323702Y-85063964D01*
X131736479Y-85185675D01*
X132171687Y-85190940D01*
X132217229Y-85179081D01*
X132217229Y-84772346D01*
X132154168Y-84689134D01*
X132147773Y-84545834D01*
X132156213Y-84313000D01*
X132224000Y-84524667D01*
X132272210Y-84662857D01*
X132294368Y-84650372D01*
X132308667Y-84482334D01*
X132323125Y-84313957D01*
X132344251Y-84305509D01*
X132386517Y-84440000D01*
X132402230Y-84629605D01*
X132356910Y-84713871D01*
X132217229Y-84772346D01*
X132217229Y-85179081D01*
X132575106Y-85085889D01*
X132618872Y-85057577D01*
X132618872Y-84564995D01*
X132567536Y-84489440D01*
X132531640Y-84348364D01*
X132472932Y-84165377D01*
X132376685Y-84114700D01*
X132308802Y-84125831D01*
X132187510Y-84129143D01*
X132143076Y-84023519D01*
X132139334Y-83924074D01*
X132149917Y-83749027D01*
X132174742Y-83678000D01*
X132274088Y-83651613D01*
X132348377Y-83624958D01*
X132440014Y-83613732D01*
X132449184Y-83708938D01*
X132427492Y-83807429D01*
X132400964Y-83970618D01*
X132453725Y-84014511D01*
X132529025Y-84000873D01*
X132637981Y-83998521D01*
X132679205Y-84096921D01*
X132681149Y-84243198D01*
X132659512Y-84480966D01*
X132618872Y-84564995D01*
X132618872Y-85057577D01*
X132881186Y-84887882D01*
X133082851Y-84759090D01*
X133124251Y-84746925D01*
X133124251Y-84416459D01*
X133073357Y-84399329D01*
X133002979Y-84275611D01*
X133035631Y-84122666D01*
X133118857Y-84050962D01*
X133118857Y-83573367D01*
X133033995Y-83564032D01*
X132982693Y-83506215D01*
X132906882Y-83331297D01*
X132961476Y-83256917D01*
X132988658Y-83254667D01*
X133090265Y-83323070D01*
X133144783Y-83463546D01*
X133118857Y-83573367D01*
X133118857Y-84050962D01*
X133134123Y-84037809D01*
X133243758Y-84067694D01*
X133303950Y-84190717D01*
X133286701Y-84332050D01*
X133258620Y-84370581D01*
X133124251Y-84416459D01*
X133124251Y-84746925D01*
X133237587Y-84713622D01*
X133444787Y-84657226D01*
X133550687Y-84597422D01*
X133637286Y-84434088D01*
X133658988Y-84197213D01*
X133616823Y-83969229D01*
G36*
X134029423Y-93957690D02*
G01*
X133898800Y-93930951D01*
X133648913Y-93923078D01*
X133490152Y-93922667D01*
X132881859Y-93922667D01*
X133018596Y-93713979D01*
X133143243Y-93380718D01*
X133126039Y-93023049D01*
X132970993Y-92702572D01*
X132951186Y-92678555D01*
X132856991Y-92575981D01*
X132761185Y-92508219D01*
X132628411Y-92468053D01*
X132423318Y-92448271D01*
X132110549Y-92441658D01*
X131787020Y-92441000D01*
X131372117Y-92442843D01*
X131097691Y-92451764D01*
X130934897Y-92472851D01*
X130854889Y-92511191D01*
X130828822Y-92571872D01*
X130827000Y-92610334D01*
X130840140Y-92687138D01*
X130899559Y-92739221D01*
X131035257Y-92773845D01*
X131277232Y-92798267D01*
X131655485Y-92819749D01*
X131701669Y-92822000D01*
X132109845Y-92846237D01*
X132382516Y-92876472D01*
X132553508Y-92919731D01*
X132656646Y-92983044D01*
X132696503Y-93028683D01*
X132801349Y-93212645D01*
X132789728Y-93375935D01*
X132730060Y-93502960D01*
X132591266Y-93675683D01*
X132372245Y-93796100D01*
X132044282Y-93874402D01*
X131578659Y-93920781D01*
X131547490Y-93922667D01*
X131188213Y-93949322D01*
X130965839Y-93983155D01*
X130847939Y-94032446D01*
X130802087Y-94105475D01*
X130800399Y-94113423D01*
X130830839Y-94260347D01*
X130887089Y-94305951D01*
X131005650Y-94318922D01*
X131264011Y-94327780D01*
X131632680Y-94332150D01*
X132082164Y-94331654D01*
X132523180Y-94326862D01*
X133064089Y-94318019D01*
X133459155Y-94308289D01*
X133731853Y-94294431D01*
X133905657Y-94273205D01*
X134004042Y-94241371D01*
X134050481Y-94195689D01*
X134068451Y-94132920D01*
X134071389Y-94113167D01*
X134075410Y-94014646D01*
X134029423Y-93957690D01*
G37*
X134029423Y-93957690D02*
X133898800Y-93930951D01*
X133648913Y-93923078D01*
X133490152Y-93922667D01*
X132881859Y-93922667D01*
X133018596Y-93713979D01*
X133143243Y-93380718D01*
X133126039Y-93023049D01*
X132970993Y-92702572D01*
X132951186Y-92678555D01*
X132856991Y-92575981D01*
X132761185Y-92508219D01*
X132628411Y-92468053D01*
X132423318Y-92448271D01*
X132110549Y-92441658D01*
X131787020Y-92441000D01*
X131372117Y-92442843D01*
X131097691Y-92451764D01*
X130934897Y-92472851D01*
X130854889Y-92511191D01*
X130828822Y-92571872D01*
X130827000Y-92610334D01*
X130840140Y-92687138D01*
X130899559Y-92739221D01*
X131035257Y-92773845D01*
X131277232Y-92798267D01*
X131655485Y-92819749D01*
X131701669Y-92822000D01*
X132109845Y-92846237D01*
X132382516Y-92876472D01*
X132553508Y-92919731D01*
X132656646Y-92983044D01*
X132696503Y-93028683D01*
X132801349Y-93212645D01*
X132789728Y-93375935D01*
X132730060Y-93502960D01*
X132591266Y-93675683D01*
X132372245Y-93796100D01*
X132044282Y-93874402D01*
X131578659Y-93920781D01*
X131547490Y-93922667D01*
X131188213Y-93949322D01*
X130965839Y-93983155D01*
X130847939Y-94032446D01*
X130802087Y-94105475D01*
X130800399Y-94113423D01*
X130830839Y-94260347D01*
X130887089Y-94305951D01*
X131005650Y-94318922D01*
X131264011Y-94327780D01*
X131632680Y-94332150D01*
X132082164Y-94331654D01*
X132523180Y-94326862D01*
X133064089Y-94318019D01*
X133459155Y-94308289D01*
X133731853Y-94294431D01*
X133905657Y-94273205D01*
X134004042Y-94241371D01*
X134050481Y-94195689D01*
X134068451Y-94132920D01*
X134071389Y-94113167D01*
X134075410Y-94014646D01*
X134029423Y-93957690D01*
G36*
X137016570Y-89078111D02*
G01*
X136931639Y-88807950D01*
X136795177Y-88551315D01*
X136658362Y-88455039D01*
X136504444Y-88510946D01*
X136440294Y-88568077D01*
X136327161Y-88721618D01*
X136342758Y-88867897D01*
X136364168Y-88911452D01*
X136447255Y-89169688D01*
X136453773Y-89442916D01*
X136388802Y-89668780D01*
X136294134Y-89770718D01*
X136074877Y-89822761D01*
X135914479Y-89718329D01*
X135819901Y-89462130D01*
X135817507Y-89448326D01*
X135712698Y-88973156D01*
X135579907Y-88649117D01*
X135416016Y-88461930D01*
X135158160Y-88363159D01*
X134830880Y-88340983D01*
X134515349Y-88394580D01*
X134350562Y-88472732D01*
X134109072Y-88739072D01*
X133967121Y-89105544D01*
X133931167Y-89530826D01*
X134007666Y-89973596D01*
X134084387Y-90176167D01*
X134210007Y-90420902D01*
X134316296Y-90516772D01*
X134437388Y-90475587D01*
X134573846Y-90345500D01*
X134689906Y-90197070D01*
X134689366Y-90083363D01*
X134630938Y-89990652D01*
X134549456Y-89790167D01*
X134514519Y-89519842D01*
X134527566Y-89251259D01*
X134590035Y-89056000D01*
X134611600Y-89028934D01*
X134799099Y-88934320D01*
X134989585Y-88970148D01*
X135089856Y-89075500D01*
X135151717Y-89249298D01*
X135212969Y-89506178D01*
X135230114Y-89600292D01*
X135352300Y-89967298D01*
X135566461Y-90251277D01*
X135841778Y-90419508D01*
X136031692Y-90451334D01*
X136419179Y-90377735D01*
X136726746Y-90175607D01*
X136939058Y-89872957D01*
X137040778Y-89497790D01*
X137016570Y-89078111D01*
G37*
X137016570Y-89078111D02*
X136931639Y-88807950D01*
X136795177Y-88551315D01*
X136658362Y-88455039D01*
X136504444Y-88510946D01*
X136440294Y-88568077D01*
X136327161Y-88721618D01*
X136342758Y-88867897D01*
X136364168Y-88911452D01*
X136447255Y-89169688D01*
X136453773Y-89442916D01*
X136388802Y-89668780D01*
X136294134Y-89770718D01*
X136074877Y-89822761D01*
X135914479Y-89718329D01*
X135819901Y-89462130D01*
X135817507Y-89448326D01*
X135712698Y-88973156D01*
X135579907Y-88649117D01*
X135416016Y-88461930D01*
X135158160Y-88363159D01*
X134830880Y-88340983D01*
X134515349Y-88394580D01*
X134350562Y-88472732D01*
X134109072Y-88739072D01*
X133967121Y-89105544D01*
X133931167Y-89530826D01*
X134007666Y-89973596D01*
X134084387Y-90176167D01*
X134210007Y-90420902D01*
X134316296Y-90516772D01*
X134437388Y-90475587D01*
X134573846Y-90345500D01*
X134689906Y-90197070D01*
X134689366Y-90083363D01*
X134630938Y-89990652D01*
X134549456Y-89790167D01*
X134514519Y-89519842D01*
X134527566Y-89251259D01*
X134590035Y-89056000D01*
X134611600Y-89028934D01*
X134799099Y-88934320D01*
X134989585Y-88970148D01*
X135089856Y-89075500D01*
X135151717Y-89249298D01*
X135212969Y-89506178D01*
X135230114Y-89600292D01*
X135352300Y-89967298D01*
X135566461Y-90251277D01*
X135841778Y-90419508D01*
X136031692Y-90451334D01*
X136419179Y-90377735D01*
X136726746Y-90175607D01*
X136939058Y-89872957D01*
X137040778Y-89497790D01*
X137016570Y-89078111D01*
G36*
X137001326Y-86552774D02*
G01*
X136908919Y-86216097D01*
X136811415Y-86046678D01*
X136666777Y-85868058D01*
X136470135Y-86077374D01*
X136341792Y-86246115D01*
X136332815Y-86383776D01*
X136365413Y-86458446D01*
X136456415Y-86740644D01*
X136443130Y-87006576D01*
X136338829Y-87212454D01*
X136156781Y-87314491D01*
X136104713Y-87318667D01*
X135957665Y-87264266D01*
X135848625Y-87087777D01*
X135767242Y-86769275D01*
X135743844Y-86623785D01*
X135618198Y-86239405D01*
X135386496Y-85966453D01*
X135077352Y-85820331D01*
X134719378Y-85816439D01*
X134432546Y-85917938D01*
X134173617Y-86142055D01*
X134003299Y-86480421D01*
X133930802Y-86897720D01*
X133965336Y-87358639D01*
X134009298Y-87540853D01*
X134103620Y-87762333D01*
X134217945Y-87914884D01*
X134333711Y-87973084D01*
X134454578Y-87914742D01*
X134529843Y-87844455D01*
X134649995Y-87691032D01*
X134649275Y-87543645D01*
X134609893Y-87445273D01*
X134527907Y-87153719D01*
X134525360Y-86857876D01*
X134592156Y-86602472D01*
X134718201Y-86432236D01*
X134848667Y-86387334D01*
X135003262Y-86466844D01*
X135130815Y-86685367D01*
X135214487Y-87012890D01*
X135219505Y-87048308D01*
X135329949Y-87466692D01*
X135534032Y-87745494D01*
X135835692Y-87888752D01*
X136060873Y-87911334D01*
X136460516Y-87841665D01*
X136761531Y-87635099D01*
X136958755Y-87295294D01*
X136967866Y-87268661D01*
X137024079Y-86927879D01*
X137001326Y-86552774D01*
G37*
X137001326Y-86552774D02*
X136908919Y-86216097D01*
X136811415Y-86046678D01*
X136666777Y-85868058D01*
X136470135Y-86077374D01*
X136341792Y-86246115D01*
X136332815Y-86383776D01*
X136365413Y-86458446D01*
X136456415Y-86740644D01*
X136443130Y-87006576D01*
X136338829Y-87212454D01*
X136156781Y-87314491D01*
X136104713Y-87318667D01*
X135957665Y-87264266D01*
X135848625Y-87087777D01*
X135767242Y-86769275D01*
X135743844Y-86623785D01*
X135618198Y-86239405D01*
X135386496Y-85966453D01*
X135077352Y-85820331D01*
X134719378Y-85816439D01*
X134432546Y-85917938D01*
X134173617Y-86142055D01*
X134003299Y-86480421D01*
X133930802Y-86897720D01*
X133965336Y-87358639D01*
X134009298Y-87540853D01*
X134103620Y-87762333D01*
X134217945Y-87914884D01*
X134333711Y-87973084D01*
X134454578Y-87914742D01*
X134529843Y-87844455D01*
X134649995Y-87691032D01*
X134649275Y-87543645D01*
X134609893Y-87445273D01*
X134527907Y-87153719D01*
X134525360Y-86857876D01*
X134592156Y-86602472D01*
X134718201Y-86432236D01*
X134848667Y-86387334D01*
X135003262Y-86466844D01*
X135130815Y-86685367D01*
X135214487Y-87012890D01*
X135219505Y-87048308D01*
X135329949Y-87466692D01*
X135534032Y-87745494D01*
X135835692Y-87888752D01*
X136060873Y-87911334D01*
X136460516Y-87841665D01*
X136761531Y-87635099D01*
X136958755Y-87295294D01*
X136967866Y-87268661D01*
X137024079Y-86927879D01*
X137001326Y-86552774D01*
G36*
X137005871Y-84512961D02*
G01*
X136985305Y-84023536D01*
X136919082Y-83669837D01*
X136796236Y-83421848D01*
X136605801Y-83249555D01*
X136528032Y-83205111D01*
X136147095Y-83085977D01*
X135786715Y-83119595D01*
X135478637Y-83301995D01*
X135439485Y-83341313D01*
X135200364Y-83597292D01*
X134657651Y-83298980D01*
X134378835Y-83152742D01*
X134151679Y-83046372D01*
X134021695Y-83001032D01*
X134016136Y-83000667D01*
X133949734Y-83077606D01*
X133918322Y-83280520D01*
X133917334Y-83332690D01*
X133923488Y-83502731D01*
X133963340Y-83619934D01*
X134068971Y-83717057D01*
X134272463Y-83826863D01*
X134510000Y-83937891D01*
X134821488Y-84090755D01*
X135003887Y-84209284D01*
X135087186Y-84317183D01*
X135102667Y-84406333D01*
X135089883Y-84510598D01*
X135026666Y-84571969D01*
X134875718Y-84604822D01*
X134599742Y-84623536D01*
X134531167Y-84626632D01*
X133959667Y-84651667D01*
X133933275Y-84971097D01*
X133906882Y-85290528D01*
X135457275Y-85267431D01*
X136076334Y-85258209D01*
X136076334Y-84609334D01*
X135695334Y-84609334D01*
X135696630Y-84291834D01*
X135713078Y-84059388D01*
X135751856Y-83898368D01*
X135760130Y-83883491D01*
X135929541Y-83744308D01*
X136119056Y-83743492D01*
X136293482Y-83859362D01*
X136417623Y-84070237D01*
X136457334Y-84313000D01*
X136449200Y-84495081D01*
X136394077Y-84581301D01*
X136245880Y-84607506D01*
X136076334Y-84609334D01*
X136076334Y-85258209D01*
X137007667Y-85244334D01*
X137005871Y-84512961D01*
G37*
X137005871Y-84512961D02*
X136985305Y-84023536D01*
X136919082Y-83669837D01*
X136796236Y-83421848D01*
X136605801Y-83249555D01*
X136528032Y-83205111D01*
X136147095Y-83085977D01*
X135786715Y-83119595D01*
X135478637Y-83301995D01*
X135439485Y-83341313D01*
X135200364Y-83597292D01*
X134657651Y-83298980D01*
X134378835Y-83152742D01*
X134151679Y-83046372D01*
X134021695Y-83001032D01*
X134016136Y-83000667D01*
X133949734Y-83077606D01*
X133918322Y-83280520D01*
X133917334Y-83332690D01*
X133923488Y-83502731D01*
X133963340Y-83619934D01*
X134068971Y-83717057D01*
X134272463Y-83826863D01*
X134510000Y-83937891D01*
X134821488Y-84090755D01*
X135003887Y-84209284D01*
X135087186Y-84317183D01*
X135102667Y-84406333D01*
X135089883Y-84510598D01*
X135026666Y-84571969D01*
X134875718Y-84604822D01*
X134599742Y-84623536D01*
X134531167Y-84626632D01*
X133959667Y-84651667D01*
X133933275Y-84971097D01*
X133906882Y-85290528D01*
X135457275Y-85267431D01*
X136076334Y-85258209D01*
X136076334Y-84609334D01*
X135695334Y-84609334D01*
X135696630Y-84291834D01*
X135713078Y-84059388D01*
X135751856Y-83898368D01*
X135760130Y-83883491D01*
X135929541Y-83744308D01*
X136119056Y-83743492D01*
X136293482Y-83859362D01*
X136417623Y-84070237D01*
X136457334Y-84313000D01*
X136449200Y-84495081D01*
X136394077Y-84581301D01*
X136245880Y-84607506D01*
X136076334Y-84609334D01*
X136076334Y-85258209D01*
X137007667Y-85244334D01*
X137005871Y-84512961D01*
G36*
X145302103Y-99336045D02*
G01*
X145221877Y-99003867D01*
X145215821Y-98985237D01*
X144904276Y-98287317D01*
X144474478Y-97691024D01*
X143946817Y-97204876D01*
X143341680Y-96837390D01*
X142679457Y-96597083D01*
X141980535Y-96492472D01*
X141265303Y-96532075D01*
X140554150Y-96724407D01*
X140193476Y-96887220D01*
X139691193Y-97188549D01*
X139279713Y-97539089D01*
X138893141Y-97995281D01*
X138881201Y-98011241D01*
X138556716Y-98576888D01*
X138343629Y-99230358D01*
X138249089Y-99926034D01*
X138280246Y-100618300D01*
X138394074Y-101119334D01*
X138705605Y-101822577D01*
X139150559Y-102432084D01*
X139713255Y-102934382D01*
X140378012Y-103315994D01*
X141129149Y-103563447D01*
X141272420Y-103592720D01*
X141969995Y-103639483D01*
X142663395Y-103531486D01*
X143327900Y-103282054D01*
X143938788Y-102904509D01*
X144471338Y-102412175D01*
X144900828Y-101818374D01*
X145033314Y-101565851D01*
X145172569Y-101247051D01*
X145258894Y-100966591D01*
X145307279Y-100657068D01*
X145332714Y-100251076D01*
X145334188Y-100212904D01*
X145337706Y-99720031D01*
X145302103Y-99336045D01*
G37*
X145302103Y-99336045D02*
X145221877Y-99003867D01*
X145215821Y-98985237D01*
X144904276Y-98287317D01*
X144474478Y-97691024D01*
X143946817Y-97204876D01*
X143341680Y-96837390D01*
X142679457Y-96597083D01*
X141980535Y-96492472D01*
X141265303Y-96532075D01*
X140554150Y-96724407D01*
X140193476Y-96887220D01*
X139691193Y-97188549D01*
X139279713Y-97539089D01*
X138893141Y-97995281D01*
X138881201Y-98011241D01*
X138556716Y-98576888D01*
X138343629Y-99230358D01*
X138249089Y-99926034D01*
X138280246Y-100618300D01*
X138394074Y-101119334D01*
X138705605Y-101822577D01*
X139150559Y-102432084D01*
X139713255Y-102934382D01*
X140378012Y-103315994D01*
X141129149Y-103563447D01*
X141272420Y-103592720D01*
X141969995Y-103639483D01*
X142663395Y-103531486D01*
X143327900Y-103282054D01*
X143938788Y-102904509D01*
X144471338Y-102412175D01*
X144900828Y-101818374D01*
X145033314Y-101565851D01*
X145172569Y-101247051D01*
X145258894Y-100966591D01*
X145307279Y-100657068D01*
X145332714Y-100251076D01*
X145334188Y-100212904D01*
X145337706Y-99720031D01*
X145302103Y-99336045D01*
G36*
X143243133Y-90590459D02*
G01*
X143190241Y-90399503D01*
X142956297Y-89873932D01*
X142614566Y-89454416D01*
X142190432Y-89143325D01*
X141709277Y-88943027D01*
X141196482Y-88855889D01*
X140677431Y-88884280D01*
X140177504Y-89030568D01*
X139722084Y-89297122D01*
X139336554Y-89686310D01*
X139128139Y-90020491D01*
X138923285Y-90587499D01*
X138874881Y-91156725D01*
X138940096Y-91556186D01*
X139180885Y-92143466D01*
X139536221Y-92615889D01*
X139990229Y-92962212D01*
X140527037Y-93171193D01*
X141130769Y-93231591D01*
X141292176Y-93221987D01*
X141867704Y-93089854D01*
X142378442Y-92816238D01*
X142798239Y-92422311D01*
X143100945Y-91929248D01*
X143190766Y-91684800D01*
X143287452Y-91287441D01*
X143304919Y-90951430D01*
X143243133Y-90590459D01*
G37*
X143243133Y-90590459D02*
X143190241Y-90399503D01*
X142956297Y-89873932D01*
X142614566Y-89454416D01*
X142190432Y-89143325D01*
X141709277Y-88943027D01*
X141196482Y-88855889D01*
X140677431Y-88884280D01*
X140177504Y-89030568D01*
X139722084Y-89297122D01*
X139336554Y-89686310D01*
X139128139Y-90020491D01*
X138923285Y-90587499D01*
X138874881Y-91156725D01*
X138940096Y-91556186D01*
X139180885Y-92143466D01*
X139536221Y-92615889D01*
X139990229Y-92962212D01*
X140527037Y-93171193D01*
X141130769Y-93231591D01*
X141292176Y-93221987D01*
X141867704Y-93089854D01*
X142378442Y-92816238D01*
X142798239Y-92422311D01*
X143100945Y-91929248D01*
X143190766Y-91684800D01*
X143287452Y-91287441D01*
X143304919Y-90951430D01*
X143243133Y-90590459D01*
%TD*%
M02*
