%TF.GenerationSoftware,KiCad,Pcbnew,(5.1.7)-1*%
%TF.CreationDate,2021-12-05T02:20:20+09:00*%
%TF.ProjectId,Quatro,51756174-726f-42e6-9b69-6361645f7063,0*%
%TF.SameCoordinates,Original*%
%TF.FileFunction,Profile,NP*%
%FSLAX46Y46*%
G04 Gerber Fmt 4.6, Leading zero omitted, Abs format (unit mm)*
G04 Created by KiCad (PCBNEW (5.1.7)-1) date 2021-12-05 02:20:20*
%MOMM*%
%LPD*%
G01*
G04 APERTURE LIST*
%TA.AperFunction,Profile*%
%ADD10C,0.200000*%
%TD*%
G04 APERTURE END LIST*
D10*
X170788838Y-58175084D02*
G75*
G02*
X170788843Y-130946030I-1028246J-36385473D01*
G01*
X169760594Y-71360558D02*
X169760594Y-59174685D01*
X110760595Y-60360557D02*
X113160593Y-60360557D01*
X157360593Y-114760556D02*
G75*
G03*
X157360593Y-114760556I-1100001J0D01*
G01*
X169760593Y-129946429D02*
X169760593Y-117760555D01*
X106160594Y-128760556D02*
X106160593Y-60360557D01*
X169760595Y-71360555D02*
G75*
G02*
X168760594Y-72360558I-1000002J-1D01*
G01*
X197128428Y-79950000D02*
X198542640Y-78535786D01*
X106160593Y-60360557D02*
X110760595Y-60360557D01*
X130360596Y-114760557D02*
G75*
G03*
X130360596Y-114760557I-1100001J0D01*
G01*
X195714214Y-78535787D02*
X197128428Y-79950000D01*
X194300000Y-77121573D02*
X195714214Y-78535787D01*
X180760595Y-94560557D02*
G75*
G03*
X180760595Y-94560557I-8000001J0D01*
G01*
X157360594Y-74360558D02*
G75*
G03*
X157360594Y-74360558I-1100001J0D01*
G01*
X130360597Y-74360557D02*
G75*
G03*
X130360597Y-74360557I-1100000J0D01*
G01*
X169760595Y-59174687D02*
G75*
G02*
X170788841Y-58175085I999999J2D01*
G01*
X170788842Y-130946030D02*
G75*
G02*
X169760593Y-129946429I-28249J999601D01*
G01*
X115760595Y-72360558D02*
X168760594Y-72360558D01*
X113160593Y-60360557D02*
X115760595Y-72360558D01*
X168760592Y-116760556D02*
G75*
G02*
X169760593Y-117760555I1J-1000000D01*
G01*
X113160595Y-128760558D02*
X106160594Y-128760556D01*
X115760595Y-116760556D02*
X113160595Y-128760558D01*
X168760593Y-116760556D02*
X115760595Y-116760556D01*
X195714214Y-107756901D02*
X194299999Y-106342687D01*
X180764400Y-67643148D02*
X180938710Y-69635540D01*
X184923487Y-69286914D02*
X184574865Y-65302137D01*
X182756788Y-67468837D02*
X182931100Y-69461226D01*
X182582477Y-65476446D02*
X182756788Y-67468837D01*
X194626591Y-94560557D02*
G75*
G03*
X194626591Y-94560557I-1099998J0D01*
G01*
X192885787Y-78535787D02*
X194300000Y-79950000D01*
X195714214Y-75707359D02*
X194300000Y-77121573D01*
X184574865Y-123818979D02*
X182582477Y-123644667D01*
X178946321Y-69809849D02*
X178597697Y-65825070D01*
X194300001Y-111999541D02*
X195714214Y-110585328D01*
X180938710Y-69635540D02*
X178946321Y-69809849D01*
X195714214Y-110585328D02*
X197128427Y-109171114D01*
X182931100Y-69461226D02*
X184923487Y-69286914D01*
X182931100Y-119659889D02*
X184923489Y-119834198D01*
X178597697Y-65825070D02*
X180590087Y-65650759D01*
X194300000Y-82778427D02*
X191471573Y-79950000D01*
X191471573Y-109171112D02*
X192885787Y-110585327D01*
X178597699Y-123296044D02*
X180590088Y-123470356D01*
X180938709Y-119485577D02*
X178946320Y-119311265D01*
X191471573Y-79950000D02*
X192885787Y-78535787D01*
X184923489Y-119834198D02*
X184574865Y-123818979D01*
X195714214Y-81364214D02*
X194300000Y-82778427D01*
X198542642Y-110585327D02*
X195714215Y-113413756D01*
X194299999Y-106342687D02*
X191471573Y-109171112D01*
X184574865Y-65302137D02*
X182582477Y-65476446D01*
X180590088Y-123470356D02*
X180764398Y-121477967D01*
X178946320Y-119311265D02*
X178597699Y-123296044D01*
X198542640Y-78535786D02*
X195714214Y-75707359D01*
X182582477Y-123644667D02*
X182756788Y-121652278D01*
X180764398Y-121477967D02*
X180938709Y-119485577D01*
X182756788Y-121652278D02*
X182931100Y-119659889D01*
X195714215Y-113413756D02*
X194300001Y-111999541D01*
X197128427Y-109171114D02*
X198542642Y-110585327D01*
X194300000Y-109171114D02*
X195714214Y-107756901D01*
X192885787Y-110585327D02*
X194300000Y-109171114D01*
X180590087Y-65650759D02*
X180764400Y-67643148D01*
X194300000Y-79950000D02*
X195714214Y-81364214D01*
M02*
