0
SECTION
2
HEADER
9
$INSUNITS
70
4
9
$ACADVER
1
AC1014
9
$HANDSEED
5
FFFF
0
ENDSEC
0
SECTION
2
TABLES
0
TABLE
2
VPORT
5
8
100
AcDbSymbolTable
0
ENDTAB
0
TABLE
2
LTYPE
5
5
100
AcDbSymbolTable
0
LTYPE
5
14
100
AcDbSymbolTableRecord
100
AcDbLinetypeTableRecord
2
BYBLOCK
70
0
0
LTYPE
5
15
100
AcDbSymbolTableRecord
100
AcDbLinetypeTableRecord
2
BYLAYER
70
0
0
ENDTAB
0
TABLE
2
LAYER
5
2
100
AcDbSymbolTable
70
2
0
LAYER
5
50
100
AcDbSymbolTableRecord
100
AcDbLayerTableRecord
2
0
70
0
6
CONTINUOUS
0
ENDTAB
0
TABLE
2
STYLE
5
3
100
AcDbSymbolTable
70
1
0
STYLE
5
11
100
AcDbSymbolTableRecord
100
AcDbTextStyleTableRecord
2
STANDARD
70
0
0
ENDTAB
0
TABLE
2
VIEW
5
6
100
AcDbSymbolTable
70
0
0
ENDTAB
0
TABLE
2
UCS
5
7
100
AcDbSymbolTable
70
0
0
ENDTAB
0
TABLE
2
APPID
5
9
100
AcDbSymbolTable
70
2
0
APPID
5
12
100
AcDbSymbolTableRecord
100
AcDbRegAppTableRecord
2
ACAD
70
0
0
ENDTAB
0
TABLE
2
DIMSTYLE
5
A
100
AcDbSymbolTable
70
1
0
ENDTAB
0
TABLE
2
BLOCK_RECORD
5
1
100
AcDbSymbolTable
70
1
0
BLOCK_RECORD
5
1F
100
AcDbSymbolTableRecord
100
AcDbBlockTableRecord
2
*MODEL_SPACE
0
BLOCK_RECORD
5
1B
100
AcDbSymbolTableRecord
100
AcDbBlockTableRecord
2
*PAPER_SPACE
0
ENDTAB
0
ENDSEC
0
SECTION
2
BLOCKS
0
BLOCK
5
20
100
AcDbEntity
100
AcDbBlockBegin
2
*MODEL_SPACE
0
ENDBLK
5
21
100
AcDbEntity
100
AcDbBlockEnd
0
BLOCK
5
1C
100
AcDbEntity
100
AcDbBlockBegin
2
*PAPER_SPACE
0
ENDBLK
5
1D
100
AcDbEntity
100
AcDbBlockEnd
0
ENDSEC
0
SECTION
2
ENTITIES
0
LWPOLYLINE
5
100
100
AcDbEntity
8
0
100
AcDbPolyline
90
15
70
1
43
0.0
10
-22.199999999999996
20
-25.999999999999993
10
-22.199999999999996
20
26.999999999999996
10
-34.200000000000003
20
29.600000000000001
10
-34.200000000000003
20
36.600000000000001
10
34.200000000000003
20
36.600000000000001
10
34.200000000000003
20
31.999999999999996
10
34.200000000000003
20
29.600000000000001
10
22.199999999999996
20
26.999999999999993
10
22.199999999999992
20
-25.999999999999996
42
0.41421356237309115
10
23.199999999999999
20
-26.999999999999996
10
35.38587288735436
20
-26.999999999999996
42
-0.42251290167838584
10
36.385473816375665
20
-28.028248587570708
42
-0.97213936503720644
10
-36.385473816375665
20
-28.028248587570602
42
-0.42251290167838318
10
-35.38587288735436
20
-26.999999999999996
10
-23.199999999999999
20
-26.999999999999996
42
0.4142135623730937
0
CIRCLE
5
101
100
AcDbEntity
8
0
100
AcDbCircle
10
-20.199999999999996
20
13.499999999999996
30
0
40
1.1000000000000001
210
0
220
0
230
1
0
CIRCLE
5
102
100
AcDbEntity
8
0
100
AcDbCircle
10
-20.199999999999996
20
-13.499999999999996
30
0
40
1.1000000000000001
210
0
220
0
230
1
0
CIRCLE
5
103
100
AcDbEntity
8
0
100
AcDbCircle
10
20.200000000000003
20
13.499999999999996
30
0
40
1.1000000000000001
210
0
220
0
230
1
0
CIRCLE
5
104
100
AcDbEntity
8
0
100
AcDbCircle
10
20.200000000000003
20
-13.499999999999996
30
0
40
1.1000000000000001
210
0
220
0
230
1
0
CIRCLE
5
105
100
AcDbEntity
8
0
100
AcDbCircle
10
0
20
-30
30
0
40
8
210
0
220
0
230
1
0
LWPOLYLINE
5
106
100
AcDbEntity
8
0
100
AcDbPolyline
90
5
70
1
43
0.0
10
17.438984449170711
20
-51.539406885678297
10
16.024770886797612
20
-52.953620448051382
10
14.610557324424512
20
-54.367834010424481
10
16.024770886797622
20
-55.78204757279758
10
18.853198011543803
20
-52.953620448051389
0
LWPOLYLINE
5
107
100
AcDbEntity
8
0
100
AcDbPolyline
90
5
70
1
43
0.0
10
16.024770886797612
20
-50.125193323305197
10
14.610557324424519
20
-51.539406885678297
10
13.19634376205142
20
-52.953620448051382
10
11.782130199678328
20
-51.539406885678297
10
14.610557324424507
20
-48.710979760932098
0
CIRCLE
5
108
100
AcDbEntity
8
0
100
AcDbCircle
10
-4.4541293902257811e-14
20
-50.765999999999991
30
0
40
1.1000000000000032
210
0
220
0
230
1
0
LWPOLYLINE
5
109
100
AcDbEntity
8
0
100
AcDbPolyline
90
5
70
1
43
0.0
10
29.084110212595448
20
-39.821883212596425
10
27.091720816411957
20
-39.996194698091742
10
25.099331420228467
20
-40.170506183587058
10
25.273642905723786
20
-42.162895579770556
10
29.258421698090768
20
-41.814272608779916
0
LWPOLYLINE
5
110
100
AcDbEntity
8
0
100
AcDbPolyline
90
5
70
1
43
0.0
10
28.909798727100128
20
-37.829493816412935
10
26.917409330916637
20
-38.003805301908258
10
24.925019934733143
20
-38.178116787403567
10
24.75070844923782
20
-36.185727391220077
10
28.735487241604805
20
-35.837104420229437
0
LWPOLYLINE
5
111
100
AcDbEntity
8
0
100
AcDbPolyline
90
5
70
1
43
0.0
10
-13.196343762051516
20
-52.953620448051367
10
-11.782130199678424
20
-51.539406885678289
10
-14.610557324424601
20
-48.710979760932091
10
-16.024770886797704
20
-50.125193323305183
10
-14.610557324424619
20
-51.539406885678289
0
LWPOLYLINE
5
112
100
AcDbEntity
8
0
100
AcDbPolyline
90
5
70
1
43
0.0
10
-14.610557324424608
20
-54.367834010424474
10
-16.024770886797718
20
-55.782047572797566
10
-18.853198011543903
20
-52.953620448051375
10
-17.438984449170807
20
-51.539406885678282
10
-16.024770886797711
20
-52.953620448051367
0
LWPOLYLINE
5
113
100
AcDbEntity
8
0
100
AcDbPolyline
90
5
70
1
43
0.0
10
-29.084110212595533
20
-39.821883212596397
10
-27.091720816412035
20
-39.996194698091713
10
-25.099331420228552
20
-40.17050618358703
10
-25.273642905723868
20
-42.162895579770527
10
-29.258421698090853
20
-41.814272608779888
0
LWPOLYLINE
5
114
100
AcDbEntity
8
0
100
AcDbPolyline
90
5
70
1
43
0.0
10
-26.917409330916719
20
-38.00380530190823
10
-24.925019934733221
20
-38.178116787403546
10
-24.750708449237901
20
-36.185727391220055
10
-28.735487241604886
20
-35.837104420229416
10
-28.909798727100213
20
-37.829493816412906
0
ENDSEC
0
SECTION
2
OBJECTS
0
DICTIONARY
5
C
100
AcDbDictionary
3
ACAD_GROUP
350
D
3
ACAD_MLINESTYLE
350
17
0
DICTIONARY
5
D
100
AcDbDictionary
0
DICTIONARY
5
1A
330
C
100
AcDbDictionary
0
DICTIONARY
5
17
100
AcDbDictionary
0
ENDSEC
0
EOF
