0
SECTION
2
HEADER
9
$INSUNITS
70
4
9
$ACADVER
1
AC1014
9
$HANDSEED
5
FFFF
0
ENDSEC
0
SECTION
2
TABLES
0
TABLE
2
VPORT
5
8
100
AcDbSymbolTable
0
ENDTAB
0
TABLE
2
LTYPE
5
5
100
AcDbSymbolTable
0
LTYPE
5
14
100
AcDbSymbolTableRecord
100
AcDbLinetypeTableRecord
2
BYBLOCK
70
0
0
LTYPE
5
15
100
AcDbSymbolTableRecord
100
AcDbLinetypeTableRecord
2
BYLAYER
70
0
0
ENDTAB
0
TABLE
2
LAYER
5
2
100
AcDbSymbolTable
70
2
0
LAYER
5
50
100
AcDbSymbolTableRecord
100
AcDbLayerTableRecord
2
0
70
0
6
CONTINUOUS
0
ENDTAB
0
TABLE
2
STYLE
5
3
100
AcDbSymbolTable
70
1
0
STYLE
5
11
100
AcDbSymbolTableRecord
100
AcDbTextStyleTableRecord
2
STANDARD
70
0
0
ENDTAB
0
TABLE
2
VIEW
5
6
100
AcDbSymbolTable
70
0
0
ENDTAB
0
TABLE
2
UCS
5
7
100
AcDbSymbolTable
70
0
0
ENDTAB
0
TABLE
2
APPID
5
9
100
AcDbSymbolTable
70
2
0
APPID
5
12
100
AcDbSymbolTableRecord
100
AcDbRegAppTableRecord
2
ACAD
70
0
0
ENDTAB
0
TABLE
2
DIMSTYLE
5
A
100
AcDbSymbolTable
70
1
0
ENDTAB
0
TABLE
2
BLOCK_RECORD
5
1
100
AcDbSymbolTable
70
1
0
BLOCK_RECORD
5
1F
100
AcDbSymbolTableRecord
100
AcDbBlockTableRecord
2
*MODEL_SPACE
0
BLOCK_RECORD
5
1B
100
AcDbSymbolTableRecord
100
AcDbBlockTableRecord
2
*PAPER_SPACE
0
ENDTAB
0
ENDSEC
0
SECTION
2
BLOCKS
0
BLOCK
5
20
100
AcDbEntity
100
AcDbBlockBegin
2
*MODEL_SPACE
0
ENDBLK
5
21
100
AcDbEntity
100
AcDbBlockEnd
0
BLOCK
5
1C
100
AcDbEntity
100
AcDbBlockBegin
2
*PAPER_SPACE
0
ENDBLK
5
1D
100
AcDbEntity
100
AcDbBlockEnd
0
ENDSEC
0
SECTION
2
ENTITIES
0
LWPOLYLINE
5
100
100
AcDbEntity
8
0
100
AcDbPolyline
90
15
70
1
43
0.0
10
-22.199999999999996
20
-25.999999999999993
10
-22.199999999999996
20
26.999999999999996
10
-34.200000000000003
20
29.600000000000001
10
-34.200000000000003
20
36.600000000000001
10
34.200000000000003
20
36.600000000000001
10
34.200000000000003
20
31.999999999999996
10
34.200000000000003
20
29.600000000000001
10
22.199999999999996
20
26.999999999999993
10
22.199999999999992
20
-25.999999999999996
42
0.41421356237309115
10
23.199999999999999
20
-26.999999999999996
10
35.38587288735436
20
-26.999999999999996
42
-0.42251290167838584
10
36.385473816375665
20
-28.028248587570708
42
-0.97213936503720644
10
-36.385473816375665
20
-28.028248587570602
42
-0.42251290167838318
10
-35.38587288735436
20
-26.999999999999996
10
-23.199999999999999
20
-26.999999999999996
42
0.4142135623730937
0
CIRCLE
5
101
100
AcDbEntity
8
0
100
AcDbCircle
10
0
20
-30
30
0
40
14.999999999999993
210
0
220
0
230
1
0
LWPOLYLINE
5
102
100
AcDbEntity
8
0
100
AcDbPolyline
90
5
70
1
43
0.0
10
30.597143023666785
20
-34.168500887596494
10
30.98934386603127
20
-38.651377029009339
10
31.381544708395758
20
-43.134253170422184
10
23.411987123661802
20
-43.831499112403506
10
22.627585438932822
20
-34.865746829577802
0
LWPOLYLINE
5
103
100
AcDbEntity
8
0
100
AcDbPolyline
90
5
70
1
43
0.0
10
21.328071745696722
20
-52.600067057458148
10
18.146091230357275
20
-49.418086542118658
10
14.964110715017833
20
-46.236106026779176
10
9.3072564655254197
20
-51.892960276271523
10
15.67121749620431
20
-58.256921306950495
0
LWPOLYLINE
5
104
100
AcDbEntity
8
0
100
AcDbPolyline
90
5
70
1
43
0.0
10
-30.98934386603127
20
-38.651377029009339
10
-31.381544708395758
20
-43.134253170422184
10
-23.411987123661802
20
-43.831499112403506
10
-22.627585438932822
20
-34.865746829577795
10
-30.597143023666785
20
-34.168500887596487
0
LWPOLYLINE
5
105
100
AcDbEntity
8
0
100
AcDbPolyline
90
5
70
1
43
0.0
10
-21.328071745696722
20
-52.600067057458148
10
-18.146091230357278
20
-49.418086542118658
10
-14.964110715017839
20
-46.236106026779176
10
-9.3072564655254233
20
-51.892960276271523
10
-15.671217496204315
20
-58.256921306950495
0
CIRCLE
5
106
100
AcDbEntity
8
0
100
AcDbCircle
10
-4.4541293902257811e-14
20
-50.765999999999991
30
0
40
1.9999999999999976
210
0
220
0
230
1
0
LINE
5
107
100
AcDbEntity
8
0
100
AcDbLine
10
-22.199999999999996
20
17.499999999999996
30
0
11
-18.199999999999999
21
17.499999999999996
31
0
0
LINE
5
108
100
AcDbEntity
8
0
100
AcDbLine
10
-18.199999999999999
20
17.499999999999996
30
0
11
-18.199999999999999
21
-21.500000000000007
31
0
0
LINE
5
109
100
AcDbEntity
8
0
100
AcDbLine
10
-18.199999999999999
20
-21.500000000000007
30
0
11
-22.199999999999996
21
-21.500000000000007
31
0
0
LINE
5
110
100
AcDbEntity
8
0
100
AcDbLine
10
18.199999999999999
20
-21.500000000000007
30
0
11
22.199999999999996
21
-21.500000000000007
31
0
0
LINE
5
111
100
AcDbEntity
8
0
100
AcDbLine
10
18.199999999999999
20
17.499999999999996
30
0
11
18.199999999999999
21
-21.500000000000007
31
0
0
LINE
5
112
100
AcDbEntity
8
0
100
AcDbLine
10
22.199999999999996
20
17.499999999999996
30
0
11
18.199999999999999
21
17.499999999999996
31
0
0
LINE
5
113
100
AcDbEntity
8
0
100
AcDbLine
10
-18.199999999999999
20
8.5
30
0
11
-0.49999999999999822
21
8.5
31
0
0
LINE
5
114
100
AcDbEntity
8
0
100
AcDbLine
10
-18.199999999999999
20
-8.5
30
0
11
-0.49999999999999822
21
-8.5
31
0
0
LINE
5
115
100
AcDbEntity
8
0
100
AcDbLine
10
-0.49999999999999822
20
-8.5
30
0
11
-0.49999999999999822
21
8.5
31
0
0
LINE
5
116
100
AcDbEntity
8
0
100
AcDbLine
10
18.199999999999999
20
-8.5
30
0
11
0.49999999999999822
21
-8.5
31
0
0
LINE
5
117
100
AcDbEntity
8
0
100
AcDbLine
10
18.199999999999999
20
8.5
30
0
11
0.49999999999999822
21
8.5
31
0
0
LINE
5
118
100
AcDbEntity
8
0
100
AcDbLine
10
0.49999999999999822
20
-8.5
30
0
11
0.49999999999999822
21
8.5
31
0
0
ENDSEC
0
SECTION
2
OBJECTS
0
DICTIONARY
5
C
100
AcDbDictionary
3
ACAD_GROUP
350
D
3
ACAD_MLINESTYLE
350
17
0
DICTIONARY
5
D
100
AcDbDictionary
0
DICTIONARY
5
1A
330
C
100
AcDbDictionary
0
DICTIONARY
5
17
100
AcDbDictionary
0
ENDSEC
0
EOF
